<?xml version="1.0" encoding="utf-8"?>
<!-- Generator: Adobe Illustrator 22.1.0, SVG Export Plug-In . SVG Version: 6.00 Build 0)  -->
<svg version="1.1" id="Layer_1" xmlns="http://www.w3.org/2000/svg" xmlns:xlink="http://www.w3.org/1999/xlink" x="0px" y="0px"
	 viewBox="0 0 117 120" style="enable-background:new 0 0 117 120;" xml:space="preserve">
<style type="text/css">
	.st0{clip-path:url(#SVGID_2_);}
	.st1{fill:#D2C98B;stroke:#1D1E1C;stroke-width:1.62;stroke-miterlimit:10;}
	.st2{fill:#3B1936;stroke:#1D1E1C;stroke-width:1.62;stroke-miterlimit:10;}
	.st3{fill:#D42F2D;stroke:#1D1E1C;stroke-width:1.62;stroke-miterlimit:10;}
	.st4{fill:#C5BB54;stroke:#1D1E1C;stroke-width:1.62;stroke-miterlimit:10;}
	.st5{fill:#EAE4A5;stroke:#1D1E1C;stroke-width:1.62;stroke-miterlimit:10;}
	.st6{stroke:#1D1E1C;stroke-width:1.62;stroke-miterlimit:10;}
	.st7{fill:#272727;stroke:#1D1E1C;stroke-width:1.62;stroke-miterlimit:10;}
	.st8{fill:#1F2E51;}
	.st9{fill:#FFFFFF;}
	.st10{fill:#4A4646;}
	.st11{fill:#1D1E1C;}
	.st12{fill:none;stroke:#1D1E1C;stroke-width:1.62;stroke-miterlimit:10;}
	.st13{fill:none;stroke:#000000;stroke-width:5.63;stroke-miterlimit:10;}
	.st14{fill:none;stroke:#000000;stroke-width:3.38;stroke-miterlimit:10;}
	.st15{fill:#D42F2D;}
</style>
<g id="Layer_2_1_">
	<g>
		<defs>
			<path id="SVGID_1_" d="M109.4,40.3c0.2-0.2,0.4-0.4,0.6-0.6c0.5-0.6,0.9-1.2,1.3-1.9c0.3-0.6,0.6-1.2,0.8-1.8
				c0.2-0.6,0.4-1.1,0.5-1.5c0.1-0.3,0.1-0.5,0.2-0.6c0.2-0.4,0.2-0.9,0-1.3c-0.2-0.4-0.5-0.8-0.9-0.9c-0.2-0.1-0.4-0.1-0.5-0.1
				c-0.3,0-0.6,0.1-0.8,0.2c-0.3,0.2-0.6,0.5-0.7,0.8c-0.1,0.3-0.2,0.5-0.3,0.8c-0.1,0.3-0.2,0.6-0.3,0.9c-0.2,0.4-0.3,0.8-0.6,1.2
				c-0.2,0.4-0.4,0.7-0.7,1c-0.2,0.2-0.4,0.4-0.6,0.5c-0.1-0.2-0.3-0.4-0.4-0.6c-0.3-0.5-0.7-1-1-1.4c1-0.2,2-0.7,2.6-1.5
				c0.8-1,1.2-2.3,1.2-4.1c0-0.9-0.2-1.7-0.5-2.5c-0.3-0.8-0.9-1.4-1.6-1.8c-0.4-0.2-0.9-0.3-1.3-0.4c-0.4-0.1-0.8-0.1-1.3-0.1h-0.2
				c-0.6,0-1.1,0.1-1.6,0.2c-0.6,0.1-1.1,0.4-1.6,0.8l0,0c-0.4,0.4-0.8,0.9-1.1,1.4c-0.2,0.3-0.4,0.6-0.6,1
				c-0.3-0.3-0.6-0.6-0.9-0.8l-0.6-0.6c0.5-0.4,0.7-1.1,0.7-1.7c0-0.5-0.1-1-0.4-1.4c-0.2-0.4-0.5-0.8-0.9-1.2
				c-0.4-0.4-0.8-0.7-1.2-1c-0.5-0.3-1.1-0.4-1.6-0.4c-0.4,0-0.7,0-1,0c-0.3,0-0.6,0-0.8,0.1c-0.1-0.9-0.3-1.8-0.6-2.7
				c-0.8-2.1-2.5-3.8-4.6-4.7c-0.9-0.4-1.8-0.6-2.7-0.8c-0.8-0.2-1.6-0.3-2.5-0.3c-0.7,0-1.3,0-1.7,0c-1.5,0-3.1,0.2-4.5,0.6
				c-0.6,0.2-1.2,0.4-1.7,0.6c-2.2-0.6-4.5-1-6.8-1.4c-0.8-0.1-1.3-0.2-2.1-0.3c-0.5-4.6-1.7-8.2-3.4-10.3C61.4,0.7,60,0,58.7,0
				c-1.6,0-2.9,0.8-3.9,2c-1.8,2-2.9,5.7-3.3,10.5c-0.7,0.1-1,0.2-1.7,0.3c-2.1,0.4-4.1,0.9-6.2,1.5l-0.4,0.1
				c-0.1-0.2-0.2-0.5-0.3-0.7c-0.3-0.5-0.6-0.9-1-1.3c-0.4-0.4-0.9-0.7-1.4-1c-0.6-0.3-1.2-0.5-1.9-0.5c-1.2,0-2.5,0.1-3.7,0.3
				c-1.4,0.2-3,0.5-4.7,0.9c-1.7,0.4-3.4,0.8-5.2,1.4s-3.6,1.2-5.4,1.8c-1.8,0.7-3.4,1.4-5,2.2c-1.5,0.7-2.9,1.6-4.3,2.6
				c-1.2,0.9-2.2,1.9-3.1,3.1c-0.8,1.1-1.3,2.4-1.3,3.8c0,0.6,0.2,1.1,0.6,1.4c0.3,0.2,0.6,0.3,1,0.3c0.2,0,0.4,0,0.6-0.1
				c0.4-0.1,0.7-0.4,0.9-0.7c0.2-0.3,0.4-0.8,0.4-1.2c0.1-0.3,0.2-0.5,0.4-0.7c0.6-0.6,1.2-1,1.9-1.4c1-0.6,2-1.1,3.1-1.6
				c0.5-0.2,1-0.4,1.5-0.7c-0.1,0.3-0.1,0.6-0.1,0.9c-0.7,0.3-1.3,0.6-1.9,1c-0.7,0.4-1.6,1.1-1.6,2.1c0,0.4,0.1,0.8,0.3,1.2
				c0.2,0.3,0.4,0.6,0.6,0.8c0.2,0.2,0.5,0.4,0.8,0.6c0.4,0.2,0.7,0.3,1.1,0.3c0,0.3,0,0.7,0,1c0,0.1,0,0.1,0,0.2l0,0
				c-2.3,2.3-4.3,4.9-6.2,7.6c-3.1,4.6-3.7,58.6-3.2,59.6c-3.3,2.9-5.6,5.7-6.2,8.2c-0.4,1.5-0.3,3,0.4,4.1c0.7,1.1,1.7,1.9,3.3,2.1
				c0.3,0,1.1,0.1,1.4,0.1c2.5,0,5.7-1.1,9.2-3c1.2,1.4,19,10.7,44.4,10.7c32,0,33.4-6.5,43.1-10.9c3.7,2.1,7.1,3.3,9.7,3.3
				c0.3,0,0.6,0,0.8,0c0.7-0.1,1.5-0.3,2.1-0.6c0.6-0.3,1.2-0.8,1.6-1.4c0.7-1.1,1-2.6,0.6-4.1c-0.7-2.6-3.1-5.8-6.8-8.9
				C112.4,92.8,110.6,42.4,109.4,40.3z M92.7,27.1c0.1-0.3,0.1-0.7,0.2-1l0.2,0.1c0.3,0.2,0.6,0.3,1,0.5h0c-0.1,0-0.3,0-0.4,0
				C93.3,26.8,93,26.9,92.7,27.1z M98.3,35.8c-0.1,0.2-0.2,0.3-0.3,0.5c0-0.2-0.1-0.4-0.1-0.6l0.4-0.3c0,0.1,0,0.1,0,0.2L98.3,35.8z
				 M83.3,16.7c0.5,0.2,0.9,0.4,1.3,0.7c0,0,0.1,0.1,0.1,0.1c-0.7-0.3-1.5-0.7-2.2-1C82.8,16.6,83.1,16.6,83.3,16.7L83.3,16.7z
				 M28.4,108.9L28.4,108.9L28.4,108.9L28.4,108.9L28.4,108.9z M24.1,20.4c0.1-0.2,0.1-0.4,0.1-0.6c0.6-0.2,1.2-0.4,1.9-0.5
				c0,0.1,0,0.3,0,0.6c0,0.1,0,0.2,0,0.3c-0.2,0-0.4,0.1-0.6,0.1c-0.4,0.1-0.9,0.2-1.3,0.3C24.1,20.5,24.1,20.5,24.1,20.4z
				 M32.8,18.5L32.8,18.5l-0.6,0.3c-0.1-0.3-0.2-0.6-0.4-0.9c0.3-0.1,0.6-0.1,0.9-0.2c1.1-0.2,2.2-0.4,3.1-0.6l0.4-0.1L36,17.2
				C35.1,17.5,34,17.9,32.8,18.5z"/>
		</defs>
		<clipPath id="SVGID_2_">
			<use xlink:href="#SVGID_1_"  style="overflow:visible;"/>
		</clipPath>
		<g class="st0">
			<g id="_Group_">
				<g id="_Group_2">
					<ellipse id="_Path_" class="st1" cx="58.6" cy="70.1" rx="34" ry="33.8"/>
				</g>
				<g id="_Group_3">
					<path id="_Compound_Path_" class="st2" d="M58.5,105.2c-19.5,0-35.2-15.8-35.2-35.1s15.8-35,35.3-35
						c19.5,0,35.2,15.8,35.2,35.1C93.8,89.5,78,105.2,58.5,105.2z M58.6,37.5c-18.1,0-32.8,14.6-32.8,32.6c0,18,14.6,32.6,32.7,32.7
						c18.1,0,32.8-14.6,32.8-32.6C91.4,52.2,76.7,37.6,58.6,37.5L58.6,37.5z"/>
				</g>
				<g id="_Group_4">
					<ellipse id="_Path_2" class="st3" cx="58.6" cy="70.1" rx="24.9" ry="24.7"/>
				</g>
				<g id="_Group_5">
					<path id="_Compound_Path_2" class="st2" d="M58.5,96.1c-14.4,0-26.1-11.7-26.1-26c0-14.3,11.7-25.9,26.1-25.9
						s26.1,11.7,26.1,26c0,0,0,0,0,0C84.6,84.5,72.9,96.1,58.5,96.1z M58.6,46.6c-13.1,0-23.7,10.5-23.7,23.5s10.5,23.5,23.6,23.6
						c13.1,0,23.7-10.5,23.7-23.5C82.2,57.2,71.7,46.7,58.6,46.6L58.6,46.6z"/>
				</g>
				<g id="_Group_6">
					<path id="_Compound_Path_3" class="st2" d="M57.2,90.1L57.2,90.1l-0.4,0c-0.5,0-0.8-0.5-0.8-0.9c0-0.5,0.5-0.8,0.9-0.8l0.3,0
						c0.5,0,0.9,0.4,0.8,0.9C58.1,89.8,57.7,90.1,57.2,90.1L57.2,90.1L57.2,90.1z M62.1,89.8c-0.5,0-0.9-0.3-1-0.8
						c0-0.5,0.3-0.9,0.8-0.9l0.3-0.1c0.5-0.1,0.9,0.2,1,0.7c0.1,0.5-0.2,0.9-0.7,1l-0.4,0.1C62.2,89.8,62.2,89.8,62.1,89.8
						L62.1,89.8z M52.1,89.1c-0.1,0-0.2,0-0.3-0.1l-0.3-0.1c-0.5-0.2-0.7-0.7-0.5-1.1c0.2-0.4,0.7-0.7,1.1-0.5l0.3,0.1
						c0.5,0.2,0.7,0.6,0.5,1.1C52.8,88.8,52.5,89.1,52.1,89.1L52.1,89.1z M67.1,88.2c-0.5,0-0.9-0.4-0.9-0.9c0-0.3,0.2-0.7,0.5-0.8
						l0.3-0.2c0.4-0.2,1-0.1,1.2,0.4c0.2,0.4,0.1,1-0.4,1.2l-0.3,0.2C67.4,88.2,67.2,88.2,67.1,88.2z M47.5,86.7
						c-0.2,0-0.4-0.1-0.5-0.2l-0.3-0.2c-0.4-0.3-0.5-0.8-0.2-1.2c0.3-0.4,0.8-0.5,1.2-0.2l0.3,0.2c0.4,0.3,0.5,0.8,0.2,1.2
						C48,86.5,47.8,86.7,47.5,86.7L47.5,86.7z M71.4,85.3c-0.2,0-0.5-0.1-0.6-0.3c-0.3-0.4-0.3-0.9,0.1-1.2c0,0,0,0,0,0l0.2-0.2
						c0.4-0.3,0.9-0.3,1.2,0c0.3,0.4,0.3,0.9,0,1.2L72,85C71.9,85.2,71.6,85.3,71.4,85.3z M43.6,83.1c-0.3,0-0.5-0.1-0.7-0.3
						c-0.1-0.1-0.2-0.2-0.2-0.3c-0.3-0.4-0.2-0.9,0.2-1.2c0.4-0.3,0.9-0.2,1.2,0.2l0.2,0.3c0.3,0.4,0.3,0.9-0.1,1.2
						C44,83,43.8,83.1,43.6,83.1L43.6,83.1z M74.8,81.3c-0.5,0-0.9-0.4-0.9-0.9c0-0.2,0-0.3,0.1-0.5l0.2-0.3
						c0.3-0.4,0.8-0.5,1.2-0.3c0.4,0.3,0.5,0.8,0.3,1.2l-0.2,0.3C75.4,81.1,75.1,81.3,74.8,81.3L74.8,81.3z M40.9,78.6
						c-0.3,0-0.7-0.2-0.8-0.5L40,77.8c-0.2-0.4,0-1,0.5-1.1s1,0,1.1,0.5c0,0.1,0.1,0.2,0.1,0.3c0.2,0.4,0,1-0.4,1.1
						C41.1,78.6,41,78.6,40.9,78.6L40.9,78.6z M77,76.5c-0.1,0-0.2,0-0.3,0c-0.5-0.1-0.7-0.6-0.6-1.1c0,0,0,0,0,0l0.1-0.3
						c0.1-0.5,0.6-0.7,1.1-0.6c0.5,0.1,0.7,0.6,0.6,1.1c0,0.1-0.1,0.2-0.1,0.4C77.7,76.3,77.4,76.5,77,76.5z M39.5,73.6
						c-0.4,0-0.8-0.3-0.9-0.8c0-0.1,0-0.2,0-0.4c-0.1-0.5,0.3-0.9,0.8-1c0.5-0.1,0.9,0.3,1,0.8c0,0.1,0,0.2,0,0.3
						c0.1,0.5-0.3,0.9-0.7,1c0,0,0,0,0,0C39.6,73.6,39.5,73.6,39.5,73.6L39.5,73.6z M77.8,71.4L77.8,71.4c-0.5,0-0.9-0.4-0.9-0.9
						c0,0,0,0,0,0c0-0.1,0-0.2,0-0.3v-0.1c0-0.5,0.4-0.9,0.9-0.9s0.9,0.4,0.9,0.9l0,0v0.1c0,0.1,0,0.3,0,0.4
						C78.7,71,78.3,71.4,77.8,71.4z M39.5,68.4c0,0-0.1,0-0.1,0c-0.5-0.1-0.8-0.5-0.8-1c0,0,0,0,0,0c0-0.1,0-0.2,0.1-0.4
						c0.1-0.5,0.5-0.8,1-0.7s0.8,0.5,0.7,1l0,0c0,0.1,0,0.2,0,0.3C40.3,68.1,39.9,68.4,39.5,68.4L39.5,68.4z M77.2,66.1
						c-0.4,0-0.7-0.3-0.8-0.7l-0.1-0.3c-0.1-0.5,0.1-0.9,0.6-1.1c0.5-0.1,0.9,0.1,1.1,0.6l0,0L78,65c0.1,0.5-0.2,0.9-0.6,1.1
						C77.3,66.1,77.3,66.1,77.2,66.1z M40.9,63.4c-0.1,0-0.2,0-0.3-0.1c-0.4-0.2-0.7-0.7-0.5-1.1c0,0,0,0,0,0l0.1-0.3
						c0.2-0.4,0.7-0.6,1.2-0.4c0.4,0.2,0.6,0.7,0.4,1.2l0,0l-0.1,0.3C41.6,63.2,41.2,63.4,40.9,63.4L40.9,63.4z M75.2,61.3
						c-0.3,0-0.6-0.2-0.8-0.4c-0.1-0.1-0.1-0.2-0.2-0.3c-0.3-0.4-0.1-0.9,0.3-1.2s1-0.1,1.2,0.3c0.1,0.1,0.1,0.2,0.2,0.3
						c0.2,0.4,0.1,0.9-0.3,1.2c0,0,0,0,0,0C75.5,61.3,75.3,61.3,75.2,61.3z M43.6,58.9c-0.2,0-0.4-0.1-0.5-0.2
						c-0.4-0.3-0.4-0.8-0.1-1.2c0,0,0,0,0,0l0.2-0.3c0.3-0.4,0.9-0.4,1.2-0.1c0.4,0.3,0.4,0.9,0.1,1.2l0,0l-0.2,0.3
						C44.1,58.8,43.9,58.9,43.6,58.9z M71.9,57.2c-0.2,0-0.4-0.1-0.6-0.2l-0.2-0.2c-0.4-0.3-0.4-0.9,0-1.2c0.3-0.4,0.9-0.4,1.2,0
						l0.3,0.3c0.3,0.3,0.4,0.9,0,1.2c0,0,0,0,0,0C72.4,57.1,72.2,57.2,71.9,57.2L71.9,57.2z M47.5,55.4c-0.5,0-0.9-0.4-0.9-0.9
						c0-0.3,0.1-0.6,0.4-0.7l0.3-0.2c0.4-0.3,0.9-0.2,1.2,0.2c0.3,0.4,0.2,0.9-0.2,1.2L48,55.2C47.8,55.3,47.6,55.4,47.5,55.4
						L47.5,55.4z M67.7,54.1c-0.1,0-0.3,0-0.4-0.1L67,53.9c-0.4-0.2-0.6-0.7-0.4-1.2c0.2-0.4,0.7-0.6,1.2-0.4l0.3,0.2
						c0.4,0.2,0.6,0.7,0.4,1.2C68.4,54,68.1,54.2,67.7,54.1L67.7,54.1z M52.1,53c-0.5,0-0.9-0.4-0.9-0.9c0-0.4,0.2-0.7,0.6-0.8
						l0.3-0.1c0.5-0.2,1,0.1,1.1,0.5c0.2,0.5-0.1,0.9-0.5,1.1l-0.3,0.1C52.3,52.9,52.2,53,52.1,53z M62.8,52.3c-0.1,0-0.1,0-0.2,0
						c-0.1,0-0.2,0-0.3-0.1c-0.5-0.1-0.8-0.6-0.7-1c0.1-0.5,0.6-0.8,1-0.7l0.4,0.1c0.5,0.1,0.8,0.5,0.7,1
						C63.6,52,63.2,52.3,62.8,52.3L62.8,52.3z M57.2,51.9c-0.5,0-0.9-0.4-0.9-0.8c0-0.5,0.4-0.9,0.8-0.9l0.4,0
						c0.5,0,0.9,0.3,0.9,0.8c0,0.5-0.3,0.9-0.8,0.9L57.2,51.9L57.2,51.9z"/>
				</g>
				<g id="_Group_7">
					<ellipse id="_Path_3" class="st2" cx="58.6" cy="70.1" rx="15.7" ry="15.6"/>
				</g>
				<g id="_Group_8">
					<path id="_Path_4" class="st4" d="M62.6,71.3c0.6-2.2-0.7-4.5-2.9-5.1C59.3,66,59,66,58.6,66c-2.3,0-4.2,1.8-4.2,4.2
						c0,0.5,0.1,0.9,0.2,1.3l0,0c0,0,1.8-1.3,4-1.3C60,70.2,61.4,70.6,62.6,71.3z"/>
				</g>
				<g id="_Group_9">
					<path id="_Compound_Path_4" class="st4" d="M58.5,83.2c-7.3,0-13.1-5.9-13.1-13.1c0-7.2,5.9-13.1,13.2-13
						c7.3,0,13.1,5.9,13.1,13.1C71.7,77.4,65.8,83.2,58.5,83.2z M58.6,58.5c-6.5,0-11.7,5.2-11.7,11.6c0,6.4,5.2,11.7,11.7,11.7
						c6.5,0,11.7-5.2,11.7-11.6C70.3,63.7,65.1,58.5,58.6,58.5L58.6,58.5z"/>
				</g>
				<g id="_Group_10">
					<path id="_Compound_Path_5" class="st4" d="M58.6,74.7c-2.5,0-4.5-2-4.5-4.5c0-2.5,2-4.5,4.6-4.5c2.5,0,4.5,2,4.5,4.5
						c0,0,0,0,0,0C63.1,72.6,61.1,74.7,58.6,74.7z M58.6,66.3c-2.1,0-3.9,1.7-3.9,3.8c0,2.1,1.7,3.8,3.8,3.8c2.1,0,3.9-1.7,3.9-3.8
						C62.4,68,60.7,66.3,58.6,66.3L58.6,66.3z"/>
				</g>
				<g id="_Group_11">
					<g id="_Group_12">
						<g id="_Group_13">
							<path id="_Path_5" class="st5" d="M58.7,1.3c-4.7,0-8,10.4-5,29.8S56.5,63,56.5,63h4.2c0,0-0.2-12.4,2.9-31.9
								C66.6,11.6,63.3,1.3,58.7,1.3z"/>
						</g>
						<g id="_Group_14">
							<path id="_Path_6" class="st3" d="M58.7,1.3c-4.6,0-7.9,10.3-5,29.5c3.3-0.4,6.6-0.4,9.9,0C66.6,11.5,63.3,1.3,58.7,1.3z"/>
						</g>
						<g id="_Group_15">
							<path id="_Compound_Path_6" class="st6" d="M61.7,64h-6.2l0-1c0-0.1,0.2-12.6-2.8-31.7c-2.2-14-1.3-24.9,2.4-29.2
								c1-1.2,2.2-1.8,3.5-1.8c1.3,0,2.5,0.6,3.5,1.8c3.7,4.3,4.5,15.2,2.3,29.2c-3,19.2-2.9,31.6-2.9,31.7L61.7,64z M57.5,62h2.2
								c0-3.3,0.3-14.8,2.9-31.1c2.5-15.8,0.7-24.6-1.9-27.6c-0.6-0.7-1.3-1.1-2-1.1s-1.4,0.4-2.1,1.1c-2.6,3-4.4,11.8-2,27.6
								C57.2,47.2,57.4,58.7,57.5,62L57.5,62z"/>
						</g>
					</g>
					<g id="_Group_16">
						<g id="_Group_17">
							<path id="_Path_7" class="st5" d="M1.8,109.6c2.7,3.8,13.1,0.6,27.4-13.1s24.7-20.6,24.7-20.6l-1.2-1.7l-1.2-1.7
								c0,0-10.1,7.3-27.9,16S-0.9,105.8,1.8,109.6z"/>
						</g>
						<g id="_Group_18">
							<path id="_Path_8" class="st3" d="M1.8,109.6c2.6,3.8,13,0.6,27.2-12.9c-2.2-2.5-4.1-5.2-5.7-8.1
								C5.7,97.2-0.9,105.8,1.8,109.6z"/>
						</g>
						<g id="_Group_19">
							<path id="_Compound_Path_7" class="st6" d="M5.3,112c-0.3,0-0.5,0-0.8,0c-1.5-0.2-2.8-0.8-3.5-1.9c-0.7-1.1-0.9-2.4-0.5-3.9
								c1.4-5.4,9.9-12.4,22.7-18.6c17.5-8.5,27.7-15.8,27.8-15.9l0.8-0.6l3.5,5l-0.8,0.5c-0.1,0.1-10.5,7.1-24.6,20.5
								C20,106.6,10.9,112,5.3,112z M51.2,73.9c-2.8,1.9-12.4,8.2-27.3,15.5c-14.5,7-20.7,13.6-21.7,17.4c-0.2,0.9-0.2,1.7,0.3,2.3
								l0,0c0.4,0.6,1.1,0.9,2.1,1c3.9,0.4,12.2-3.2,23.9-14.2c11.9-11.4,21.3-18.2,24-20.1L51.2,73.9z"/>
						</g>
					</g>
					<g id="_Group_20">
						<g id="_Group_21">
							<path id="_Path_9" class="st5" d="M115.2,109.7c-2.7,3.8-13.1,0.5-27.4-13.2S63.2,75.9,63.2,75.9l1.2-1.7l1.2-1.7
								c0,0,10.1,7.3,27.9,16S117.9,106,115.2,109.7z"/>
						</g>
						<g id="_Group_22">
							<path id="_Path_10" class="st3" d="M115.2,109.7c-2.7,3.8-13,0.5-27.1-12.9c2.2-2.5,4.1-5.2,5.7-8.1
								C111.3,97.4,117.9,106,115.2,109.7z"/>
						</g>
						<g id="_Group_23">
							<path id="_Compound_Path_8" class="st6" d="M111.7,112.2c-5.7,0-14.8-5.5-24.6-14.9c-14-13.4-24.4-20.5-24.5-20.5l-0.8-0.5
								l3.5-5l0.8,0.6c0.1,0.1,10.3,7.4,27.7,16c12.8,6.3,21.2,13.3,22.6,18.7c0.4,1.5,0.2,2.8-0.6,3.9l0,0c-0.7,1.1-2,1.7-3.5,1.8
								C112.3,112.2,112,112.2,111.7,112.2z M64.6,75.7c2.7,1.9,12,8.8,23.9,20.2c11.6,11.1,19.9,14.7,23.8,14.3
								c1-0.1,1.7-0.4,2.1-1l0,0c0.4-0.6,0.5-1.4,0.3-2.3c-1-3.8-7.2-10.3-21.6-17.4c-14.8-7.3-24.5-13.7-27.2-15.6L64.6,75.7z"/>
						</g>
					</g>
				</g>
				<g id="_Group_24">
					<path id="_Compound_Path_9" class="st4" d="M58.6,77.5c-4.1,0-7.4-3.3-7.4-7.4c0-4.1,3.3-7.4,7.5-7.4c4.1,0,7.4,3.3,7.4,7.4
						C66,74.2,62.7,77.5,58.6,77.5z M58.6,63.8c-3.5,0-6.4,2.8-6.4,6.3c0,3.5,2.8,6.4,6.4,6.4c3.5,0,6.4-2.8,6.4-6.3c0,0,0,0,0,0
						C65,66.6,62.1,63.8,58.6,63.8L58.6,63.8z"/>
				</g>
				<g id="_Group_25">
					<path id="_Path_11" class="st7" d="M17.8,81.1l-0.2-0.6c-0.1-0.4-0.3-1-0.5-1.7c-0.6-2.1-1-4.2-1.2-6.3
						c-0.1-0.7-0.1-1.4-0.1-2.1c0-0.4,0-0.7,0-1.1s0-0.7,0-1.1s0-0.8,0-1.2s0.1-0.8,0.1-1.2c0-0.8,0.1-1.7,0.3-2.5
						c0.1-0.4,0.1-0.8,0.2-1.3c0.1-0.4,0.1-0.8,0.2-1.3c0.2-0.8,0.4-1.7,0.6-2.6s0.5-1.7,0.8-2.5c0.3-0.9,0.6-1.7,1-2.5
						c0.3-0.8,0.8-1.6,1.2-2.4c0.2-0.4,0.4-0.8,0.6-1.2l0.7-1.2l0.3-0.6l0.4-0.5l0.7-1.1c0.5-0.7,1-1.4,1.5-2c0.3-0.3,0.5-0.7,0.8-1
						l0.8-0.9c0.5-0.6,1.1-1.2,1.6-1.7c0.6-0.5,1.1-1.1,1.6-1.5l1.6-1.3c0.2-0.2,0.5-0.4,0.8-0.6l0.8-0.5c0.5-0.3,1-0.7,1.4-1
						c0.9-0.6,1.7-1.1,2.4-1.4c1.4-0.7,2.2-1.1,2.2-1.1s-0.7,0.5-2,1.4c-0.3,0.2-0.7,0.5-1,0.8l-1.2,0.9c-0.4,0.3-0.8,0.7-1.3,1.1
						c-0.5,0.4-0.9,0.8-1.4,1.2L30.1,40c-0.5,0.5-1,1-1.5,1.6s-1,1.1-1.5,1.7l-0.8,0.9c-0.2,0.3-0.5,0.6-0.7,1c-0.5,0.7-1,1.3-1.4,2
						l-0.7,1.1l-0.3,0.5l-0.3,0.6l-0.6,1.1c-0.2,0.4-0.4,0.7-0.6,1.1c-0.4,0.8-0.8,1.5-1.1,2.3c-0.3,0.8-0.7,1.6-1,2.4l-0.8,2.4
						c-0.2,0.8-0.4,1.6-0.6,2.4C18.1,61.6,18,62,18,62.4c-0.1,0.4-0.2,0.8-0.2,1.2c-0.2,0.8-0.2,1.6-0.3,2.3
						c-0.1,0.4-0.1,0.8-0.2,1.1c-0.1,0.4-0.1,0.8-0.1,1.1c0,0.7-0.1,1.5-0.1,2.2c0,0.7,0,1.4,0,2c0,2.1,0.2,4.2,0.5,6.3
						c0.1,0.8,0.2,1.4,0.3,1.8C17.8,80.9,17.8,81.1,17.8,81.1z"/>
					<path id="_Path_12" class="st7" d="M88.4,99.8l-0.5,0.5c-0.1,0.2-0.3,0.4-0.5,0.6s-0.5,0.5-0.8,0.8l-1,0.9
						c-0.4,0.3-0.8,0.7-1.2,1.1c-0.4,0.4-0.9,0.7-1.4,1.2s-1.1,0.8-1.6,1.2c-1.3,0.9-2.6,1.7-3.9,2.4c-0.7,0.4-1.5,0.7-2.3,1.1
						L74,110c-0.4,0.2-0.8,0.3-1.2,0.5l-1.3,0.5c-0.4,0.1-0.9,0.3-1.3,0.4c-0.9,0.3-1.8,0.5-2.7,0.7c-1.9,0.4-3.7,0.7-5.6,0.8
						c-1.9,0.1-3.8,0.2-5.7,0c-1.8-0.1-3.7-0.3-5.5-0.7c-0.9-0.2-1.7-0.4-2.6-0.6c-0.8-0.2-1.6-0.5-2.4-0.8
						c-0.8-0.3-1.5-0.5-2.2-0.8c-0.7-0.3-1.4-0.6-2-0.9c-0.6-0.3-1.3-0.6-1.8-0.9c-0.6-0.3-1.1-0.6-1.6-0.9
						c-0.5-0.3-0.9-0.6-1.4-0.9c-0.4-0.3-0.8-0.5-1.1-0.8c-0.7-0.5-1.2-0.9-1.5-1.2l-0.5-0.4l0.6,0.3c0.4,0.2,0.9,0.6,1.6,1
						c0.4,0.2,0.7,0.4,1.2,0.6c0.4,0.2,0.9,0.5,1.4,0.7c0.5,0.2,1.1,0.5,1.6,0.7c0.6,0.2,1.2,0.5,1.8,0.8c1.3,0.5,2.7,1,4.2,1.4
						c1.6,0.4,3.2,0.8,4.8,1.1c0.8,0.2,1.7,0.2,2.6,0.4s1.8,0.2,2.7,0.2c1.8,0.1,3.7,0.1,5.5-0.1c1.8-0.1,3.6-0.4,5.4-0.7
						c1.7-0.4,3.4-0.8,5.1-1.4c0.8-0.2,1.6-0.6,2.4-0.9c0.8-0.3,1.5-0.6,2.2-0.9c0.7-0.3,1.4-0.7,2.1-1c0.7-0.4,1.3-0.7,1.9-1
						c0.6-0.4,1.2-0.7,1.7-1c0.5-0.4,1.1-0.7,1.5-1l1.3-0.9l1.1-0.8c0.7-0.5,1.1-0.9,1.5-1.2L88.4,99.8z"/>
					<path id="_Path_13" class="st7" d="M38.4,33.3l0.8-0.5c0.5-0.3,1.4-0.8,2.4-1.3c5-2.4,10.4-3.7,15.9-3.9l0.9,0h0.9
						c0.6,0,1.2,0,1.8,0c0.6,0,1.3,0.1,1.9,0.1l1.9,0.2c2.6,0.4,5.2,1,7.7,1.8c5.2,1.8,10,4.5,14.1,8.1c2,1.7,3.8,3.7,5.4,5.8
						c1.5,1.9,2.9,4,4,6.2c0.3,0.5,0.5,1,0.8,1.6s0.5,1,0.7,1.5c0.4,1,0.8,2,1.1,3c0.3,1,0.6,1.9,0.8,2.8c0.1,0.4,0.2,0.9,0.3,1.3
						c0.1,0.4,0.2,0.8,0.2,1.3c0.3,1.4,0.4,2.8,0.5,4.2c0,0.6,0.1,1.1,0.1,1.6c0,0.5,0,0.8,0,1.2c0,0.6,0,1,0,1s0-0.3-0.1-1
						c0-0.3-0.1-0.7-0.1-1.2c0-0.5-0.1-1-0.2-1.5c-0.2-1.2-0.4-2.5-0.8-4.1c-0.2-0.8-0.5-1.6-0.7-2.5c-0.3-0.9-0.6-1.8-1-2.7
						c-0.8-2-1.7-3.9-2.8-5.8c-1.2-2.1-2.5-4-4.1-5.8c-1.6-2-3.4-3.8-5.3-5.4c-2-1.7-4.1-3.2-6.4-4.5c-2.3-1.3-4.6-2.4-7.1-3.3
						c-2.4-0.8-4.9-1.5-7.4-1.9l-1.8-0.2c-0.6-0.1-1.2-0.1-1.8-0.2c-0.6-0.1-1.2-0.1-1.8-0.1l-0.9,0h-0.9c-5.4,0-10.7,1-15.8,2.9
						c-1.1,0.4-1.9,0.8-2.5,1L38.4,33.3z"/>
				</g>
				<g id="_Group_26">
					<path id="_Path_14" class="st6" d="M14.2,87.2l-0.5-1.1c-0.3-0.7-0.7-1.8-1.2-3.1c-0.5-1.7-1-3.3-1.3-5c-0.2-1-0.4-2.1-0.5-3.2
						c-0.1-1.1-0.3-2.3-0.3-3.6c0-0.3,0-0.6,0-0.9c0-0.3,0-0.6,0-1c0-0.6,0-1.3,0-2c0-0.7,0.1-1.4,0.1-2.1c0-0.7,0.1-1.4,0.2-2.1
						c0.4-3,1-5.9,2-8.8c1-3.1,2.4-6,4-8.8c1.7-2.9,3.7-5.6,6-8.1c2.3-2.5,4.8-4.7,7.6-6.6c2.6-1.9,5.5-3.5,8.5-4.8
						c2.8-1.2,5.7-2.1,8.6-2.8c2.6-0.6,5.3-0.9,8-1c0.6,0,1.2,0,1.8,0s1.2,0,1.7,0c1.1,0,2.2,0.1,3.2,0.2c1.7,0.2,3.5,0.5,5.2,0.9
						c1.4,0.3,2.5,0.7,3.2,0.9s1.1,0.4,1.1,0.4s-0.4-0.1-1.2-0.3c-0.8-0.2-1.9-0.4-3.3-0.6c-1.7-0.2-3.4-0.4-5.2-0.5
						c-1,0-2.1,0-3.2,0c-0.6,0-1.1,0.1-1.7,0.1c-0.6,0-1.2,0.1-1.8,0.1c-2.6,0.2-5.2,0.7-7.7,1.4c-2.8,0.7-5.6,1.7-8.2,2.9
						c-2.8,1.3-5.5,2.9-8,4.7c-2.6,1.9-5,4-7.2,6.4c-2.2,2.3-4.1,4.9-5.7,7.7c-1.6,2.7-2.9,5.5-4,8.4c-1,2.7-1.7,5.5-2.2,8.4
						c-0.1,0.7-0.2,1.4-0.3,2c-0.1,0.7-0.1,1.3-0.2,2c-0.1,0.6-0.1,1.3-0.1,1.9c0,0.3,0,0.6,0,0.9c0,0.3,0,0.6,0,0.9
						c0,2.2,0.1,4.5,0.4,6.7c0.3,2,0.6,3.7,0.9,5.1c0.3,1.4,0.6,2.5,0.9,3.2C14.1,86.9,14.2,87.2,14.2,87.2z"/>
					<path id="_Path_15" class="st6" d="M103.5,86.9c0,0-0.1,0.4-0.4,1.2l-0.5,1.5c-0.1,0.3-0.2,0.6-0.3,0.9l-0.5,1
						c-0.3,0.7-0.7,1.5-1.1,2.4l-1.5,2.7c-0.6,1-1.2,1.9-1.9,3c-0.3,0.5-0.8,1-1.1,1.5l-1.2,1.6l-1.4,1.6l-0.7,0.8l-0.4,0.4L92,106
						c-1.1,1.1-2.2,2.1-3.4,3.1c-0.6,0.5-1.2,1-1.9,1.5l-2,1.4c-0.3,0.2-0.7,0.5-1,0.7l-1.1,0.6l-1.1,0.6c-0.4,0.2-0.7,0.4-1.1,0.6
						l-2.4,1.1l-0.6,0.3l-0.6,0.2l-1.2,0.5c-4.1,1.7-3.4,1.2-5.1,1.7c-0.9,0.2-1.8,0.4-2.7,0.6c-0.5,0.1-0.9,0.2-1.4,0.3l-1.4,0.2
						l-1.4,0.2c-0.5,0-0.9,0.1-1.4,0.1l-2.8,0.1l-0.7,0h-0.2h-0.2l-0.3,0l-1.4-0.1c-0.9,0-1.8-0.1-2.7-0.2l-2.8-0.3
						c-0.9-0.2-1.8-0.4-2.7-0.5c-3.5-0.7-6.9-1.9-10.1-3.4l-1.2-0.5c-0.4-0.2-0.8-0.4-1.1-0.6c-0.7-0.4-1.5-0.8-2.2-1.2l-2.1-1.4
						c-0.3-0.2-0.7-0.4-1-0.7l-0.9-0.7c-0.6-0.5-1.2-1-1.8-1.4l-1.7-1.5l-0.8-0.7c-0.3-0.3-0.5-0.5-0.7-0.8l-1.5-1.5
						c-0.2-0.2-0.5-0.5-0.7-0.8l-0.6-0.8c-0.4-0.5-0.8-1-1.2-1.5c-0.7-1-1.4-2-2-2.9l-1.6-2.7c-0.3-0.4-0.4-0.8-0.6-1.2L16.1,93
						c-0.5-1.1-1-2.2-1.4-3.4l-0.5-1.2l0.6,1.2c0.4,0.8,0.9,1.9,1.7,3.2c0.2,0.3,0.4,0.7,0.6,1.1c0.2,0.4,0.5,0.8,0.7,1.2l1.7,2.5
						l2.1,2.7c0.8,0.9,1.7,1.9,2.6,2.8l1.5,1.4c0.3,0.2,0.5,0.5,0.8,0.7l0.8,0.7l1.7,1.4c0.6,0.4,1.2,0.9,1.8,1.3l0.9,0.7
						c0.3,0.2,0.7,0.4,1,0.6c0.7,0.4,1.3,0.8,2,1.2l2.1,1.1c0.4,0.2,0.7,0.4,1.1,0.6l1.1,0.5l1.1,0.5c0.4,0.2,0.8,0.4,1.2,0.5
						l2.4,0.8c0.2,0.1,0.4,0.1,0.6,0.2l0.6,0.2l1.2,0.3l1.3,0.3c0.4,0.1,0.8,0.2,1.3,0.3c0.9,0.2,1.7,0.3,2.6,0.5l2.6,0.3
						c0.9,0.1,1.8,0.2,2.7,0.2l1.4,0h0.3h0.2h0.1c-0.1,0,0,0,0,0h0l0.6,0l2.6-0.1c0.4,0,0.9-0.1,1.3-0.1l1.3-0.2l1.3-0.2
						c0.4-0.1,0.9-0.2,1.3-0.2c0.9-0.2,1.7-0.3,2.6-0.5c3.3-0.8,6.5-2,9.6-3.4c0.4-0.2,0.7-0.4,1.1-0.6l1.1-0.6l1.1-0.6
						c0.4-0.2,0.7-0.4,1-0.6l2-1.3c0.6-0.4,1.3-0.9,1.9-1.4c1.3-0.9,2.3-1.9,3.4-2.8l0.4-0.4l0.4-0.4c0.2-0.3,0.5-0.5,0.7-0.7
						l1.4-1.4c0.9-1,1.7-2,2.5-2.9c0.8-1,1.4-1.9,2.1-2.8c0.6-0.9,1.1-1.8,1.6-2.6c0.5-0.8,0.9-1.6,1.2-2.3l0.5-1
						c0.2-0.3,0.3-0.6,0.4-0.9c0.3-0.6,0.5-1,0.6-1.4L103.5,86.9z"/>
					<path id="_Path_16" class="st6" d="M71.8,24.7l0.8,0.2l1,0.2c0.4,0.1,0.9,0.2,1.4,0.4c1,0.3,2.3,0.7,3.6,1.3
						c0.7,0.3,1.4,0.6,2.2,0.9c0.4,0.2,0.8,0.4,1.2,0.6s0.8,0.4,1.2,0.6c1.7,0.9,3.4,2,5,3.2c1.8,1.3,3.5,2.7,5.1,4.3
						c1.7,1.7,3.3,3.5,4.7,5.4c2.9,3.9,5.2,8.3,6.7,13c0.7,2.2,1.3,4.6,1.7,6.9c0.4,2.2,0.5,4.4,0.6,6.6c0,1,0,2.1-0.1,3.1
						s-0.1,1.9-0.3,2.9c-0.3,2.9-1,5.8-1.9,8.6c-0.3,1-0.7,1.8-0.9,2.3l-0.3,0.8l0.2-0.8c0.1-0.5,0.3-1.4,0.5-2.4
						c0.6-2.8,1-5.7,1.1-8.6c0-0.9,0-1.8,0-2.8c0-0.9-0.1-1.9-0.1-3c-0.2-2.1-0.4-4.2-0.8-6.3c-0.1-0.5-0.2-1.1-0.3-1.6
						s-0.3-1.1-0.4-1.6l-0.5-1.6c-0.2-0.5-0.4-1.1-0.5-1.6c-0.8-2.2-1.7-4.4-2.8-6.4c-1.1-2.1-2.3-4.1-3.7-6
						c-3.7-5.1-8.3-9.5-13.7-13c-0.7-0.5-1.5-0.9-2.2-1.3c-0.7-0.4-1.4-0.8-2-1.1c-0.7-0.3-1.3-0.6-1.8-0.9
						c-0.6-0.3-1.1-0.5-1.6-0.7l-1.3-0.6l-1-0.4L71.8,24.7z"/>
				</g>
			</g>
			<path class="st8" d="M58.2,20.5c-24.5,0-44.3,19.7-44.3,44.1s19.8,44.1,44.3,44.1s44.3-19.7,44.3-44.1v0
				C102.5,40.2,82.6,20.5,58.2,20.5z M48.3,102.1c-0.3,1-1.4,1.6-2.4,1.4c-1.1-0.3-2.3-0.7-3.4-1.1c-1-0.3-1.6-1.4-1.3-2.4
				c0.3-1,1.3-1.6,2.4-1.3c1.1,0.3,2.3,0.7,3.4,1.1C47.9,100,48.6,101.1,48.3,102.1z"/>
			<path class="st8" d="M28.8,39.2C28.5,37.9,27.3,37,26,37c-2.1,0-3.1,1.8-2.9,3.4c-0.2,1.6,0.8,3.4,2.9,3.4
				c1.3,0.1,2.5-0.8,2.8-2.1C29.1,40.9,29.1,40,28.8,39.2z"/>
			<path class="st8" d="M21.8,43.8c-3.9,0-4,6.1,0,6.1S25.8,43.8,21.8,43.8z"/>
			<path class="st8" d="M84.3,30.5c-0.5-0.9-1.5-1.5-2.6-1.4c-2.9,0-3.7,3.3-2.3,5C80,35,81,35.6,82,35.5
				C84.9,35.5,85.7,32.2,84.3,30.5z"/>
			<path class="st8" d="M47.2,99.6c-1.9-0.4-3.8-1-5.7-1.7c-1.6-0.6-3.4,0.6-3.8,2.1c-0.5,1.7,0.6,3.2,2.1,3.8
				c0.4,0.1,0.8,0.3,1.2,0.4c0.5,0.5,1.1,0.8,1.8,0.8c0.5,0.3,1,0.4,1.5,0.4c0.2,0,0.5,0,0.7-0.1l0.5,0.1c1.6,0.4,3.3-0.5,3.8-2.1
				C49.8,101.9,48.8,100,47.2,99.6z"/>
			<path class="st8" d="M22.2,84.3c-0.2-0.4-0.6-0.7-1-0.8l-0.5-0.1c-0.3,0-0.6,0.1-0.9,0.2l-0.1,0.1c-0.8,0.5-1.1,1.5-0.6,2.4
				c0.2,0.4,0.6,0.7,1.1,0.8l0.5,0.1c0.3,0,0.6-0.1,0.9-0.2l0.1-0.1C22.4,86.2,22.7,85.1,22.2,84.3C22.2,84.3,22.2,84.3,22.2,84.3
				L22.2,84.3z"/>
			<path class="st8" d="M23.6,79.1c-0.6,0-1.2,0.3-1.5,0.8c-1.1,0.9-0.7,3.1,1.1,3.1c0.6,0,1.2-0.3,1.5-0.8
				C25.8,81.4,25.4,79.1,23.6,79.1z"/>
			<path class="st8" d="M90.5,41c-1.2,0-1.7,0.9-1.7,1.8c0,0.9,0.5,1.8,1.7,1.8s1.7-0.9,1.7-1.8C92.2,42,91.6,41,90.5,41z"/>
			<path class="st8" d="M81.1,31.4c-2.2,0-2.3,3.5,0,3.5S83.4,31.4,81.1,31.4z"/>
			<path class="st8" d="M71,26.5c-0.3-0.3-0.8-0.5-1.2-0.5h-0.1c-0.5,0-0.9,0.2-1.2,0.5c-0.7,0.7-0.7,1.8,0,2.5c0,0,0,0,0,0
				c0.3,0.3,0.8,0.5,1.2,0.5h0.1c1,0,1.7-0.8,1.7-1.7C71.5,27.2,71.4,26.8,71,26.5z"/>
			<path class="st9" d="M49,93.9c-0.2-1.5-1-2.9-2.3-3.7c0,0-0.5-0.3-0.7-0.5L46,89.7c-1-1.3-1.7-2.3-3.5-2.7
				c-0.8-0.1-1.6-0.1-2.4-0.1l-0.4-0.6c-0.5-0.8-1.3-1.5-2.2-1.9c-0.6-2.7-2.9-4.8-5.6-5.2l-0.1-0.3c-0.1-0.3-0.3-0.5-0.5-0.8
				c0.1-0.4,0.2-0.7,0.2-1.1c0-2.6-2.1-4.7-4.7-4.7c-0.5,0-1,0.1-1.5,0.3c0.2,0.4,0.1,0.8-0.1,1.2c-0.8,1.2-1.3,2.6-1.7,4
				c0.3,0.1,0.6,0.3,0.6,0.6c0.3,1.4,0.8,3.1,1.9,4.1c0.3,0.3,0.3,0.9,0,1.2c0,0-0.1,0.1-0.1,0.1c1.3,2.5,3.2,4.7,5.4,6.5
				c0.2,0.1,0.3,0.3,0.4,0.6c2.1,1.8,4.3,3.5,6.3,5.3c0.1,0.1,0.2,0.2,0.3,0.3c0.4,0,0.7,0,1.1,0c0.1,0.1,0.1,0.2,0.2,0.2
				c0.8,0.7,1.6,1.3,2.5,1.8c0.6,0.4,1.4,0.6,2.1,0.6c0.2,2.6,2.5,4.5,5.1,4.3c2.6-0.2,4.6-2.5,4.3-5.1C53.3,95.9,51.4,94.1,49,93.9
				L49,93.9z"/>
			<path class="st9" d="M89.4,85.1L89.4,85.1c3-4.8,4.7-10.2,5.7-15.7c0-0.3,0.2-0.5,0.4-0.7c0-0.8,0-1.6,0.1-2.4
				c-0.7-0.5-1.4-0.7-2.2-0.7c-2.1,0-4.2,1.9-4,4.1c0,0.7,0.2,0.2,0,0.8c0.1-0.3-0.4,0.6-0.5,0.7c-0.6,0.6-1.2,1.3-1.8,1.8
				c-1.9,1.9-3.8,3.7-5.7,5.5c-3.5,3.4-7,6.6-8.9,11.3c-0.8,2,0.9,4.5,2.8,5c2.3,0.6,4.1-0.8,4.9-2.8c0.7-1.8,2.2-3.2,3.6-4.5
				c1.2-1.2,2.4-2.4,3.7-3.6c0.3,0.4,0.6,0.7,1,0.9L89.4,85.1z"/>
			<path class="st8" d="M70.3,100c-7.2,1.8-14.7,2-21.9,0.6c-0.3-0.3-0.7-0.5-1.1-0.6c-1-0.4-2-0.5-3.1-0.6
				c-1.6-0.1-3.1,1.4-3.1,3.1c0,1,0.5,1.9,1.3,2.4c0.4,0.5,0.9,0.8,1.5,0.9c9.2,2.4,18.8,2.4,28,0.1C75.7,104.9,74.1,99,70.3,100z"
				/>
			<path class="st10" d="M43.2,98.6c0.4,0.2,0.7,0.4,1.1,0.5c0.2,0.1,0.3,0.2,0.5,0.2l0.3,0.1c0.1,0,0.2,0.1,0.3,0.1l0.7,0.2
				c0-0.7-0.5-1.4-1.2-1.5c-3.3-0.8-6.3-2.4-8.8-4.6c-0.5-0.5-1.3-0.6-1.9-0.2c1.5,0.9,3.1,1.8,4.4,3c0.1,0.1,0.1,0.2,0.2,0.2
				c0.3,0.1,0.6,0.2,0.9,0.4c0.6,0.5,1.3,0.9,2.1,1.2C42.3,98.3,42.8,98.4,43.2,98.6z"/>
			<path class="st11" d="M85.9,86.2c-0.9-0.5-1.8-0.1-2.4,0.6c-0.4,0.5-0.8,1-1.2,1.5c-0.1,0-0.3-0.1-0.4-0.1
				c-1.3,0-1.8,1.2-1.6,2.1c-0.7,0.6-1.4,1.1-2.1,1.5c-2.1,1.2-4.3,2.3-6.6,3.2c-4.6,1.8-9.3,2.9-14.3,2.8c-0.4,0-0.7,0.1-1,0.3
				c-0.2-0.1-0.4-0.1-0.6-0.1c-0.4,0-0.8,0.1-1.1,0.4c-0.3-0.3-0.7-0.4-1.1-0.4c-2.2,0-2.3,3.5,0,3.5c0.4,0,0.8-0.1,1.1-0.4
				c0.3,0.3,0.7,0.4,1.1,0.4c0.4,0,0.7-0.1,1-0.3c0.2,0.1,0.4,0.1,0.6,0.1c5.6,0.1,11-1.2,16.2-3.3c2.5-1,5.1-2.2,7.4-3.7
				c2.3-1.6,4.1-3.6,5.8-5.8C87.1,87.8,86.6,86.7,85.9,86.2z"/>
			<g id="_Group_27">
				<path class="st9" d="M90.4,45.5c-0.5-0.6-0.9-1.2-1.3-1.8c-0.9-1.3-2.1-2.5-3.1-3.7c-0.1-0.2-0.3-0.3-0.4-0.5
					c-0.2-0.2-0.4-0.3-0.7-0.5c-0.4-0.2-0.7-0.7-0.6-1.2c-0.6-0.7-1.2-1.4-1.9-2l-0.8-0.6c-0.1-0.1-0.2-0.1-0.2-0.2
					c-0.5-0.4-1.1-0.7-1.7-0.9c-0.3-0.1-0.5-0.4-0.6-0.7c-2.3-1.2-4.5-2.6-6.9-3.7c-0.2,0.1-0.4,0.1-0.5,0c-0.9-0.4-1.8-0.7-2.7-0.9
					c-0.2,0-0.5-0.2-0.6-0.4c-4.8-1.1-9.8-0.9-14.7-0.4c-5,0.5-9.6,1.5-14,4c-3.4,1.9-5.5,4.9-8.1,7.7c0.2,0.4,0,1-0.5,1.1
					c-0.1,0-0.2,0.1-0.3,0.1c-0.1,0-0.2,0-0.3-0.1c-0.1,0.1-0.2,0.2-0.3,0.3c-0.3,0.3-0.8,0.4-1.2,0.3l0,0c0,0,0,0-0.1,0.1
					c0,0.9-0.5,1.9-1.6,2c-0.5,1.1-1,2.3-1.3,3.4c-0.1,0.5-0.5,0.9-1.1,0.9c-0.1,0.2-0.3,0.4-0.4,0.6c-0.1,0.3-0.2,0.6-0.3,0.8
					c18.9,18.4,49.2,18.2,67.9-0.4C91.4,47.8,90.9,46.7,90.4,45.5z"/>
				<g id="_Group_28">
					<g id="_Group_29">
						<g id="_Group_30">
							<path d="M86.6,74.8l2.5-1.4l4.4-7.4l1.7,2v0.6c0.1-1.2,0.2-2.5,0.2-3.7l-2.3-2.7l-5.6,9.6L85.2,73L73.1,87.1h-4.5l-3.1,3.4
								l-3.5-1.4l-7.3,7L54.5,96l-5-5.3l-4.1-4.5H41L35.9,79l-2.5-1.3l-6.9-10.3l-3.4,8.9c0.1,0.1,0.1,0.1,0.1,0.2
								c0.1,0.3,0.2,0.5,0.3,0.8c0,0,0,0.1,0,0.1c0.6,1.6,1.2,3.2,1.8,4.7c0.1,0.2,0.2,0.4,0.3,0.6c0,0,0,0,0,0
								c0.1,0.1,0.2,0.3,0.3,0.4c0.1,0.3,0.3,0.6,0.4,0.9l0.1,0.1l0,0c0.1,0.1,0.2,0.3,0.3,0.4c0.3,0.4,0.6,0.8,0.9,1.1l0.8-5.1
								l-3-6l1.7-1.8l4.6,6.4l3.5,1.5l4.5,7.5h4.5l3.5,3.8l5.2,5.5l-1.2,1.1H48l-0.8-1.7l-3.8-2.7L39.8,92l-6.3-0.3l-1.7-1.2
								l0.2,0.2c0.9,0.9,2,1.6,2.9,2.5c0.7,0.7,1.4,1.4,2.2,2c0.8,0.5,1.5,1,2.2,1.5c0.6,0.2,1.2,0.5,1.8,0.7
								c2.8,1.2,5.8,2.1,8.9,2.7c0.3,0.1,0.7,0.1,1,0.2c3.3,0.1,6.7,0.4,10,0.4l0.8,0c1.6-0.2,3.1-0.5,4.7-0.9c0.1,0,0.2,0,0.3,0
								l20.8-12.7c0-0.1,0.1-0.2,0.2-0.3c1.3-1.2,2-2.9,2.9-4.5l-6,1.6l-10.6,7.7v-2L86.6,74.8z"/>
							<path class="st12" d="M86.6,74.8l2.5-1.4l4.4-7.4l1.7,2v0.6c0.1-1.2,0.2-2.5,0.2-3.7l-2.3-2.7l-5.6,9.6L85.2,73L73.1,87.1
								h-4.5l-3.1,3.4l-3.5-1.4l-7.3,7L54.5,96l-5-5.3l-4.1-4.5H41L35.9,79l-2.5-1.3l-6.9-10.3l-3.4,8.9c0.1,0.1,0.1,0.1,0.1,0.2
								c0.1,0.3,0.2,0.5,0.3,0.8c0,0,0,0.1,0,0.1c0.6,1.6,1.2,3.2,1.8,4.7c0.1,0.2,0.2,0.4,0.3,0.6c0,0,0,0,0,0
								c0.1,0.1,0.2,0.3,0.3,0.4c0.1,0.3,0.3,0.6,0.4,0.9l0.1,0.1l0,0c0.1,0.1,0.2,0.3,0.3,0.4c0.3,0.4,0.6,0.8,0.9,1.1l0.8-5.1
								l-3-6l1.7-1.8l4.6,6.4l3.5,1.5l4.5,7.5h4.5l3.5,3.8l5.2,5.5l-1.2,1.1H48l-0.8-1.7l-3.8-2.7L39.8,92l-6.3-0.3l-1.7-1.2
								l0.2,0.2c0.9,0.9,2,1.6,2.9,2.5c0.7,0.7,1.4,1.4,2.2,2c0.8,0.5,1.5,1,2.2,1.5c0.6,0.2,1.2,0.5,1.8,0.7
								c2.8,1.2,5.8,2.1,8.9,2.7c0.3,0.1,0.7,0.1,1,0.2c3.3,0.1,6.7,0.4,10,0.4l0.8,0c1.6-0.2,3.1-0.5,4.7-0.9c0.1,0,0.2,0,0.3,0
								l20.8-12.7c0-0.1,0.1-0.2,0.2-0.3c1.3-1.2,2-2.9,2.9-4.5l-6,1.6l-10.6,7.7v-2L86.6,74.8z"/>
							<path class="st9" d="M93.9,75.5c0.5-1.3,0.5-2.6,0.7-3.9c0,0,0,0,0-0.1l-0.1-0.1l-2,3.4l0.5,3.1
								C93.2,77.1,93.6,76.3,93.9,75.5z"/>
						</g>
					</g>
				</g>
			</g>
			<path class="st9" d="M26.8,46.1c-2.2,0-2.3,3.5,0,3.5S29.1,46.1,26.8,46.1z"/>
			<path class="st9" d="M33.2,39.1c-0.3-0.2-0.7-0.4-1.1-0.4c-2,0-2.2,2.7-0.7,3.3c0.3,0.2,0.7,0.4,1.1,0.4
				C34.5,42.4,34.7,39.7,33.2,39.1z"/>
			<ellipse class="st13" cx="58.2" cy="64.5" rx="44.5" ry="44.3"/>
			<ellipse class="st14" cx="58.2" cy="64.5" rx="37.2" ry="37.1"/>
			<g id="_Group_31">
				<polygon id="_Path_17" class="st9" points="99.7,63.9 99.1,61.8 98.4,63.9 96.2,63.9 98,65.2 97.3,67.3 99.1,66 100.8,67.3 
					100.2,65.2 101.9,63.9 				"/>
			</g>
			<g id="_Group_32">
				<polygon id="_Path_18" class="st9" points="98.9,72.7 98.2,70.6 97.6,72.7 95.4,72.7 97.1,74 96.5,76.1 98.2,74.8 100,76.1 
					99.3,74 101.1,72.7 				"/>
			</g>
			<g id="_Group_33">
				<polygon id="_Path_19" class="st9" points="96.3,80.4 95.6,78.4 94.9,80.4 92.7,80.4 94.5,81.7 93.8,83.8 95.6,82.5 97.4,83.8 
					96.7,81.7 98.5,80.4 				"/>
			</g>
			<g id="_Group_34">
				<polygon id="_Path_20" class="st9" points="92,87.4 91.4,85.4 90.7,87.4 88.5,87.4 90.3,88.7 89.6,90.8 91.4,89.5 93.1,90.8 
					92.5,88.7 94.2,87.4 				"/>
			</g>
			<g id="_Group_35">
				<polygon id="_Path_21" class="st9" points="98.2,54.3 97.6,52.2 96.9,54.3 94.7,54.3 96.5,55.6 95.8,57.6 97.6,56.4 99.3,57.6 
					98.6,55.6 100.4,54.3 				"/>
			</g>
			<g id="_Group_36">
				<polygon id="_Path_22" class="st9" points="95.1,45.5 94.5,43.4 93.8,45.5 91.6,45.5 93.4,46.8 92.7,48.9 94.5,47.6 96.2,48.9 
					95.6,46.8 97.3,45.5 				"/>
			</g>
			<g id="_Group_37">
				<polygon id="_Path_23" class="st9" points="86.2,93.6 85.5,91.5 84.8,93.6 82.6,93.6 84.4,94.9 83.7,97 85.5,95.7 87.3,97 
					86.6,94.9 88.4,93.6 				"/>
			</g>
			<g id="_Group_38">
				<polygon id="_Path_24" class="st9" points="31.8,93.6 31.2,91.5 30.5,93.6 28.3,93.6 30.1,94.9 29.4,97 31.2,95.7 32.9,97 
					32.3,94.9 34,93.6 				"/>
			</g>
			<g id="_Group_39">
				<polygon id="_Path_25" class="st9" points="25.9,87.4 25.2,85.4 24.5,87.4 22.3,87.4 24.1,88.7 23.4,90.8 25.2,89.5 27,90.8 
					26.3,88.7 28.1,87.4 				"/>
			</g>
			<g id="_Group_40">
				<polygon id="_Path_26" class="st9" points="21.5,80.4 20.9,78.4 20.2,80.4 18,80.4 19.8,81.7 19.1,83.8 20.9,82.5 22.6,83.8 
					22,81.7 23.7,80.4 				"/>
			</g>
			<g id="_Group_41">
				<polygon id="_Path_27" class="st9" points="19,72.7 18.3,70.6 17.6,72.7 15.4,72.7 17.2,74 16.5,76 18.3,74.8 20.1,76 19.4,74 
					21.2,72.7 				"/>
			</g>
			<g id="_Group_42">
				<polygon id="_Path_28" class="st9" points="18.1,63.9 17.4,61.9 16.7,63.9 14.6,63.9 16.3,65.2 15.6,67.3 17.4,66 19.2,67.3 
					18.5,65.2 20.3,63.9 				"/>
			</g>
			<g id="_Group_43">
				<polygon id="_Path_29" class="st9" points="19.5,54.3 18.8,52.2 18.1,54.3 15.9,54.3 17.7,55.6 17,57.7 18.8,56.4 20.6,57.7 
					19.9,55.6 21.7,54.3 				"/>
			</g>
			<g id="_Group_44">
				<polygon id="_Path_30" class="st9" points="22.5,45.6 21.8,43.5 21.1,45.6 18.9,45.6 20.7,46.8 20,48.9 21.8,47.6 23.6,48.9 
					22.9,46.8 24.7,45.6 				"/>
			</g>
			<g id="_Group_45">
				<path id="_Path_31" class="st9" d="M28,108.8c20.4,6.2,40,6.2,60.4,0V97.9c-20.4,6.2-40,6.2-60.4,0V108.8z"/>
				<g id="_Group_46">
					<path id="_Compound_Path_10" class="st8" d="M89.4,109.8c-21.1,6.7-41.3,6.7-62.4,0c-0.2-0.1-0.4-0.3-0.4-0.6V96.8
						c0-0.3,0.3-0.6,0.6-0.6c0.1,0,0.1,0,0.2,0c20.8,6.5,40.9,6.5,61.7,0c0.3-0.1,0.6,0.1,0.7,0.4c0,0.1,0,0.1,0,0.2v12.5
						C89.8,109.5,89.6,109.7,89.4,109.8z M28.4,108.9c20.1,6.1,39.5,6.1,59.6,0c0.2-0.1,0.4-0.3,0.4-0.6v-9.7c0-0.3-0.3-0.6-0.6-0.6
						c-0.1,0-0.1,0-0.2,0c-19.9,5.9-39.1,5.9-58.9,0c-0.3-0.1-0.6,0.1-0.7,0.4c0,0.1,0,0.1,0,0.2v9.7
						C28,108.6,28.1,108.8,28.4,108.9z"/>
				</g>
				<g id="_Group_47">
					<g id="_Group_48">
						<path id="_Path_32" class="st8" d="M26.9,98.4c0,0,0.1,0,0.3,0c0.1,0,0.2,0,0.3,0l0.2,0c0.1,0,0.2,0,0.2,0.1
							c0.7,0.2,1.5,0.5,2.4,0.8s1.7,0.5,2.4,0.7c0.1,0,0.2,0,0.2,0.1l0.2,0.1l0.3,0.2c0.2,0.1,0.3,0.2,0.3,0.2s-0.1,0-0.3,0h-0.3
							h-0.2c-0.1,0-0.2,0-0.2-0.1c-0.7-0.2-1.5-0.4-2.4-0.7S28.7,99.2,28,99c-0.1,0-0.2,0-0.2-0.1l-0.2-0.1
							c-0.1-0.1-0.3-0.2-0.3-0.2C27,98.5,26.9,98.4,26.9,98.4z"/>
					</g>
					<g id="_Group_49">
						<path id="_Path_33" class="st8" d="M26.9,99.7l0.3,0c0.1,0,0.2,0,0.3,0l0.2,0c0.1,0,0.2,0,0.2,0.1c0.7,0.2,1.5,0.5,2.4,0.8
							c0.9,0.3,1.7,0.5,2.4,0.7c0.1,0,0.2,0,0.2,0.1l0.2,0.1l0.3,0.2c0.2,0.1,0.3,0.2,0.3,0.2s-0.1,0-0.3,0h-0.3h-0.2
							c-0.1,0-0.2,0-0.2-0.1c-0.7-0.2-1.5-0.4-2.4-0.7c-0.9-0.3-1.7-0.6-2.4-0.8c-0.1,0-0.2,0-0.2-0.1l-0.2-0.1
							c-0.1-0.1-0.3-0.2-0.3-0.2C27,99.8,26.9,99.7,26.9,99.7z"/>
					</g>
					<g id="_Group_50">
						<path id="_Path_34" class="st8" d="M26.9,101l0.3,0c0.1,0,0.2,0,0.3,0l0.2,0c0.1,0,0.2,0,0.2,0.1c0.7,0.2,1.5,0.5,2.4,0.8
							c0.9,0.3,1.7,0.5,2.4,0.7c0.1,0,0.2,0,0.2,0.1l0.2,0.1l0.3,0.2c0.2,0.1,0.3,0.2,0.3,0.2s-0.1,0-0.3,0h-0.3h-0.2
							c-0.1,0-0.2,0-0.2-0.1c-0.7-0.2-1.5-0.4-2.4-0.7c-0.9-0.3-1.7-0.6-2.4-0.8c-0.1,0-0.2,0-0.2-0.1l-0.2-0.1
							c-0.1-0.1-0.3-0.2-0.3-0.2C27,101.1,26.9,101,26.9,101z"/>
					</g>
					<g id="_Group_51">
						<path id="_Path_35" class="st8" d="M26.9,102.3c0,0,0.1,0,0.3,0c0.1,0,0.2,0,0.3,0l0.2,0c0.1,0,0.2,0,0.2,0.1
							c0.7,0.2,1.5,0.5,2.4,0.8s1.7,0.5,2.4,0.7c0.1,0,0.2,0,0.2,0.1l0.2,0.1l0.3,0.2c0.2,0.1,0.3,0.2,0.3,0.2s-0.1,0-0.3,0h-0.3
							h-0.2c-0.1,0-0.2,0-0.2-0.1c-0.7-0.2-1.5-0.4-2.4-0.7s-1.7-0.6-2.4-0.8c-0.1,0-0.2,0-0.2-0.1l-0.2-0.1
							c-0.1-0.1-0.3-0.1-0.3-0.2C27,102.4,26.9,102.3,26.9,102.3z"/>
					</g>
					<g id="_Group_52">
						<path id="_Path_36" class="st8" d="M26.9,103.6h0.3c0.1,0,0.2,0,0.3,0l0.2,0c0.1,0,0.2,0,0.2,0.1c0.7,0.2,1.5,0.5,2.4,0.8
							s1.7,0.5,2.4,0.7c0.1,0,0.2,0,0.2,0.1l0.2,0.1l0.3,0.2c0.2,0.1,0.3,0.2,0.3,0.2s-0.1,0-0.3,0h-0.3h-0.2c-0.1,0-0.2,0-0.2-0.1
							c-0.7-0.2-1.5-0.4-2.4-0.7s-1.7-0.6-2.4-0.8c-0.1,0-0.2,0-0.2-0.1l-0.2-0.1c-0.1-0.1-0.3-0.2-0.3-0.2
							C27,103.7,26.9,103.6,26.9,103.6z"/>
					</g>
					<g id="_Group_53">
						<path id="_Path_37" class="st8" d="M26.9,104.9l0.3,0c0.1,0,0.2,0,0.3,0l0.2,0c0.1,0,0.2,0,0.2,0.1c0.7,0.2,1.5,0.5,2.4,0.8
							s1.7,0.5,2.4,0.7c0.1,0,0.2,0,0.2,0.1l0.2,0.1l0.3,0.2c0.2,0.1,0.3,0.2,0.3,0.2s-0.1,0-0.3,0h-0.3h-0.2c-0.1,0-0.2,0-0.2-0.1
							c-0.7-0.2-1.5-0.4-2.4-0.7s-1.7-0.6-2.4-0.8c-0.1,0-0.2,0-0.2-0.1l-0.2-0.1c-0.1-0.1-0.3-0.2-0.3-0.2
							C27,105,26.9,104.9,26.9,104.9z"/>
					</g>
					<g id="_Group_54">
						<path id="_Path_38" class="st8" d="M26.9,106.2c0,0,0.1,0,0.3,0c0.1,0,0.2,0,0.3,0l0.2,0c0.1,0,0.2,0,0.2,0.1
							c0.7,0.2,1.5,0.5,2.4,0.8c0.9,0.3,1.7,0.5,2.4,0.7c0.1,0,0.2,0,0.2,0.1l0.2,0.1l0.3,0.2c0.2,0.1,0.3,0.2,0.3,0.2s-0.1,0-0.3,0
							h-0.3h-0.2c-0.1,0-0.2,0-0.2-0.1c-0.7-0.2-1.5-0.4-2.4-0.7c-0.9-0.3-1.7-0.6-2.4-0.8c-0.1,0-0.2,0-0.2-0.1l-0.2-0.1
							c-0.1-0.1-0.3-0.1-0.3-0.2C27,106.3,26.9,106.2,26.9,106.2z"/>
					</g>
					<g id="_Group_55">
						<g id="_Group_56">
							<path class="st8" d="M26.9,107.5c0,0,0.1,0,0.3,0c0.1,0,0.2,0,0.3,0l0.2,0c0.1,0,0.2,0,0.2,0.1c0.7,0.2,1.5,0.5,2.4,0.8
								c0.9,0.3,1.7,0.5,2.4,0.7c0.1,0,0.2,0,0.2,0.1l0.2,0.1l0.3,0.2c0.2,0.1,0.3,0.2,0.3,0.2s-0.1,0-0.3,0h-0.3h-0.2
								c-0.1,0-0.2,0-0.2-0.1c-0.7-0.2-1.5-0.4-2.4-0.7s-1.7-0.6-2.4-0.8c-0.1,0-0.2,0-0.2-0.1l-0.2-0.1c-0.1-0.1-0.3-0.2-0.3-0.2
								C27,107.6,26.9,107.5,26.9,107.5z"/>
						</g>
					</g>
				</g>
				<g id="_Group_57">
					<g id="_Group_58">
						<path id="_Path_39" class="st8" d="M89.5,98.4l-0.3,0.2c-0.1,0.1-0.2,0.1-0.3,0.2L88.6,99c-0.1,0-0.2,0.1-0.2,0.1
							c-0.7,0.2-1.5,0.5-2.4,0.8s-1.8,0.5-2.4,0.7c-0.1,0-0.2,0-0.2,0.1h-0.2h-0.3c-0.2,0-0.3,0-0.3,0s0.1-0.1,0.3-0.2l0.3-0.2
							l0.2-0.1c0.1,0,0.2-0.1,0.2-0.1c0.7-0.2,1.5-0.4,2.4-0.7c0.9-0.3,1.7-0.6,2.4-0.8c0.1,0,0.2-0.1,0.2-0.1l0.2,0
							c0.1,0,0.2,0,0.3,0C89.3,98.4,89.5,98.4,89.5,98.4z"/>
					</g>
					<g id="_Group_59">
						<path id="_Path_40" class="st8" d="M89.5,99.7c0,0-0.1,0.1-0.3,0.2l-0.3,0.2l-0.2,0.1c-0.1,0-0.2,0.1-0.2,0.1
							c-0.7,0.2-1.5,0.5-2.4,0.8c-0.9,0.3-1.8,0.5-2.4,0.7c-0.1,0-0.2,0-0.2,0.1h-0.2h-0.3c-0.2,0-0.3,0-0.3,0s0.1-0.1,0.3-0.2
							l0.3-0.2l0.2-0.1c0.1,0,0.2-0.1,0.2-0.1c0.7-0.2,1.5-0.4,2.4-0.7c0.9-0.3,1.7-0.6,2.4-0.8c0.1,0,0.2-0.1,0.2-0.1l0.2,0
							c0.1,0,0.2,0,0.3,0L89.5,99.7z"/>
					</g>
					<g id="_Group_60">
						<path id="_Path_41" class="st8" d="M89.5,101l-0.3,0.2c-0.1,0.1-0.2,0.1-0.3,0.2l-0.2,0.1c-0.1,0-0.2,0.1-0.2,0.1
							c-0.7,0.2-1.5,0.5-2.4,0.8s-1.8,0.5-2.4,0.7c-0.1,0-0.2,0-0.2,0.1h-0.2h-0.3c-0.2,0-0.3,0-0.3,0s0.1-0.1,0.3-0.2l0.3-0.2
							l0.2-0.1c0.1,0,0.2-0.1,0.2-0.1c0.7-0.2,1.5-0.4,2.4-0.7c0.9-0.3,1.7-0.6,2.4-0.8c0.1,0,0.2-0.1,0.2-0.1l0.2,0
							c0.1,0,0.2,0,0.3,0L89.5,101z"/>
					</g>
					<g id="_Group_61">
						<path id="_Path_42" class="st8" d="M89.5,102.3l-0.3,0.2c-0.1,0.1-0.2,0.1-0.3,0.2l-0.2,0.1c-0.1,0-0.2,0.1-0.2,0.1
							c-0.7,0.2-1.5,0.5-2.4,0.8c-0.9,0.3-1.8,0.5-2.4,0.7c-0.1,0-0.2,0-0.2,0.1h-0.2h-0.3c-0.2,0-0.3,0-0.3,0s0.1-0.1,0.3-0.2
							l0.3-0.2l0.2-0.1c0.1,0,0.2-0.1,0.2-0.1c0.7-0.2,1.5-0.4,2.4-0.7c0.9-0.3,1.7-0.6,2.4-0.8c0.1,0,0.2-0.1,0.2-0.1l0.2,0
							c0.1,0,0.2,0,0.3,0C89.3,102.3,89.5,102.3,89.5,102.3z"/>
					</g>
					<g id="_Group_62">
						<path id="_Path_43" class="st8" d="M89.5,103.6c0,0-0.1,0.1-0.3,0.2c-0.1,0.1-0.2,0.1-0.3,0.2l-0.2,0.1
							c-0.1,0-0.2,0.1-0.2,0.1c-0.7,0.2-1.5,0.5-2.4,0.8s-1.8,0.5-2.4,0.7c-0.1,0-0.2,0-0.2,0.1h-0.2h-0.3c-0.2,0-0.3,0-0.3,0
							s0.1-0.1,0.3-0.2l0.3-0.2l0.2-0.1c0.1,0,0.2-0.1,0.2-0.1c0.7-0.2,1.5-0.4,2.4-0.7c0.9-0.3,1.7-0.6,2.4-0.8
							c0.1,0,0.2-0.1,0.2-0.1l0.2,0c0.1,0,0.2,0,0.3,0L89.5,103.6z"/>
					</g>
					<g id="_Group_63">
						<path id="_Path_44" class="st8" d="M89.5,104.9l-0.3,0.2c-0.1,0.1-0.2,0.1-0.3,0.2l-0.2,0.1c-0.1,0-0.2,0.1-0.2,0.1
							c-0.7,0.2-1.5,0.5-2.4,0.8s-1.8,0.5-2.4,0.7c-0.1,0-0.2,0-0.2,0.1h-0.2h-0.3c-0.2,0-0.3,0-0.3,0s0.1-0.1,0.3-0.2l0.3-0.2
							l0.2-0.1c0.1,0,0.2-0.1,0.2-0.1c0.7-0.2,1.5-0.4,2.4-0.7c0.9-0.3,1.7-0.6,2.4-0.8c0.1,0,0.2-0.1,0.2-0.1l0.2,0
							c0.1,0,0.2,0,0.3,0L89.5,104.9z"/>
					</g>
					<g id="_Group_64">
						<path id="_Path_45" class="st8" d="M89.5,106.2l-0.3,0.2c-0.1,0.1-0.2,0.1-0.3,0.2l-0.2,0.1c-0.1,0-0.2,0.1-0.2,0.1
							c-0.7,0.2-1.5,0.5-2.4,0.8c-0.9,0.3-1.8,0.5-2.4,0.7c-0.1,0-0.2,0-0.2,0.1h-0.2h-0.3c-0.2,0-0.3,0-0.3,0s0.1-0.1,0.3-0.2
							l0.3-0.2l0.2-0.1c0.1,0,0.2-0.1,0.2-0.1c0.7-0.2,1.5-0.4,2.4-0.7c0.9-0.3,1.7-0.6,2.4-0.8c0.1,0,0.2-0.1,0.2-0.1l0.2,0
							c0.1,0,0.2,0,0.3,0C89.3,106.2,89.5,106.2,89.5,106.2z"/>
					</g>
					<g id="_Group_65">
						<path id="_Path_46" class="st8" d="M89.5,107.5c0,0-0.1,0.1-0.3,0.2l-0.3,0.2l-0.2,0.1c-0.1,0-0.2,0.1-0.2,0.1
							c-0.7,0.2-1.5,0.5-2.4,0.8s-1.8,0.5-2.4,0.7c-0.1,0-0.2,0-0.2,0.1h-0.2h-0.3c-0.2,0-0.3,0-0.3,0s0.1-0.1,0.3-0.2l0.3-0.2
							l0.2-0.1c0.1,0,0.2-0.1,0.2-0.1c0.7-0.2,1.5-0.4,2.4-0.7c0.9-0.3,1.7-0.6,2.4-0.8c0.1,0,0.2-0.1,0.2-0.1l0.2,0
							c0.1,0,0.2,0,0.3,0L89.5,107.5z"/>
					</g>
				</g>
			</g>
			<path class="st8" d="M36.9,106l-0.3,1.7l1.7,0.3l-0.1,0.6l-2.8-0.5l1-5l2.8,0.5l-0.1,0.6l-1.7-0.3l-0.3,1.7l1.1,0.2l-0.1,0.6
				L36.9,106z"/>
			<path class="st8" d="M40,108.9l-0.6-0.1l0.8-5.1l0.3,0l2.7,3.4l0.4-2.9l0.6,0.1l-0.8,5.1l-0.3,0l-2.7-3.4L40,108.9z"/>
			<path class="st8" d="M48.3,105.3l-1.1-0.1l-0.5,4.5l-1.1-0.1L46,105l-1.1-0.1l0.1-0.6l3.4,0.3L48.3,105.3z"/>
			<path class="st8" d="M50,107.7l-0.1,1.7l1.7,0.1l0,0.6l-2.9-0.2l0.3-5.1l2.9,0.2l0,0.6l-1.7-0.1l-0.1,1.7l1.1,0.1l0,0.6L50,107.7
				z"/>
			<path class="st8" d="M53,105l2.3,0.1c0.2,0,0.3,0,0.5,0.1c0.1,0.1,0.3,0.1,0.4,0.2c0.1,0.1,0.2,0.2,0.2,0.4
				c0,0.2,0.1,0.3,0.1,0.5v0.5c0,0.2,0,0.3-0.1,0.5c-0.1,0.1-0.1,0.2-0.2,0.3c-0.1,0.1-0.2,0.1-0.3,0.2c0.1,0.1,0.2,0.1,0.3,0.2
				c0.1,0.1,0.1,0.2,0.2,0.3c0.1,0.2,0.1,0.3,0.1,0.5l0,1.6l-1.1,0l0.1-2.3l-1.1,0l-0.1,2.3l-1.1,0L53,105z M55.2,107.3l0-1.7
				l-1.1,0l-0.1,1.7L55.2,107.3z"/>
			<path class="st8" d="M58.8,108l0,2.3h-1.1l0-5.1l2.3,0c0.1,0,0.3,0,0.4,0.1c0.1,0.1,0.3,0.1,0.4,0.2c0.1,0.1,0.2,0.2,0.3,0.4
				c0.1,0.1,0.1,0.3,0.1,0.5v0.6c0,0.1,0,0.3-0.1,0.4c-0.1,0.1-0.1,0.3-0.2,0.4c-0.1,0.1-0.2,0.2-0.4,0.3c-0.1,0.1-0.3,0.1-0.4,0.1
				L58.8,108z M59.9,107.4l0-1.7h-1.1l0,1.7H59.9z"/>
			<path class="st8" d="M62.1,105.1l2.3-0.1c0.2,0,0.3,0,0.5,0.1c0.1,0,0.3,0.1,0.4,0.2c0.1,0.1,0.2,0.2,0.2,0.4
				c0.1,0.1,0.1,0.3,0.1,0.5l0,0.5c0,0.2,0,0.3-0.1,0.5c-0.1,0.2-0.3,0.4-0.5,0.5c0.1,0,0.2,0.1,0.3,0.2c0.1,0.1,0.2,0.2,0.2,0.3
				c0.1,0.1,0.1,0.3,0.1,0.5l0.1,1.6l-1.1,0.1l-0.1-2.3l-1.1,0.1l0.1,2.3l-1.1,0.1L62.1,105.1z M64.5,107.2l-0.1-1.7l-1.1,0.1
				l0.1,1.7L64.5,107.2z"/>
			<path class="st8" d="M67.3,109.9l-0.4-5.1l1.1-0.1l0.4,5.1L67.3,109.9z"/>
			<path class="st8" d="M69.8,105.7c0-0.2,0-0.3,0-0.5c0-0.1,0.1-0.3,0.2-0.4c0.1-0.1,0.2-0.2,0.3-0.3c0.1-0.1,0.3-0.1,0.5-0.1
				l0.5-0.1c0.2,0,0.3,0,0.5,0c0.1,0,0.3,0.1,0.4,0.2c0.1,0.1,0.2,0.2,0.3,0.3c0.1,0.1,0.1,0.3,0.1,0.4l-0.6,0.1
				c0-0.2-0.1-0.3-0.2-0.4c-0.2-0.1-0.3-0.1-0.5-0.1l-0.5,0.1l0.1,0.8c0,0.1,0.1,0.2,0.2,0.2c0.1,0.1,0.2,0.2,0.4,0.3
				s0.3,0.2,0.5,0.3s0.3,0.2,0.5,0.4c0.1,0.1,0.3,0.2,0.4,0.4c0.1,0.1,0.2,0.3,0.2,0.4l0,0.4c0,0.3,0,0.6-0.2,0.8
				c-0.1,0.1-0.2,0.2-0.3,0.3c-0.1,0.1-0.3,0.1-0.5,0.1l-0.5,0.1c-0.2,0-0.3,0-0.5,0c-0.1,0-0.3-0.1-0.4-0.2
				c-0.1-0.1-0.2-0.2-0.3-0.3c-0.1-0.1-0.1-0.3-0.1-0.4l0.6-0.1c0,0.2,0.1,0.3,0.2,0.4c0.1,0.1,0.3,0.1,0.5,0.1l0.5-0.1l-0.1-0.8
				c0-0.1-0.1-0.2-0.2-0.3c-0.1-0.1-0.2-0.2-0.4-0.3c-0.1-0.1-0.3-0.2-0.5-0.3c-0.2-0.1-0.3-0.2-0.5-0.3c-0.1-0.1-0.3-0.2-0.4-0.4
				c-0.1-0.1-0.1-0.2-0.2-0.4L69.8,105.7z"/>
			<path class="st8" d="M75.2,106.7l0.3,1.7l1.7-0.3l0.1,0.6l-2.8,0.4l-0.8-5.1l2.8-0.4l0.1,0.6l-1.7,0.3l0.3,1.7l1.1-0.2l0.1,0.6
				L75.2,106.7z"/>
			<path class="st8" d="M77.7,104.6c0-0.2,0-0.3,0-0.5c0-0.1,0.1-0.3,0.2-0.4c0.1-0.1,0.2-0.2,0.3-0.3c0.1-0.1,0.3-0.1,0.4-0.2
				l0.5-0.1c0.2,0,0.3,0,0.5,0c0.1,0,0.3,0.1,0.4,0.2c0.3,0.2,0.4,0.4,0.5,0.7l-0.6,0.1c0-0.2-0.1-0.3-0.3-0.4
				c-0.2-0.1-0.4-0.1-0.5-0.1l-0.4,0.1l0.2,0.8c0,0.1,0.1,0.2,0.2,0.2c0.1,0.1,0.2,0.2,0.4,0.2l0.5,0.3c0.2,0.1,0.3,0.2,0.5,0.3
				c0.1,0.1,0.3,0.2,0.4,0.4c0.1,0.1,0.2,0.2,0.2,0.4l0.1,0.4c0.1,0.5-0.1,0.9-0.5,1.2c-0.1,0.1-0.3,0.2-0.5,0.2l-0.5,0.1
				c-0.2,0-0.3,0-0.5,0c-0.1,0-0.3-0.1-0.4-0.2c-0.1-0.1-0.2-0.2-0.3-0.3c-0.1-0.1-0.1-0.3-0.2-0.4l0.6-0.1c0,0.2,0.1,0.3,0.2,0.4
				c0.1,0.1,0.3,0.1,0.5,0.1l0.5-0.1l-0.2-0.8c0-0.1-0.1-0.2-0.2-0.3c-0.1-0.1-0.2-0.2-0.4-0.3c-0.1-0.1-0.3-0.2-0.5-0.3
				s-0.3-0.2-0.5-0.3c-0.1-0.1-0.3-0.2-0.4-0.3c-0.1-0.1-0.2-0.2-0.2-0.3L77.7,104.6z"/>
			<g id="_Group_66">
				<path id="_Compound_Path_11" d="M29.2,99.7c-0.3,0-0.7,0-1-0.1c-1.1-0.2-2.2-0.5-3.2-0.9c-1.5-0.6-3.1-1.2-4.8-1.6
					c-0.6-0.1-1.1-0.7-1.2-1.3c-0.1-0.7,0.2-1.3,0.8-1.6L40,82.7c-0.1-0.5-0.3-1.1-0.4-1.6c-0.6-2.2-1.6-5.4-2.3-7.6
					c-6.8,3.7-11.4,6.4-11.4,6.5c-0.3,0.2-1.9,1-4.7,1c-0.7,0-1.5-0.1-2.2-0.2c-1.2-0.2-2.4-0.5-3.6-0.8l-1.6-0.5
					c-0.5-0.2-0.7-0.7-0.6-1.1c0.1-0.2,0.2-0.4,0.4-0.5l1.5-0.8c0.2-0.1,2.5-1.3,6.2-3.2l-5.2-0.7c-0.8-0.1-1.4-0.7-1.4-1.5
					c0-0.6,0.3-1.1,0.8-1.4c0.5-0.3,1.1-0.7,1.6-1l0.3-0.2c0.7-0.4,1.4-0.8,2-1.2l2-1.2c0.5-0.3,1-0.6,1.5-0.8l0.5-0.3
					c0.7-0.4,1.4-0.8,2-1.1l0.2-0.1c0.3-0.2,0.6-0.3,0.9-0.5l0.1-0.1l-4.1-13.2c-0.3-0.8,0.2-1.7,1-2c0,0,0,0,0,0
					c0.2,0,0.3-0.1,0.5-0.1l4-0.1c0.1,0,0.2,0,0.2,0c0.4,0.1,0.7,0.2,1,0.5l7.9,8.6l5.6-3.1c0.9-0.5,2-0.8,3.1-0.8l5-0.1
					c0.1,0,0.2,0,0.2,0c0.7,0.1,1.2,0.6,1.4,1.3c0.1,0.4,0,0.7-0.2,1l2.7-0.5c6.2-3.7,10.9-6.7,14.1-9.1c14.1-10.6,20-15.1,20-15.2
					l0.2-0.2l0.2-0.1c0.6-0.2,3.8-1.3,6.6-1.3c0.4,0,0.9,0,1.3,0.1c1.7,0.2,2.8,0.9,3.5,2.1l0.7,1.2l-1,0.9c-0.2,0.2-5.2,4.4-12,9.6
					c0.1,0.9,0.3,2.7,0.5,4.4c0.2-0.1,0.4-0.2,0.6-0.3c0.5-0.1,5-0.9,7.7-1.1c0.2,0,0.4,0,0.6,0c0.4,0,0.8,0,1.2,0.1
					c2.2,0.3,3.4,1.5,3.8,2.5c0.2,0.6,0.1,1.3-0.4,1.7c-1.3,1.2-8,7.1-11.7,10.2c0.1,0.1,0.2,0.2,0.3,0.3c0.8-0.6,1.7-1.2,2.7-1.6
					c1.1-0.5,2.3-0.7,3.6-0.7c0.5,0,0.9,0,1.4,0.1c0.2,0,0.3,0.1,0.3,0.1l0.7,0.1l0.2,0.7l0.7,2l-0.6,0.6c-0.1,0.1-3.1,2.6-6.8,3.2
					c-0.1,0.8-0.5,1.6-1,2.2c-0.4,0.4-0.9,0.8-1.5,1.1c1.4,0.5,2.5,1.4,2.9,2.5c0.5,1.2,0.3,2.5-0.4,3.5c-0.4,0.5-0.9,1-1.4,1.4
					c-0.1,0.4-0.3,0.8-0.6,1.2c-0.5,0.6-1.2,0.9-2.2,0.9H89c-0.2,0-0.4,0-0.6,0c-1-0.1-1.8-0.7-2.3-1.5c-1.5-0.6-2.9-1.3-4.3-2.1
					c-2.5,1.5-4.5,2.4-6.2,2.8c-0.2,0.1-0.5,0.1-0.7,0.2l-1.8,6c1.6,1.1,2.9,2.8,2.5,4.3c-0.4,1.3-2.3,3.2-4.4,3.4
					c-0.1,0-0.3,0-0.4,0c-0.3,0-0.6,0-0.8-0.1c-1.9-0.3-4.2-1.4-5-1.8l-0.3-0.1c-1.6-0.9-3.6-1.9-3.5-3.7c0-0.7,0.4-1.7,2.1-2.5
					c1.2-0.5,2.7-0.8,4.5-0.8c0.5,0,1.1,0,1.6,0.1l1.2-4.7c-0.5-0.1-0.9-0.2-1.2-0.2L31.7,99C31,99.5,30.1,99.8,29.2,99.7z
					 M41.3,71.3c0.5,2,1.5,5.9,2.4,9.2l10.6-6.1l-12.6-3.3L41.3,71.3z M73.1,59l2.5,0l9.6-8c-0.2-1.3-0.3-2.9-0.6-4.9
					c-4.6,3.4-8.9,6.4-12.9,8.9c-0.1,0.9,0,1.7,0.5,2.5C72.5,58.1,72.8,58.6,73.1,59z"/>
				<g id="_Group_67">
					<g id="_Group_68">
						<g id="_Group_69">
							<g id="_Group_70">
								<path id="_Compound_Path_12" d="M28.3,99.1c-1.1-0.2-2.1-0.5-3.1-0.9c-1.6-0.6-3.2-1.2-4.8-1.6c-0.4-0.1-0.8-0.4-0.8-0.9
									c-0.1-0.4,0.1-0.9,0.5-1.1l20.5-11.8c-0.1-0.6-0.3-1.3-0.5-2c-0.6-2.4-1.8-6.3-2.5-8.2c-7.1,3.9-12,6.7-12,6.8
									c-0.3,0.1-2.5,1.3-6.6,0.8c-1.2-0.2-2.4-0.4-3.5-0.8l-1.6-0.5c-0.2-0.1-0.3-0.3-0.2-0.4c0-0.1,0.1-0.2,0.2-0.2l1.5-0.8
									c0.1,0,7.6-3.9,17.4-9.2l-0.4-0.1l-9.9,5c-0.2,0.1-0.4,0.1-0.6,0.1l-5.6-0.8c-0.5-0.1-0.9-0.5-1-1c0-0.4,0.2-0.7,0.5-1
									c0.5-0.3,1.1-0.7,1.6-1l0.3-0.2c0.7-0.4,1.4-0.8,2-1.2l2-1.2c0.5-0.3,1-0.6,1.5-0.9l0.5-0.3c0.7-0.4,1.4-0.8,2-1.1l0.2-0.1
									c0.3-0.2,0.5-0.3,0.9-0.5c0,0,0.1,0,0.1-0.1h0c0.1,0,0.1,0,0.2-0.1l0.2,0L23,50.3c-0.2-0.6,0.1-1.2,0.7-1.3c0,0,0,0,0,0
									c0.1,0,0.2-0.1,0.3,0l4-0.1c0.1,0,0.1,0,0.2,0c0.2,0,0.5,0.2,0.6,0.4l8.2,8.9l6-3.3c0.9-0.5,1.8-0.7,2.8-0.8l5-0.1
									c0.5,0,1,0.4,1.1,0.9c0.1,0.4-0.1,0.8-0.4,1l-1,0.8l4.7-0.9c6.2-3.7,11-6.8,14.2-9.2c14.1-10.6,20-15.1,20-15.2l0.1-0.1
									l0.2-0.1c0.5-0.2,4.6-1.6,7.7-1.2c1.5,0.2,2.5,0.8,3.1,1.8l0.4,0.8l-0.7,0.6c0,0-5.1,4.4-12.2,9.8c0.1,1.3,0.4,3.6,0.6,5.8
									l0.6-0.6c0.1-0.1,0.3-0.2,0.5-0.3c0,0,4.9-0.9,7.7-1c0.6,0,1.2,0,1.7,0.1c2,0.3,3.1,1.3,3.4,2.1c0.2,0.4,0,0.9-0.3,1.2
									c-0.9,0.8-8.5,7.6-12.2,10.6c0.4,0.3,0.7,0.6,1,1c0.9-0.7,1.9-1.4,3-1.9c1.9-0.9,3.9-0.7,4.7-0.6c0.2,0,0.3,0,0.3,0l0.4,0.1
									l0.1,0.4l0.6,1.7l-0.4,0.3c-0.1,0.1-3.2,2.7-7,3.1c0,0.8-0.3,1.7-0.9,2.3c-0.7,0.7-1.6,1.2-2.9,1.4l-0.1,0.2
									c0.1,0,0.3,0,0.4,0c0.2,0,0.4,0.1,0.5,0.1c1.7,0.4,2.9,1.2,3.4,2.4c0.4,1,0.2,2.1-0.4,3c-0.4,0.5-0.9,1-1.5,1.3
									c0,0.4-0.2,0.8-0.5,1.2c-0.5,0.5-1.1,0.8-1.8,0.7c-0.2,0-0.4,0-0.7,0c-0.9-0.1-1.6-0.6-2-1.4c-1.6-0.6-3.2-1.4-4.7-2.3
									c-2.6,1.6-4.7,2.5-6.3,2.9c-0.3,0.1-0.7,0.1-1,0.2l-2,6.7c1.6,1,3,2.7,2.6,3.9c-0.3,1.1-2.1,2.9-3.9,3c-0.4,0-0.8,0-1.2,0
									c-1.9-0.3-4-1.3-4.8-1.8l-0.3-0.1c-1.5-0.8-3.3-1.8-3.3-3.2c0-0.8,0.6-1.5,1.7-2c2.1-0.9,4.8-0.8,6.3-0.6l1.4-5.8
									c-0.2,0-0.3,0-0.5-0.1c-0.5-0.1-1-0.2-1.5-0.3l-37.8,22C30.9,98.9,30,99.4,28.3,99.1z M40.7,71.1c0.5,2,1.6,6.7,2.7,10.3
									l12.3-7.1l-14.1-3.7L40.7,71.1z M69,58.3c-0.3,0.4-0.6,0.8-0.9,1.2c0.5,0,0.9,0,1.4,0C69.3,59.1,69.1,58.7,69,58.3L69,58.3z
									 M71.2,54.8c-0.2,1.1,0,2.2,0.5,3.1c0.3,0.6,0.7,1.1,1,1.7c0.6,0,1.7,0,3,0l10-8.4c-0.2-1.5-0.4-3.6-0.7-6.1
									C80.1,48.8,75.5,52.1,71.2,54.8L71.2,54.8z M65.2,58.4l0.1,0.1c0.1-0.1,0.2-0.2,0.3-0.3L65.2,58.4z"/>
							</g>
						</g>
						<g id="_Group_71">
							<g id="_Group_72">
								<g id="_Group_73">
									<path class="st9" d="M99.1,32.2c-1.5-1.8-6.8-0.5-8.8,0.2c-0.6,0.4-6.6,5-20,15.2c-13,9.8-47.8,27.8-53.4,30.7
										c4.2,1.2,6.9,0.4,7.8,0.1l-0.1-0.1c-0.1-0.1-0.2-0.2-0.3-0.2c-0.1,0-0.1-0.1-0.2-0.1c-0.1,0-0.1-0.1-0.2-0.1
										c-0.1,0-0.1-0.1-0.2-0.1c-0.1,0-0.2-0.1-0.2-0.1c-0.1,0-0.2-0.1-0.3-0.1c-0.1,0-0.2-0.1-0.3-0.1l-0.1,0l-0.1,0h0h0l-0.3,0
										c-0.2,0-0.4,0-0.6,0s-0.4,0-0.6,0c-0.2,0-0.4,0-0.5,0s-0.3,0-0.5,0.1c-0.3,0.1-0.6,0.1-0.7,0.2c-0.2,0-0.3,0.1-0.3,0.1
										c0.1-0.1,0.2-0.1,0.2-0.1c0.2-0.1,0.4-0.2,0.7-0.3c0.1-0.1,0.3-0.1,0.5-0.2c0.1,0,0.2-0.1,0.3-0.1c0.1,0,0.2,0,0.3-0.1
										c0.1,0,0.2,0,0.3,0c0.1,0,0.2,0,0.3,0c0.2,0,0.4,0,0.6,0l0.3,0h0.1h0.1l0.2,0c0.1,0,0.2,0,0.3,0.1c0.1,0,0.2,0,0.3,0.1
										c0.1,0,0.2,0.1,0.3,0.1c0.1,0,0.2,0.1,0.3,0.1c0.1,0,0.2,0.1,0.3,0.1c0.1,0,0.2,0.1,0.2,0.1c0.1,0.1,0.3,0.2,0.4,0.3
										c0.1,0.1,0.1,0.2,0.2,0.3c2.4-1.4,18-10.4,33.9-18.1C75.4,52.2,96.6,34.3,99.1,32.2z"/>
								</g>
							</g>
							<g id="_Group_74">
								<g id="_Group_75">
									<path class="st15" d="M90.3,32.5c-0.4,0.3-3.1,2.3-8.6,6.6c0.6,0.2,1.1,0.9,1,2.7c-0.3,3.5-54.1,32.3-59.4,35.1l0.1,0
										c0.1,0,0.2,0,0.3,0.1c0.1,0,0.2,0.1,0.3,0.1c0.1,0,0.2,0.1,0.3,0.1c0.1,0,0.2,0.1,0.3,0.1c0.1,0,0.2,0.1,0.2,0.1
										c0.1,0.1,0.3,0.2,0.4,0.3c0.1,0.1,0.1,0.2,0.2,0.3c2.4-1.4,18-10.4,33.9-18.1c16.2-7.8,37.4-25.6,39.9-27.8
										C97.6,30.4,92.3,31.7,90.3,32.5z"/>
								</g>
							</g>
							<g id="_Group_76">
								<g id="_Group_77">
									<path class="st9" d="M62.8,59.8l-0.6-0.5c-0.9,0.5-1.8,0.9-2.7,1.4c-1.7,0.8-3.5,1.7-5.2,2.6l0.7,3.3l1.5,0.2
										c0.1-1.4,0.7-2.7,1.6-3.8C59.3,61.2,61.7,60.2,62.8,59.8z"/>
								</g>
							</g>
							<g id="_Group_78">
								<g id="_Group_79">
									<path class="st9" d="M33.7,63.5l-1.2,0.4c-0.3,0.1-0.6,0.2-0.9,0.3c-0.4,0.1-0.7,0.2-1.1,0.3c-0.4,0.1-0.7,0.2-1.1,0.3
										c-0.4,0.1-0.7,0.2-1.1,0.3l-0.6,0.1l-0.3,0.1l-0.1,0h0l0,0c-0.3,0.2-0.6,0.4-1,0.6l-1.9,1.2l-1.9,1.2l-1.9,1.2
										c-0.6,0.4-1.3,0.8-1.9,1.2l-1.1,0.6l4.5,0.6l15.5-7.8L33.7,63.5z"/>
								</g>
							</g>
							<g id="_Group_80">
								<g id="_Group_81">
									<path class="st9" d="M50.8,64.9l0.3,1.1l3,0.4l-0.6-2.8C52.5,64,51.7,64.5,50.8,64.9z"/>
								</g>
							</g>
							<g id="_Group_82">
								<g id="_Group_83">
									<path class="st9" d="M30.1,60.3c0.6,0.4,1.2,0.7,1.9,0.8l4.9-1l-9-9.8h-0.8c-0.7,0.2-1.2,0.9-1.1,1.6
										C26.1,53.7,28.3,59.1,30.1,60.3z"/>
								</g>
							</g>
							<g id="_Group_84">
								<g id="_Group_85">
									<path class="st9" d="M46.6,58.9l-0.2,0l-13.5,2.7c0.1,0.1,0.2,0.2,0.3,0.4l0.6,0.9l4.7,0.7c0.2,0,0.3,0.2,0.3,0.3
										c0.5-0.1,1.5-0.3,1.5-0.6c0-0.5-2.7-1.6-2.7-1.6l10.5-1c1.9-1.1,3.7-2.1,5.6-3.2L46.6,58.9L46.6,58.9z"/>
								</g>
							</g>
							<g id="_Group_86">
								<g id="_Group_87">
									<path class="st15" d="M46.3,58.2L46.3,58.2l3.5-2.8l-4,0.1c-0.8,0-1.5,0.2-2.2,0.6l-6.3,3.5l0.1,0.1L46.3,58.2z"/>
								</g>
							</g>
							<g id="_Group_88">
								<path id="_Path_47" class="st9" d="M87.5,62.8c-0.1,0-0.9,0.2-1.3,1.2c-0.2,0.6-0.2,1.3,0,2c0.8-0.1,1.2-0.1,1.2-0.1
									s0.4,0.8,0.3,1.3c0,0,0,0-0.1,0.1c1.5-0.1,2.7-0.5,3.3-1.1c0.4-0.4,0.6-1,0.5-1.6C91.3,63.3,88.5,62.9,87.5,62.8z"/>
							</g>
							<g id="_Group_89">
								<path id="_Path_48" class="st15" d="M91.1,64c-0.3,0.3-0.7,0.6-1.1,0.9c-1.5,1.1-3.4,0.7-4,0.6c0,0.2,0.1,0.3,0.1,0.5
									c0.8-0.1,1.2-0.1,1.2-0.1s0.4,0.8,0.3,1.3c0,0,0,0-0.1,0.1c1.5-0.1,2.7-0.5,3.3-1.1c0.4-0.4,0.6-1,0.5-1.6
									C91.4,64.4,91.3,64.1,91.1,64z"/>
							</g>
							<g id="_Group_90">
								<g id="_Group_91">
									<path class="st9" d="M72.8,61c0.3,0.5,0.5,0.9,0.5,0.9s-2.6,1-3,4.6L59.2,66c-0.6,0.9-1.1,1.9-1.5,3c0,0.2,0,0.3,0.1,0.5
										c0.4,1.3,3.9,1.7,8.3,2.3s6,3,6,3c2.1,0.3,5.2-0.5,7.2-1.1c2.1-1.1,4.2-2.5,5.7-3.5l0.5-0.4c0.8-0.5,1.5-1.1,2.2-1.7
										c-0.2,0-0.4,0-0.6,0c-1,1-2.2,1.7-3.5,2c-3.2,0.9-5.2,0.5-5.2,0.5l-0.7-1.2c0,0,1.8-2.3,4.7-2.8c1.2-0.2,2.2-0.3,3-0.5
										c-0.2-0.8-0.2-1.6,0.1-2.3c0.6-1.5,1.9-1.7,1.9-1.7h0c0.8,0,1.7,0.2,2.5,0.4c-0.2-0.4-0.6-0.7-1-0.8
										C88,61.3,79,61.1,72.8,61z"/>
								</g>
							</g>
							<g id="_Group_92">
								<g id="_Group_93">
									<path class="st15" d="M84.9,70l0.5-0.4c0.8-0.5,1.5-1.1,2.2-1.7c-0.2,0-0.4,0-0.6,0c-1,1-2.2,1.7-3.5,2
										c-3.2,0.9-5.2,0.5-5.2,0.5l-0.2-0.4c-5.2,1.3-16.8-1-20.3-1.7c-0.1,0.1-0.1,0.3-0.2,0.5c0,0.2,0,0.3,0.1,0.5
										c0.4,1.3,3.9,1.7,8.3,2.3s6,3,6,3c2.1,0.3,5.2-0.5,7.2-1.1C81.4,72.5,83.4,71,84.9,70z"/>
								</g>
							</g>
							<g id="_Group_94">
								<g id="_Group_95">
									<path class="st9" d="M97.6,48.2c-2.5,0.1-6.7,0.9-7.4,1l-1.9,1.7c0,0.3,0.1,0.6,0.1,0.9c0.4,2.8,1.1,3.9,1.1,3.9h-3
										c0,0,0.4-1.2,0.2-2.1c0-0.2-0.1-0.6-0.2-1.3l-9.5,7.9c3.6,0.1,8.2,0.2,10.6,0.4c1.9-1.2,11.9-10.2,13.5-11.6
										C100.8,48.8,99.8,48.1,97.6,48.2z"/>
								</g>
							</g>
							<g id="_Group_96">
								<g id="_Group_97">
									<g id="_Group_98">
										<path class="st9" d="M86.7,53.7c0-0.2-0.1-0.6-0.2-1.3l-1.1,0.9c0.2,0.9,0.5,1.7,1,2.4C86.5,55.7,86.9,54.6,86.7,53.7z"/>
									</g>
								</g>
								<g id="_Group_99">
									<g id="_Group_100">
										<path class="st15" d="M97.6,48.2c-2.5,0.1-6.7,0.9-7.4,1l-1.9,1.7c0,0.3,0.1,0.6,0.1,0.9c0.4,2.8,1.1,3.9,1.1,3.9h-3
											c-1.5,3.1-5.4,4.2-8.3,4.6c3.4,0.1,7.3,0.2,9.5,0.4c1.9-1.2,11.9-10.2,13.5-11.6C100.8,48.8,99.8,48.1,97.6,48.2z"/>
									</g>
								</g>
							</g>
							<g id="_Group_101">
								<g id="_Group_102">
									<path class="st15" d="M84.1,71.5l3.6,2.1l1.2-2.1c0,0,2.3,0.5,3.1,1.4c0.2-0.4,0.2-0.8,0-1.2c-0.3-0.7-1.2-1.3-2.4-1.6
										c-1.5-0.3-3-0.1-4.4,0.5C84.9,71,84.5,71.2,84.1,71.5z"/>
								</g>
							</g>
							<g id="_Group_103">
								<path id="_Path_49" class="st9" d="M66.3,73.3c-1.8-0.2-3.7,0-5.5,0.4c-0.5,0.1-1,0.2-1.5,0.2l-16.3,9.3c0.3,1,0.6,2,1,2.9
									l-2.3-0.3c0-0.6-0.1-1.1-0.2-1.7l-20,11.4c1.4,0.4,2.8,0.9,4.2,1.4c2.9,1.2,4.2,0.9,4.7,0.6v0c0-0.1-0.1-0.2-0.2-0.3
									c-0.1-0.1-0.2-0.2-0.3-0.3c-0.1-0.1-0.3-0.2-0.4-0.3c-0.2-0.1-0.4-0.2-0.6-0.3c-0.2-0.1-0.4-0.2-0.6-0.3
									c-0.2-0.1-0.5-0.2-0.7-0.2c-0.5-0.1-0.9-0.2-1.4-0.3c-0.5-0.1-0.9-0.2-1.2-0.2c-0.4-0.1-0.7-0.1-0.9-0.1l-0.3-0.1
									c0,0,0.1,0,0.3,0c0.2,0,0.5,0,0.9,0s0.8,0,1.3,0.1c0.5,0.1,1,0.1,1.5,0.2c0.2,0,0.5,0.1,0.7,0.2s0.5,0.1,0.7,0.2
									c0.2,0.1,0.4,0.2,0.6,0.3c0.2,0.1,0.4,0.2,0.6,0.3c0.2,0.1,0.3,0.2,0.4,0.4c0.1,0.1,0.2,0.2,0.2,0.3l39-22.7
									C69.6,74.1,68.6,73.5,66.3,73.3z"/>
							</g>
							<g id="_Group_104">
								<g id="_Group_105">
									<path class="st15" d="M70,74.5c-0.4-0.4-1.4-1-3.7-1.2c-1.8-0.2-3.7,0-5.5,0.4c-0.5,0.1-1,0.2-1.5,0.2l-2,1.1l0,0
										c0,0,3.7-0.1,2.9,2.2C59.7,79.3,32,93.6,28.3,95.5l0.2,0c0.2,0.1,0.5,0.1,0.7,0.2c0.2,0.1,0.4,0.2,0.6,0.3
										c0.2,0.1,0.4,0.2,0.6,0.3c0.2,0.1,0.3,0.2,0.4,0.4c0.1,0.1,0.2,0.2,0.2,0.3L70,74.5z"/>
								</g>
							</g>
							<g id="_Group_106">
								<g id="_Group_107">
									<path class="st15" d="M70.2,84.2c-0.8-0.1-1.7-0.2-2.5-0.2c-0.4,0.4-0.7,0.9-0.8,1.4c0,0,4.7,0.6,6.5,2.2
										c0.2-0.2,0.3-0.4,0.4-0.6c0.1-0.3-1.1-2.2-3.1-2.8C70.6,84.2,70.5,84.2,70.2,84.2z"/>
								</g>
							</g>
							<g id="_Group_108">
								<g id="_Group_109">
									<path class="st9" d="M57.9,66.8c2.1-3.9,4.9-5.6,6.1-6.2l-0.1-0.4l-0.4,0.1c0,0-3.4,1.1-5.1,3.1c-0.8,1-1.3,2.1-1.4,3.4
										L57.9,66.8z"/>
								</g>
							</g>
							<g id="_Group_110">
								<g id="_Group_111">
									<g id="_Group_112">
										<path d="M97.6,47.5c-2.7,0.2-7.5,1-7.6,1c-0.1,0-0.1,0-0.2,0.1l-1.6,1.5c-0.3-2.7-0.7-6.3-0.9-7.5
											c7.2-5.5,12.4-9.9,12.5-10l0.2-0.2l-0.1-0.3c-1.8-3.1-9.6-0.4-9.9-0.3l-0.1,0l0,0c-0.1,0-6,4.6-20,15.2
											c-3.5,2.7-8.6,5.9-14.4,9.3l-7.6,1.5l3.2-2.6c0.1-0.1,0.2-0.2,0.1-0.3c0-0.2-0.2-0.3-0.4-0.3l-5,0.1
											c-0.9,0-1.7,0.2-2.5,0.7L36.9,59l-8.6-9.3c-0.1-0.1-0.2-0.1-0.3-0.1L24,49.6c-0.1,0-0.2,0.1-0.3,0.1
											c-0.1,0.1-0.1,0.2-0.1,0.3l4.5,14.5l0,0l-0.6,0.1l-0.3,0.1l-0.1,0c0,0-0.1,0-0.1,0l-0.1,0c-0.4,0.2-0.7,0.4-1,0.5
											c-0.7,0.4-1.3,0.7-2,1.1s-1.3,0.8-2,1.2l-2,1.2c-0.7,0.4-1.3,0.8-1.9,1.2s-1.3,0.8-1.9,1.2l0,0C16,71.2,16,71.4,16,71.5
											c0,0.2,0.2,0.3,0.3,0.3l5.6,0.8c0.1,0,0.1,0,0.2,0l10.1-5.1l2.7,0.5c-10.5,5.7-19,10-19.2,10.1l0,0
											c-0.2,0.1-0.2,0.3-0.2,0.5c0,0.1,0.1,0.1,0.2,0.2l0,0c1.1,0.4,2.2,0.6,3.4,0.8c4,0.5,6-0.6,6.2-0.7s5.3-3.1,12.8-7.2
											c0.4,1.3,2,6.2,2.7,9.1c0.3,1,0.5,1.9,0.6,2.6l-21,12c-0.1,0.1-0.2,0.2-0.2,0.4c0,0.1,0.1,0.3,0.3,0.3
											c1.7,0.4,3.4,1,5,1.6c0.9,0.4,1.9,0.7,2.9,0.8c1.5,0.2,2.3-0.2,2.6-0.5l38.1-22.1c0.5,0.2,1.1,0.3,1.7,0.4
											c0.4,0.1,0.8,0.1,1.3,0.1l-1.8,7.2C69.1,83.3,66,83,63.8,84c-0.9,0.4-1.3,0.8-1.3,1.4c0,1,1.6,1.9,2.9,2.6l0.3,0.1
											c0.7,0.4,2.8,1.4,4.6,1.7c0.3,0,0.7,0.1,1,0c1.6-0.1,3.1-1.7,3.3-2.5c0.3-0.9-1-2.5-2.8-3.4l2.3-7.7
											c0.5-0.1,0.9-0.1,1.4-0.2c2-0.5,4.4-1.7,6.5-3.1c0.7,0.4,3.2,1.8,5.2,2.5c0.1,0.5,0.6,1.3,2.1,1.3c1.5,0,1.6-1,1.6-1.6
											c0.6-0.3,1.2-0.7,1.6-1.3c0.5-0.7,0.6-1.5,0.3-2.3c-0.4-1-1.5-1.7-2.9-2c-0.9-0.2-1.9-0.2-2.8-0.1c0.7-0.5,1.3-1,1.8-1.6
											c1.2-0.2,2.1-0.6,2.7-1.3c0.6-0.6,0.8-1.4,0.7-2.2c0-0.1,0-0.2-0.1-0.3c3.9,0,7.3-2.9,7.3-2.9L99,60c0,0-2.4-0.5-4.5,0.5
											c-1.3,0.6-2.5,1.4-3.6,2.4C90.7,62,90,61.4,89.2,61c-0.2-0.1-0.3-0.1-0.5-0.1c3.2-2.4,12.7-10.9,13.1-11.3
											c0.1-0.1,0.1-0.2,0.1-0.4C101.7,48.5,100.5,47.3,97.6,47.5z M86.5,51.6L76,60.3c-1.7,0-3-0.1-3.6-0.1
											c-0.4-0.6-0.8-1.3-1.2-2.1c-0.9-1.5-0.7-3.1-0.5-3.9c5.2-3.3,10.5-7,15-10.5C85.7,45.1,86.2,49.1,86.5,51.6L86.5,51.6z
											 M70.4,60.1c0,0-2.7,0.5-3.1-0.1c-0.4-0.6,1.8-2.9,1.8-2.9C69.7,57.9,70.4,60.1,70.4,60.1L70.4,60.1z M53.6,57.4
											c-1.8,1.1-3.7,2.1-5.6,3.2l-10.5,1c0,0,2.7,1.1,2.7,1.6c0,0.4-0.9,0.6-1.5,0.6c0-0.2-0.1-0.3-0.3-0.3l-4.7-0.7L33.3,62
											c-0.1-0.1-0.2-0.3-0.3-0.4l13.5-2.7l0.2,0l0,0L53.6,57.4z M43.8,56c0.7-0.4,1.4-0.6,2.2-0.6l4-0.1l-3.5,2.8l-0.1,0
											l-8.8,1.5l-0.1-0.1L43.8,56z M26,51.9c-0.1-0.7,0.4-1.4,1.1-1.6h0.8l9,9.8l-4.9,1c-0.7-0.1-1.3-0.4-1.9-0.8
											C28.3,59.1,26.1,53.7,26,51.9z M21.9,71.9l-4.5-0.6l1.1-0.6c0.7-0.4,1.3-0.8,1.9-1.2l1.9-1.2l1.9-1.2l1.9-1.2
											c0.3-0.2,0.7-0.4,1-0.6l0,0h0l0.1,0l0.3-0.1l0.6-0.1c0.4-0.1,0.7-0.2,1.1-0.3c0.4-0.1,0.7-0.2,1.1-0.3
											c0.4-0.1,0.7-0.2,1.1-0.3c0.3-0.1,0.6-0.2,0.9-0.3l1.2-0.4l3.7,0.6L21.9,71.9z M25.2,78.1c-0.1-0.1-0.1-0.2-0.2-0.3
											c-0.1-0.1-0.2-0.2-0.4-0.3c-0.1,0-0.1-0.1-0.2-0.1c-0.1,0-0.2-0.1-0.3-0.1c-0.1,0-0.2-0.1-0.3-0.1c-0.1,0-0.2-0.1-0.3-0.1
											c-0.1,0-0.2-0.1-0.3-0.1s-0.2,0-0.3-0.1l-0.2,0h-0.1h-0.1l-0.3,0c-0.2,0-0.4,0-0.6,0c-0.1,0-0.2,0-0.3,0
											c-0.1,0-0.2,0-0.3,0s-0.2,0-0.3,0.1c-0.1,0-0.2,0-0.3,0.1c-0.2,0-0.3,0.1-0.5,0.2c-0.2,0.1-0.5,0.2-0.7,0.3
											c-0.1,0-0.2,0.1-0.2,0.1c0,0,0.1,0,0.3-0.1c0.2,0,0.4-0.1,0.7-0.2c0.1,0,0.3,0,0.5-0.1c0.2,0,0.4,0,0.5,0
											c0.2,0,0.4,0,0.6,0c0.2,0,0.4,0,0.6,0l0.3,0h0h0l0.1,0l0.1,0c0.1,0,0.2,0,0.3,0.1c0.1,0,0.2,0.1,0.3,0.1
											c0.1,0,0.2,0.1,0.2,0.1c0.1,0,0.1,0.1,0.2,0.1c0.1,0,0.1,0.1,0.2,0.1c0.1,0,0.1,0.1,0.2,0.1c0.1,0.1,0.2,0.2,0.3,0.2
											l0.1,0.1c-0.9,0.4-3.5,1.1-7.8-0.1c5.7-2.9,40.5-20.9,53.4-30.7c13.4-10.1,19.4-14.7,20-15.2c2-0.7,7.3-2.1,8.8-0.2
											c-2.5,2.1-23.7,20-39.9,27.8C43.2,67.7,27.6,76.7,25.2,78.1z M56.4,66.7L55,66.5l-0.7-3.3c1.7-0.9,3.5-1.7,5.2-2.6
											c0.9-0.4,1.8-0.9,2.7-1.4l0.6,0.5c-1.1,0.4-3.5,1.4-4.8,3.1C57.1,64,56.5,65.3,56.4,66.7z M54.1,66.4l-3-0.4l-0.3-1.1
											c0.9-0.4,1.8-0.9,2.6-1.3L54.1,66.4z M62.8,58.9l0.8-0.4l0.2,1.3L62.8,58.9z M58.5,63.4c1.6-2,5-3.1,5.1-3.1l0.4-0.1
											l0.1,0.4c-1.2,0.6-4.1,2.4-6.1,6.2l-0.7-0.1C57.2,65.5,57.7,64.3,58.5,63.4L58.5,63.4z M64.4,58.1c0.9-0.5,1.8-1,2.8-1.6
											c-0.1,1.2-1.3,2.9-1.9,2.8C64.8,59.2,64.5,58.5,64.4,58.1L64.4,58.1z M39.9,70.7l1.6-0.9l16.1,4.2l-14.6,8.4
											C41.7,78.3,40.2,72.2,39.9,70.7L39.9,70.7z M31,97.1c-0.1-0.1-0.1-0.2-0.2-0.3c-0.1-0.1-0.3-0.3-0.4-0.4
											c-0.2-0.1-0.4-0.2-0.6-0.3c-0.2-0.1-0.4-0.2-0.6-0.3c-0.2-0.1-0.5-0.2-0.7-0.2s-0.5-0.1-0.7-0.2c-0.5-0.1-1-0.2-1.5-0.2
											c-0.5-0.1-0.9-0.1-1.3-0.1s-0.7,0-0.9,0s-0.3,0-0.3,0l0.3,0.1c0.2,0,0.5,0.1,0.9,0.1c0.4,0.1,0.8,0.1,1.2,0.2
											c0.4,0.1,0.9,0.2,1.4,0.3c0.2,0.1,0.5,0.1,0.7,0.2c0.2,0.1,0.4,0.2,0.6,0.3c0.2,0.1,0.4,0.2,0.6,0.3
											c0.2,0.1,0.3,0.2,0.4,0.3c0.1,0.1,0.2,0.2,0.3,0.3c0.1,0.1,0.1,0.2,0.2,0.3v0c-0.5,0.3-1.7,0.6-4.7-0.6
											c-1.4-0.6-2.8-1-4.2-1.4l20-11.5c0.1,0.6,0.2,1.1,0.2,1.7l2.3,0.3c-0.4-1-0.7-1.9-1-2.9l16.3-9.3c0.5-0.1,1-0.1,1.5-0.2
											c1.8-0.4,3.6-0.5,5.5-0.4c2.3,0.2,3.3,0.9,3.7,1.2L31,97.1z M73.8,87.1c-0.1,0.2-0.2,0.4-0.4,0.6
											c-1.8-1.6-6.5-2.2-6.5-2.2c0.1-0.6,0.4-1.1,0.8-1.4c0.8,0,1.7,0.1,2.5,0.2c0.2,0,0.4,0.1,0.4,0.1
											C72.7,84.9,73.9,86.7,73.8,87.1L73.8,87.1z M89.6,70.2c1.2,0.3,2.1,0.8,2.4,1.6c0.2,0.4,0.2,0.8,0,1.2
											c-0.8-0.9-3.1-1.4-3.1-1.4l-1.2,2.1l-3.6-2.1c0.4-0.3,0.8-0.5,1.2-0.8C86.6,70.1,88.1,70,89.6,70.2L89.6,70.2z M91.4,64.6
											c0.1,0.6-0.1,1.2-0.5,1.6c-0.6,0.7-1.8,1.1-3.3,1.1c0-0.1,0.1-0.1,0.1-0.1c0.1-0.5-0.3-1.3-0.3-1.3s-0.4,0-1.2,0.1
											c-0.2-0.6-0.2-1.3,0-2c0.4-1,1.2-1.2,1.3-1.2C88.5,62.9,91.3,63.3,91.4,64.6L91.4,64.6z M88.9,61.7c0.4,0.2,0.8,0.5,1,0.8
											c-0.8-0.2-1.6-0.4-2.5-0.4h0c-0.1,0-1.3,0.1-1.9,1.7c-0.3,0.7-0.3,1.6-0.1,2.3c-0.8,0.1-1.8,0.3-3,0.5
											c-2.9,0.5-4.7,2.8-4.7,2.8l0.7,1.2c0,0,2,0.5,5.2-0.5c1.3-0.3,2.5-1,3.5-2c0.2,0,0.4,0,0.6,0c-0.7,0.6-1.4,1.2-2.2,1.7
											l-0.5,0.4c-1.5,1-3.6,2.4-5.7,3.5c-1.9,0.6-5.1,1.4-7.2,1.1c0,0-1.5-2.4-6-3c-4.5-0.6-7.9-0.9-8.3-2.3
											c0-0.2-0.1-0.3-0.1-0.5c0.4-1,0.9-2,1.5-3l11.1,0.5c0.4-3.6,3-4.6,3-4.6s-0.2-0.3-0.5-0.9C79,61.1,88,61.3,88.9,61.7
											L88.9,61.7z M87.7,60.8c-2.4-0.2-7-0.4-10.6-0.4l9.5-7.9c0.1,0.6,0.1,1.1,0.2,1.3c0.1,0.9-0.2,2.1-0.2,2.1h3
											c0,0-0.7-1.1-1.1-3.9c0-0.3-0.1-0.6-0.1-0.9l1.9-1.7c0.7-0.1,4.9-0.9,7.4-1c2.2-0.1,3.2,0.6,3.6,1.1
											C99.6,50.7,89.6,59.6,87.7,60.8L87.7,60.8z"/>
									</g>
								</g>
							</g>
						</g>
					</g>
					<g id="_Group_113">
						<path id="_Path_50" class="st15" d="M30.7,66.5c-2.8,1.5-8.6,4.2-10.6,5.1l1.8,0.3l15.5-7.8l-3.7-0.6L33,63.7
							C33,64.4,32.6,65.5,30.7,66.5z"/>
					</g>
				</g>
			</g>
			<path class="st9" d="M67.1,26.3c-0.4-0.2-0.9-0.3-1.4-0.3c-0.4,0-0.7,0-1.1,0c-0.6,0-1.2,0.3-1.7,0.9c-0.3,0.4-0.5,0.7-0.7,1.1
				c-0.2-0.3-0.4-0.5-0.6-0.8c-0.6-0.6-1.6-0.9-2.7-0.9c-0.5,0-1.3,0.2-1.8,1.5c-0.1,0.3-0.2,0.6-0.3,0.9l0-0.1
				c-0.3-0.6-0.7-1-1.3-1.4c-0.5-0.3-1.1-0.5-1.7-0.5c-0.3,0-0.7,0-1,0.1c-0.4,0-0.9,0.2-1.3,0.3c-0.5,0.2-0.9,0.5-1.2,0.8
				c-0.2,0.3-0.5,0.5-0.6,0.8c-0.5,0.2-0.9,0.5-1.2,0.9c-0.4,0.5-0.7,1.1-0.9,1.7c-0.2,0.6-0.3,1.3-0.4,1.9
				c-0.1,0.6-0.1,1.3-0.1,1.9c0,0.7,0.1,1.4,0.2,2.1c0.1,0.8,0.3,1.5,0.7,2.2c0.3,0.7,0.8,1.4,1.5,1.9c0.7,0.6,1.7,0.9,2.6,0.8
				c1.1,0,2.1-0.3,2.9-1c0.7-0.6,1.3-1.4,1.7-2.3c0.1-0.2,0.2-0.4,0.3-0.7c0.2,0.7,0.4,1.4,0.7,2.1c0.3,0.7,0.8,1.3,1.4,1.7
				c0.5,0.3,1,0.6,1.6,0.7c0.1,0,0.3,0,0.4,0c0.4,0,0.8-0.1,1.1-0.3c0.6-0.3,1-0.8,1-1.5c0-0.3,0-0.5-0.1-0.7L62.8,40
				c-0.1-0.2-0.1-0.4-0.2-0.6c-0.1-0.3-0.1-0.5-0.2-0.9c0-0.3,0.1-0.7,0.1-1c0.1-0.4,0.2-0.9,0.4-1.4c0.1-0.5,0.3-0.9,0.5-1.4
				c0.1-0.2,0.2-0.4,0.2-0.6l0.1,0c0.7,0.3,1.4,0.5,2.1,0.4c0.7,0,1.3-0.3,1.7-0.7c0.4-0.4,0.6-0.8,0.8-1.3c0.2-0.5,0.3-1,0.4-1.5
				c0.1-0.5,0.1-1.1,0.1-1.6c0-0.7-0.1-1.3-0.5-1.9C68.1,26.9,67.7,26.5,67.1,26.3z M53.7,34.7c0-0.4,0-0.8,0-1.2l0-0.1
				C53.8,33.8,53.7,34.3,53.7,34.7L53.7,34.7z"/>
			<path class="st9" d="M36.6,17c1-0.1,1.9-0.2,2.9-0.2c0.3,0,0.5,0,0.8,0.1c0.4,0.1,0.7,0.1,0.9,0.2c0.1,0,0.2,0,0.4,0
				c0.3,0,0.6,0,0.8-0.1c0.7-0.3,1.1-0.9,1-1.6c0-0.5-0.2-1-0.5-1.5c-0.3-0.5-0.6-0.9-1-1.3c-0.4-0.4-0.9-0.7-1.4-1
				c-0.6-0.3-1.2-0.5-1.9-0.5c-1.2,0-2.5,0.1-3.7,0.3c-1.4,0.2-3,0.5-4.7,0.9c-1.7,0.4-3.4,0.8-5.2,1.4s-3.6,1.2-5.4,1.8
				s-3.4,1.4-5,2.2c-1.5,0.8-2.9,1.6-4.3,2.6c-1.2,0.9-2.2,1.9-3.1,3.1c-0.8,1.1-1.3,2.4-1.3,3.8c0,0.6,0.2,1.1,0.6,1.4
				c0.3,0.2,0.6,0.3,1,0.3c0.2,0,0.4,0,0.6-0.1c0.4-0.1,0.7-0.4,0.9-0.7c0.2-0.3,0.4-0.8,0.4-1.2c0.1-0.3,0.2-0.5,0.4-0.7
				c0.6-0.6,1.2-1,1.9-1.4c1-0.6,2-1.1,3.1-1.6c0.5-0.2,1-0.4,1.5-0.7c-0.1,0.3-0.1,0.6-0.1,0.9c-0.7,0.3-1.3,0.6-1.9,1
				c-0.7,0.4-1.6,1.1-1.6,2.1c0,0.4,0.1,0.8,0.3,1.2c0.2,0.3,0.4,0.6,0.6,0.8c0.2,0.2,0.5,0.4,0.8,0.6c0.4,0.2,0.7,0.3,1.1,0.3
				c0,0.3,0,0.7,0,1c0,0.4,0,1,0.1,1.8c0.1,0.8,0.2,1.6,0.3,2.4s0.3,1.8,0.6,2.7c0.2,0.9,0.5,1.7,0.9,2.6c0.4,0.8,0.9,1.5,1.5,2.1
				c0.6,0.7,1.5,1.1,2.5,1.1c0.4,0,0.9-0.1,1.3-0.3c1-0.4,1.2-1.1,1.2-1.5c0-0.2,0-0.4-0.3-1.2c-0.1-0.4-0.3-1.1-0.5-1.9
				s-0.3-1.9-0.5-3.1c-0.2-1.3-0.2-2.7-0.2-4c0-1,0-2,0.1-2.9c0.1-0.7,0.1-1.4,0.2-2c0.4-0.2,0.8-0.4,1.2-0.6
				c0.4-0.2,0.9-0.4,1.3-0.6c0,0.2,0,0.4-0.1,0.7c-0.1,1.2-0.3,2.5-0.4,3.7c-0.1,1.2-0.2,2.4-0.2,3.5c-0.1,1.1-0.1,2.2,0,3
				c0,1.2,0.3,2.4,0.6,3.6c0.3,0.9,0.8,1.8,1.3,2.6c0.5,0.7,1.1,1.3,1.8,1.7c0.5,0.3,1,0.5,1.5,0.6c-0.5,0.3-0.8,0.8-0.8,1.3
				c0,0.5,0.1,1,0.3,1.4c0.2,0.4,0.6,0.8,0.9,1.1c0.4,0.3,0.9,0.6,1.3,0.8c0.6,0.2,1.2,0.4,1.8,0.5c0.2,0,0.4,0,0.6,0
				c1.2,0,2.3-0.3,3.3-1c1.2-0.8,2.2-1.8,3-2.9c0.9-1.3,1.5-2.7,2-4.2c0.5-1.6,0.7-3.3,0.7-5c0-2,0-3.5-0.1-4.6
				c-0.1-1.1-0.1-1.8-0.1-2.3c0-0.5-0.2-1.1-0.5-1.5c-0.3-0.4-0.6-0.7-1-0.9c-0.4-0.2-0.8-0.4-1.2-0.5c-0.5-0.1-0.9-0.2-1.4-0.2
				c-0.5,0-1,0.1-1.5,0.5c-0.1-0.2-0.2-0.4-0.4-0.5c-0.3-0.3-0.7-0.6-1.1-0.8c-0.4-0.2-0.9-0.4-1.3-0.5c-0.5-0.1-0.9-0.2-1.4-0.2
				c-0.5,0-0.9,0.1-1.3,0.3c0-0.5,0.1-0.9,0.1-1.3c0.1-1.1,0.2-2,0.3-2.8c0.1-0.6,0.1-1.2,0.1-1.8c0-0.5-0.2-1-0.4-1.4
				c0.3-0.1,0.6-0.1,0.9-0.2C34.1,17.4,35.4,17.2,36.6,17z M24.1,20.6c0-0.1,0-0.1,0-0.2c0.1-0.2,0.1-0.4,0.1-0.6
				c0.6-0.2,1.2-0.4,1.9-0.5c0,0.1,0,0.3,0,0.6c0,0.1,0,0.2,0,0.3c-0.2,0-0.4,0.1-0.6,0.1C25,20.3,24.5,20.5,24.1,20.6L24.1,20.6z
				 M34.1,42.2c0.4,0.2,0.8,0.2,1.3,0.2c0.1,0,0.2,0,0.3,0c0.1,0,0.2,0,0.4-0.1l0.1,0c-0.2,0.5-0.6,1.1-0.9,1.5
				c-0.4,0.5-0.8,0.9-1.3,1.2c-0.2,0.1-0.4,0.2-0.7,0.3c-0.2,0-0.4-0.1-0.6-0.2c-0.3-0.1-0.6-0.3-0.8-0.4c-0.2-0.1-0.4-0.2-0.7-0.3
				c0.8-0.2,1.3-1.1,1-1.9c0-0.1,0-0.1-0.1-0.2c-0.1-0.2-0.2-0.4-0.4-0.8c-0.2-0.3-0.3-0.6-0.4-0.9c-0.2-0.5-0.3-1-0.4-1.5
				c0.3,0.7,0.8,1.4,1.3,1.9C32.9,41.6,33.5,42,34.1,42.2L34.1,42.2z"/>
			<path class="st9" d="M112.8,32.5c-0.2-0.4-0.5-0.8-0.9-0.9c-0.2-0.1-0.4-0.1-0.5-0.1c-0.3,0-0.6,0.1-0.8,0.2
				c-0.3,0.2-0.6,0.5-0.7,0.8c-0.1,0.3-0.2,0.5-0.3,0.8c-0.1,0.3-0.2,0.6-0.3,0.9c-0.2,0.4-0.3,0.8-0.6,1.2c-0.2,0.4-0.4,0.7-0.7,1
				c-0.2,0.3-0.5,0.5-0.9,0.7c-0.3,0.1-0.6,0.2-0.9,0.2c-0.1,0-0.2-0.1-0.3-0.2c-0.3-0.2-0.5-0.5-0.7-0.9c-0.2-0.4-0.4-0.9-0.5-1.4
				c0.2,0,0.3,0,0.5,0c1.3,0,2.5-0.6,3.3-1.6c0.8-1,1.2-2.3,1.2-4.1c0-0.9-0.2-1.7-0.5-2.5c-0.3-0.8-0.9-1.4-1.6-1.8
				c-0.4-0.2-0.9-0.3-1.3-0.4c-0.4-0.1-0.8-0.1-1.3-0.1h-0.2c-0.6,0-1.1,0.1-1.6,0.2c-0.6,0.2-1.1,0.4-1.6,0.8l0,0
				c-0.4,0.4-0.8,0.9-1.1,1.4c-0.4,0.6-0.8,1.3-1.1,2c-0.3,0.8-0.6,1.6-0.8,2.4c-0.2,0.9-0.3,1.9-0.3,2.9c0,0.4,0,0.8,0.1,1.2
				l-0.1,0.1c-0.1,0.2-0.2,0.3-0.3,0.5c-0.1-0.9-0.2-1.8-0.2-2.7c0-0.3,0-0.5,0-0.9l0.1-1c0-0.3,0-0.7,0.1-1c0-0.3,0-0.6,0-0.9
				c0-0.8-0.4-1.5-1-2c-0.2-0.2-0.5-0.4-0.8-0.5h0.1h0.3c0.5,0,1-0.1,1.5-0.4c0.7-0.4,1.1-1.2,1.1-2c0-0.5-0.1-1-0.4-1.4
				c-0.2-0.4-0.5-0.8-0.9-1.2c-0.4-0.4-0.8-0.7-1.2-0.9c-0.5-0.3-1.1-0.4-1.6-0.4c-0.4,0-0.7,0-1,0c-0.3,0-0.6,0-0.8,0.1
				c-0.1-0.9-0.3-1.8-0.6-2.7c-0.8-2.1-2.5-3.8-4.6-4.7c-0.9-0.4-1.8-0.6-2.7-0.8c-0.8-0.2-1.6-0.3-2.5-0.3c-0.7,0-1.3,0-1.7,0
				c-1.5,0-3,0.2-4.5,0.6c-1.3,0.4-2.6,0.9-3.8,1.5c-1.1,0.6-2.1,1.2-3.1,2c-0.8,0.7-1.5,1.4-2.2,2.2c-0.6,0.6-1,1.3-1.5,2
				c-0.4,0.8-0.6,1.3-0.6,1.8c0,0.7,0.4,1.4,1.5,1.7c0.3,0.1,0.7,0.1,1,0.1c0.1,0,0.3,0,0.4,0c0.5,0,1-0.1,1.4-0.2
				c0.5-0.1,1-0.3,1.4-0.7c0.2-0.2,0.3-0.4,0.4-0.6c0,0.1,0,0.2,0.1,0.3c0,0,0,0.1,0,0.1c0,0.4-0.1,0.7-0.1,1.1
				c-0.1,0.7-0.2,1.5-0.3,2.5c-0.1,1-0.2,2.1-0.3,3.3c-0.1,1.2-0.1,2.5-0.1,3.7c0,1.2,0.1,2.4,0.2,3.7c0.1,1.2,0.4,2.3,0.9,3.4
				c0.4,1,1.1,1.9,1.9,2.6c0.9,0.7,2.1,1.1,3.3,1.1c1.5,0,3.1-0.4,4.5-1c1.4-0.7,2.7-1.6,3.9-2.7c1.2-1.1,2.3-2.4,3.2-3.8
				c1-1.4,1.8-2.9,2.5-4.5c0.2-0.6,0.5-1.2,0.7-1.8c0,0.2,0,0.5,0,0.8c0,0.6,0,1.3,0,2.1c0,0.7,0,1.4,0.1,2.3
				c0.1,0.9,0.3,1.9,0.6,2.8c0.3,0.9,0.8,1.8,1.5,2.5c0.8,0.8,1.9,1.3,3.1,1.2H97c0.7,0,1.4-0.3,1.9-0.8c0.4-0.4,0.8-0.9,1.2-1.5
				c0.1-0.2,0.2-0.4,0.3-0.5c0.6,0.7,1.3,1.2,2.1,1.6c1,0.5,2,0.7,3.1,0.7c0.9,0,1.8-0.2,2.6-0.7c0.7-0.4,1.3-0.9,1.8-1.5
				c0.5-0.6,0.9-1.2,1.3-1.9c0.3-0.6,0.6-1.2,0.8-1.8c0.2-0.5,0.4-1,0.5-1.5c0.1-0.3,0.1-0.5,0.2-0.6C113,33.4,113,32.9,112.8,32.5z
				 M85.4,25.9c-0.3,1.7-0.8,3.3-1.5,4.9c-0.5,1.4-1.2,2.7-2,4c-0.6,1-1.4,2-2.2,2.9c-0.6,0.7-1.2,1.2-1.9,1.7c0,0-0.1,0.1-0.1,0.1
				c0-0.3,0-0.5,0-0.9c0-0.7,0-1.6,0.1-2.5c0.1-0.9,0.2-1.9,0.3-3c0.1-1,0.2-2,0.4-3s0.3-1.9,0.4-2.7s0.2-1.5,0.3-2
				c0.1-0.4,0.1-0.8,0.1-1.2c0-0.5-0.2-1-0.5-1.5c-0.3-0.5-0.7-0.9-1.2-1.2c-0.5-0.4-1-0.7-1.6-0.9c-0.7-0.3-1.4-0.4-2.1-0.4
				c-0.3,0-0.6,0-1,0.1c0.2-0.3,0.5-0.6,0.8-1c0.5-0.6,1.2-1.1,1.8-1.4c0.9-0.5,1.8-0.9,2.7-1.1c1.2-0.3,2.5-0.5,3.8-0.4
				c0.4,0,0.8,0.1,1.2,0.2c0.5,0.2,0.9,0.4,1.3,0.7c0.4,0.3,0.7,0.7,1,1.2c0.3,0.5,0.4,1,0.4,1.6C86,22.1,85.8,24,85.4,25.9z
				 M94,26.8c-0.1,0-0.3,0-0.4,0c-0.3,0-0.6,0.2-0.9,0.3c0.1-0.3,0.1-0.7,0.2-1l0.2,0.1C93.4,26.5,93.7,26.6,94,26.8L94,26.8z"/>
			<path class="st8" d="M53.9,28.3c0.3,0,0.7,0.1,1,0.3c0.3,0.2,0.6,0.5,0.8,0.9c0.3,0.5,0.4,1,0.5,1.6c0.1,0.8,0.2,1.5,0.2,2.3
				c0,0.9-0.1,1.9-0.2,2.8c-0.1,0.9-0.4,1.7-0.8,2.5c-0.3,0.7-0.8,1.3-1.4,1.8c-0.6,0.5-1.3,0.7-2,0.7c-0.6,0-1.2-0.2-1.7-0.5
				c-0.5-0.4-0.8-0.8-1.1-1.4c-0.3-0.6-0.5-1.2-0.5-1.8c-0.1-0.6-0.1-1.3-0.1-1.9c0-0.6,0-1.2,0.1-1.7c0.1-0.6,0.2-1.1,0.3-1.7
				c0.1-0.5,0.4-0.9,0.7-1.3c0.3-0.4,0.7-0.6,1.1-0.7c0.1-0.4,0.3-0.7,0.6-1c0.2-0.2,0.5-0.4,0.8-0.5c0.3-0.1,0.6-0.2,0.9-0.2
				C53.3,28.3,53.6,28.3,53.9,28.3z M53.2,39.9c0.3,0,0.5-0.2,0.8-0.7c0.3-0.6,0.5-1.2,0.6-1.9c0.2-0.8,0.3-1.6,0.4-2.5
				c0.1-0.8,0.1-1.6,0.1-2.5c0-0.6-0.2-1.3-0.4-1.9c-0.2-0.5-0.5-0.7-1-0.7c-0.2,0-0.3,0.1-0.4,0.4c-0.1,0.3-0.2,0.6-0.2,1
				c-0.1,0.4-0.1,0.7-0.2,1.1c-0.1,0.3-0.2,0.6-0.5,0.8c0,0.7,0,1.5-0.1,2.3c0,0.8-0.1,1.5-0.1,2.2c0,0.6,0.1,1.1,0.2,1.7
				C52.6,39.7,52.9,39.9,53.2,39.9z"/>
			<path class="st8" d="M64.7,27.3c0.3,0,0.7,0,1,0c0.3,0,0.6,0.1,0.9,0.2c0.3,0.1,0.5,0.3,0.7,0.6c0.2,0.4,0.3,0.8,0.3,1.2
				c0,0.5,0,1-0.1,1.4c-0.1,0.4-0.1,0.8-0.3,1.3c-0.1,0.3-0.3,0.6-0.5,0.9c-0.2,0.2-0.5,0.3-0.8,0.3c-0.5,0-1-0.1-1.5-0.3
				c-0.4-0.2-0.6-0.4-0.6-0.7c0-0.2,0-0.4,0.1-0.6c0-0.3,0.1-0.6,0.1-0.9c0.1-0.3,0.1-0.7,0.2-1.1c-0.5,1.1-1,2.1-1.4,3.2
				c-0.2,0.5-0.4,0.9-0.5,1.4c-0.2,0.5-0.3,1-0.5,1.5c-0.1,0.5-0.3,1-0.4,1.5c-0.1,0.5-0.2,0.9-0.2,1.4c0.1,0.4,0.1,0.8,0.2,1.1
				s0.1,0.5,0.2,0.7l0.2,0.5c0,0.1,0.1,0.2,0.1,0.3c0,0.1-0.1,0.2-0.3,0.3c-0.2,0.1-0.5,0.1-0.7,0.1c-0.3-0.1-0.7-0.2-1-0.4
				c-0.4-0.3-0.7-0.8-1-1.2c-0.4-0.8-0.6-1.6-0.7-2.4c-0.2-1.3-0.3-2.6-0.3-3.8c0-0.6,0-1.3,0.1-2c0-0.7,0.1-1.4,0.2-2
				c0.1-0.5,0.2-1,0.3-1.5c0.1-0.4,0.3-0.6,0.5-0.6c0.8,0,1.4,0.2,1.8,0.5c0.4,0.3,0.6,0.8,0.6,1.3c0,0.3,0,0.5-0.1,0.8
				c0,0.3-0.1,0.6-0.2,0.9C61,31.6,61,32,60.9,32.3c0,0.4-0.1,0.8-0.1,1.3c0,0.9,0,1.7,0.1,2.3c0.1-0.5,0.2-1.1,0.4-1.7
				s0.4-1.3,0.6-1.9c0.2-0.6,0.5-1.3,0.7-1.8c0.3-0.6,0.5-1.1,0.7-1.6c0.2-0.4,0.4-0.8,0.7-1.1C64.2,27.5,64.4,27.4,64.7,27.3z"/>
			<path class="st8" d="M38.6,12.4c0.5,0,0.9,0.1,1.3,0.3c0.4,0.2,0.8,0.5,1.1,0.8c0.3,0.3,0.6,0.6,0.8,1c0.2,0.2,0.3,0.5,0.3,0.8
				c0,0.2-0.1,0.4-0.2,0.4c-0.2,0.1-0.4,0.1-0.6,0c-0.2,0-0.5-0.1-0.8-0.1c-0.3-0.1-0.7-0.1-1.1-0.1c-1,0-2.1,0.1-3.1,0.2
				c-1.2,0.2-2.5,0.4-4,0.7c-1.5,0.3-3,0.6-4.6,1.1c-1.6,0.4-3.2,0.8-4.8,1.3v0.1c0,0.4-0.1,0.9-0.2,1.3c-0.2,0.6-0.4,1.5-0.6,2.4
				c0.6-0.2,1.2-0.4,1.8-0.5c0.6-0.2,1.1-0.3,1.6-0.4c0.5-0.1,1-0.2,1.3-0.3c0.3-0.1,0.6-0.1,1-0.1c0.2,0,0.4,0.1,0.6,0.2
				c0.2,0.1,0.4,0.2,0.5,0.4c0.2,0.1,0.3,0.3,0.4,0.5c0.1,0.1,0.1,0.3,0.1,0.5c0,0.1,0,0.2-0.2,0.3c-0.1,0-0.3,0.1-0.4,0.1
				c-0.2,0-0.3,0-0.5-0.1c-0.2,0-0.3-0.1-0.5-0.1c-0.4,0-0.8,0.1-1.1,0.2c-0.5,0.1-1,0.3-1.5,0.5c-0.6,0.2-1.2,0.5-1.8,0.8
				c-0.6,0.3-1.3,0.6-1.9,0.9c-0.1,0.9-0.3,1.8-0.4,2.8c-0.1,1-0.1,2-0.1,3c0,1.4,0.1,2.8,0.2,4.2c0.2,1.2,0.3,2.3,0.5,3.2
				c0.1,0.7,0.3,1.4,0.5,2.1c0.2,0.5,0.2,0.8,0.2,0.8c0,0.1-0.1,0.2-0.4,0.3c-0.3,0.1-0.5,0.2-0.8,0.2c-0.6,0-1.1-0.2-1.5-0.7
				c-0.5-0.5-0.9-1.1-1.2-1.7c-0.4-0.8-0.6-1.5-0.8-2.4c-0.2-0.9-0.4-1.7-0.5-2.5c-0.1-0.8-0.2-1.6-0.3-2.3
				c-0.1-0.7-0.1-1.3-0.1-1.7c0-1,0-2,0.1-2.9c-0.4,0.2-0.7,0.3-0.9,0.4c-0.2,0.1-0.3,0.1-0.5,0.2c-0.2,0-0.4-0.1-0.5-0.2
				c-0.2-0.1-0.4-0.2-0.5-0.4c-0.2-0.1-0.3-0.3-0.4-0.5c-0.1-0.2-0.2-0.4-0.2-0.6c0-0.3,0.3-0.6,0.9-1c0.8-0.5,1.6-0.9,2.4-1.2
				c0.1-0.8,0.2-1.6,0.4-2.2c0.1-0.6,0.3-1.2,0.5-1.7c-1.4,0.5-2.7,1-4,1.6c-1.1,0.5-2.2,1.1-3.2,1.7c-0.8,0.5-1.5,1-2.2,1.7
				c-0.5,0.6-0.8,1.1-0.8,1.6c0,0.1,0,0.3-0.1,0.4c-0.1,0.1-0.2,0.2-0.3,0.2c-0.1,0-0.2,0-0.3,0c-0.1-0.1-0.1-0.2-0.1-0.4
				c0-1.1,0.4-2.2,1.1-3c0.8-1.1,1.7-2,2.8-2.8c1.3-1,2.6-1.8,4.1-2.5c1.6-0.8,3.2-1.5,4.9-2.2c1.7-0.7,3.5-1.3,5.3-1.8
				c1.8-0.5,3.5-1,5.1-1.3c1.6-0.4,3.2-0.6,4.5-0.8C36.3,12.5,37.5,12.4,38.6,12.4z"/>
			<path class="st8" d="M27.5,18.6c0-0.5,0.1-0.9,0.5-1c0.4-0.2,0.8-0.2,1.2,0c0.4,0.1,0.9,0.4,1.2,0.7c0.3,0.3,0.6,0.7,0.6,1.1
				c0,0.5,0,1.1-0.1,1.6c-0.1,0.8-0.2,1.7-0.3,2.8c-0.1,1.1-0.2,2.3-0.4,3.5c-0.1,1.3-0.2,2.5-0.4,3.7c-0.1,1.2-0.2,2.3-0.3,3.4
				c-0.1,0.8-0.1,1.7,0,2.5c0,0.9,0.1,1.7,0.3,2.5c0.1,0.6,0.3,1.2,0.4,1.8c0.1,0.4,0.3,0.8,0.5,1.1c0.1,0.2,0.2,0.4,0.3,0.6
				c0.1,0.1,0,0.2,0,0.3c-0.1,0.1-0.3,0.1-0.5,0.1c-0.5,0-0.9-0.2-1.3-0.4c-0.5-0.4-1-0.8-1.4-1.4c-0.5-0.7-0.9-1.5-1.2-2.3
				c-0.3-1-0.5-2.1-0.6-3.2c0-0.8,0-1.8,0-2.9c0.1-1.1,0.1-2.3,0.2-3.5c0.1-1.2,0.2-2.4,0.4-3.7c0.1-1.2,0.3-2.3,0.4-3.3
				c0.1-1,0.2-1.9,0.3-2.6C27.5,19.5,27.5,19,27.5,18.6z"/>
			<path class="st8" d="M41.6,29.6c0,0.5,0,1.3,0.1,2.4c0.1,1.1,0.1,2.6,0.1,4.5c0,1.6-0.2,3.1-0.7,4.6c-0.4,1.4-1,2.7-1.8,3.9
				c-0.7,1-1.5,1.9-2.6,2.6c-1.3,0.9-3,1-4.4,0.4c-0.4-0.2-0.7-0.4-1-0.6c-0.2-0.2-0.5-0.4-0.6-0.7c-0.1-0.2-0.2-0.4-0.2-0.7
				c0-0.2,0.1-0.3,0.2-0.3c0.2,0,0.4,0.1,0.6,0.2c0.2,0.1,0.5,0.2,0.8,0.4c0.3,0.2,0.7,0.3,1,0.3c0.5,0,1-0.2,1.5-0.4
				c0.7-0.4,1.3-0.9,1.7-1.6c0.6-0.8,1.1-1.7,1.5-2.7c0.4-1.2,0.6-2.5,0.6-3.8c0-0.7,0-1.4,0-2.2c0-0.8,0-1.6,0-2.4
				c-0.1,0.5-0.3,1.2-0.4,1.9c-0.2,0.7-0.4,1.5-0.6,2.2c-0.2,0.7-0.4,1.4-0.7,2c-0.1,0.4-0.4,0.9-0.7,1.2c0,0.1-0.1,0.1-0.2,0.2
				c0,0,0,0-0.1,0c0,0-0.1,0-0.1,0c-0.3,0-0.7,0-1-0.2c-0.5-0.2-0.9-0.4-1.2-0.8c-0.4-0.4-0.8-1-1-1.5c-0.3-0.8-0.5-1.6-0.4-2.4
				c0-0.7,0-1.6,0.1-2.4c0.1-0.9,0.2-1.8,0.2-2.6c0.1-0.8,0.2-1.6,0.2-2.2c0.1-0.6,0.1-1.1,0.1-1.3c0-0.2,0-0.3-0.1-0.5
				c-0.1-0.2-0.1-0.3-0.1-0.5c0-0.1,0-0.3,0.1-0.4c0.2-0.1,0.4-0.2,0.6-0.1c0.4,0,0.7,0.1,1.1,0.1c0.4,0.1,0.7,0.2,1,0.4
				c0.3,0.1,0.5,0.3,0.8,0.6c0.2,0.2,0.3,0.4,0.3,0.7c0,0.4-0.1,0.8-0.2,1.1c-0.1,0.5-0.2,1.1-0.4,1.8c-0.1,0.7-0.3,1.5-0.4,2.3
				c-0.1,0.9-0.2,1.8-0.2,2.7c0,0.7,0,1.5,0.1,2.2c0.1,0.4,0.2,0.9,0.3,1.3c0.1-0.3,0.2-0.7,0.4-1.2s0.4-1.1,0.6-1.8
				c0.2-0.7,0.4-1.3,0.6-2c0.2-0.7,0.4-1.4,0.6-2c0.2-0.7,0.3-1.2,0.4-1.7c0.1-0.4,0.1-0.8,0.2-1.2v-0.2c0-0.2,0-0.3-0.1-0.5
				c-0.1-0.2-0.1-0.3-0.1-0.5c0-0.1,0-0.3,0.1-0.4c0.2-0.1,0.4-0.2,0.6-0.1c0.3,0,0.7,0.1,1,0.1c0.3,0.1,0.6,0.2,0.9,0.4
				c0.3,0.1,0.5,0.3,0.6,0.6C41.5,29.1,41.6,29.4,41.6,29.6z"/>
			<path class="st8" d="M72.9,23.2c0-0.2,0-0.3-0.1-0.5c-0.1-0.2-0.1-0.3-0.1-0.5c0-0.2,0.1-0.3,0.2-0.4c0.3-0.1,0.5-0.2,0.8-0.1
				c0.6,0,1.1,0.1,1.6,0.3c0.5,0.2,0.9,0.4,1.3,0.7c0.3,0.2,0.6,0.5,0.9,0.9c0.2,0.2,0.3,0.5,0.3,0.8c0,0.1,0,0.4-0.1,1
				c-0.1,0.5-0.2,1.2-0.3,2c-0.1,0.8-0.2,1.7-0.4,2.7c-0.1,1-0.3,2-0.4,3.1c-0.1,1-0.2,2-0.3,3s-0.1,1.8-0.1,2.6
				c0,0.6,0,1.2,0.2,1.8c0.1,0.5,0.3,0.7,0.5,0.7c0.4,0,0.9-0.2,1.6-0.7c0.8-0.6,1.5-1.2,2.1-2c0.8-1,1.6-2,2.3-3.1
				c0.8-1.3,1.5-2.7,2.1-4.2c0.7-1.7,1.2-3.4,1.5-5.2c0.4-2,0.6-4,0.6-6c0-0.8-0.2-1.5-0.5-2.2c-0.3-0.6-0.8-1.1-1.3-1.5
				c-0.5-0.4-1.1-0.7-1.6-0.9c-0.5-0.2-1.1-0.3-1.6-0.3c-1.4,0-2.8,0.1-4.2,0.5c-1.1,0.3-2.1,0.7-3.1,1.3c-0.8,0.5-1.5,1-2.1,1.7
				c-0.5,0.5-1,1.1-1.4,1.7c-0.3,0.4-0.6,0.9-0.8,1.4c-0.1,0.3-0.2,0.5-0.4,0.7c-0.2,0.2-0.5,0.3-0.8,0.4c-0.4,0.1-0.8,0.2-1.2,0.2
				c-0.4,0-0.7,0-1.1-0.1c-0.3-0.1-0.5-0.2-0.5-0.4c0.1-0.4,0.2-0.8,0.4-1.2c0.4-0.6,0.8-1.2,1.3-1.7c0.6-0.7,1.3-1.4,2.1-2
				c0.9-0.7,1.8-1.3,2.9-1.9c1.1-0.6,2.3-1,3.5-1.4c1.4-0.4,2.8-0.5,4.2-0.5c0.4,0,0.9,0,1.6,0c0.8,0,1.5,0.1,2.3,0.3
				c0.8,0.2,1.7,0.4,2.5,0.7c1.8,0.7,3.2,2.2,3.9,4c0.5,1.2,0.7,2.5,0.6,3.8c0,1.6-0.2,3.1-0.5,4.6c-0.4,1.6-0.9,3.2-1.5,4.7
				c-0.6,1.5-1.4,2.9-2.3,4.3c-0.9,1.3-1.9,2.5-3,3.6c-1,1-2.2,1.8-3.5,2.4c-1.2,0.6-2.5,0.9-3.9,0.9c-0.9,0-1.8-0.2-2.4-0.8
				c-0.7-0.6-1.2-1.3-1.5-2.1c-0.4-1-0.7-2-0.8-3C72.1,36,72,34.8,72,33.7c0-1.2,0-2.4,0.1-3.6s0.2-2.3,0.3-3.2
				c0.1-1,0.2-1.8,0.3-2.4C72.8,24,72.9,23.6,72.9,23.2z"/>
			<path class="st8" d="M97.7,25c0,0.3-0.1,0.7-0.4,0.8C97,26,96.7,26,96.3,26c-0.4,0-0.9-0.1-1.3-0.3c-0.4-0.2-0.9-0.4-1.3-0.6
				c-0.4-0.2-0.7-0.5-1-0.7c-0.2-0.2-0.4-0.5-0.4-0.7c0-0.3,0.1-0.5,0.2-0.8c0.1-0.2,0.3-0.3,0.5-0.4c0.3-0.1,0.5-0.1,0.8-0.1
				c0.3,0,0.6,0,1,0c0.3,0,0.7,0.1,1,0.3c0.3,0.2,0.6,0.4,0.9,0.7c0.3,0.3,0.5,0.5,0.6,0.9C97.6,24.4,97.7,24.7,97.7,25z
				 M100.8,33.4c0-0.1,0.1-0.2,0.2-0.3c0.1-0.1,0.1-0.1,0.2-0.1c0.1,0,0.1,0.1,0.2,0.2c0,0.1,0,0.2,0,0.3c-0.1,0.2-0.2,0.5-0.3,1
				c-0.2,0.5-0.3,1-0.6,1.5s-0.5,1.2-0.8,1.7c-0.3,0.6-0.5,1.1-0.9,1.6c-0.3,0.4-0.6,0.8-0.9,1.2C97.7,40.8,97.3,41,97,41h-0.1
				c-0.8,0-1.6-0.3-2.1-0.8c-0.5-0.6-0.9-1.3-1.2-2c-0.3-0.8-0.5-1.6-0.5-2.5C93,34.9,93,34.1,93,33.5c0-0.8,0-1.4,0-2
				c0-0.6,0.1-1,0.1-1.4s0.1-0.7,0.1-0.9c0-0.2,0-0.4,0-0.6c0-0.3,0.2-0.5,0.5-0.5c0.4,0,0.8,0,1.2,0.1c0.4,0.1,0.8,0.4,1.2,0.6
				c0.3,0.2,0.5,0.6,0.5,0.9c0,0.3,0,0.5,0,0.8c0,0.3,0,0.6-0.1,1c0,0.3,0,0.7-0.1,1c0,0.3,0,0.6,0,0.9c0,1.2,0.1,2.4,0.3,3.6
				c0.2,0.7,0.4,1.5,0.7,2.1c0.2-0.1,0.5-0.3,0.6-0.6c0.2-0.3,0.5-0.7,0.7-1.1c0.2-0.4,0.5-0.8,0.7-1.3s0.4-0.9,0.6-1.3
				c0.2-0.4,0.3-0.8,0.4-1.1S100.7,33.5,100.8,33.4L100.8,33.4z"/>
			<path class="st8" d="M111,33.1c0-0.1,0.1-0.2,0.2-0.3c0.1,0,0.1-0.1,0.2,0c0.1,0,0.1,0.1,0.2,0.2c0,0.1,0,0.2,0,0.4
				c0,0.1-0.1,0.3-0.2,0.7c-0.1,0.4-0.3,0.8-0.5,1.4c-0.2,0.6-0.5,1.1-0.8,1.7c-0.3,0.6-0.7,1.1-1.1,1.6c-0.4,0.5-0.9,0.9-1.5,1.2
				c-0.6,0.3-1.2,0.5-1.9,0.5c-0.9,0-1.7-0.2-2.5-0.6c-0.7-0.4-1.4-0.8-1.9-1.4c-0.5-0.6-0.9-1.2-1.2-2c-0.3-0.7-0.4-1.4-0.4-2.1
				c0-0.9,0.1-1.7,0.3-2.5c0.2-0.8,0.4-1.5,0.7-2.2c0.3-0.6,0.6-1.2,0.9-1.8c0.3-0.4,0.6-0.8,0.9-1.1c0.3-0.3,0.7-0.4,1.1-0.5
				c0.4-0.1,0.9-0.2,1.3-0.2c0.4,0,0.8,0,1.3,0.1c0.3,0,0.6,0.1,0.9,0.2c0.5,0.3,0.8,0.7,1,1.2c0.3,0.6,0.4,1.3,0.4,2
				c0,1.4-0.3,2.5-0.9,3.2c-0.5,0.7-1.3,1.1-2.2,1.1c-0.3,0-0.7,0-1-0.1c-0.4-0.1-0.7-0.2-1-0.2c-0.1,0.7,0,1.3,0.2,2
				c0.1,0.6,0.4,1.2,0.7,1.7c0.2,0.5,0.6,0.9,1,1.2c0.3,0.3,0.7,0.5,1.1,0.5c0.5,0,1.1-0.1,1.5-0.4c0.5-0.3,0.9-0.6,1.2-1
				c0.4-0.4,0.7-0.8,0.9-1.3c0.2-0.5,0.5-0.9,0.6-1.3c0.2-0.4,0.3-0.7,0.4-1.1C110.9,33.5,111,33.3,111,33.1z M106,28.4
				c-0.4,0-0.7,0.1-1,0.4c-0.3,0.3-0.6,0.6-0.8,1c-0.2,0.5-0.4,0.9-0.5,1.4c-0.1,0.6-0.3,1.1-0.3,1.7c0.5,0.2,1,0.3,1.5,0.2
				c0.4-0.1,0.8-0.4,1-0.7c0.3-0.3,0.5-0.8,0.6-1.2c0.1-0.4,0.2-0.9,0.2-1.3c0-0.4,0-0.7-0.2-1.1C106.4,28.5,106.2,28.4,106,28.4z"
				/>
		</g>
	</g>
</g>
</svg>
