<?xml version="1.0" encoding="utf-8"?>
<!-- Generator: Adobe Illustrator 22.1.0, SVG Export Plug-In . SVG Version: 6.00 Build 0)  -->
<svg version="1.1" id="Layer_1" xmlns="http://www.w3.org/2000/svg" xmlns:xlink="http://www.w3.org/1999/xlink" x="0px" y="0px"
	 viewBox="0 0 400 201" style="enable-background:new 0 0 400 201;" xml:space="preserve">
<style type="text/css">
	.st0{fill:#FFFFFF;}
</style>
<title>LML Contact Logo - Original</title>
<g>
	<g>
		<path class="st0" d="M325.6,61.4l-4.9,10.7c-0.3,0.8-1,1-1.8,0.8c0,0,0,0-0.1,0l-37-18.2V117c0,0-0.1,6.4,0.5,8
			c0.8,2,2.6,3.4,4.8,3.4c1.8,0,3.4-0.8,4.5-2c0.6,2.5,0.1,17.1-13.6,14.8s-13.4-15.8-13.4-15.8v-79L202.5,16l-74.4,30.1v3.8
			c0,0.1,0,0.1,0,0.3v67.2c0,0-0.1,6.4,0.5,8c0.8,2,2.6,3.4,4.8,3.4c1.8,0,3.4-0.8,4.5-2c0.6,2.5,0.1,17.1-13.6,14.8
			S111,125.8,111,125.8V52.6L81,64.7c0,0-2.1,1.3-2.8-0.8l-4-11.3c0,0-0.3-1.1,0.6-1.5l126-50.8c1-0.4,2-0.4,3,0
			C205.3,0.9,325,60,325,60S326,60.5,325.6,61.4z"/>
		<path class="st0" d="M252.1,138.5c0,0-0.8-4.8-0.8-6.2V96.7c0,0,0.3-13.6-9.7-21.9s-33-7.7-41.9,1.3c-5.6-4.4-12.7-6.9-19.8-7
			c-11.7,0-19.1,2.9-23.5,6.9c-5.5,5.5-8.5,13-8.5,20.8c-0.1,9.4,0,28.4,0,28.4s-0.3,9.3,7.8,11.8c8,2.5,9.7,1.5,9.7,1.5
			s-0.5-5.5-0.5-9.2c0-3.6,0.1-30.1,0.1-30.1s-0.1-12.6,6.9-16.1c4.9-2.6,11-1.8,14.9,2.3c1.8,2.1,4.3,5.5,4.4,13.7
			c0.1,8.2-0.1,24.6-0.1,24.6s-0.3,10.8,7.5,13.2c7.8,2.4,10.3,1.9,10.3,1.9c-0.4-3.8-0.6-7.7-0.8-11.4c0.1-4.5-0.1-27.8-0.1-27.8
			s0-14.3,8.5-17c8.5-2.6,14.3,2,15.8,6.5s1.9,5.9,2,13.6s0,18.5,0,18.5s-0.4,9.6,3.9,13.1c4.3,3.5,6.4,3.6,7.3,3.8
			C247.7,138.5,249.9,138.6,252.1,138.5z"/>
	</g>
	<g>
		<path class="st0" d="M4.5,182.5v15.3h7.3v3.1H0v-18.5L4.5,182.5L4.5,182.5z"/>
		<path class="st0" d="M25.6,182.5V201h-4.5v-18.5H25.6z"/>
		<path class="st0" d="M40.9,190.3l8.5-7.8h5.8l-9.9,8.6l10.4,9.9h-6l-8.3-8.3l-0.5,0.4v7.8h-4.5v-18.5h4.5
			C40.9,182.4,40.9,190.3,40.9,190.3z"/>
		<path class="st0" d="M76.2,185.5h-8.4v4.2h8v3.1h-8v5h8.4v3.1h-13v-18.5H76v3L76.2,185.5L76.2,185.5z"/>
		<path class="st0" d="M101.3,182.5h3.3l6.1,11.7l6.5-11.7h3.3l3.9,18.5h-4.6l-2.1-11.3l-6.3,11.3h-1.5l-6-11.3l-2.4,11.3h-4.6
			L101.3,182.5z"/>
		<path class="st0" d="M137.6,182.4v18.5h-4.5v-18.5H137.6z"/>
		<path class="st0" d="M148.4,201v-18.5h3l13.4,12.3v-12.3h4.3V201h-3l-13.4-12.3V201H148.4z"/>
		<path class="st0" d="M184.7,182.5c3.1,0,6,0.3,8.5,1.8c2.8,1.6,4.4,4.4,4.4,7.4s-1.6,5.8-4.6,7.4c-2.6,1.5-5.1,1.8-8.4,1.8h-5.9
			v-18.5h6V182.5z M183.2,198h1.4c1.1,0,3.6,0,5.6-1.3c1.8-1,2.9-2.9,2.9-4.9c0-1.9-1-3.8-2.8-4.9c-1.9-1.1-4.1-1.3-5.6-1.3h-1.4
			L183.2,198L183.2,198z"/>
		<path class="st0" d="M218.2,185.5h-7.4v4.2h7.2v3.1h-7.2v5h7.4v3.1h-11.5v-18.5h11.5V185.5z"/>
		<path class="st0" d="M233.5,182.5c3.1,0,6,0.3,8.5,1.8c2.8,1.6,4.4,4.4,4.4,7.4s-1.6,5.8-4.6,7.4c-2.6,1.5-5.1,1.8-8.4,1.8h-5.8
			v-18.5h5.9L233.5,182.5L233.5,182.5z M232,198h1.4c1.1,0,3.6,0,5.6-1.3c1.8-1,2.9-2.9,2.9-4.9c0-1.9-1-3.8-2.8-4.9
			c-1.9-1.1-4.1-1.3-5.6-1.3h-1.4L232,198L232,198z"/>
		<polygon class="st0" points="273.4,182.5 273.4,197.9 280.6,197.9 280.6,201 268.9,201 268.9,182.5 		"/>
		<path class="st0" d="M293.7,182.5V201h-4.5v-18.5H293.7z"/>
		<path class="st0" d="M308.5,182.5l6.3,12.5l6.3-12.5h5l-9.9,18.5h-2.8l-9.8-18.5H308.5z"/>
		<rect x="334.3" y="182.5" class="st0" width="4.5" height="18.5"/>
		<path class="st0" d="M349.6,201v-18.5h3l13.4,12.3v-12.3h4.3V201h-3l-13.4-12.3V201H349.6z"/>
		<path class="st0" d="M390.3,190.7h9.7v0.3c0,1.3-0.3,5.2-3.1,7.7c-2.1,1.9-4.9,2.4-7.5,2.4s-5.4-0.5-7.7-2.5
			c-0.8-0.6-3.1-3-3.1-7.2c0-3.5,1.9-5.8,3.1-6.9c1.6-1.4,4.3-2.8,8.3-2.8c1.6,0,3.3,0.3,4.9,1c1.4,0.6,2.9,1.8,4,3.4l-3.5,1.6
			c-0.8-1.3-1.8-1.9-2.5-2.1c-0.9-0.4-2-0.6-3-0.6c-1.6,0-3.5,0.5-4.9,1.6c-1.3,1-2.1,2.8-2.1,4.9c0,2.5,1.3,3.9,2.1,4.7
			c1,0.8,2.4,1.6,4.6,1.6c1.4,0,3-0.4,4.1-1.1c0.9-0.5,1.6-1.5,2-2.8h-5.4V190.7L390.3,190.7z"/>
	</g>
	<rect x="0.1" y="161.9" class="st0" width="399.9" height="3.8"/>
</g>
</svg>
