<?xml version="1.0" encoding="utf-8"?>
<!-- Generator: Adobe Illustrator 22.1.0, SVG Export Plug-In . SVG Version: 6.00 Build 0)  -->
<svg version="1.1" id="Layer_1" xmlns="http://www.w3.org/2000/svg" xmlns:xlink="http://www.w3.org/1999/xlink" x="0px" y="0px"
	 viewBox="0 0 161 109" style="enable-background:new 0 0 161 109;" xml:space="preserve">
<style type="text/css">
	.st0{fill:#FFFFFF;}
	.st1{fill:url(#SVGID_1_);}
	.st2{fill:none;stroke:#FFFFFF;stroke-width:0.6;stroke-miterlimit:10;}
</style>
<g>
	<path class="st0" d="M74.2,39.5c-0.8-1.7-1.2-3.6-1.1-5.6c0.3-6.8,5.8-12.1,12.5-12.1l-0.8,0.7c-6,0.4-10.8,5.3-11.1,11.5
		c-0.1,1.9,0.3,3.6,1,5.2l-0.2,0.1L74.2,39.5z M85.3,46.4c-2-0.1-3.8-0.6-5.4-1.5L79.8,45l-0.3,0.4c1.7,1,3.7,1.6,5.8,1.7
		c6.9,0.3,12.7-5,13.2-11.9l-0.7,0.7C96.9,42,91.5,46.7,85.3,46.4z M99.9,31.1l-2.1-2.3c-0.3-0.3-0.7-0.5-1.1-0.7c0,0,0,0-0.1,0
		l-0.4,0.6L95,30.3c-0.2,0.3-0.5,0.4-0.8,0.4c-0.2,0-0.5-0.1-0.6-0.3c-0.4-0.4-0.3-1.1,0.2-1.4l1.9-1.2l0,0c0,0,0,0,0,0
		c-1-0.3-2.1-0.8-3.5-2.4c-0.6-0.7-1.1-1.3-1.4-1.9c-0.2-0.3-0.4-0.6-0.5-0.9C90,22,89.8,21.4,89.7,21c-0.1-0.3-0.3-0.5-0.6-0.5
		c-0.2,0-0.3,0-0.4,0.2l-1.3,1.2l-0.6,0.6l-4.8,4.4l5.4,5.8l5.4,5.8l4.9-4.5l0.6-0.6l1.5-1.4C100.1,31.7,100.2,31.4,99.9,31.1z
		 M82.6,39.4l-3.8,4.8l-0.4,0.5L76.4,47c-0.5,0.7-1.3,1-2.1,0.9c-0.6,0-1.3-0.3-1.7-0.8l-0.9-0.9c-1-1.1-0.8-2.9,0.4-3.8l2.6-1.7
		l0.6-0.4l5-3.4c1-0.9,1.2-2.5,0.5-3.6c-1.5-2.3-2.2-4.5-1.3-5.2c0.4-0.4,0.9-0.4,1.2-0.4c0.2,0,0.3,0,0.3,0l5.4,5.8l5.4,5.8
		c0,0,0.2,0.8-0.5,1.5c-0.2,0.2-0.6,0.3-1,0.3c-1,0-2.5-0.8-4.1-2c-0.5-0.4-1-0.6-1.6-0.6C83.9,38.6,83.2,38.9,82.6,39.4z
		 M75.6,43.5c-0.2-0.3-0.6-0.4-0.9-0.4c-0.3,0-0.7,0.1-0.9,0.3c-0.5,0.5-0.6,1.3-0.1,1.8c0.2,0.3,0.6,0.4,0.9,0.4
		c0.3,0,0.7-0.1,0.9-0.3C76.1,44.9,76.1,44.1,75.6,43.5z"/>
	<g>
		
			<image style="overflow:visible;opacity:0.19;" width="70" height="34" xlink:href="E96999F9.png"  transform="matrix(1 0 0 1 0 21)">
		</image>
		<g>
			<g>
				<path class="st0" d="M22.9,38.6c-2,0.5-4.3,0.7-5.6,0.6c-1.1,1.6-2.3,3.2-3.7,4.5c-2.1,2-4.7,2.9-7.3,2.6
					c-5.1-0.6-3.4-6.4,2.2-4.5c0.5,0.2,0.3,0.5-0.1,0.3c-4-1.5-5,3.3-1.5,3.5c2.2,0.1,4.1-1,5.7-2.6c3.3-3.2,5.2-9.8,9.4-14.6
					c0.5-0.5,0.9-1,1.3-1.4c-2.8-0.4-6.1-0.2-8.2,0.2c-3.1,0.6-8.3,2.5-8.9,6.2c-0.3,1.7,0.9,3.1,2.4,3.2c1.6,0,3.2-1.3,3.7-3
					c0.1-0.4,0.3-0.3,0.3,0c0,2.3-2.2,3.5-4.1,3.5c-2-0.1-3.8-1.3-3.7-3.9c0.2-4.5,6.6-6.3,10.1-6.8c2.8-0.4,6-0.6,9,0
					c0.5-0.4,1.1-0.8,1.9-1c0.8-0.3,0.8,0,0.2,0.4c-0.2,0.2-0.7,0.5-1.1,0.9c1,0.3,2,0.7,2.9,1.2C34.2,31.6,27.9,37.4,22.9,38.6z
					 M24.6,27.2c-2.5,3.6-4.4,7.7-6.9,11.4c1.3,0,2.9-0.2,4.4-0.7c5.4-1.6,9.1-7,5.2-9.6C26.6,27.8,25.6,27.5,24.6,27.2z"/>
				<path class="st0" d="M31.4,45.4c-0.8,0-2-0.6-1.2-3.2c-0.4,0.6-1.1,1.6-1.8,2.3c-2.9,2.7-4.8-1.6-1-6.1c1.5-1.8,4.4-2.7,5.8-1.1
					c0.3,0.4,0.1,0.8-0.3,0.7c-0.3-0.9-1.2-1.1-2.1-0.6c-1.1,0.6-2.4,2.1-3.3,3.6c-0.2,0.3-0.9,1.6-1,2.5c-0.2,1.7,1.1,1.5,2.3,0.2
					c0.9-1,1.6-2.3,2.2-3.5c0.5-1,0.9-1.6,1.7-1.6c0.3,0,0.7,0.2,1,0.1c-0.5,0.5-2,3.1-2.3,4.7c-0.2,1-0.1,1.5,0.2,1.5
					c1,0,2.7-3.1,3.2-4.2c0.2-0.4,0.6-0.3,0.3,0.2C34.4,42.3,32.9,45.3,31.4,45.4z"/>
				<path class="st0" d="M40.2,43.5c-1.4,1.6-3.6,2.5-5.3,1.4l-2.4,5.9c-0.5,1.1-0.8,1.3-1.7,1.3c-0.3,0-0.7-0.2-1-0.1
					c0.6-0.6,4.9-8.7,5.3-11c-0.3,0.4-0.7,0.6-0.6,0.2c0.1-0.3,0.4-0.8,0.5-1.1c0.5-1.1,0.7-3,0.1-3.1c0,0,1-0.2,1.2-0.2
					c0.7-0.1,0.9-0.2,0.9,1c0,0.8-0.4,2.1-0.7,3c0.7-1.2,2.8-4.7,4.5-4.2C43.4,37.3,42,41.3,40.2,43.5z M38.4,38.9
					c-0.9,1.3-2.2,3.5-3.3,5.7c1.2,1.2,4-1.5,5.3-4C42,37.5,40.5,35.9,38.4,38.9z"/>
				<path class="st0" d="M47.7,45.5c-0.9,0-2.1-0.6-1.3-2.9c0.2-0.6,0.7-1.5,1.4-2.6c0.6-1,0.1-1.6-1.8,0.2
					c-0.8,0.8-2.1,2.2-3.5,4.9c-0.2,0.3-0.4,0.4-0.9,0.4c-0.4,0-0.6,0-0.8,0.1c2-4.2,4.4-9.3,6.9-13.7c0.6-1,1-1.6,1.8-1.6
					c0.3,0,0.7,0.1,1,0.1c-1.1,1.1-4.3,7.2-6.4,11.4c0.7-0.8,1.3-1.6,2-2.2c1.2-1.1,3.8-2.6,4.6-2.3c0,0-2.7,4.7-3,6.4
					c-0.2,1,0,1.3,0.4,1.3c1.1,0.1,2.8-3.3,3.4-4.4c0.2-0.4,0.6-0.3,0.3,0.2C50.9,42.6,49.5,45.5,47.7,45.5z"/>
				<path class="st0" d="M56.2,45.2c-0.7,0-1.3-0.3-1.6-0.6c-0.7,0.5-1.4,0.9-2.2,0.8c-1.9,0-2.2-2.3-1.2-4.5c1-2.3,3-4.2,4.7-4.2
					c1.9,0,2.2,2.3,1.2,4.5c-0.4,0.9-1.1,2-2.1,2.9c0.2,0.4,0.6,0.6,1.2,0.6c1.6,0,2.9-3.1,3.5-4.3c0.1-0.3,0.5-0.2,0.4,0.2
					C59.7,41.7,58.3,45.2,56.2,45.2z M52.9,40.8c-1,2-1.2,3.8-0.3,4.1c0.5,0.1,1.1-0.1,1.7-0.6c-0.3-0.4-0.4-0.8-0.4-1.2
					c0-0.6,0.2-1.1,0.9-1.1c0.4,0,0.7,0.3,0.7,0.7c0,0.1,0,0.2,0,0.3c0.3-0.4,0.5-0.9,0.8-1.3c1-2,1.1-3.8,0.2-4.1
					C55.4,37.2,53.8,38.8,52.9,40.8z"/>
				<path class="st0" d="M61.2,45.2c-0.3,0.1-0.7,0.2-1,0.2c-3,0-2.4-3.5-1.2-3.5c0.7-1.3,1.5-2.9,2.1-4.3c0.4-1,1.2-2,2.1-2.1
					c0.4,0,0.7,0,0.9,0.1c0.4,0.2,0.3,0.6-0.1,0.4c-0.2-0.1-0.5-0.2-0.8,0c-1.1,0.5-0.9,2.3-0.5,3.2c0.4,0.9,0.9,1.8,0.9,2.9
					c0,1-0.8,2.1-1.8,2.8l0.2,0c0.8,0.1,1.6-0.4,2.2-1.1c0.6-0.7,1.3-2.2,1.9-3.3c0.1-0.3,0.5-0.1,0.4,0.1
					C65.5,42.8,64,46.1,61.2,45.2z M59.5,43.1c-0.8,0.8-0.5,2,0.5,2c0.2,0,0.3,0,0.5-0.1C60,44.6,59.5,44,59.5,43.1z M61.7,37.4
					c-0.7,1.3-1.7,3.5-2.3,4.6c0,0,0.5,0,0.5,0.8c0,0.9,0.5,1.6,1,1.9c0.5-0.4,1-1.3,1.1-2.6C62.1,40.6,61.5,38.5,61.7,37.4z"/>
			</g>
		</g>
	</g>
	<g>
		<path class="st0" d="M7.8,50.6h8.1c1.8,0,3.1,0.4,4,1.3c0.9,0.8,1.3,2,1.3,3.6c0,1.6-0.5,2.8-1.4,3.7s-2.4,1.3-4.4,1.3h-2.7v5.9
			H7.8V50.6z M12.7,57.3h1.2c0.9,0,1.6-0.2,2-0.5c0.4-0.3,0.6-0.7,0.6-1.3c0-0.5-0.2-0.9-0.5-1.3c-0.3-0.3-1-0.5-1.9-0.5h-1.4V57.3z
			"/>
		<path class="st0" d="M26,58.6l-4.2-0.4c0.2-0.7,0.4-1.3,0.7-1.7c0.3-0.4,0.7-0.8,1.3-1.1c0.4-0.2,1-0.4,1.7-0.5s1.5-0.2,2.3-0.2
			c1.3,0,2.4,0.1,3.2,0.2c0.8,0.1,1.5,0.5,2,0.9c0.4,0.3,0.7,0.8,0.9,1.4c0.2,0.6,0.3,1.2,0.3,1.7v5c0,0.5,0,1,0.1,1.3
			c0.1,0.3,0.2,0.7,0.4,1.2h-4.1c-0.2-0.3-0.3-0.5-0.3-0.7c0-0.2-0.1-0.4-0.2-0.7c-0.6,0.6-1.1,0.9-1.7,1.2
			c-0.8,0.3-1.7,0.5-2.7,0.5c-1.4,0-2.4-0.3-3.1-0.9c-0.7-0.6-1.1-1.4-1.1-2.3c0-0.9,0.3-1.6,0.8-2.1c0.5-0.6,1.4-1,2.8-1.2
			c1.6-0.3,2.7-0.6,3.2-0.7c0.5-0.1,1-0.3,1.5-0.5c0-0.5-0.1-0.9-0.3-1.1c-0.2-0.2-0.6-0.3-1.2-0.3c-0.7,0-1.3,0.1-1.6,0.3
			C26.4,57.8,26.2,58.1,26,58.6z M29.8,60.9c-0.6,0.2-1.2,0.4-1.9,0.6c-0.9,0.2-1.5,0.5-1.7,0.7c-0.2,0.2-0.4,0.5-0.4,0.8
			c0,0.3,0.1,0.6,0.4,0.8s0.6,0.3,1.1,0.3c0.5,0,0.9-0.1,1.4-0.4c0.4-0.2,0.7-0.5,0.9-0.9s0.3-0.8,0.3-1.3V60.9z"/>
		<path class="st0" d="M35.8,50.6h4.4v3h-4.4V50.6z M35.8,54.9h4.4v11.4h-4.4V54.9z"/>
		<path class="st0" d="M41.9,54.9H46v1.9c0.6-0.8,1.2-1.3,1.9-1.6c0.6-0.3,1.4-0.5,2.3-0.5c1.2,0,2.2,0.4,2.8,1.1
			c0.7,0.7,1,1.8,1,3.3v7.3h-4.4v-6.3c0-0.7-0.1-1.2-0.4-1.5c-0.3-0.3-0.6-0.4-1.1-0.4c-0.5,0-1,0.2-1.3,0.6
			c-0.3,0.4-0.5,1.1-0.5,2.2v5.5h-4.4V54.9z"/>
		<path class="st0" d="M60.9,50.6v4.3h2.4v3.2h-2.4v4c0,0.5,0,0.8,0.1,1c0.1,0.2,0.4,0.4,0.8,0.4c0.3,0,0.8-0.1,1.4-0.3l0.3,3
			c-1.1,0.2-2.1,0.4-3,0.4c-1.1,0-1.9-0.1-2.4-0.4s-0.9-0.7-1.1-1.3c-0.2-0.6-0.4-1.5-0.4-2.8v-4h-1.6v-3.2h1.6v-2.1L60.9,50.6z"/>
		<path class="st0" d="M77,61.7h-8.8c0.1,0.7,0.3,1.2,0.6,1.6c0.4,0.5,1,0.7,1.7,0.7c0.4,0,0.8-0.1,1.2-0.3c0.2-0.1,0.5-0.4,0.8-0.7
			l4.3,0.4c-0.7,1.1-1.5,2-2.4,2.5c-0.9,0.5-2.3,0.7-4,0.7c-1.5,0-2.7-0.2-3.6-0.6s-1.6-1.1-2.2-2s-0.9-2-0.9-3.3
			c0-1.8,0.6-3.2,1.7-4.3c1.1-1.1,2.7-1.7,4.7-1.7c1.6,0,2.9,0.2,3.9,0.7c0.9,0.5,1.7,1.2,2.2,2.2c0.5,0.9,0.7,2.2,0.7,3.7V61.7z
			 M72.5,59.6c-0.1-0.8-0.3-1.5-0.7-1.8c-0.4-0.4-0.9-0.5-1.5-0.5c-0.7,0-1.3,0.3-1.7,0.8c-0.3,0.3-0.4,0.9-0.5,1.5H72.5z"/>
		<path class="st0" d="M78,54.9h4.1v1.9c0.4-0.8,0.8-1.4,1.2-1.7c0.4-0.3,0.9-0.5,1.6-0.5c0.6,0,1.4,0.2,2.1,0.6l-1.4,3.1
			c-0.5-0.2-0.9-0.3-1.2-0.3c-0.6,0-1,0.2-1.3,0.7c-0.5,0.7-0.7,1.9-0.7,3.7v3.8H78V54.9z"/>
		<path class="st0" d="M105.7,58.7l3.4,0.8c-0.2,0.6-0.4,1.1-0.5,1.5c-0.2,0.4-0.4,0.8-0.7,1.3l1.6,1.1c0.2,0.1,0.5,0.3,0.8,0.5
			l-2.4,2.7c-0.4-0.2-0.9-0.5-1.3-0.8c-0.5-0.3-0.9-0.6-1.2-0.8c-0.8,0.5-1.5,0.9-2.3,1.1c-1.1,0.3-2.3,0.5-3.6,0.5
			c-2.1,0-3.7-0.4-4.7-1.3c-1-0.9-1.5-1.9-1.5-3.2c0-0.9,0.3-1.7,0.9-2.5c0.6-0.8,1.6-1.5,3-2c-0.6-0.7-1-1.3-1.2-1.8
			c-0.2-0.5-0.3-1-0.3-1.6c0-1.1,0.4-2,1.3-2.8s2.1-1.1,3.9-1.1c1.8,0,3.1,0.3,3.9,1c0.8,0.7,1.2,1.5,1.2,2.5c0,0.5-0.1,1.1-0.4,1.5
			c-0.3,0.5-0.6,0.9-0.9,1.2c-0.4,0.3-1,0.8-1.9,1.4c0.8,0.8,1.6,1.5,2.4,2.1C105.3,59.6,105.5,59.2,105.7,58.7z M99.1,59.7
			c-0.6,0.4-1,0.8-1.2,1.1c-0.2,0.3-0.3,0.6-0.3,1c0,0.5,0.2,1,0.7,1.4c0.5,0.4,1,0.6,1.8,0.6c0.8,0,1.7-0.3,2.6-0.9
			C101.8,62.2,100.6,61.1,99.1,59.7z M100.7,55.9c0.6-0.3,1-0.6,1.3-1s0.5-0.7,0.5-1c0-0.3-0.1-0.6-0.4-0.9s-0.6-0.3-1.1-0.3
			c-0.4,0-0.8,0.1-1.1,0.4c-0.3,0.3-0.4,0.6-0.4,0.9C99.5,54.4,99.9,55.1,100.7,55.9z"/>
		<path class="st0" d="M7.9,68.6h7.2c1.4,0,2.6,0.2,3.5,0.6c0.9,0.4,1.6,0.9,2.2,1.7s1,1.6,1.2,2.5c0.3,1,0.4,2,0.4,3.1
			c0,1.7-0.2,3-0.6,3.9c-0.4,0.9-0.9,1.7-1.6,2.3s-1.4,1-2.2,1.3c-1.1,0.3-2,0.4-2.9,0.4H7.9V68.6z M12.8,72.1v8.6H14
			c1,0,1.7-0.1,2.2-0.3c0.4-0.2,0.8-0.6,1-1.2s0.4-1.5,0.4-2.7c0-1.7-0.3-2.8-0.8-3.4c-0.5-0.6-1.4-0.9-2.7-0.9H12.8z"/>
		<path class="st0" d="M36.3,79.7h-8.8c0.1,0.7,0.3,1.2,0.6,1.6c0.4,0.5,1,0.7,1.7,0.7c0.4,0,0.8-0.1,1.2-0.3
			c0.2-0.1,0.5-0.4,0.8-0.7l4.3,0.4c-0.7,1.1-1.5,2-2.4,2.5c-0.9,0.5-2.3,0.7-4,0.7c-1.5,0-2.7-0.2-3.6-0.6s-1.6-1.1-2.2-2
			c-0.6-0.9-0.9-2-0.9-3.3c0-1.8,0.6-3.2,1.7-4.3c1.1-1.1,2.7-1.7,4.7-1.7c1.6,0,2.9,0.2,3.9,0.7c0.9,0.5,1.7,1.2,2.2,2.2
			s0.7,2.2,0.7,3.7V79.7z M31.8,77.6c-0.1-0.8-0.3-1.5-0.7-1.8c-0.4-0.4-0.9-0.5-1.5-0.5c-0.7,0-1.3,0.3-1.7,0.8
			c-0.3,0.3-0.4,0.9-0.5,1.5H31.8z"/>
		<path class="st0" d="M45.8,79.9l4.2,0.5c-0.2,0.9-0.6,1.6-1.1,2.3s-1.2,1.1-2,1.5c-0.8,0.4-1.8,0.5-3.1,0.5c-1.2,0-2.2-0.1-3-0.3
			s-1.5-0.6-2.1-1.1c-0.6-0.5-1-1.1-1.4-1.8c-0.3-0.7-0.5-1.6-0.5-2.7c0-1.2,0.2-2.2,0.6-2.9c0.3-0.6,0.7-1.1,1.2-1.5
			c0.5-0.5,1-0.8,1.6-1c0.9-0.4,1.9-0.5,3.3-0.5c1.9,0,3.3,0.3,4.3,1c1,0.7,1.7,1.6,2.1,2.9l-4.1,0.5c-0.1-0.5-0.4-0.9-0.7-1.1
			c-0.3-0.2-0.8-0.4-1.4-0.4c-0.7,0-1.3,0.3-1.8,0.8c-0.4,0.5-0.7,1.3-0.7,2.4c0,0.9,0.2,1.7,0.7,2.1c0.4,0.5,1,0.7,1.7,0.7
			c0.6,0,1.1-0.1,1.4-0.4C45.3,80.9,45.6,80.5,45.8,79.9z"/>
		<path class="st0" d="M50.4,78.6c0-1.7,0.6-3.2,1.8-4.3s2.8-1.7,4.8-1.7c2.3,0,4,0.7,5.2,2c0.9,1.1,1.4,2.4,1.4,3.9
			c0,1.8-0.6,3.2-1.7,4.3c-1.2,1.1-2.8,1.7-4.8,1.7c-1.8,0-3.3-0.5-4.5-1.4C51.1,82,50.4,80.5,50.4,78.6z M54.8,78.6
			c0,1,0.2,1.8,0.6,2.3c0.4,0.5,0.9,0.7,1.6,0.7c0.6,0,1.1-0.2,1.6-0.7s0.6-1.3,0.6-2.3c0-1-0.2-1.7-0.6-2.2
			c-0.4-0.5-0.9-0.7-1.5-0.7c-0.6,0-1.2,0.2-1.6,0.7S54.8,77.6,54.8,78.6z"/>
		<path class="st0" d="M64.6,72.9h4.1v1.9c0.4-0.8,0.8-1.4,1.2-1.7c0.4-0.3,0.9-0.5,1.6-0.5c0.6,0,1.4,0.2,2.1,0.6l-1.4,3.1
			C71.7,76.2,71.3,76,71,76c-0.6,0-1,0.2-1.3,0.7c-0.5,0.7-0.7,1.9-0.7,3.7v3.8h-4.4V72.9z"/>
		<path class="st0" d="M77.6,76.6l-4.2-0.4c0.2-0.7,0.4-1.3,0.7-1.7c0.3-0.4,0.7-0.8,1.3-1.1c0.4-0.2,1-0.4,1.7-0.5s1.5-0.2,2.3-0.2
			c1.3,0,2.4,0.1,3.2,0.2c0.8,0.1,1.5,0.5,2,0.9c0.4,0.3,0.7,0.8,0.9,1.4c0.2,0.6,0.3,1.2,0.3,1.7v5c0,0.5,0,1,0.1,1.3
			s0.2,0.7,0.4,1.2h-4.1c-0.2-0.3-0.3-0.5-0.3-0.7c0-0.2-0.1-0.4-0.2-0.7c-0.6,0.6-1.1,0.9-1.7,1.2c-0.8,0.3-1.7,0.5-2.7,0.5
			c-1.4,0-2.4-0.3-3.1-0.9c-0.7-0.6-1.1-1.4-1.1-2.3c0-0.9,0.3-1.6,0.8-2.1c0.5-0.6,1.4-1,2.8-1.2c1.6-0.3,2.7-0.6,3.2-0.7
			c0.5-0.1,1-0.3,1.5-0.5c0-0.5-0.1-0.9-0.3-1.1s-0.6-0.3-1.2-0.3c-0.7,0-1.3,0.1-1.6,0.3C78,75.8,77.8,76.1,77.6,76.6z M81.4,78.9
			c-0.6,0.2-1.2,0.4-1.9,0.6c-0.9,0.2-1.5,0.5-1.7,0.7c-0.2,0.2-0.4,0.5-0.4,0.8c0,0.3,0.1,0.6,0.4,0.8c0.2,0.2,0.6,0.3,1.1,0.3
			c0.5,0,0.9-0.1,1.4-0.4c0.4-0.2,0.7-0.5,0.9-0.9s0.3-0.8,0.3-1.3V78.9z"/>
		<path class="st0" d="M92.2,68.6v4.3h2.4v3.2h-2.4v4c0,0.5,0,0.8,0.1,1c0.1,0.2,0.4,0.4,0.8,0.4c0.3,0,0.8-0.1,1.4-0.3l0.3,3
			c-1.1,0.2-2.1,0.4-3,0.4c-1.1,0-1.9-0.1-2.4-0.4c-0.5-0.3-0.9-0.7-1.1-1.3c-0.2-0.6-0.4-1.5-0.4-2.8v-4h-1.6v-3.2h1.6v-2.1
			L92.2,68.6z"/>
		<path class="st0" d="M95.1,78.6c0-1.7,0.6-3.2,1.8-4.3s2.8-1.7,4.8-1.7c2.3,0,4,0.7,5.2,2c0.9,1.1,1.4,2.4,1.4,3.9
			c0,1.8-0.6,3.2-1.7,4.3c-1.2,1.1-2.8,1.7-4.8,1.7c-1.8,0-3.3-0.5-4.5-1.4C95.8,82,95.1,80.5,95.1,78.6z M99.5,78.6
			c0,1,0.2,1.8,0.6,2.3c0.4,0.5,0.9,0.7,1.6,0.7c0.6,0,1.1-0.2,1.6-0.7s0.6-1.3,0.6-2.3c0-1-0.2-1.7-0.6-2.2
			c-0.4-0.5-0.9-0.7-1.5-0.7c-0.6,0-1.2,0.2-1.6,0.7S99.5,77.6,99.5,78.6z"/>
		<path class="st0" d="M109.3,72.9h4.1v1.9c0.4-0.8,0.8-1.4,1.2-1.7c0.4-0.3,0.9-0.5,1.6-0.5c0.6,0,1.4,0.2,2.1,0.6l-1.4,3.1
			c-0.5-0.2-0.9-0.3-1.2-0.3c-0.6,0-1,0.2-1.3,0.7c-0.5,0.7-0.7,1.9-0.7,3.7v3.8h-4.4V72.9z"/>
		<path class="st0" d="M117.8,81.2l4.3-0.4c0.2,0.5,0.4,0.9,0.8,1.1c0.3,0.2,0.8,0.3,1.3,0.3c0.6,0,1-0.1,1.4-0.4
			c0.3-0.2,0.4-0.4,0.4-0.7c0-0.3-0.2-0.6-0.5-0.7c-0.2-0.1-0.9-0.3-1.9-0.5c-1.5-0.3-2.6-0.5-3.2-0.7s-1.1-0.6-1.5-1.1
			c-0.4-0.5-0.6-1.2-0.6-1.8c0-0.8,0.2-1.4,0.7-1.9s1-1,1.8-1.2s1.8-0.4,3.1-0.4c1.4,0,2.4,0.1,3,0.3c0.6,0.2,1.2,0.5,1.6,1
			c0.4,0.4,0.8,1,1.1,1.8l-4.2,0.4c-0.1-0.4-0.3-0.6-0.5-0.8c-0.3-0.2-0.8-0.3-1.2-0.3c-0.5,0-0.9,0.1-1.1,0.3
			c-0.2,0.2-0.3,0.4-0.3,0.6c0,0.3,0.1,0.5,0.4,0.6c0.3,0.1,0.9,0.3,1.9,0.4c1.5,0.2,2.5,0.4,3.3,0.7c0.7,0.3,1.3,0.7,1.6,1.3
			c0.4,0.5,0.6,1.1,0.6,1.8c0,0.7-0.2,1.3-0.6,1.9c-0.4,0.6-1,1.1-1.9,1.5c-0.9,0.4-2,0.6-3.5,0.6c-2.1,0-3.6-0.3-4.5-0.9
			C118.6,83.1,118,82.3,117.8,81.2z"/>
	</g>
	<g>
		
			<image style="overflow:visible;opacity:0.28;" width="81" height="109" xlink:href="E96999FF.png"  transform="matrix(1 0 0 1 80 0)">
		</image>
		<g>
			<linearGradient id="SVGID_1_" gradientUnits="userSpaceOnUse" x1="122.7788" y1="100.0244" x2="122.7788" y2="10.8531">
				<stop  offset="5.128205e-03" style="stop-color:#26D0CE"/>
				<stop  offset="0.5113" style="stop-color:#3F91BB"/>
				<stop  offset="1" style="stop-color:#5659AA"/>
			</linearGradient>
			<path class="st1" d="M92.2,18.1c2.9-2.2,7-4.1,10.6-5.3c3.6-1.3,7.5-2,11.4-1.9c1.9,0,3.9,0.2,5.8,0.5c1.9,0.4,3.7,0.8,5.5,1.5
				c1.8,0.7,3.5,1.4,5.1,2.3c0.8,0.4,1.6,0.9,2.3,1.4c0.7,0.5,1.5,1,2.2,1.6c1.4,1.1,2.7,2.2,4,3.4c1.2,1.2,2.4,2.5,3.4,3.8
				c2.1,2.7,3.9,5.5,5.4,8.4c2.9,5.9,4.6,12.1,5.2,18.4c0.6,6.3,0.1,12.6-1.4,18.6c-0.8,3-1.8,5.9-3.2,8.7c-1.4,2.8-3,5.5-4.9,7.9
				c-1.9,2.4-4.2,4.7-6.7,6.6c-1.2,1-2.6,1.8-4,2.6c-1.4,0.7-2.9,1.4-4.4,1.9c-1.5,0.5-3.1,0.9-4.6,1.2c-1.6,0.3-3.2,0.4-4.7,0.4
				c-3.2,0-6.3-0.7-9.2-1.7c3,0.8,6.1,1.1,9.2,0.9c1.5-0.1,3-0.4,4.5-0.7c1.5-0.3,2.9-0.9,4.2-1.5c1.4-0.6,2.6-1.3,3.9-2.1
				c1.2-0.8,2.4-1.7,3.4-2.7c2.2-1.9,4-4.2,5.5-6.6c1.6-2.4,2.8-5,3.7-7.6c1-2.7,1.7-5.4,2.1-8.2c0.8-5.6,0.7-11.2-0.4-16.7
				c-1.1-5.5-3.1-10.7-6-15.4c-1.4-2.3-3.1-4.5-5-6.4c-0.9-1-1.9-1.9-2.9-2.7c-1-0.8-2.1-1.6-3.2-2.3c-0.5-0.4-1.1-0.6-1.7-1
				c-0.6-0.3-1.1-0.6-1.7-0.8c-1.2-0.5-2.3-0.9-3.5-1.2c-1.2-0.3-2.4-0.5-3.6-0.6c-1.2-0.1-2.4-0.1-3.5,0c-2.4,0.2-4.6,0.8-6.7,1.8
				c-2.1,1-4.2,2.9-5.9,4.5c0,0-1.4-2.8-4.1-4.1c-1.9-0.9-2.7-0.8-4.4-2.5C91.9,20.7,92.2,18.1,92.2,18.1z"/>
			<path class="st2" d="M92.2,18.1c2.9-2.2,7-4.1,10.6-5.3c3.6-1.3,7.5-2,11.4-1.9c1.9,0,3.9,0.2,5.8,0.5c1.9,0.4,3.7,0.8,5.5,1.5
				c1.8,0.7,3.5,1.4,5.1,2.3c0.8,0.4,1.6,0.9,2.3,1.4c0.7,0.5,1.5,1,2.2,1.6c1.4,1.1,2.7,2.2,4,3.4c1.2,1.2,2.4,2.5,3.4,3.8
				c2.1,2.7,3.9,5.5,5.4,8.4c2.9,5.9,4.6,12.1,5.2,18.4c0.6,6.3,0.1,12.6-1.4,18.6c-0.8,3-1.8,5.9-3.2,8.7c-1.4,2.8-3,5.5-4.9,7.9
				c-1.9,2.4-4.2,4.7-6.7,6.6c-1.2,1-2.6,1.8-4,2.6c-1.4,0.7-2.9,1.4-4.4,1.9c-1.5,0.5-3.1,0.9-4.6,1.2c-1.6,0.3-3.2,0.4-4.7,0.4
				c-3.2,0-6.3-0.7-9.2-1.7c3,0.8,6.1,1.1,9.2,0.9c1.5-0.1,3-0.4,4.5-0.7c1.5-0.3,2.9-0.9,4.2-1.5c1.4-0.6,2.6-1.3,3.9-2.1
				c1.2-0.8,2.4-1.7,3.4-2.7c2.2-1.9,4-4.2,5.5-6.6c1.6-2.4,2.8-5,3.7-7.6c1-2.7,1.7-5.4,2.1-8.2c0.8-5.6,0.7-11.2-0.4-16.7
				c-1.1-5.5-3.1-10.7-6-15.4c-1.4-2.3-3.1-4.5-5-6.4c-0.9-1-1.9-1.9-2.9-2.7c-1-0.8-2.1-1.6-3.2-2.3c-0.5-0.4-1.1-0.6-1.7-1
				c-0.6-0.3-1.1-0.6-1.7-0.8c-1.2-0.5-2.3-0.9-3.5-1.2c-1.2-0.3-2.4-0.5-3.6-0.6c-1.2-0.1-2.4-0.1-3.5,0c-2.4,0.2-4.6,0.8-6.7,1.8
				c-2.1,1-4.2,2.9-5.9,4.5c0,0-1.4-2.8-4.1-4.1c-1.9-0.9-2.7-0.8-4.4-2.5C91.9,20.7,92.2,18.1,92.2,18.1z"/>
		</g>
	</g>
</g>
</svg>
