<svg id="Layer_1" data-name="Layer 1" xmlns="http://www.w3.org/2000/svg" xmlns:xlink="http://www.w3.org/1999/xlink" viewBox="0 0 50 50"><defs><style>.cls-1{fill:#265aa6;}.cls-2{fill:#449dd7;}.cls-3{fill:#fff;}.cls-4{fill:url(#linear-gradient);}.cls-5{fill:url(#linear-gradient-2);}.cls-6{fill:url(#linear-gradient-3);}.cls-7,.cls-9{opacity:0.05;}.cls-8{fill:url(#linear-gradient-4);}.cls-9{isolation:isolate;}</style><linearGradient id="linear-gradient" x1="-518.77" y1="2155.48" x2="-518.77" y2="2163.21" gradientTransform="matrix(1, 0, 0, -1, 539.06, 2185.36)" gradientUnits="userSpaceOnUse"><stop offset="0.39" stop-color="#dadada" stop-opacity="0"/><stop offset="1" stop-color="#dadada"/></linearGradient><linearGradient id="linear-gradient-2" x1="-509.11" y1="2159.34" x2="-509.11" y2="2167.38" xlink:href="#linear-gradient"/><linearGradient id="linear-gradient-3" x1="-523.39" y1="2152.04" x2="-504.79" y2="2152.04" gradientTransform="matrix(1, 0, 0, -1, 539.06, 2185.36)" gradientUnits="userSpaceOnUse"><stop offset="0" stop-color="#eeeded"/><stop offset="1" stop-color="#fff"/></linearGradient><linearGradient id="linear-gradient-4" x1="-524.21" y1="2165.43" x2="-504.11" y2="2165.43" xlink:href="#linear-gradient-3"/></defs><title>css</title><polygon class="cls-1" points="38.03 43.95 24.99 47.46 11.96 43.95 8.95 11.36 41.04 11.36 38.03 43.95"/><polygon class="cls-2" points="24.95 14.04 24.95 44.7 24.98 44.71 35.54 41.86 37.97 14.04 24.95 14.04"/><polygon points="17.58 6.58 17.58 4.66 20.45 4.66 20.45 2.46 15.48 2.46 15.48 8.49 20.45 8.49 20.45 6.58 17.58 6.58"/><path d="M25.55,4.57h2V2.46h-5V4.61c.66.67,1,1,2,2h-2V8.49h5V6.54Z"/><path d="M32.53,4.57h2V2.46h-5V4.61c.66.67,1,1,2,2h-2V8.49h5V6.54Z"/><polygon class="cls-3" points="24.98 22.15 15.65 26.04 15.96 29.88 24.98 26.02 34.58 21.92 34.97 17.99 24.98 22.15"/><polygon class="cls-4" points="15.62 26.04 15.94 29.88 24.95 26.02 24.95 22.15 15.62 26.04"/><polygon class="cls-5" points="34.94 17.99 24.95 22.15 24.95 26.02 34.55 21.92 34.94 17.99"/><polygon class="cls-6" points="15.67 26.01 15.97 29.83 29.9 29.88 29.59 35.1 24.95 36.41 20.5 35.28 20.23 32.03 16.21 32.03 16.74 38.21 25 40.65 33.21 38.25 34.26 26.01 15.67 26.01"/><g class="cls-7"><polygon points="24.95 26.01 15.67 26.01 15.98 29.83 24.95 29.86 24.95 26.01"/><polygon points="24.95 36.31 24.91 36.33 20.53 35.22 20.26 32.03 16.2 32.03 16.73 38.19 24.95 40.62 24.95 36.31"/></g><polygon class="cls-8" points="14.84 17.97 34.95 17.97 34.55 21.89 15.32 21.89 14.84 17.97"/><polygon class="cls-9" points="24.95 17.97 14.81 17.97 15.29 21.89 24.95 21.89 24.95 17.97"/></svg>