<svg id="Layer_1" data-name="Layer 1" xmlns="http://www.w3.org/2000/svg" xmlns:xlink="http://www.w3.org/1999/xlink" viewBox="0 0 90 27.74"><defs><style>.cls-1{fill:url(#linear-gradient);}.cls-2{fill:#ff7751;}</style><linearGradient id="linear-gradient" x1="-385.58" y1="890.46" x2="-382.93" y2="890.46" gradientTransform="matrix(9.57, 0, 0, -9.57, 3692.21, 8534.18)" gradientUnits="userSpaceOnUse"><stop offset="0" stop-color="#ff593d"/><stop offset="1" stop-color="#ff7751"/></linearGradient></defs><title>datocms</title><path class="cls-1" d="M15.53,1.14H2.83V26.72h12.7A13.2,13.2,0,0,0,28.24,13.93,13.2,13.2,0,0,0,15.53,1.14Zm0,18.59a5.82,5.82,0,0,1-5.66-7.14A5.71,5.71,0,0,1,14.2,8.26a5.81,5.81,0,1,1,1.33,11.47Z"/><path class="cls-2" d="M41.28,1.14c3.82,0,5.78,2.32,5.78,5.51V9.5c0,3.19-2,5.51-5.78,5.51H35.22V1.14Zm2.37,5.49c0-1.76-.93-2.69-3-2.69H38.59v8.27h2.06c2.07,0,3-.93,3-2.69Zm14,5.81h-5L51.81,15h-3.4l5-13.87h3.48L61.8,15H58.39ZM53.42,9.71h3.34L55.1,4.23ZM72.56,1.14V4H68.82V15H65.41V4H61.67V1.14Zm8.25,14.15c-4.2,0-6.36-2.69-6.36-6.32V7.19c0-3.62,2.16-6.32,6.36-6.32s6.36,2.7,6.36,6.32V9c0,3.63-2.16,6.32-6.36,6.32Zm0-11.59c-2,0-3,1.33-3,3.31V9.15c0,2,1,3.31,3,3.31s3-1.33,3-3.31V7c0-2-1-3.31-3-3.31ZM38.24,25.15a1.56,1.56,0,0,0,1.68-1.42.76.76,0,0,0,0-.15h1.93a3.33,3.33,0,0,1-3.6,3.29A3.57,3.57,0,0,1,34.37,23V21.91a3.57,3.57,0,0,1,3.89-3.85,3.33,3.33,0,0,1,3.6,3.29H39.93a1.57,1.57,0,0,0-1.54-1.58h-.15c-1.27,0-1.78.83-1.78,2v1.31C36.46,24.32,37,25.15,38.24,25.15Zm12-6.9h1.91v8.47h-2V22.24L48.8,24.83H47.16l-1.32-2.59v4.48h-2V18.25h1.91L48,22.86Zm7.32,8.62c-2,0-3.39-1-3.39-2.66V24h2v.17c0,.71.46,1.15,1.42,1.15S59,25,59,24.3a.69.69,0,0,0-.58-.75L56.28,23c-1.32-.32-2-.9-2-2.27,0-1.68,1.19-2.64,3.19-2.64s3.11,1,3.11,2.56v.21H58.66v-.14c0-.57-.31-1-1.18-1-.72,0-1.18.25-1.18.85a.64.64,0,0,0,.54.69l2.25.6A2.17,2.17,0,0,1,61,24.12c0,1.68-1.5,2.75-3.45,2.75Z"/></svg>