<svg id="Layer_1" data-name="Layer 1" xmlns="http://www.w3.org/2000/svg" viewBox="0 0 100.46 32"><defs><style>.cls-1{fill:#fff;}.cls-2{fill:#639;}</style></defs><title>gatsby</title><path d="M60.22,14h2.37v9.34h-2.8V22a2.31,2.31,0,0,1-2.47,1.49,4.71,4.71,0,0,1-4.76-4.95,4.62,4.62,0,0,1,4.58-5,4.84,4.84,0,0,1,3.58,1.49V14Zm-4.86,4.56A2.5,2.5,0,0,0,58,21.18a2.53,2.53,0,0,0,2.61-2.48.29.29,0,0,0,0-.13A2.5,2.5,0,0,0,58,16a2.56,2.56,0,0,0-2.62,2.49ZM68.2,15.88v7.47H65.39V15.88h-.93V14h.93v-2.8H68.2V14h1.86v1.87Zm7.71.26a2.33,2.33,0,0,0-1.49-.65c-.65,0-1,.28-1,.74,0,.28.1.56.84.84l.66.19c.74.28,1.87.56,2.33,1.31a2.66,2.66,0,0,1,.47,1.59,3,3,0,0,1-1,2.33,4.11,4.11,0,0,1-2.8,1,4.74,4.74,0,0,1-3.64-1.59l1.4-1.59a3.27,3.27,0,0,0,2,1.13c.75,0,1.31-.38,1.31-1a1,1,0,0,0-.84-.94l-.56-.18a6,6,0,0,1-2-1.12,2.39,2.39,0,0,1-.75-1.78,3.12,3.12,0,0,1,.93-2.15,4,4,0,0,1,2.43-.65,4.66,4.66,0,0,1,3,1Zm5.37-1a4.51,4.51,0,0,1,3.32-1.49,4.62,4.62,0,0,1,4.58,5,4.64,4.64,0,0,1-4.67,4.95A17.82,17.82,0,0,1,81.28,22v1.32H78.47V7.47h2.81Zm0,3.46A2.5,2.5,0,0,0,84,21.18a2.53,2.53,0,0,0,2.61-2.48.29.29,0,0,0,0-.13,2.62,2.62,0,1,0-5.23,0ZM93.5,21.8,89.11,14h3L95,19.23,97.53,14h2.93L93.14,28H90.21ZM52.78,15h-7v2.8h3.7c-.65,2.05-2.22,3.4-5.22,3.18a4.49,4.49,0,0,1-3.78-2.52c-1.77-3.87.49-8.17,4.29-8.17A5.41,5.41,0,0,1,49,12.34l2.3-1.5a7.92,7.92,0,0,0-6.51-3.3,8,8,0,0,0-8,8.11,8,8,0,1,0,16,0A1.63,1.63,0,0,0,52.78,15Z"/><path class="cls-1" d="M28.57,15.88h-8v1.87h5.51a10.27,10.27,0,0,1-6.63,8L6.29,12.57A10.27,10.27,0,0,1,16,5.72a10.57,10.57,0,0,1,8.46,4.35l1.71-1.5A12.57,12.57,0,0,0,3.76,13.26L18.85,28.34A12.89,12.89,0,0,0,28.57,15.88Zm-25.14.23A12.22,12.22,0,0,0,7.09,24.8a12.41,12.41,0,0,0,8.68,3.66Z"/><path class="cls-2" d="M16,0A16,16,0,1,0,32,16,16,16,0,0,0,16,0ZM7.09,24.92a12.43,12.43,0,0,1-3.66-8.69L15.89,28.57a13,13,0,0,1-8.81-3.65ZM18.66,28,3.19,12.55A13,13,0,0,1,26.35,7.7L24.58,9.25a10.9,10.9,0,0,0-8.74-4.49,10.73,10.73,0,0,0-10,7.09L19.38,25.43a10.73,10.73,0,0,0,6.85-7.68H20.55V15.88h7.94A12.54,12.54,0,0,1,18.74,28Z"/></svg>