<svg id="Layer_1" data-name="Layer 1" xmlns="http://www.w3.org/2000/svg" viewBox="0 0 94.05 30"><defs><style>.cls-1{fill:#e10098;}</style></defs><title>graphql</title><path class="cls-1" d="M37,9.18a4,4,0,0,0-1.24.18,2.46,2.46,0,0,0-1,.56,2.76,2.76,0,0,0-.63,1,4.69,4.69,0,0,0-.26,1.45q0,1.37,0,2.73a4.52,4.52,0,0,0,.26,1.44,2.85,2.85,0,0,0,.63,1,2.66,2.66,0,0,0,1,.57,4.38,4.38,0,0,0,1.24.16,4.08,4.08,0,0,0,1.24-.18,2.58,2.58,0,0,0,1.66-1.57c.16-.41.7-1.43.7-1.43V13.93h-3.1c-.22.37-.33.26-.08,0v-.21c-.25-.23.08.18.08.18h3.24s.34-.41.66-.18v1.33a10.58,10.58,0,0,0-.59,1.67,3.64,3.64,0,0,1-2.09,2.14,5,5,0,0,1-1.73.28,4.83,4.83,0,0,1-1.73-.28A3.81,3.81,0,0,1,34,18.05a3.7,3.7,0,0,1-.77-1.25A5.69,5.69,0,0,1,33,15.16q0-.67,0-1.44t0-1.44a5.07,5.07,0,0,1,.31-1.62A3.61,3.61,0,0,1,34,9.39a3.32,3.32,0,0,1,1.26-.82A4.5,4.5,0,0,1,37,8.27a4.59,4.59,0,0,1,1.79.31A4.19,4.19,0,0,1,40,9.35a3.26,3.26,0,0,1,.7.92,2.29,2.29,0,0,1,.24.81.25.25,0,0,1-.08.22.74.74,0,0,0-.24.24h-.33a.62.62,0,0,0-.2-.22.88.88,0,0,1-.12-.24,3.32,3.32,0,0,0-.34-.68,2.23,2.23,0,0,0-.58-.61,3,3,0,0,0-.86-.44A3.78,3.78,0,0,0,37,9.19Zm6.79,3.31a2.43,2.43,0,0,1,2.23-1h.6q.36,0,.36.3V12q0,.3-.36.3h-.7a2.34,2.34,0,0,0-1.55.48,1.61,1.61,0,0,0-.58,1.3v4.57s.33.18.26.24-.14.09-.25-.21h-.24c-.22.3-.33.19-.56,0v-7.2a.71.71,0,0,0,.32-.24c.06-.07.14-.11.24-.51h.24c.11.4.19.44.25.51s-.26.24-.26.24v1ZM53.52,19a4.36,4.36,0,0,1-.94-.34V18s.39.28.24.43a2.16,2.16,0,0,1-.53.37,2.81,2.81,0,0,1-.76.28,4,4,0,0,1-1,.12,3.35,3.35,0,0,1-1-.17,3.13,3.13,0,0,1-.86-.48,2.56,2.56,0,0,1-.59-.72,1.91,1.91,0,0,1-.21-.89A2,2,0,0,1,48,16a2.36,2.36,0,0,1,.62-.72,3.12,3.12,0,0,1,.94-.51,5.54,5.54,0,0,1,1.23-.3l2.58-.34V13.6a3,3,0,0,0-.69-1.27,2.87,2.87,0,0,0-2.88-.12,1.41,1.41,0,0,0-.57.7.64.64,0,0,1-.15.26c-.06,0-.22,0-.22,0h-.21s-.17,0-.24,0a.36.36,0,0,1-.09-.24,1.3,1.3,0,0,1,.15-.53,2,2,0,0,1,.48-.62,3,3,0,0,1,.88-.51A3.1,3.1,0,0,1,51.12,11a3.83,3.83,0,0,1,1.47.24,2.48,2.48,0,0,1,.93.64,2,2,0,0,1,.45.85c.09.31.14.62.2.92v5c-.06.23-.18.34-.4,0h-.26Zm-2.68-.73a2.78,2.78,0,0,0,1-.17,2.15,2.15,0,0,0,.82-.53,2.41,2.41,0,0,0,.55-.88,3.55,3.55,0,0,0,.19-1.24V15l-1.95.27c-1.68.23-2.51.76-2.51,1.61a1.23,1.23,0,0,0,.16.65,1.52,1.52,0,0,0,.46.45,2,2,0,0,0,.62.27,3.19,3.19,0,0,0,.7.08Zm8.91.48a2.89,2.89,0,0,1-1.46-.34,3,3,0,0,1-.93-.85v4s0,.33-.26.33h-.26c-.22,0-.33-.11-.28-.33V11.48c-.05-.22.28-.74.28-.74h.21c.21,0,.31.11.31.34v.71a2.92,2.92,0,0,1,.93-.85,2.79,2.79,0,0,1,1.46-.34,2.87,2.87,0,0,1,1.4.32,2.49,2.49,0,0,1,.94.82,3.09,3.09,0,0,1,.51,1.15,6.29,6.29,0,0,1,.2,1.3c0,.15,0,.32,0,.5s0,.35,0,.5a6.48,6.48,0,0,1-.2,1.32,3.24,3.24,0,0,1-.51,1.15,2.67,2.67,0,0,1-.94.82,3,3,0,0,1-1.4.3Zm-2.32-4.24c0,.15,0,.35,0,.59s0,.44,0,.59a3.84,3.84,0,0,0,.15.93,2.47,2.47,0,0,0,.46.82,2.41,2.41,0,0,0,.76.6,2.44,2.44,0,0,0,1.09.23A2.41,2.41,0,0,0,61,18.07a2.05,2.05,0,0,0,.73-.6,2.53,2.53,0,0,0,.4-.9,5.21,5.21,0,0,0,.17-1.06c0-.28,0-.56,0-.85a5,5,0,0,0-.17-1,2.29,2.29,0,0,0-.4-.88,2,2,0,0,0-.73-.62,2.66,2.66,0,0,0-2.21,0,2.37,2.37,0,0,0-.77.63,3,3,0,0,0-.44.85,3.91,3.91,0,0,0-.15.94Zm8.7-2.41a3.41,3.41,0,0,1,1-.83A3.18,3.18,0,0,1,68.65,11a3.27,3.27,0,0,1,1.34.25,2.42,2.42,0,0,1,.94.69,2.83,2.83,0,0,1,.59,1,4.17,4.17,0,0,1,.2,1.3V18.4c0,.21-.11.32-.34.32h-.12a.3.3,0,0,1-.34-.34V14.16a2.79,2.79,0,0,0-.6-1.9,2.21,2.21,0,0,0-1.76-.69,2.36,2.36,0,0,0-1.77.68,2.62,2.62,0,0,0-.66,1.91v4.53s0,.33-.24,0h-.26c-.22.3-.33.19-.29,0V8.6c0-.22.29-.25.29-.25h.17a.29.29,0,0,1,.33.32v3.46ZM78,8.35a5,5,0,0,1,1.64.26,3.37,3.37,0,0,1,1.27.81,3.54,3.54,0,0,1,.83,1.32,5.47,5.47,0,0,1,.34,1.87c0,.46,0,.9,0,1.3s0,.83,0,1.29A4.63,4.63,0,0,1,81,18.45l1,1.38,0,.07a.22.22,0,0,1,0,.1.29.29,0,0,1-.09.22.33.33,0,0,1-.22.09h-.34a.35.35,0,0,1-.29-.14c-.09-.08-.15-.15-.21-.21L80.19,19a5,5,0,0,1-2.16.44,4.07,4.07,0,0,1-3-1A4.58,4.58,0,0,1,74,15.2q0-.69,0-1.29c0-.4,0-.84,0-1.3a6,6,0,0,1,.32-1.87,3.84,3.84,0,0,1,.84-1.32,3.5,3.5,0,0,1,1.26-.81A5.05,5.05,0,0,1,78,8.35Zm.08.8a3.53,3.53,0,0,0-1.23.2,2.48,2.48,0,0,0-1,.59,2.83,2.83,0,0,0-.67,1,4.8,4.8,0,0,0-.27,1.52c0,.22,0,.44,0,.63v1.14c0,.19,0,.4,0,.62a4.87,4.87,0,0,0,.27,1.53,2.86,2.86,0,0,0,.66,1,2.64,2.64,0,0,0,1,.6,4.17,4.17,0,0,0,2.49,0,2.56,2.56,0,0,0,1-.6,2.75,2.75,0,0,0,.67-1,4.75,4.75,0,0,0,.28-1.53c0-.22,0-.43,0-.62V13.13c0-.19,0-.4,0-.63A4.79,4.79,0,0,0,81,11a2.71,2.71,0,0,0-.67-1,2.38,2.38,0,0,0-1-.59,3.53,3.53,0,0,0-1.23-.2Zm7.16,8.77h5.39s.34.31.19.53v.23c.15.22,0,.34-.19,0H84.81c-.22.3-.34,0-.34,0V8.75s.12-.33.34-.4h.29c.22.07.33.18.17.4v9.17ZM5.39,22.38l-1-.59L15.75,2.08l1,.59Z"/><path class="cls-1" d="M3.93,20.31H27.06v.8H3.93Z"/><path class="cls-1" d="M16,27.45,4.58,20.88l.59-1,11.39,6.57Zm9.89-17.13L14.47,3.75l.59-1L26.45,9.3Z"/><path class="cls-1" d="M5.18,10.32l-.59-1L16,2.73l.59,1Z"/><path class="cls-1" d="M25.65,22.38,14.27,2.67l1-.59L26.67,21.79ZM5.53,8.35h.79V21.11H5.53Zm19.14,0h.79V21.11h-.79Z"/><path class="cls-1" d="M15.77,27l-.52-.89,9.9-5.72.52.89Z"/><path class="cls-1" d="M27.56,22a2.48,2.48,0,1,1-.91-3.39A2.48,2.48,0,0,1,27.56,22M7.77,10.61a2.48,2.48,0,1,1-.91-3.39,2.5,2.5,0,0,1,.91,3.39M3.47,22A2.48,2.48,0,1,1,6.86,23,2.49,2.49,0,0,1,3.47,22m19.8-11.43a2.48,2.48,0,1,1,3.39.91,2.48,2.48,0,0,1-3.39-.91M15.52,29A2.48,2.48,0,1,1,18,26.52,2.47,2.47,0,0,1,15.52,29m0-23a2.5,2.5,0,0,1-2.23-3.62,2.15,2.15,0,0,1,1.08-1.08,2.51,2.51,0,0,1,3.29,3.53,2.28,2.28,0,0,1-2,1.17h.24"/></svg>