<svg id="Layer_1" data-name="Layer 1" xmlns="http://www.w3.org/2000/svg" viewBox="0 0 104.77 35"><defs><style>.cls-1{fill:#e44d26;}.cls-2{fill:#f16529;}.cls-3{fill:#ebebeb;}.cls-4{fill:#fff;}</style></defs><title>html</title><path d="M0,8.78H5.85v5.85h4.88V8.78h5.85V26.34H10.73V20.48H5.85v4.88H0Zm23.42,5.85H18.53V8.78H34.14v5.85H29.26V25.36H23.41V14.63ZM36.08,8.78h5.75l3.53,5.83,3.53-5.83h5.74V25.36H49.75V17.57l-4,5.84h-.09L42,17.57v7.79H36.09Zm21.47,1h5.86V20.48h7.8v4.88H57.55Z"/><path class="cls-1" d="M73.91,0h30.86L102,31.5,89.32,35l-12.6-3.5Z"/><path class="cls-2" d="M100,29.84l2.4-26.91H89.74V32.67Z"/><path class="cls-3" d="M84.69,14.63l-.34-3.9h5.39V6.83H80l1,11.7h8.66v-3.9Zm-3.42,5.86.54,6.07,7.92,2.2h0v-4h0l-4.3-1.17-.27-3.09H81.27Z"/><path class="cls-4" d="M98.72,15.68l.09-1H89.74v3.9h4.81L94.1,23.6l-4.36,1.17v4.06l8-2.22L97.8,26Zm-9-4.95h9.41l.35-3.9H89.74v3.9Z"/></svg>