<svg id="Layer_1" data-name="Layer 1" xmlns="http://www.w3.org/2000/svg" viewBox="0 0 107.88 25"><defs><style>.cls-1{fill:#131b28;}.cls-2{fill:#0868ac;}</style></defs><title>jquery</title><path class="cls-1" d="M46.62,10.33h0L46,12.58l.63-2.25ZM50,15l-.7.5H50Zm-.18,4v-.5l-4.2.5Zm.87-3.48h0Zm-.51,2.77.74-2.78-.74,2.78ZM65.63,5.46l-1.36,6.4Zm-3.49,0-1,4.78Z"/><path class="cls-1" d="M65.41,5.07H62.47a.36.36,0,0,0-.35.28l-2,9.39a.38.38,0,0,1-.35.28h-2.1c-2,0-1.77-1.38-1.36-3.28v-.05l.24-1.3.11-.53.92-4.51a.23.23,0,0,0-.24-.28h-3a.38.38,0,0,0-.36.29l-1.35,6.41c-.75,3.39-.55,6.63,3.49,6.73h6.41a.4.4,0,0,0,.36-.28L65.64,5.36a.23.23,0,0,0-.23-.29ZM77,15.34a.24.24,0,0,1,.24.22.17.17,0,0,1,0,.07L77,17m-.28,1.38L77,17l-.28,1.38Zm-.36.11L71,19l5.36-.5Z"/><path class="cls-1" d="M69.23,13.44c0-.15.17-.41.33-.41h-.37c-.16,1.65,0,.42,0,.42Zm2,5.06h0ZM77,15.34a.24.24,0,0,1,.24.22.17.17,0,0,1,0,.07l-.33,1.61M72.6,18.5h0Zm-.71,0h0Zm-.22,0h0Zm-.21,0h0Zm.39,0h0Z"/><path class="cls-1" d="M72.59,19h0Zm3.74,0h0Zm.34-.61.24-1.15-.24,1.15Zm-5.06.11h0Zm-.44,0h0Zm.22,0h0ZM28.7,13.6l.45-2-.51,2.3-.5,2.33.44-2,.12-.58Zm5.68-8.53H31a.4.4,0,0,0-.38.3l-.65,2.87a.24.24,0,0,0,.16.3h3.54A.41.41,0,0,0,34,8.24l.63-2.87a.24.24,0,0,0-.25-.3Zm-.84,4.52-.94,4.33ZM24.26,24l2.63,0-2.63,0ZM29.73,9.59l-.45,2Z"/><path class="cls-1" d="M33.24,9.55H30.07a.36.36,0,0,0-.35.28l-.89,3.94-.13.57-.85,4c-.05.19-.1.37-.16.56,0,0-.58,1.76-1.58,1.74l-1,0a.4.4,0,0,0-.36.28l-.65,2.76a.22.22,0,0,0,.14.28h.08l2.59,0c2.49,0,3.8-1.38,4.65-5.35l1.91-8.82a.23.23,0,0,0-.23-.29Zm45.82,9a.23.23,0,0,1-.23-.29L81.25,6.91"/><path class="cls-1" d="M82.43,18.26l1-4.85Zm-3.57.1a1.38,1.38,0,0,1,0-.43L80,12.54l-1.21,5.68a.23.23,0,0,0,.24.28h.29c-.16,0-.47-.06-.49-.15Z"/><path class="cls-1" d="M82.24,18.44a1.47,1.47,0,0,1-.46.06h.3a.37.37,0,0,0,.35-.28l.06-.29a1,1,0,0,1-.25.51Zm.68-2.6.43-2.14Z"/><path class="cls-1" d="M92.48,7.67l.13.55a.22.22,0,0,1-.23.29M82.49,18l.43-2.13ZM92.34,7.1l.14.57Zm-9,6.59.12-.57L83.93,11l-.52,2.45-.06.28ZM81.29,6.56l-1.24,5.86L81.3,6.56Z"/><path class="cls-1" d="M92.69,8.23l-.14-.58-.21-.89c-.27-1.08-1.08-1.69-2.84-1.69l-4.91.49H81.87a.38.38,0,0,0-.36.29l-.11.54-.18.82L78.93,17.94a1.25,1.25,0,0,0,0,.42c0,.08.32.14.47.14h2.41a1.69,1.69,0,0,0,.45-.06c.09,0,.22-.35.25-.51l.92-4.52,1-4.58a.4.4,0,0,1,.35-.28h7.72a.24.24,0,0,0,.24-.31Zm9.75-5.15-.59.49H99.07a.56.56,0,0,0-.41.22l-4.85,7.1c-.09.13-.2.11-.23,0l-.35-1.54a.34.34,0,0,0-.33-.26H89.07a.21.21,0,0,0-.23.19.31.31,0,0,0,0,.1l1.6,5.59a1.41,1.41,0,0,1,0,.58l-.7,2.71a.21.21,0,0,0,.22.28h3.4a.4.4,0,0,0,.37-.28l.68-2.66a1.92,1.92,0,0,1,.25-.52l8.84-11.73c.1-.13,0-.24-.12-.23h-1Zm-27.6,7.16a.35.35,0,0,1-.35.3H70.08a.18.18,0,0,1-.2-.23h0l0-.08a2.76,2.76,0,0,1,2.89-1.85c1.81,0,2.17.88,2,1.88ZM73.52,5C68,5,66.63,8.36,65.89,11.77S65.22,18.5,71,18.5h.91l.71.5,3.71,0a.39.39,0,0,0,.36-.3l.59-2.86a.24.24,0,0,0-.17-.29H71.75L69.26,13h8.33a.36.36,0,0,0,.31-.21s0-.05,0-.08C79.15,8.1,78.79,5,73.52,5Zm-26.7,5-.08.28-.64,2.25-.62,2.26a.43.43,0,0,1-.38.28H41.74c-2.55,0-3.17-2-2.55-4.93S41,5.21,43.54,5C47,4.76,47.65,7.17,46.82,10Zm2.48,4.78a38.89,38.89,0,0,0,2-6.24c.5-3.06-1-7.49-6.94-7.49S35.93,5.23,35,9.84s.31,8.7,6.15,8.66l8.92,0a.41.41,0,0,0,.38-.29l.75-2.87a.22.22,0,0,0-.22-.29H49.49c-.14,0-.23-.09-.21-.21a.19.19,0,0,1,0-.07Z"/><path class="cls-1" d="M77.44,12.37a.2.2,0,0,1-.19.19.2.2,0,1,1,.19-.19Z"/><path class="cls-2" d="M5.45,7.36A7.52,7.52,0,0,0,5.27,15l.15.28,0,.06.06.11.11.2.07.11.19.3.19.27,0,.06.18.23.06.08.17.21.06.07c.07.09.15.17.23.26h0l.23.25.08.07.18.18.08.07.25.23,0,.05.23.19.09.08.2.15.1.08.21.15.08.05,0,0,.21.13.09.06.33.2.09.06.24.13.14.07.17.09,0,0,.07,0,.28.13.06,0,.32.14.08,0,.31.11h0l.34.12.08,0a2.3,2.3,0,0,0,.35.1c7.64,1.39,9.86-4.59,9.86-4.59-1.87,2.43-5.18,3.07-8.31,2.36l-.35-.1-.08,0-.34-.11H12.6l-.29-.11-.09,0-.32-.13-.06,0-.27-.12-.08,0-.21-.11-.14-.07L10.89,17,10.8,17l-.32-.2-.09-.06-.23-.15-.08-.05-.22-.16-.29-.22-.09-.07-.25-.21,0,0L9,15.6l-.08-.07-.18-.18-.08-.08L8.39,15h0c-.07-.09-.15-.17-.23-.26l-.06-.08-.17-.2-.06-.08-.19-.26a8,8,0,0,1-1-8.33m3.67-.35A5.49,5.49,0,0,0,10.17,11a6.59,6.59,0,0,0,.51.85,4.54,4.54,0,0,0,.58.73l.26.27.07.06.26.25h0l.31.26.07,0,.32.23h0l.14.09.07.05L13,14l0,0,.21.12.08,0,.14.08h0l.3.14.07,0,.25.1.11,0,.23.08.1,0c.11,0,.22.08.33.1,5.9,1,7.26-3.57,7.26-3.57a5.61,5.61,0,0,1-6.14,2l-.34-.1-.1,0L15.35,13l-.1,0L15,12.86l-.07,0-.31-.14-.15-.08-.09,0-.2-.11,0,0-.24-.15-.07,0-.15-.1-.32-.23-.07-.06a7.08,7.08,0,0,1-2.41-3.43,5.31,5.31,0,0,1,.42-4.27M14.47,4a3.45,3.45,0,0,0-.27,3.32,4.68,4.68,0,0,0,2.68,2.5l.15.05.06,0,.21.06a3.65,3.65,0,0,0,4.38-2C20.91,9.08,19.61,9.35,18,9a2.4,2.4,0,0,1-.38-.12l-.46-.19a5,5,0,0,1-.8-.49C14.94,7.08,14.05,5,15,3.33"/></svg>