<svg id="Layer_1" data-name="Layer 1" xmlns="http://www.w3.org/2000/svg" viewBox="0 0 50 50"><defs><style>.cls-1{fill:#f7df1e;}</style></defs><title>js</title><path class="cls-1" d="M2.5,2.5h45v45H2.5Z"/><path d="M14.34,40.11,17.78,38c.67,1.17,1.27,2.17,2.72,2.17s2.27-.54,2.27-2.66V23.16H27V37.6C27,42,24.43,44,20.68,44a6.56,6.56,0,0,1-6.34-3.87m15-.46,3.44-2a4.6,4.6,0,0,0,4.17,2.57c1.75,0,2.87-.88,2.87-2.09,0-1.45-1.15-2-3.08-2.81l-1.06-.45c-3.05-1.3-5.08-2.93-5.08-6.38,0-3.17,2.42-5.58,6.2-5.58a6.24,6.24,0,0,1,6,3.38l-3.29,2.11a2.9,2.9,0,0,0-2.72-1.81,1.85,1.85,0,0,0-2,1.81c0,1.27.79,1.79,2.6,2.57l1.06.46C42,33,44,34.55,44,38.08,44,41.89,41,44,37,44s-6.47-1.87-7.7-4.32"/></svg>