<svg id="Layer_1" data-name="Layer 1" xmlns="http://www.w3.org/2000/svg" xmlns:xlink="http://www.w3.org/1999/xlink" viewBox="0 0 230 190"><defs><style>.cls-1{fill:#265aa6;}.cls-2{fill:#449dd7;}.cls-3{fill:#fff;}.cls-4{fill:url(#linear-gradient);}.cls-5{fill:url(#linear-gradient-2);}.cls-6{fill:url(#linear-gradient-3);}.cls-7,.cls-9{opacity:0.05;}.cls-8{fill:url(#linear-gradient-4);}.cls-9{isolation:isolate;}.cls-10{fill:url(#linear-gradient-5);}.cls-11{fill:#ff7751;}.cls-12{fill:#639;}.cls-13{fill:#e10098;}.cls-14{fill:#e44d26;}.cls-15{fill:#f16529;}.cls-16{fill:#ebebeb;}.cls-17{fill:#f7df1e;}.cls-18{fill:#00d8ff;}.cls-19{fill:none;stroke:#00d8ff;stroke-width:0.35px;}.cls-20{fill:#cf649a;}.cls-21{fill:#f6e767;}.cls-22{fill:#4353ff;}.cls-23{fill:#00749a;}</style><linearGradient id="linear-gradient" x1="677.34" y1="-453.46" x2="677.34" y2="-449.46" gradientTransform="matrix(1, 0, 0, -1, -668.44, -360.97)" gradientUnits="userSpaceOnUse"><stop offset="0.39" stop-color="#dadada" stop-opacity="0"/><stop offset="1" stop-color="#dadada"/></linearGradient><linearGradient id="linear-gradient-2" x1="682.34" y1="-451.46" x2="682.34" y2="-447.3" xlink:href="#linear-gradient"/><linearGradient id="linear-gradient-3" x1="674.93" y1="-455.25" x2="684.55" y2="-455.25" gradientTransform="matrix(1, 0, 0, -1, -668.44, -360.97)" gradientUnits="userSpaceOnUse"><stop offset="0" stop-color="#eeeded"/><stop offset="1" stop-color="#fff"/></linearGradient><linearGradient id="linear-gradient-4" x1="674.49" y1="-448.32" x2="684.93" y2="-448.32" xlink:href="#linear-gradient-3"/><linearGradient id="linear-gradient-5" x1="57.89" y1="30.23" x2="58.73" y2="30.23" gradientTransform="matrix(9.57, 0, 0, -9.57, -456.23, 296.6)" gradientUnits="userSpaceOnUse"><stop offset="0" stop-color="#ff593d"/><stop offset="1" stop-color="#ff7751"/></linearGradient></defs><title>Logo&amp;apos;s-tablet</title><polygon class="cls-1" points="18.07 99.78 11.31 101.61 4.56 99.78 3 82.9 19.63 82.9 18.07 99.78"/><polygon class="cls-2" points="11.31 84.27 11.31 100.15 11.33 100.16 16.8 98.68 18.06 84.27 11.31 84.27"/><polygon points="7.48 80.42 7.48 79.41 8.95 79.41 8.95 78.31 6.38 78.31 6.38 81.42 8.95 81.42 8.95 80.42 7.48 80.42"/><path d="M11.59,79.41h1v-1.1H10v1.1l1,1H10v1h2.57v-1Z"/><path d="M15.23,79.41h1v-1.1H13.68v1.1l1,1h-1v1h2.57v-1Z"/><polygon class="cls-3" points="11.31 88.49 6.47 90.5 6.64 92.5 11.31 90.5 16.28 88.37 16.48 86.33 11.31 88.49"/><polygon class="cls-4" points="6.47 90.5 6.64 92.5 11.31 90.5 11.31 88.49 6.47 90.5"/><polygon class="cls-5" points="16.48 86.33 11.31 88.49 11.31 90.5 16.28 88.37 16.48 86.33"/><polygon class="cls-6" points="6.48 90.5 6.64 92.5 13.81 92.52 13.65 95.18 11.29 95.84 9.03 95.27 8.89 93.62 6.78 93.62 7.05 96.81 11.32 98.06 15.56 96.82 16.1 90.5 6.48 90.5"/><g class="cls-7"><polygon points="11.31 90.5 6.47 90.5 6.64 92.5 11.31 92.51 11.31 90.5"/><polygon points="11.31 95.83 11.29 95.84 9.02 95.27 8.88 93.62 6.77 93.62 7.05 96.81 11.31 98.06 11.31 95.83"/></g><polygon class="cls-8" points="6.04 86.33 16.48 86.33 16.28 88.37 6.29 88.37 6.04 86.33"/><polygon class="cls-9" points="11.31 86.33 6.04 86.33 6.29 88.37 11.31 88.37 11.31 86.33"/><path class="cls-10" d="M101.73,3.35h-4v8.1h4a4.18,4.18,0,0,0,4-4A4.18,4.18,0,0,0,101.73,3.35Zm0,5.89a1.84,1.84,0,1,1,1.84-1.84,1.84,1.84,0,0,1-1.84,1.84Z"/><path class="cls-11" d="M109.88,3.35a1.66,1.66,0,0,1,1.83,1.75V6a1.65,1.65,0,0,1-1.83,1.74H108V3.35Zm.76,1.74c0-.56-.3-.85-1-.85H109V6.86h.65c.65,0,1-.3,1-.85Zm4.42,1.84h-1.59l-.25.81h-1.07l1.56-4.39h1.11l1.57,4.39h-1.08Zm-1.33-.87h1.06l-.52-1.73Zm6.07-2.71v.91h-1.19V7.74h-1.08V4.26h-1.18V3.35Zm2.61,4.48a1.86,1.86,0,0,1-2-2V5.27a2,2,0,0,1,4,0v.56a1.86,1.86,0,0,1-2,2Zm0-3.67c-.63,0-.94.42-.94,1v.68c0,.62.31,1,.94,1s.93-.42.93-1V5.21c0-.63-.31-1-.93-1ZM108.93,11a.5.5,0,0,0,.53-.45v0h.61a1.05,1.05,0,0,1-1.14,1,1.12,1.12,0,0,1-1.22-1.22V9.93a1.12,1.12,0,0,1,1.22-1.22,1.06,1.06,0,0,1,1.14,1h-.61a.49.49,0,0,0-.49-.49h0c-.4,0-.56.26-.56.64v.41C108.37,10.69,108.53,11,108.93,11Zm3.78-2.19h.61v2.68h-.63V10l-.42.82h-.53l-.41-.82v1.42h-.63V8.77h.6l.71,1.46ZM115,11.5c-.64,0-1.08-.31-1.08-.85v-.07h.64v.05c0,.23.14.37.44.37s.46-.11.46-.32a.23.23,0,0,0-.19-.24l-.67-.16c-.42-.11-.63-.29-.63-.73s.38-.84,1-.84,1,.33,1,.82v.06h-.61v0c0-.18-.1-.33-.37-.33s-.38.08-.38.27a.21.21,0,0,0,.17.22l.71.19a.69.69,0,0,1,.61.72c0,.54-.48.88-1.1.88Z"/><path d="M44.25,26.07h.69v2.48h-.69v-.32a.85.85,0,0,1-.77.4,1.26,1.26,0,0,1-1.27-1.32A1.23,1.23,0,0,1,43.43,26a.85.85,0,0,1,.79.39v-.32ZM43,27.31a.66.66,0,0,0,.69.7.68.68,0,0,0,.7-.66v0a.7.7,0,0,0-1.39,0Zm3.35-.64v1.88h-.7V26.67h-.27v-.6h.27v-.84h.7v.84h.47v.6Zm2.11,0a.67.67,0,0,0-.4-.18c-.17,0-.27.08-.27.2s0,.15.22.23l.17,0c.2.07.5.14.62.34a.68.68,0,0,1,.13.42.78.78,0,0,1-.28.62,1,1,0,0,1-.74.28,1.3,1.3,0,0,1-1-.42l.37-.43a.87.87,0,0,0,.55.3c.2,0,.35-.1.35-.27a.28.28,0,0,0-.23-.25l-.14,0a1.48,1.48,0,0,1-.53-.3.63.63,0,0,1-.19-.47.84.84,0,0,1,.24-.57A1.06,1.06,0,0,1,48,26a1.22,1.22,0,0,1,.79.27Zm1.51-.28a1,1,0,0,1,.79-.39,1.32,1.32,0,0,1,0,2.63,1,1,0,0,1-.8-.4v.32h-.67V24.39h.7Zm-.08.92a.7.7,0,0,0,1.39,0v0a.66.66,0,0,0-.69-.69A.67.67,0,0,0,49.85,27.31Zm3.23.87-1.19-2.11h.82l.77,1.42.69-1.42H55l-2,3.8h-.79ZM42,26.49H40.3v.7h.92a1.08,1.08,0,0,1-1.14.79,1.33,1.33,0,0,1,0-2.65,1.36,1.36,0,0,1,1,.52l.57-.37a2,2,0,0,0-1.61-.82,2,2,0,0,0-2,2,2,2,0,1,0,4,0A.36.36,0,0,0,42,26.49Z"/><path class="cls-3" d="M35.84,26.63H33.72v.61h1.46a2.76,2.76,0,0,1-1.76,2l-3.49-3.49a2.72,2.72,0,0,1,2.58-1.82,2.78,2.78,0,0,1,2.24,1.16l.46-.4a3.34,3.34,0,0,0-5.95,1.24l4,4A3.42,3.42,0,0,0,35.84,26.63Zm-6.67,0a3.24,3.24,0,0,0,1,2.31,3.34,3.34,0,0,0,2.31,1Z"/><path class="cls-12" d="M32.51,22.38a4.25,4.25,0,1,0,4.24,4.25A4.26,4.26,0,0,0,32.51,22.38ZM30.14,29a3.29,3.29,0,0,1-1-2.31L32.48,30a3.44,3.44,0,0,1-2.34-1Zm3.09.88-4-4a3.34,3.34,0,0,1,5.95-1.24l-.46.4a2.74,2.74,0,0,0-4.82.66l3.49,3.49a2.74,2.74,0,0,0,1.76-2H33.72v-.61h2.12a3.35,3.35,0,0,1-2.61,3.25Z"/><path class="cls-13" d="M184.31,145.61a1.49,1.49,0,0,0-.49.07.91.91,0,0,0-.38.22,1.09,1.09,0,0,0-.25.39,1.61,1.61,0,0,0-.1.57,9.73,9.73,0,0,0,0,1.08,1.61,1.61,0,0,0,.1.57,1.24,1.24,0,0,0,.25.4,1,1,0,0,0,.38.22,1.83,1.83,0,0,0,.49.06,1.57,1.57,0,0,0,.49-.07,1.24,1.24,0,0,0,.39-.22,1.11,1.11,0,0,0,.26-.4,1.4,1.4,0,0,0,.1-.56v-.31H184.5a.12.12,0,0,1-.13-.13v-.09a.12.12,0,0,1,.13-.13h1.29a.12.12,0,0,1,.13.13v.53a2,2,0,0,1-.11.66,1.34,1.34,0,0,1-.32.51,1.37,1.37,0,0,1-.5.33,1.88,1.88,0,0,1-.69.12,1.79,1.79,0,0,1-.68-.12,1.45,1.45,0,0,1-.5-.33,1.35,1.35,0,0,1-.3-.49,2.21,2.21,0,0,1-.12-.65c0-.18,0-.37,0-.57s0-.39,0-.57a2.2,2.2,0,0,1,.12-.64,1.69,1.69,0,0,1,.31-.5,1.3,1.3,0,0,1,.5-.32,1.74,1.74,0,0,1,.67-.12,1.6,1.6,0,0,1,1.19.43,1.14,1.14,0,0,1,.27.36.82.82,0,0,1,.1.32.16.16,0,0,1,0,.09.15.15,0,0,1-.1,0h-.13a.11.11,0,0,1-.08,0,.39.39,0,0,1,0-.09,1.74,1.74,0,0,0-.14-.27.83.83,0,0,0-.22-.24,1.14,1.14,0,0,0-.35-.17,1.27,1.27,0,0,0-.46-.07Zm2.82,1.19a.84.84,0,0,1,.82-.41h.22c.09,0,.13,0,.13.13v.08c0,.09,0,.13-.13.13h-.26a.72.72,0,0,0-.78.78v1.86a.14.14,0,0,1-.13.13h-.1a.12.12,0,0,1-.13-.13v-2.85a.12.12,0,0,1,0-.09.14.14,0,0,1,.1-.05h.1a.11.11,0,0,1,.09.05.1.1,0,0,1,0,.09v.28Zm3.7,2.7c-.09,0-.13,0-.13-.13v-.28a1,1,0,0,1-.14.16.8.8,0,0,1-.21.15,1.25,1.25,0,0,1-.31.11,1.56,1.56,0,0,1-.4.05,1.2,1.2,0,0,1-.42-.07,1.14,1.14,0,0,1-.34-.19,1,1,0,0,1-.23-.28.69.69,0,0,1-.08-.35.75.75,0,0,1,.08-.37.92.92,0,0,1,.24-.28,1.37,1.37,0,0,1,.38-.2,1.78,1.78,0,0,1,.48-.12l.95-.13v-.21a.66.66,0,0,0-.2-.51,1.1,1.1,0,0,0-1.14,0,.5.5,0,0,0-.22.27.29.29,0,0,1-.06.1.12.12,0,0,1-.09,0h-.08a.13.13,0,0,1-.1,0,.16.16,0,0,1,0-.09.48.48,0,0,1,.06-.21.72.72,0,0,1,.19-.25,1,1,0,0,1,.34-.2,1.29,1.29,0,0,1,.51-.09,1.57,1.57,0,0,1,.58.09,1,1,0,0,1,.37.25.8.8,0,0,1,.18.34,1.18,1.18,0,0,1,.05.37v2c0,.09,0,.13-.13.13Zm-1.13-.29a1.16,1.16,0,0,0,.38-.06,1,1,0,0,0,.33-.21.93.93,0,0,0,.21-.35,1.44,1.44,0,0,0,.08-.49v-.2l-.77.1c-.67.09-1,.3-1,.64a.56.56,0,0,0,.07.26.58.58,0,0,0,.18.17.66.66,0,0,0,.24.11,1.33,1.33,0,0,0,.28,0Zm3.68.35a1.35,1.35,0,0,1-.61-.13,1.29,1.29,0,0,1-.39-.34v1.42a.12.12,0,0,1-.13.13h-.11a.12.12,0,0,1-.13-.13v-4a.12.12,0,0,1,.13-.13h.11a.12.12,0,0,1,.13.13v.28a1.17,1.17,0,0,1,.39-.34,1.23,1.23,0,0,1,.61-.13,1.32,1.32,0,0,1,.59.12,1,1,0,0,1,.39.33,1.18,1.18,0,0,1,.22.45,1.82,1.82,0,0,1,.08.52,1.21,1.21,0,0,1,0,.2,1.15,1.15,0,0,1,0,.19,1.82,1.82,0,0,1-.08.52,1.3,1.3,0,0,1-.22.46,1.12,1.12,0,0,1-.39.32,1.32,1.32,0,0,1-.59.12Zm-1-1.83a1.55,1.55,0,0,0,0,.23,1.48,1.48,0,0,0,0,.23,1.19,1.19,0,0,0,.06.37.92.92,0,0,0,.18.32.89.89,0,0,0,.3.24.94.94,0,0,0,.43.09,1,1,0,0,0,.44-.09.73.73,0,0,0,.28-.24,1,1,0,0,0,.17-.35,3,3,0,0,0,.06-.42,1.82,1.82,0,0,0,0-.33,2.65,2.65,0,0,0-.06-.42.91.91,0,0,0-.17-.34.68.68,0,0,0-.28-.25,1,1,0,0,0-.44-.1,1,1,0,0,0-.44.1.91.91,0,0,0-.3.25,1,1,0,0,0-.17.34,1.15,1.15,0,0,0-.06.37Zm3.47-.93a1.41,1.41,0,0,1,.39-.34,1.22,1.22,0,0,1,.62-.13,1.25,1.25,0,0,1,.53.1,1.08,1.08,0,0,1,.38.28,1.22,1.22,0,0,1,.23.42,1.91,1.91,0,0,1,.08.54v1.7a.12.12,0,0,1-.13.13h-.11a.12.12,0,0,1-.13-.13V147.7a1.09,1.09,0,0,0-.23-.75.83.83,0,0,0-.68-.28.9.9,0,0,0-.69.27,1.06,1.06,0,0,0-.26.76v1.67c0,.09,0,.13-.13.13h-.1c-.09,0-.13,0-.13-.13v-4c0-.09,0-.13.13-.13h.1c.09,0,.13,0,.13.13v1.42Zm4.67-1.55a1.81,1.81,0,0,1,.63.1,1.18,1.18,0,0,1,.49.31,1.45,1.45,0,0,1,.33.52,2.15,2.15,0,0,1,.13.72c0,.18,0,.35,0,.5s0,.33,0,.51a1.77,1.77,0,0,1-.44,1.25l.39.54v.07a.11.11,0,0,1,0,.08.11.11,0,0,1-.09,0h-.13a.14.14,0,0,1-.11-.06l-.08-.08-.26-.37a1.86,1.86,0,0,1-.84.18,1.62,1.62,0,0,1-1.16-.4,1.8,1.8,0,0,1-.42-1.25c0-.18,0-.35,0-.51s0-.32,0-.5a2.46,2.46,0,0,1,.12-.72,1.45,1.45,0,0,1,.33-.52,1.32,1.32,0,0,1,.49-.31,1.83,1.83,0,0,1,.64-.1Zm0,.36a1.22,1.22,0,0,0-.47.08.89.89,0,0,0-.38.23,1.19,1.19,0,0,0-.25.41,1.79,1.79,0,0,0-.1.6c0,.09,0,.17,0,.25v.45c0,.08,0,.16,0,.25a1.79,1.79,0,0,0,.1.6,1.29,1.29,0,0,0,.25.41,1,1,0,0,0,.38.24,1.61,1.61,0,0,0,.94,0,.91.91,0,0,0,.37-.24,1.13,1.13,0,0,0,.25-.41,1.78,1.78,0,0,0,.11-.6c0-.09,0-.17,0-.25v-.45c0-.07,0-.16,0-.25a1.78,1.78,0,0,0-.11-.6,1.13,1.13,0,0,0-.25-.41.83.83,0,0,0-.38-.23,1.17,1.17,0,0,0-.46-.08Zm2.92,3.53h2.07c.09,0,.13,0,.13.13v.09c0,.09,0,.14-.13.14H203.2a.13.13,0,0,1-.14-.14v-3.92c0-.09.05-.13.14-.13h.11c.09,0,.13,0,.13.13v3.7Zm-31.63,1.68-.4-.23,4.49-7.79.41.24Z"/><path class="cls-13" d="M171.32,150h9v.47h-9Z"/><path class="cls-13" d="M176,152.83l-4.5-2.6.24-.4,4.5,2.59Zm3.91-6.77-4.5-2.6.23-.4,4.5,2.6Z"/><path class="cls-13" d="M171.73,146.06l-.24-.41,4.51-2.59.23.4Z"/><path class="cls-13" d="M179.82,150.82l-4.5-7.78.4-.24,4.5,7.79Zm-8.15-5.48h.47v5.2h-.47Zm7.82,0H180v5.2h-.47Z"/><path class="cls-13" d="M175.91,152.63l-.2-.35,3.91-2.26.21.35Z"/><path class="cls-13" d="M180.57,150.69a1,1,0,1,1-.36-1.34,1,1,0,0,1,.36,1.34m-7.82-4.52a1,1,0,1,1-.36-1.34,1,1,0,0,1,.36,1.34m-1.7,4.52a1,1,0,0,1,.36-1.34,1,1,0,1,1-.36,1.34m7.83-4.52a1,1,0,1,1,1.34.36,1,1,0,0,1-1.34-.36m-3.07,7.27a1,1,0,1,1,1-1,1,1,0,0,1-1,1m0-9a1,1,0,1,1,1-1,1,1,0,0,1-1,1h0"/><path d="M96.64,116.41h1.42v1.4h1.29v-1.4h1.42v4.24H99.35v-1.42H98.06v1.42H96.64Zm6,1.41h-1.25v-1.41h3.92v1.41h-1.25v2.83h-1.42v-2.83Zm3.29-1.41h1.48l.91,1.49.9-1.49h1.48v4.24h-1.41v-2.1l-1,1.5h0l-1-1.5v2.1h-1.39Zm5.48,0h1.41v2.84h2v1.4H111.4Z"/><path class="cls-14" d="M115.48,114.07h7.87l-.72,8-3.22.89-3.21-.89Z"/><path class="cls-15" d="M122,121.59l.61-6.87h-3.21v7.59Z"/><path class="cls-16" d="M118.11,117.7l-.09-1h1.4v-1H117l.26,3h2.21v-1Zm-.85,1.48.13,1.55,2,.56h0v-1h0l-1.09-.3-.07-.78h-1Z"/><path class="cls-3" d="M121.68,118l0-.27h-2.29v1h1.21l-.11,1.27-1.1.3v1l2-.56,0-.17Zm-2.27-1.28h2.38l.09-1h-2.47v1Z"/><path class="cls-17" d="M21.19,139.38H47.9v26.71H21.19Z"/><path d="M28.21,161.7l2-1.23c.4.7.76,1.29,1.62,1.29s1.34-.33,1.34-1.58v-8.53h2.51v8.57c0,2.6-1.52,3.78-3.75,3.78a3.89,3.89,0,0,1-3.76-2.3m8.87-.27,2.05-1.18a2.74,2.74,0,0,0,2.47,1.53c1,0,1.71-.52,1.71-1.24s-.69-1.17-1.83-1.67l-.63-.27c-1.81-.77-3-1.74-3-3.78a3.35,3.35,0,0,1,3.67-3.32,3.71,3.71,0,0,1,3.57,2l-1.95,1.26a1.71,1.71,0,0,0-1.62-1.08,1.1,1.1,0,0,0-1.2,1.08c0,.75.47,1,1.54,1.52l.63.27c2.13.91,3.34,1.85,3.34,3.94,0,2.26-1.78,3.5-4.16,3.5a4.83,4.83,0,0,1-4.58-2.57"/><circle class="cls-18" cx="57.12" cy="69.39" r="1.18"/><path class="cls-19" d="M57.12,67a13.37,13.37,0,0,1,4.18.61c1.34.46,2.17,1.16,2.17,1.8s-.88,1.4-2.32,1.88a13.35,13.35,0,0,1-4,.55A13.2,13.2,0,0,1,53,71.26c-1.39-.47-2.23-1.23-2.23-1.87s.79-1.33,2.11-1.79A13.41,13.41,0,0,1,57.12,67Z"/><path class="cls-19" d="M55,68.19a13.49,13.49,0,0,1,2.62-3.32c1.07-.93,2.09-1.29,2.64-1s.78,1.46.47,3a15.4,15.4,0,0,1-4.07,7.06c-1.11,1-2.18,1.32-2.74,1s-.76-1.34-.5-2.72a13.47,13.47,0,0,1,1.58-4Z"/><path class="cls-19" d="M55,70.61a13.3,13.3,0,0,1-1.56-3.93c-.28-1.39-.08-2.45.47-2.77S55.58,64,56.72,65a15.56,15.56,0,0,1,4.08,7c.28,1.45.05,2.55-.51,2.88s-1.54,0-2.6-.93A13.66,13.66,0,0,1,55,70.61Z"/><path class="cls-18" d="M70.27,72.41l-1.46-2.19a1.49,1.49,0,0,0,1.4-1.57A1.57,1.57,0,0,0,68.52,67H66.36v5.38H67V70.27h1.08l1.37,2.14Zm-1.83-2.72H67V67.63h1.41a1,1,0,1,1,0,2.06Zm4.32,2.82a2.11,2.11,0,0,0,1.55-.6L74,71.52a1.73,1.73,0,0,1-1.21.49,1.37,1.37,0,0,1-1.4-1.35h3.15v-.15a1.89,1.89,0,0,0-1.87-2.09,2,2,0,0,0,.07,4.09ZM74,70.22H71.41a1.3,1.3,0,0,1,1.28-1.3A1.27,1.27,0,0,1,74,70.22Zm4.61,2.19V69.73c0-.94-.68-1.31-1.51-1.31a2,2,0,0,0-1.55.65l.28.41A1.54,1.54,0,0,1,77,68.94c.57,0,1,.3,1,.83v.7a1.65,1.65,0,0,0-1.29-.53,1.28,1.28,0,0,0-1.37,1.28,1.3,1.3,0,0,0,1.37,1.29A1.72,1.72,0,0,0,78,72v.44Zm-1.68-.34a.87.87,0,0,1-1-.84.88.88,0,0,1,1-.86,1.31,1.31,0,0,1,1.08.49v.73a1.33,1.33,0,0,1-1.08.48Zm4.6.44a1.67,1.67,0,0,0,1.43-.68l-.4-.37a1.17,1.17,0,0,1-1,.51,1.51,1.51,0,0,1,0-3,1.15,1.15,0,0,1,1,.51l.4-.37a1.67,1.67,0,0,0-1.43-.68,2,2,0,0,0,0,4.09Zm3.26,0a1,1,0,0,0,.73-.25l-.18-.45a.57.57,0,0,1-.41.16c-.27,0-.4-.21-.4-.5V69.05h.8v-.53h-.8V67.45h-.6v1.07h-.65v.53h.65V71.6a.8.8,0,0,0,.86.91Z"/><path class="cls-20" d="M118.75,178.21a5.64,5.64,0,0,0-2.42.56,4.73,4.73,0,0,1-.54-1.25,3.56,3.56,0,0,1-.05-1.05,8.7,8.7,0,0,1,.32-1.14c0-.05,0-.27-.59-.28s-1,.1-1.06.25a7.27,7.27,0,0,0-.22.8,19.17,19.17,0,0,1-1.63,3.14,3,3,0,0,1-.37-.92,3.28,3.28,0,0,1,0-1,8.7,8.7,0,0,1,.32-1.14s-.06-.28-.6-.28-1,.1-1,.24-.11.48-.23.8-1.41,3.23-1.75,4c-.17.39-.32.7-.43.91s0,0,0,0l-.14.28h0c-.08.13-.16.26-.19.26a1.66,1.66,0,0,1,0-.83c.19-1,.66-2.58.66-2.63s.08-.31-.31-.45a.46.46,0,0,0-.54.1s-.06.08-.06.08.42-1.77-.81-1.77a3.64,3.64,0,0,0-2.36,1.61L102,179.91l-.06-.06c-1.49-1.59-4.25-2.72-4.14-4.86,0-.77.32-2.82,5.3-5.31,4.09-2,7.36-1.47,7.93-.23.81,1.77-1.75,5.07-6,5.54a3.2,3.2,0,0,1-2.68-.67c-.22-.25-.25-.26-.34-.21s0,.29,0,.42a2.57,2.57,0,0,0,1.54,1.21,8.17,8.17,0,0,0,5-.5c2.57-1,4.58-3.76,4-6.08s-4.5-3.12-8.19-1.81A18.51,18.51,0,0,0,98,171c-2,1.9-2.36,3.56-2.22,4.25.47,2.46,3.86,4.06,5.21,5.24l-.18.11c-.68.33-3.26,1.68-3.91,3.11-.73,1.62.11,2.78.68,2.94a4.17,4.17,0,0,0,4.49-1.82,4.52,4.52,0,0,0,.4-4.15l0,0,.54-.31,1-.56a6.4,6.4,0,0,0-.35,1.78,3.65,3.65,0,0,0,.8,2.58.88.88,0,0,0,.64.2c.57,0,.83-.47,1.12-1s.67-1.5.67-1.5-.39,2.18.68,2.18c.39,0,.78-.51,1-.77h0l0,0,.06-.1h0c.16-.28.51-.89,1-1.93.67-1.32,1.32-3,1.32-3a9.39,9.39,0,0,0,.25,1.08,13.15,13.15,0,0,0,.56,1.25l-.25.34h0l-.42.52a15.11,15.11,0,0,0-1.25,1.57c-.1.25-.08.43.12.57a1,1,0,0,0,.65.11,2.66,2.66,0,0,0,1-.23,3,3,0,0,0,.85-.44,1.88,1.88,0,0,0,.81-1.66,3.56,3.56,0,0,0-.31-1.18l.14-.21a20.58,20.58,0,0,0,1.46-2.53,8.51,8.51,0,0,0,.26,1.08,8.13,8.13,0,0,0,.47,1.07,4.73,4.73,0,0,0-1.42,1.84c-.31.89-.07,1.29.38,1.39a1.45,1.45,0,0,0,.72-.14,3.12,3.12,0,0,0,.9-.47,2.06,2.06,0,0,0,1-1.65,3.27,3.27,0,0,0-.23-1,5.11,5.11,0,0,1,2.59-.3c2.32.27,2.78,1.72,2.69,2.33a1.56,1.56,0,0,1-.73,1c-.16.1-.22.13-.2.21s.09.1.23.08a1.8,1.8,0,0,0,1.27-1.61c.06-1.44-1.3-3-3.72-3Zm-17.9,6c-.77.84-1.85,1.16-2.31.88s-.3-1.52.64-2.41a13,13,0,0,1,1.81-1.35l.48-.29,0,0,.12-.07a3.32,3.32,0,0,1-.79,3.27Zm5.61-3.82c-.27.66-.83,2.33-1.17,2.24s-.47-1.35-.06-2.6a5.64,5.64,0,0,1,.92-1.68c.42-.47.88-.62,1-.43a8.46,8.46,0,0,1-.68,2.47Zm4.62,2.22c-.11,0-.21.1-.26.06s.05-.1.05-.1.57-.62.8-.9l.46-.58v.06c0,.75-.72,1.25-1,1.46Zm3.57-.82c-.08-.06-.07-.26.21-.86a3.25,3.25,0,0,1,.79-1,1,1,0,0,1,.08.44,1.47,1.47,0,0,1-1.08,1.44Z"/><path class="cls-21" d="M154.93,56.46l-10.11-5.89a3.89,3.89,0,0,0-3.27,0l-10.11,5.89a3.81,3.81,0,0,0-1.55,2.84V71a3.35,3.35,0,0,0,1.6,2.73l10.12,5.89a3.87,3.87,0,0,0,3.26,0L155,73.69a3.35,3.35,0,0,0,1.6-2.73V59.3A3.94,3.94,0,0,0,154.93,56.46Zm-2.73,6.37h-1V61c0-1.34-1-1.82-3.05-1.82H148c-4.87,0-4.44-1.82-4.55-2.52h-.11c-.1.7.32,2.52-4.55,2.52h-.1c-2,0-3.05.43-3.05,1.82v1.44l16.53,4.77v2c0,1.93-.91,3-4.17,3h-.21c-2.41,0-4.07.48-4.07,2.52h-1c0-1.93-1.5-2.52-4.07-2.52-3.15,0-4.17-1.12-4.17-3V67.54h1v1.82c0,1.34,1,1.82,3.05,1.82h.1c4.87,0,4.45,1.82,4.55,2.51h.11c.11-.69-.32-2.51,4.55-2.51h.21c2,0,3-.43,3-1.82v-1l-16.59-4.87V61.12c0-1.93.91-3.06,4.18-3.06h.21c2.52,0,4.07-.48,4.07-2.51h1c0,1.93,1.49,2.51,4.06,2.51h.11c3.16,0,4.17,1.13,4.17,3.06Z"/><path class="cls-22" d="M191.66,32c0-.73-.7-1.49-1.91-1.49a3.17,3.17,0,0,0-3.08,3c-.23,2,1,2.91,2.28,2.91a3.32,3.32,0,0,0,2.59-1.15,1.15,1.15,0,0,0-1.47-.32,1.53,1.53,0,0,1-.78.19c-.48,0-1-.22-1-1.13,3.11-.31,3.35-1.29,3.35-2Zm-1.54.12c0,.22-.11.61-1.69.82.33-1.19,1-1.27,1.26-1.27a.41.41,0,0,1,.43.39v.06Zm-5.27.19-.73,2.29-.51-4a2.22,2.22,0,0,0-2.07,1.68l-.88,2.29-.13-2.27a1.87,1.87,0,0,0-1.81-1.7l.94,5.74a2.31,2.31,0,0,0,2.18-1.67l.75-2c0,.07.51,3.62.51,3.62a2.29,2.29,0,0,0,2.19-1.59L187,30.61a2.26,2.26,0,0,0-2.13,1.67Zm11.21-1.81a2.27,2.27,0,0,0-1.78,1h0l.43-3.45a2.13,2.13,0,0,0-1.93,2.13L192,36.3a1.88,1.88,0,0,0,1.48-.58,1.66,1.66,0,0,0,1.36.67c1.66,0,2.79-1.93,2.79-3.74,0-1.66-.8-2.18-1.6-2.18Zm-.15,3c-.17,1-.74,1.69-1.28,1.69a1.12,1.12,0,0,1-.77-.24,7.43,7.43,0,0,1,.36-1.9c.2-.46.67-1.21,1.16-1.21s.7.64.53,1.66Zm5.89-2.83h-1.15v-.06c.08-.76.26-1.15.85-1.22a.61.61,0,0,0,.62-.48l.15-.8c-2.32,0-3.05,1-3.24,2.53v0h0a1.06,1.06,0,0,0-.86,1l0,.2h.78l-.65,5.38-.2,1h.08c1.08,0,1.78-.91,1.93-2.16l.51-4.2h.36a1,1,0,0,0,.85-1Zm6-.1a3.19,3.19,0,0,0-3,2.53c-.38,1.55.2,3.38,2.16,3.38a3.34,3.34,0,0,0,3.09-3.49,2.23,2.23,0,0,0-2.27-2.42Zm.54,2.88c-.07.7-.38,1.76-1.22,1.76s-.73-1.24-.65-1.83.45-1.53,1.2-1.53.75.81.67,1.6Zm8.32-1.1-.73,2.28c0-.18-.51-4-.51-4a2.21,2.21,0,0,0-2.07,1.67l-.88,2.3c0-.17-.12-2.27-.12-2.27a1.87,1.87,0,0,0-1.82-1.7l.94,5.74a2.32,2.32,0,0,0,2.17-1.68l.75-1.95c0,.08.51,3.63.51,3.63a2.29,2.29,0,0,0,2.19-1.59l1.69-4.15a2.24,2.24,0,0,0-2.13,1.68ZM202.89,28l-1,7.87-.2,1h.08a2.13,2.13,0,0,0,1.93-2.09l.56-4.51c.17-1.38-.65-2.24-1.4-2.24Z"/><path class="cls-23" d="M202.18,92.51a11.41,11.41,0,0,0,6.42,10.31l-5.41-14.95A11.58,11.58,0,0,0,202.18,92.51Zm19.2-.58a6,6,0,0,0-1-3.15,5.4,5.4,0,0,1-1.12-2.7,2,2,0,0,1,1.94-2h.15a11.35,11.35,0,0,0-7.75-3,11.68,11.68,0,0,0-9.58,5.18h.73c1.21,0,3.05-.15,3.05-.15a.49.49,0,0,1,.09,1,9.23,9.23,0,0,1-1.3.1l4.16,12.39,2.52-7.5-1.79-4.89L210.3,87c-.62,0-.53-1,0-1,0,0,1.89.14,3,.14s3.05-.14,3.05-.14a.48.48,0,0,1,.1,1,9.46,9.46,0,0,1-1.31.1l4.16,12.34,1.17-3.82a14.38,14.38,0,0,0,.87-3.73Zm-7.54,1.6-3.44,10a12,12,0,0,0,3.24.49,12.65,12.65,0,0,0,3.83-.63c-.05,0-.05-.1-.1-.15ZM223.71,87l.09,1.17a10.35,10.35,0,0,1-.87,4.11l-3.48,10.12a11.49,11.49,0,0,0,5.71-9.92,12.3,12.3,0,0,0-1.45-5.47Zm-10.07-7.88A13.35,13.35,0,1,0,227,92.51,13.38,13.38,0,0,0,213.64,79.16Zm0,26.12a12.75,12.75,0,1,1,12.73-12.77A12.75,12.75,0,0,1,213.64,105.28Z"/></svg>