<svg id="Layer_1" data-name="Layer 1" xmlns="http://www.w3.org/2000/svg" viewBox="0 0 102.37 33.96"><defs><style>.cls-1{fill:#00d8ff;}.cls-2{fill:none;stroke:#00d8ff;stroke-width:0.94px;}</style></defs><title>react</title><circle class="cls-1" cx="21.05" cy="16.95" r="3.27"/><path class="cls-2" d="M21.05,10.31A36.91,36.91,0,0,1,32.59,12c3.71,1.28,6,3.21,6,5s-2.41,3.88-6.39,5.2a37,37,0,0,1-11.13,1.51A36.63,36.63,0,0,1,9.7,22.13C5.85,20.82,3.53,18.74,3.53,17S5.71,13.3,9.36,12a37.17,37.17,0,0,1,11.69-1.71Z"/><path class="cls-2" d="M15.27,13.65A36.64,36.64,0,0,1,22.5,4.49c2.95-2.57,5.76-3.57,7.28-2.7s2.15,4,1.31,8.13a37,37,0,0,1-4.25,10.4,36.48,36.48,0,0,1-7,9.07c-3.06,2.68-6,3.65-7.57,2.75s-2.07-3.7-1.35-7.5a37.11,37.11,0,0,1,4.35-11Z"/><path class="cls-2" d="M15.27,20.33A37.09,37.09,0,0,1,11,9.5c-.75-3.85-.22-6.79,1.3-7.66S16.81,2,20,4.77a36.68,36.68,0,0,1,6.88,8.87A36.53,36.53,0,0,1,31.2,24.23c.79,4,.15,7-1.4,7.93s-4.25,0-7.18-2.57a37.22,37.22,0,0,1-7.35-9.26Z"/><path class="cls-1" d="M57.19,25l-4.07-6.13A4.16,4.16,0,0,0,57,14.48,4.39,4.39,0,0,0,52.31,10h-6V25h1.88V19.35h3L55,25Zm-5.28-7.53H48.15V11.83h3.76a2.7,2.7,0,0,1,2.86,2.81,2.72,2.72,0,0,1-2.86,2.83Zm11.94,7.91a5.8,5.8,0,0,0,4.27-1.64l-.8-1.09A4.68,4.68,0,0,1,64,24a3.79,3.79,0,0,1-3.87-3.72h8.7v-.42c0-3.23-1.92-5.77-5.17-5.77a5.37,5.37,0,0,0-5.29,5.63,5.33,5.33,0,0,0,5.47,5.65Zm3.7-6h-7A3.58,3.58,0,0,1,64,15.77,3.48,3.48,0,0,1,67.55,19.35ZM80.12,25V17.91c.16-2.6-1.73-3.62-4-3.62a5.64,5.64,0,0,0-4.3,1.78l.78,1.15a4.3,4.3,0,0,1,3.3-1.49c1.55,0,2.71.83,2.34,2.27v1.94c-.5-1-1.72-1.47-3.19-1.47A3.52,3.52,0,0,0,71.29,22a3.58,3.58,0,0,0,3.76,3.56,3.44,3.44,0,0,0,3.19-1.49V25Zm-4.84-.62a2.37,2.37,0,1,1,0-4.7,3.61,3.61,0,0,1,3,1.34v2a3.61,3.61,0,0,1-3,1.34Zm13.3,1.2a4.59,4.59,0,0,0,3.94-1.87l-1.11-1a3.24,3.24,0,0,1-2.73,1.4c-2.29,0-3.71-1.78-3.71-4.16s1.42-4.14,3.71-4.14a3.15,3.15,0,0,1,2.73,1.4l1.11-1a4.59,4.59,0,0,0-3.94-1.87,5.31,5.31,0,0,0-5.36,5.63,5.31,5.31,0,0,0,5.36,5.64Zm9.41,0a2.45,2.45,0,0,0,1.35-.69l-.49-1.25a1.57,1.57,0,0,1-1.13.45c-.74,0-.67-1.38-.67-1.38V16.53h1.88V14.65H97.05V11.83H95.17v2.82H93.29v1.88h1.88v6.53C95,24.66,98,25.57,98,25.57Z"/></svg>