<svg id="Layer_1" data-name="Layer 1" xmlns="http://www.w3.org/2000/svg" viewBox="0 0 66.86 50"><defs><style>.cls-1{fill:#cf649a;}</style></defs><title>sass</title><path class="cls-1" d="M57.52,28.69a13.92,13.92,0,0,0-6.09,1.42A12.72,12.72,0,0,1,50.06,27,8.79,8.79,0,0,1,50,24.31a20.48,20.48,0,0,1,.8-2.86c0-.12-.15-.69-1.5-.71s-2.52.26-2.65.63a15.23,15.23,0,0,0-.57,2c-.23,1.24-2.7,5.61-4.1,7.9A8,8,0,0,1,41,29a8.46,8.46,0,0,1-.12-2.65,20.48,20.48,0,0,1,.8-2.86c0-.11-.14-.69-1.5-.71s-2.52.27-2.65.63-.27,1.19-.56,2-3.56,8.11-4.41,10c-.43,1-.8,1.74-1.09,2.27s0,0,0,.09l-.37.7v0s-.28.64-.37.64a4.23,4.23,0,0,1,0-2.07c.48-2.52,1.66-6.44,1.64-6.58s.23-.76-.75-1.11a1.2,1.2,0,0,0-1.37.23c-.07,0-.14.21-.14.21s1.06-4.41-2-4.41c-1.93,0-4.59,2.09-5.9,4L15.52,33l-.14-.15C11.65,28.83,4.76,26,5.05,20.68c.1-1.94.78-7.06,13.24-13.27,10.2-5.08,18.37-3.68,19.79-.58,2,4.43-4.37,12.66-15,13.85-4,.45-6.16-1.11-6.7-1.7s-.64-.63-.85-.52-.13.73,0,1.06a6.33,6.33,0,0,0,3.84,3c1.94.64,6.68,1,12.41-1.23,6.42-2.51,11.44-9.41,10-15.18S30.53-1.69,21.32,1.58c-5.49,2-11.43,5-15.7,9C.54,15.33-.27,19.47.07,21.19c1.18,6.14,9.64,10.14,13,13.1l-.47.26c-1.7.83-8.15,4.21-9.76,7.78-1.83,4,.28,6.94,1.69,7.33,4.35,1.21,8.81-1,11.22-4.55s2.11-8.23,1-10.35l0-.08,1.33-.78c.81-.48,1.63-.94,2.45-1.38A15.82,15.82,0,0,0,19.65,37c-.19,2.29.75,5.26,2,6.43a2.2,2.2,0,0,0,1.6.52c1.44,0,2.09-1.18,2.8-2.6.89-1.74,1.67-3.74,1.67-3.74s-1,5.43,1.7,5.43c1,0,1.65-1.91,1.65-1.91h0s.77,0,.82-.13a.32.32,0,0,0,.07-.25v0c.39-.68,1.27-2.24,2.59-4.83,1.69-3.33,3.32-7.5,3.32-7.5a22.35,22.35,0,0,0,.64,2.7,27.28,27.28,0,0,0,1.4,3.15l-.63.86,0,0c-.32.42-.67.86-1,1.31a37.32,37.32,0,0,0-3.15,3.95c-.25.63-.2,1.08.29,1.44a2.57,2.57,0,0,0,1.65.27,7.15,7.15,0,0,0,2.47-.57,8.41,8.41,0,0,0,2.12-1.11,4.72,4.72,0,0,0,2-4.19,8.53,8.53,0,0,0-.77-3l.35-.53a55.59,55.59,0,0,0,3.67-6.36,24,24,0,0,0,.65,2.7,18.37,18.37,0,0,0,1.19,2.71,11.6,11.6,0,0,0-3.58,4.63c-.78,2.23-.17,3.24,1,3.48a3.5,3.5,0,0,0,1.8-.36,8.63,8.63,0,0,0,2.27-1.17c1.31-1,2.57-2.32,2.5-4.15a8,8,0,0,0-.56-2.45,12.78,12.78,0,0,1,6.51-.75c5.84.68,7,4.33,6.77,5.85a4,4,0,0,1-1.85,2.63c-.41.25-.54.34-.5.52s.23.26.59.21a4.53,4.53,0,0,0,3.17-4c.16-3.61-3.26-7.55-9.34-7.51ZM12.71,43.79C10.79,45.89,8.09,46.68,7,46s-.76-3.8,1.6-6a29.73,29.73,0,0,1,4.52-3.37l1.19-.72.13-.08.3-.18a8.32,8.32,0,0,1-2,8.17Zm14-9.53c-.66,1.63-2.07,5.81-2.91,5.58s-1.18-3.36-.15-6.49a14.3,14.3,0,0,1,2.28-4.18C27,28,28.14,27.6,28.42,28.09s-1.29,5.16-1.7,6.17Zm11.51,5.53c-.28.14-.55.25-.66.17s.11-.25.11-.25,1.45-1.55,2-2.27L40.83,36v.16c0,1.88-1.8,3.13-2.61,3.64Zm9-2c-.21-.16-.18-.64.52-2.15a8.16,8.16,0,0,1,2-2.56,3.32,3.32,0,0,1,.2,1.12,3.67,3.67,0,0,1-2.7,3.59Z"/></svg>