<?xml version="1.0" encoding="utf-8"?>
<!-- Generator: Adobe Illustrator 22.1.0, SVG Export Plug-In . SVG Version: 6.00 Build 0)  -->
<svg xmlns="http://www.w3.org/2000/svg" x="0px" y="0px"
	 viewBox="0 0 64 71.2" style="enable-background:new 0 0 64 71.2;" xml:space="preserve">
   <style type="text/css">
   	.st0{fill:#F6E767;}
   	.st1{fill:#FFFFFF;}
   </style>
   <g>
   	<path class="st0" d="M46.8,11.7l-18.9-11c-1.7-0.9-4.4-0.9-6.1,0l-18.9,11C1.3,12.8,0,15.1,0,17v21.8c0,1.9,1.3,4.2,3,5.1l18.9,11
   		c1.7,0.9,4.4,0.9,6.1,0l18.9-11c1.7-0.9,3-3.2,3-5.1V17C49.8,15.1,48.5,12.8,46.8,11.7z M41.7,23.6h-1.9v-3.4
   		c0-2.5-1.9-3.4-5.7-3.4h-0.2c-9.1,0-8.3-3.4-8.5-4.7h-0.2c-0.2,1.3,0.6,4.7-8.5,4.7h-0.2c-3.8,0-5.7,0.8-5.7,3.4v2.7l30.9,8.9v3.8
   		c0,3.6-1.7,5.7-7.8,5.7h-0.4c-4.5,0-7.6,0.9-7.6,4.7h-1.9c0-3.6-2.8-4.7-7.6-4.7c-5.9,0-7.8-2.1-7.8-5.7v-3.2h1.9v3.4
   		c0,2.5,1.9,3.4,5.7,3.4h0.2c9.1,0,8.3,3.4,8.5,4.7h0.2c0.2-1.3-0.6-4.7,8.5-4.7h0.4c3.8,0,5.7-0.8,5.7-3.4v-1.9L8.7,24.8v-4.4
   		c0-3.6,1.7-5.7,7.8-5.7h0.4c4.7,0,7.6-0.9,7.6-4.7h1.9c0,3.6,2.8,4.7,7.6,4.7h0.2c5.9,0,7.8,2.1,7.8,5.7L41.7,23.6z"/>
   </g>
   <path class="st1" d="M198.4,133.1c0-1.4,1.5-2,2.7-2c1.2,0,2.5,0.4,2.6,1.8h1.1c-0.3-2.3-2.3-2.8-3.8-2.8c-1.9,0-3.7,1.1-3.7,3.2
   	c0,2.5,2.9,3.1,4.8,3.8c1,0.3,1.8,0.9,1.8,2c0,1.5-1.5,2.3-2.8,2.3c-1.6,0-2.9-0.5-2.9-2.3h-1.1c0,1.9,1.6,3.3,3.5,3.3
   	c2.4,0,4.6-0.8,4.6-3.3C205,134.9,198.4,136.4,198.4,133.1z M219,140.6l-6.5-10.3h-1.2V142h1.1v-10.1l6.3,10.1h1.3v-11.7h-1.1
   	C218.9,130.3,219,140.6,219,140.6z M227.2,142.1h1.1v-11.8h-1.1C227.2,130.3,227.2,142.1,227.2,142.1z M238.5,130.3h-2.9V142h1.1
   	v-5.1h1.9c2.3,0,4.8-0.5,4.8-3.3C243.3,130.8,240.7,130.3,238.5,130.3z M239.2,136h-2.6v-4.7h2.6c1.6,0,3,0.5,3,2.3
   	C242.1,135.5,240.7,136,239.2,136z M252.8,141.3c-3,0-3.9-2.7-3.9-5.1c0-2.4,0.9-5.1,3.9-5.1c1.3,0,2.6,0.6,2.8,2h1.1
   	c-0.2-2.1-2-3-3.9-3c-3.5,0-5.1,2.9-5.1,6.1c0,3.3,1.5,6.1,5.1,6.1c1.9,0,3.7-1.1,4-3.1h-1.1C255.4,140.7,254.1,141.3,252.8,141.3z
   	 M264.7,130.3L260,142h1.1l1.2-3.2h5.8l1.3,3.2h1.2l-4.7-11.7C265.9,130.3,264.7,130.3,264.7,130.3z M262.7,137.9l2.6-6.6l2.5,6.6
   	H262.7z M280.1,135.9c1.4-0.4,2.3-1.3,2.3-2.6c0-1.1-0.4-2-1.2-2.5c-0.9-0.6-1.7-0.6-2.8-0.6h-3.8v11.7h1.1v-5.6h2.9
   	c2.1,0,2.3,0.5,2.5,3.2c0.1,0.8,0.1,1.7,0.4,2.4h1.2c-0.5-0.7-0.4-1.6-0.6-3.5C281.9,137.2,281.6,136.2,280.1,135.9z M277.8,135.5
   	h-2.3v-4.2h2.4c1.1,0,3.2-0.2,3.2,2.1C281.2,135.4,279.3,135.5,277.8,135.5z M286.2,130.3v1h3.8v10.8h1v-10.8h3.7v-1
   	C294.7,130.3,286.2,130.3,286.2,130.3z"/>
   </svg>
