<svg id="Layer_1" data-name="Layer 1" xmlns="http://www.w3.org/2000/svg" viewBox="0 0 50 55.66"><defs><style>.cls-1{fill:#f6e767;}</style></defs><title>snipcart</title><path class="cls-1" d="M45.45,12.76,27.76,2.46a6.78,6.78,0,0,0-5.71,0L4.36,12.76a6.68,6.68,0,0,0-2.72,5V38.13A5.88,5.88,0,0,0,4.45,42.9L22.14,53.2a6.81,6.81,0,0,0,5.72,0L45.55,42.9a5.88,5.88,0,0,0,2.81-4.77V17.72A6.9,6.9,0,0,0,45.45,12.76ZM40.81,24.3H39V21.14c0-2.48-1.77-3.38-5.32-3.38H33.5c-8.5,0-7.75-3.37-7.94-4.67h-.19c-.18,1.3.56,4.67-7.94,4.67h-.18c-3.55,0-5.33.8-5.33,3.38v.76l29,8.84v3.78c0,3.58-1.59,5.67-7.31,5.67H33.2c-4.22,0-7.13.89-7.13,4.67H25.2c0-3.47-2.76-4.52-7.48-4.52-5.8,0-7.67-2-7.67-5.48V31.78h1.87v3.16c0,2.48,1.76,3.38,5.29,3.38h.19c8.44,0,7.7,3.38,7.88,4.67h.19c.18-1.29-.56-4.67,7.88-4.67h.37c3.53,0,5.29-.8,5.29-3.38v0l-29-9V21.56c0-3.58,1.59-5.66,7.29-5.66h.37c4.39,0,7.1-.9,7.1-4.68h1.78c0,3.58,2.61,4.68,7.1,4.68h0c5.58,0,7.37,2,7.37,5.38Z"/></svg>