<svg id="Layer_1" data-name="Layer 1" xmlns="http://www.w3.org/2000/svg" viewBox="0 0 118.79 30"><defs><style>.cls-1{fill:#4353ff;}</style></defs><title>webflow</title><path class="cls-1" d="M39.76,12c0-2-1.92-4.12-5.28-4.12-3.76,0-7.88,2.77-8.52,8.3s2.81,8.05,6.3,8.05A9.23,9.23,0,0,0,39.43,21a3.16,3.16,0,0,0-4.07-.88,4.06,4.06,0,0,1-2.15.52c-1.35,0-2.72-.6-2.72-3.12C39.1,16.67,39.76,14,39.76,12Zm-4.27.33c-.05.62-.3,1.68-4.66,2.28.92-3.28,2.68-3.53,3.48-3.53a1.15,1.15,0,0,1,1.2,1.09.86.86,0,0,1,0,.16Zm-14.59,0-2,6.32-1.41-11c-3.16,0-4.85,2.26-5.74,4.64L9.31,18.65,9,12.36A5.16,5.16,0,0,0,4,7.67L6.57,23.55c3.3,0,5.08-2.26,6-4.64l2.06-5.4c0,.22,1.43,10,1.43,10,3.32,0,5.11-2.11,6.06-4.41L26.79,7.67c-3.27,0-5,2.24-5.89,4.64ZM51.61,7.8a6.29,6.29,0,0,0-4.93,2.76h0L47.86,1c-2.72,0-4.93,2.37-5.35,5.9l-2,17a5.15,5.15,0,0,0,4.11-1.62,4.54,4.54,0,0,0,3.76,1.86c4.58,0,7.73-5.34,7.73-10.35,0-4.58-2.24-6-4.45-6ZM51.52,16c-.48,2.8-2,4.7-3.52,4.7A3.07,3.07,0,0,1,45.84,20a19.72,19.72,0,0,1,1-5.25c.54-1.29,1.85-3.36,3.21-3.36S52,13.19,51.52,16ZM67.83,7.28H64.64V8c.22-2.09.71-3.2,2.34-3.37a1.72,1.72,0,0,0,1.73-1.33l.4-2.21c-6.41-.05-8.44,2.73-9,7v-.8h-.07a6.12,6.12,0,0,0-2.38,3.58l-.07.19h2.14L58,26.31,57.42,29h.22c3-.11,4.92-2.49,5.35-5.95l1.4-10.74h1s2.14-1.89,2.34-3.54Zm16.63.62a8.77,8.77,0,0,0-8.24,7c-1.07,4.29.55,9.35,6,9.35s8.54-5.27,8.54-9.67S87.79,7.9,84.46,7.9Zm1.49,8c-.19,1.94-1,4.89-3.37,4.89s-2-3.44-1.79-5.08,1.22-4.24,3.32-4.24c1.88,0,2.06,2.24,1.84,4.43Zm23-3.55-2,6.32c0-.5-1.41-11-1.41-11-3.16,0-4.85,2.26-5.73,4.64l-2.44,6.36c0-.46-.35-6.29-.35-6.29a5.16,5.16,0,0,0-5-4.69l2.59,15.88c3.31,0,5.09-2.26,6-4.64l2.06-5.4c0,.22,1.43,10,1.43,10,3.32,0,5.09-2.11,6.06-4.41l4.65-11.47c-3.26,0-5,2.24-5.87,4.64ZM70.55,1.09,67.87,22.87l-.55,2.68v0c3,.08,5.16-2.51,5.55-5.8l1.55-12.5c.47-3.81-1.79-6.18-3.87-6.18Z"/></svg>