<svg id="Layer_1" data-name="Layer 1" xmlns="http://www.w3.org/2000/svg" viewBox="0 0 50 50"><defs><style>.cls-1{fill:#00749a;}</style></defs><title>wordpress</title><path class="cls-1" d="M3.53,25a21.33,21.33,0,0,0,12,19.29L5.43,16.3A21.9,21.9,0,0,0,3.53,25Zm35.66-1.51a10.78,10.78,0,0,0-1.78-5.78c-1.06-1.78-2-3.2-2-5A3.66,3.66,0,0,1,38.93,9h.27A20.75,20.75,0,0,0,25,3.49,21.4,21.4,0,0,0,7.36,13H8.7c2.22,0,5.6-.27,5.6-.27a.9.9,0,0,1,.18,1.78,17.75,17.75,0,0,1-2.4.18l7.64,22.76,4.63-13.78-3.29-9-2.23-.18a.89.89,0,0,1,.09-1.78s3.47.27,5.51.27c2.23,0,5.61-.27,5.61-.27a.9.9,0,0,1,.17,1.78,17.56,17.56,0,0,1-2.4.18l7.65,22.68,2.15-7c.89-2.93,1.6-5,1.6-6.84ZM25.36,26.9,18.93,45.56a22.11,22.11,0,0,0,6.07.91,23.71,23.71,0,0,0,7.16-1.18c-.09-.09-.09-.18-.18-.27ZM43.84,14.77,44,17a19.49,19.49,0,0,1-1.63,7.7L35.87,43.58A21.49,21.49,0,0,0,46.56,25a23,23,0,0,0-2.72-10.24ZM25,0A25,25,0,1,0,50,25,25,25,0,0,0,25,0Zm0,48.91A23.87,23.87,0,1,1,48.82,25,23.87,23.87,0,0,1,25,48.91Z"/></svg>