<svg id="LandingPage" xmlns="http://www.w3.org/2000/svg" viewBox="0 0 300 388.91"><defs><style>.cls-1{fill:#aeaeae;}</style></defs><title>Artboard 10</title><path class="cls-1" d="M76.87,318.44a6.22,6.22,0,0,0-.73-1.56c-1.2-1.38-2.49-2.68-3.9-4.18.15-.48.29-1.09.52-1.67s.53-1.06.87-1.71l3.25-1.5c-.79-1-1.54-.08-2.48-.22l-.76-1.26,1-1.75-.85-.48c-.23.88-.47,1.63-.61,2.4-.76,4.07-2.1,8.07-1.74,12.31a5.19,5.19,0,0,1,0,1,3.39,3.39,0,0,1-.18.57c.71,1.3,1.33,2.67,2.15,3.9,1.15,1.72,2.44,3.35,3.68,5,.15.2.31.39.45.59,1.14,1.59,1.15,2.44,0,4.42l.76.56c-.12.64-1.76,1.1-3.59,1l-3.87,3.33c.06,1,.09,2,.18,3,.3,3.16.65,6.32.9,9.48.11,1.42,0,2.85,0,4.38a5.61,5.61,0,0,0,2.35,0c1.94-.05,3.87-.17,5.8-.25,6.84-.28,13.68-.65,20.52-.79,5.55-.11,11.11,0,16.66.12,4.27.07,8.53.26,12.8.4l9.22.29c1.93.07,3.86.21,5.79.2a67.94,67.94,0,0,1,10.36,1,11.5,11.5,0,0,1,5.41,2.32c.89.7,1.84,1.32,2.91,2.09.95,3.05,2.23,6.23,2.47,9.69.13,1.92.45,3.84.54,5.77a6.31,6.31,0,0,1-.81,4.08,27.13,27.13,0,0,1-6.55,2.53c-3.27.57-6.56,1.06-9.84,1.54q-3.31.48-6.64.82c-2.46.25-4.94.43-7.41.64-1.53.13-3.06.27-4.59.37-4,.29-8.11.61-12.16.81-5.3.27-10.61.29-15.9.68-6.79.49-13.57.51-20.37.43-2.67,0-5.34-.34-8-.46-2.87-.13-5.75-.12-8.62-.29-2.07-.13-4.14-.44-6.2-.69-3-.37-6.1-.71-9.14-1.16s-6.37-1-9.54-1.56-6.4-1.33-9.59-2a11.06,11.06,0,0,1-1.18-.37,3.36,3.36,0,0,1-.5-2.92,43.5,43.5,0,0,0,.95-4.81,17,17,0,0,1,2.46-7,67.17,67.17,0,0,1,4.26-5.71,5.54,5.54,0,0,1,2.15-1.5,33.35,33.35,0,0,1,12-2.62c2-.07,4-.3,6-.45.87-1.52,1.18-5.32.74-8.09h-3.4c-.3-.23-.62-.46-.92-.72-1.35-1.16-1.45-2.21-.29-3.56a12,12,0,0,1,1.47-1.47,2.08,2.08,0,0,1,3,0,37.86,37.86,0,0,1,0-4c.14-1.31,1.25-2,2.25-2.91-.28-.2-.46-.36-.66-.48a1.77,1.77,0,0,1-.88-2.58c.22-.49.46-1,.71-1.47,3.23-1.57,5.42.24,5.46,2.87h2.6c.62-1.39.49-2.18-.61-3.64-2.63-1.27-2.63-1.27-5.72-.38-.09-1.19-.14-2.35-.28-3.5a32.06,32.06,0,0,0-.58-3.37c-.26-1.16-.64-2.29-1-3.47a15.14,15.14,0,0,0-1.63-.79,4,4,0,0,1-2.2-2.11,2.45,2.45,0,0,1,0-2.43c.33-.6.67-1.2,1.06-1.89-.41-1.12-.86-2.27-1.27-3.44-2.3-6.5-4.52-13-6.91-19.49-1.29-3.48-2.82-6.88-4.31-10.29a185.66,185.66,0,0,1-7.51-20.85c-1.61-5.36-3.41-10.67-5.17-16-1.52-4.57-3.3-9-4.63-13.67-3.22-11.19-6.28-22.43-9.33-33.66-3.21-11.81-6.25-23.66-9.53-35.44-1.68-6.05-3.68-12-5.66-18A41.25,41.25,0,0,0,0,137.62v-4.17a3.69,3.69,0,0,1,.62.76c.52,1.22,1,2.47,1.5,3.68A99.18,99.18,0,0,1,6.93,151c2.13,7.38,4.69,14.65,6.53,22.09,2.63,10.63,5.38,21.23,7.65,31.95,1.27,6,3.24,11.85,4.89,17.77q.69,2.5,1.4,5a4.39,4.39,0,0,1,2.1,2.95c.68,2.13,1.17,4.33,2,6.38,1,2.51,1.54,5.37,4,7.09a.53.53,0,0,1,.17.24c.65,1.28,1.36,2.54,1.93,3.85,1,2.36,2,4.76,3,7.13.1.24.37.42.56.63-.28,1.4.42,2.62.8,3.89.84,2.84,1.69,5.69,2.73,8.47s2.48,5.29,3.14,8.16a4.9,4.9,0,0,0,.76,1.77,12.09,12.09,0,0,1,1.87,4.79,30.78,30.78,0,0,0,.95,3.28c.52,1.5,1.18,2.94,1.67,4.45.81,2.55,1.5,5.13,2.31,7.68.53,1.7,1.17,3.37,1.8,5,.09.24.36.41.71.8l.4-.45c-.68-1.87-1.29-3.48-1.84-5.12-1.3-3.85-2.56-7.71-3.85-11.56-.66-2-1.3-3.95-2.05-5.89-.69-1.79-1.61-3.5-2.27-5.3-1.45-4-2.76-8-4.19-12.06-.94-2.66-2-5.28-3-7.92a10.84,10.84,0,0,0-.25-1.16c-1.12-3.34-2.27-6.66-3.37-10-2-6.11-4.09-12.22-6-18.36-1.26-4-2.28-8.12-3.46-12.16-.54-1.85-1.27-3.65-1.83-5.5-.93-3.08-1.79-6.19-2.69-9.28-1.15-4-2.74-7.75-3.72-11.76-1.59-6.5-3.27-13-4.95-19.45-2.85-11-6.21-21.83-9.62-32.66a23.44,23.44,0,0,1-1.36-6.29A14,14,0,0,0,2,122.22a2.54,2.54,0,0,1-.36-2.39l1.45-.9A11.56,11.56,0,0,1,7,123.37c.77-1.86-.66-2.92-1.53-4.29l1.46-2-1-.5-1.26.82L0,112.9V109c1.79-.94,3.57-1.88,5.37-2.8a25.9,25.9,0,0,0,5.15-2.94,10.06,10.06,0,0,0-2.47.21,9.66,9.66,0,0,1-1.43.36c-2.21.07-4.41.07-6.62.1v-.89L1.12,103V99.15L0,98.6V98l2.05-.36.79-1.13a11.68,11.68,0,0,0,7.86-2.38,2,2,0,0,0-1.38-1.9c-.94-.43-1.94-.75-2.89-1.16a8.11,8.11,0,0,0-4.82-.39c-.53.1-1.07.12-1.61.17v-3a11.69,11.69,0,0,1,6.88.37,41.93,41.93,0,0,1,5.24,2.41,14.11,14.11,0,0,1,2,1.49l3.79-1.88c.94.08,2.18-.27,3.46.35-1.15,1.41-2.86,1.65-4.24,2.44s-2.86,1.53-4.3,2.29l.07.31c1.53-.11,3.07-.17,4.59-.34,3.35-.38,6.69-.78,10-1.22,1.91-.25,3.79-.69,5.7-.9,2.41-.26,4.85-.3,7.26-.56,2.25-.25,4.48-.66,6.72-.93,1,0,2-.06,3-.17a4,4,0,0,1,3.63,1.19c.64,2,.64,2.15-.23,4.08l.44.58c.83-.12,1.07-2.55.51-4.73.45,0,.87-.07,1.3-.07,2.33,0,4.66,0,7,0a1.8,1.8,0,0,0,1.66-.75l-1.46-1,.46-.6,3.34,2c-.69,1-4.48,3.15-7,4l-.73-.66L59,96.91a7.9,7.9,0,0,1-4.86,2,51.9,51.9,0,0,0-6.92.85c-1.83.36-3.59,1.1-5.39,1.62A33.35,33.35,0,0,0,35,104.47Q23.15,111,11.31,117.58c-.42.23-.85.44-1.52.78l.59-1.36-.23-.85,0,0,.79.6,5.9-3.26L33.94,104a4.84,4.84,0,0,0,2.52-2.17l-12.82,1.59-.63-.55-1.52,1.26-1.9-1.39a9.62,9.62,0,0,0-5.83,1.7,7.24,7.24,0,0,1-1.6.72l2.41-1.83.13-.07-.1.11c-2.59-.27-5.06.84-5.95,2.72l3.56-1c-1,.59-2.06,1.23-3.13,1.75-1.8.86-3,2-2.55,4.21l0,0-.86-.52C5.94,112,7,112.87,7.63,114s1.86,1.88,1.6,3.5l-1.16.74L9,119.39,11.94,118l.55.79a.76.76,0,0,0,.26,0c1.21-.23,2.41-.52,3.63-.71a7.79,7.79,0,0,1,1.93-.06A12.76,12.76,0,0,0,26,116c8-4.55,16.12-8.94,24.2-13.36,3-1.66,6.16-3.17,9.2-4.83,2.12-1.17,4.13-2.54,6.25-3.71Q83.06,84.5,100.47,75L121.81,63.2c.5-.28,1-.65,1.42-1l.58,0,0-.17-.5.25-6.45.43-2.71-2-56,31c1.57.29,3.33-.32,4.94.45-3.18-.15-6.39.31-9.55-.63a16.64,16.64,0,0,1,1.87,0,3.38,3.38,0,0,0,2.12-.45q27.43-15.21,54.88-30.38c.56-.31,1.13-.59,1.64-.86l1.22-2.66.31.1c-.25,1.21-1.6,2.38-.23,3.78a3.94,3.94,0,0,0,.59-4.28c1.52-.88,3.22-.54,4.79-.73a41,41,0,0,1,4.85,0,5.59,5.59,0,0,0-.33-.63c-1.79-2.3-1.08-5.41.34-7.35.8-1.11,2-1.15,3.43-1.18l2.94-4.15a11.21,11.21,0,0,1-2.63,4.39,18.24,18.24,0,0,1,3.81.06,17,17,0,0,1,3.28,1.55l2.15-.12v.13l.09-.1h-.13A6.21,6.21,0,0,0,136,44.86a11.6,11.6,0,0,1-3.88-5.13.91.91,0,0,1,.06-.78c.42.83.82,1.68,1.26,2.51a3.92,3.92,0,0,0,2,1.87c2.16-2.3,2.39-4.6.74-7.47-.67-.26-1.62-.13-1.95-1.24a3.41,3.41,0,0,0-.55-4.23c-1.34-1.6-2.32-1.65-3.83-.06l-1.37-.08c.36.6.68,1.12,1,1.66s.71,1-.23,1.6c-.33-.57-.64-1.11-1-1.64a1.89,1.89,0,0,0-2.62-1c-1.56.44-3.12.91-4.77,1.4L122.67,34l3-.63c1.51.55,1.71,2.35,2.8,3.39s2.11,2.2,3.13,3.27v1.78l-3.27,4.62L127.21,44l2.93-4.42-.84-1.32-2.73,3.64c.33-1.4,1.28-2.39,2.12-3.74a5,5,0,0,0-.92.23,7.2,7.2,0,0,1-4.1.33,35.14,35.14,0,0,1-4.65-.94,19,19,0,0,1-2.62-1.16c-.36.07-.84,1-1.86.35l1.36-2.09.21.12.42-1.64c1.37-1.17,3.37-1,5-2.12-.56-1.45-1-2.95-1.69-4.37a45.36,45.36,0,0,1-3.62-14.36,41.52,41.52,0,0,1,0-6.69,4.08,4.08,0,0,1,.79-2.19A8.7,8.7,0,0,1,121.84.29,9.91,9.91,0,0,1,130.15,2a24.42,24.42,0,0,1,3.26,3c1,1,1.78,2.15,2.77,3.11,3.07,2.95,5,6.64,6.81,10.4a46.49,46.49,0,0,1,3.78,13.11c.43,2.93.38,5.94.58,8.9.12,2,.29,3.94.45,6.06l3.32-.62c.39-.08.78-.15,1.17-.25,2.12-.59,4.23.28,5.5,3l-1.5,1.87,1.49.72c.59,1.55-.17,3-.45,4.6.49-.33.84-.6,1.21-.83a2.51,2.51,0,0,1,2.93-.06,4.76,4.76,0,0,0,3.22.87c.47-.06,1,.31,1.58.51.35-.39.76-.81,1.12-1.28a5.79,5.79,0,0,1,3.92-2.19,25.31,25.31,0,0,1,7.27-.31,12.62,12.62,0,0,0,4.29-.07,5.19,5.19,0,0,1,2.35.11c2.71.79,5.43,1.59,8.08,2.57s5.19,2,7.21,4.15c.61-.39,1.18-.69,1.67-1.08A64.89,64.89,0,0,1,222.51,48a57,57,0,0,1,13.82-2.81,52.8,52.8,0,0,1,15.26.92,72,72,0,0,1,16.24,5.27,60.41,60.41,0,0,1,21.68,17.07,41.14,41.14,0,0,1,4.3,7.3,63.2,63.2,0,0,1,5.81,18.68c.74,4.82.26,9.6-.21,14.39-.1,1-.28,2.07-.47,3.09a18.32,18.32,0,0,1-.5,1.82c-35.07.86-70.05,2-105.11,2.25-.43,1.83-.86,3.61-1.25,5.39-.94,4.31-1.84,8.63-2.8,12.93s-2,8.79-3,13.19c-.31,1.36-.48,2.74-.76,4.1a3.37,3.37,0,0,0,.5,2.83,3,3,0,0,1,.28,3.09c-.79.83-1.81.71-2.79.7a6.53,6.53,0,0,1-1.32-.16c-2.34-.49-2.84-1.21-2.55-3.84l1.51-1.09h2c.41-1.94.8-3.87,1.23-5.79.62-2.76,1.23-5.52,1.89-8.26s1.35-5.29,2-7.94a2.83,2.83,0,0,0,.11-.58c0-2.77,1-5.35,1.64-8,.38-1.58.55-3.22.83-4.83.1-.57.25-1.14.4-1.77h-.8c-2.38,12.35-5.37,24.55-8.51,36.71,0,0-.17,0-.4.09,2.9-12.23,6.08-24.34,8.44-36.84l-6.82-.55c.21-7.39-.75-14.66.2-21.95l-.6,1a8.77,8.77,0,0,1-4.11-.72A4.6,4.6,0,0,1,176,90.41,21.29,21.29,0,0,0,172,83a39.34,39.34,0,0,1-2.27-3.62l.25-.21c-.62-.31-1.21-.66-1.84-.93A8.51,8.51,0,0,1,163,71.49a2,2,0,0,0-.34-.6l0,0,1.5.11c.42-1.86.62-3.78,2.33-5.15a5.06,5.06,0,0,0-2.32-1.06c-2.31-.59-4.61-1.22-7-1.64a36,36,0,0,1-7.42-2.12c-.73-.3-1.48-.54-2.21-.81-1.32.44-1.63,1.56-1.94,2.65a14.68,14.68,0,0,0-.29,1.76l0,0-.5-.57a32,32,0,0,1-9.13-2.86c-.12,0-.24,0-.3.06-1.74,1.58-3.88,1.31-5.93,1.24a6.13,6.13,0,0,0-3.41.73q-25.29,14-50.6,28c-.43.24-.85.51-1.13.68L72.7,96.39,70.43,97l-1.66-.31,0,.22c-1.15.25-2.29.54-3.44.75a14.34,14.34,0,0,0-4.44,1.61q-16.38,9.12-32.78,18.17c-.48.26-.94.55-1.53.89l1,2-1.21.75.13,1.4h1.37a4.72,4.72,0,0,1-1.25,4,5.68,5.68,0,0,1-2.42,1,14,14,0,0,1-2,.23,11.14,11.14,0,0,0,.37,1.23c4,9.67,8.09,19.32,12.1,29,1.77,4.26,3.42,8.57,5.17,12.84,4.51,11,8.94,22.08,13.6,33a301.8,301.8,0,0,1,10.74,30.29c1.38,4.51,2.72,9,4.09,13.54.32,1,.65,2.09,1.06,3.1a167.57,167.57,0,0,1,5.51,15.89c.76,2.51,1.54,5,2.3,7.53a5.77,5.77,0,0,1,.21,1,11,11,0,0,0,1.64,4.83c1,1.67,1.76,3.54,2.68,5.29a36.53,36.53,0,0,1,2.09,5.46l-1,1.34a14.09,14.09,0,0,1,2.2,1.21A10.82,10.82,0,0,1,86.43,295c-.37,2.15.17,4.15-.83,5.93-.08.14-.26.22-.66.54.45-2,1-3.63.4-5.5l-1.59-.16.47,2.87-1,.86,1.55,2a2,2,0,0,1,.39,2c-.61,1.73-1.19,3.47-1.79,5.25l8.15,24.12a6.92,6.92,0,0,0,4.31-.11c-1.76-5.27-3.41-10.51-5.26-15.68-2.24-6.27-4.71-14.42-4.46-15.91a68.4,68.4,0,0,1,2.13,6.72c.68,2.12,1.31,4.26,2,6.38s1.58,4.28,2.32,6.44,1.39,4.24,2.09,6.37c.85,0,1.68,0,2.5,0,2,.13,3.06,1.34,3,3.44a10.39,10.39,0,0,1-3.83,2.95,29.85,29.85,0,0,0-3.13,1.92c-.16.1-.29.29-.47.35-1.41.46-2.88.18-4.3.62l-.16-.42L91,333.39l-1.79-4.23-3.08.36.31,1.86h2.78c.3,1.43-1,1.49-1.62,2.26a7.64,7.64,0,0,1,.48.95,5.48,5.48,0,0,1,.14,1c-1.24-.12-.92-1.31-1.69-1.86l-1.37-.26.73-2.79a25.48,25.48,0,0,0-1.44-2.55c-1.24-1.8-2.65-3.48-3.82-5.31a42,42,0,0,0-3.76-4.42ZM46.15,92.93l.29-.3.1-.07-.06.1-.29.3-.32.31a4.28,4.28,0,0,1-.85.23c-1.57.09-3.15.09-4.72.25-3.33.34-6.65.82-10,1.16-3.64.36-7.29.63-10.94.91-3.26.24-6.52.41-9.78.66-2,.15-4,.4-6.1.61l-.76,1.24-1.21.43.36,2.61c.54,0,1,0,1.41-.08,3.34-.45,6.67-.94,10-1.36q7.87-1,15.77-2c2.1-.25,4.2-.42,6.3-.63,2.35-.24,4.71-.45,7.06-.75,1.2-.15,2.34-.43,2.59-2a4.58,4.58,0,0,1,.8-1.39Zm15.5,183.51-.06,0,.06,0,0-.06Zm12.55-7.27a1.36,1.36,0,0,1,0,.16l-.06-.12-.32-.58-.09-.6-.2.06.32.51ZM64,275.2c.14,0,.28-.05.08,0l-.05.05c-.12,0-.23,0-.11,0Zm9.54,10.41.29.91c.52,1.31,1,2.63,1.56,3.92a5.9,5.9,0,0,0,.83,1.12c0,.13,0,.26,0,.07l0,0-.43-2,.3-.14,1.24,2.2a10.48,10.48,0,0,0,1.56-.9,5.83,5.83,0,0,1,2.55-1.43c.39-.09.79-.24.62-.88-1.52-.11-2.66,1-4.22,1.64.88-1.9,2.82-1.76,3.92-2.88-2-.33-3.72.45-5.43,1.4a2.46,2.46,0,0,1,1-1.17,24,24,0,0,1,2.49-.93c.41-.15.92-.16.88-.79l0,0a6.46,6.46,0,0,0-4,1.41,7.69,7.69,0,0,1-.94.41c.94-1.91,2.84-1.83,4.09-2.83a3.74,3.74,0,0,0-2.39.24,19.56,19.56,0,0,0-2.11,1c.83-2,3-1.6,4.4-2.65a1.32,1.32,0,0,0-1-.32c-1.07.36-2.11.82-3.16,1.24-.32.13-.6.56-1.09.11,1.13-1.38,2.89-1.55,4.3-2.34a3.46,3.46,0,0,0-2.6.23,23,23,0,0,0-2.44,1.09c1-1.76,2.93-1.82,4.68-2.41l-.77-.95-4.41,1.83a3.47,3.47,0,0,1,1.94-1.62c.75-.33,1.55-.55,2.32-.82-.24-.39-.53-.62-.79-.6a6.63,6.63,0,0,0-3.36,1.06,12.81,12.81,0,0,1-1.41.79c.45-1.36,1.65-1.76,2.82-2.15a20.52,20.52,0,0,1,2.09-.5v-.36a2.68,2.68,0,0,0-1-.25,6.23,6.23,0,0,0-3.53,1.43,4.61,4.61,0,0,1-1,.44c1.07-2.17,3.14-2,5-2.91-2-.73-3.37.58-5.14,1.15,1.13-1.76,2.81-1.78,4.23-2.26v-1a16.73,16.73,0,0,0-2.65.47,15.91,15.91,0,0,0-2.32,1.27c.2-1.05,1-1.42,1.76-1.82s1.71-.13,2.29-.95a8.53,8.53,0,0,0-2.44.39,18.67,18.67,0,0,0-2.27,1.16c1-2,3-1.92,4.7-2.44l-.34-.7a19.16,19.16,0,0,0-2.58.7,16.32,16.32,0,0,0-2.15,1.29c.74-2.11,2.8-2,4.47-2.72l-.43-.62a7.75,7.75,0,0,0-4.53,2.18l-.59-.18c1.13-1.7,3-2.12,4.85-2.75l-.28-.81c-.82.23-1.57.47-2.34.65s-1.15,1.06-2.19.81c1.12-1.47,2.81-1.54,4.27-2.21l-.52-.81-3.76,1.63c.69-1.53,2.33-1.54,3.78-2.46a7.88,7.88,0,0,0-5,1c.57-1.1.57-1.1,4.06-2l-.48-.78-3.77,1.12-.12-.31c1-1,2.42-.95,3.61-1.6-1.53-.6-2.93.13-4.41.7,0-.27,0-.5,0-.52,1.2-.51,2.41-1,3.73-1.53-1.83-1-3.22.48-5,.95,1.11-1.73,2.84-1.64,4.22-2.29-1.47-.82-2.76.29-4.17.32.92-1.13,2.35-1.12,3.6-1.61a1.19,1.19,0,0,0-.84-.33c-1.1.29-2.17.65-3.26,1-.23.07-.47.11-1,.23a3.68,3.68,0,0,1,2.19-1.43c.77-.25,1.57-.43,2.55-.69-.35-.31-.48-.53-.62-.54-1.57-.11-2.92.6-4.35,1.12.91-1.45,2.51-1.53,3.93-2.06a7.75,7.75,0,0,0-2.27.21c-.7.18-1.38.47-2.07.72,1-1.51,2.66-1.37,4.16-2a7.6,7.6,0,0,0-4.41.54c.92-1.61,2.69-1.05,4.09-1.61l-.46-1c-.86.23-1.66.46-2.46.64s-1.3,1-2.43.71c1.4-1.26,3-1.55,4.65-2.08l-.46-1c-.84.23-1.59.46-2.36.65s-1.27,1-2.35.86c1.21-1.51,3-1.57,4.39-2.39-1.95-.39-3.33,1-5,1.56a3.4,3.4,0,0,1,2-1.7c.8-.39,1.67-.64,2.51-1-1.91-.59-3.18.78-4.88,1.5.37-1.13,1.2-1.41,1.89-1.78A21.53,21.53,0,0,1,64,249c-1.82,0-3.33.88-5,1.44,1.14-1.61,3.09-1.73,4.75-2.54l-.59-.86c-.83.29-1.63.53-2.4.85s-1.41.67-2.1,1l-.16-.32c1-1.43,3-1.35,4.4-2.31l-.54-.89c-.88.3-1.71.51-2.47.86a22.43,22.43,0,0,0-2.15,1.27c.82-2.06,2.91-2,4.52-2.91l-.54-1.09a11.4,11.4,0,0,0-4.8,2.3,2.78,2.78,0,0,1,1.77-1.91c.86-.44,1.78-.78,2.75-1.2l-.57-.92c-.83.33-1.59.67-2.38.95s-1.14,1.18-2.24,1.1c1.12-1.68,2.9-2,4.48-2.75l-.47-.69a21.22,21.22,0,0,0-2.34,1,23.17,23.17,0,0,0-2,1.41,2.85,2.85,0,0,1,1.84-2.06c.79-.38,1.62-.71,2.43-1.07l-.12-.35a4.55,4.55,0,0,0-2.66.45c-.79.36-1.52.88-2.56,1.5,1-1.71,1.48-2,4.87-2.83l-.34-.78c-1,.29-1.91.49-2.78.83s-1.59.82-2.49,1.29l.12-.9.3-.32,4.62-1.64c-1.2-.48-3.46.43-4.59,1.68l-.3.31-.59-.51c1.22-1.64,3.28-1.76,4.8-2.77-.15-.64-.51-.66-.92-.51A8.19,8.19,0,0,0,54,237a8.58,8.58,0,0,1-1,.74,3.15,3.15,0,0,1,2-2.29c.87-.47,1.81-.81,2.72-1.2l-.13-.33a7.16,7.16,0,0,0-2.88.92,21.73,21.73,0,0,0-2.44,1.88c.63-2.56,3.13-2.67,5.2-3.74a3,3,0,0,0-2.27,0,4.4,4.4,0,0,0-3.14,2.7c-.19-.25-.29-.32-.29-.4,0-.29,0-.59,0-.88a14.64,14.64,0,0,1,2.2-1.69,17.33,17.33,0,0,1,2.75-.86c-.13-.2-.17-.34-.24-.35a4.35,4.35,0,0,0-4.68,2.92l-.85.44v-1.12l-1.44-.58-.25.3c.26.51.49,1,.78,1.52,1,1.67,2,3.29,2.92,5,1.26,2.36,2.45,4.75,3.6,7.16,1.58,3.33,3.16,6.67,4.61,10.06.84,1.94,2.24,3.62,2.76,5.73.13.54.67,1,.9,1.48.87,2,1.66,4,2.53,6a15.89,15.89,0,0,0,1.11,1.85,9.4,9.4,0,0,0,.36,1.41c.85,2.13,1.74,4.24,2.62,6.36l-.06.07,0-.1.62.62v.9l-.07.05,0-.09L73.27,285ZM55.09,263.86l.88-.59a8.24,8.24,0,0,0,2.88-.79,3.38,3.38,0,0,0-2.84.82l-.89.6-.31.32-.91,0A5,5,0,0,1,57,262c.45-.17,1.06-.12,1.43-.88-2,.23-3.72.71-5,2.34l.6.68.11.57.31.18.41-.71Zm-11.63-29.5,1.89-.06,0-.33-1.81.43-.29.34c-.77.31-.77.31-1.1,1.09l1.07-1.12Zm-.57-2c-1.1-.17-1.37.81-2,1.28l.18.23,1.8-1.54,1.42-.25-.14-.39ZM55.68,97.07c1.74.06,1.74.06,2.22-.73l-2.2.76,0,0ZM71.19,291.88c.44,0,.93-.05.9.63l-2.94,1.17-.37-.81c.66-1.77,2.41-1.69,4-2.45-2.08-.39-3.37.68-5,1.6a2.73,2.73,0,0,1,1.83-1.84,22.1,22.1,0,0,1,2.17-.73c-1.93-.18-3.4.74-4.89,2.2,0-1.38.91-1.74,1.62-2.14a21.88,21.88,0,0,1,2.39-1,4.38,4.38,0,0,0-2.08.09,13.23,13.23,0,0,0-1.75.82c.86-1.7,2.49-1.66,4.26-1.9-.39-.3-.55-.53-.73-.55a6.43,6.43,0,0,0-4.47,1.51c.12-1.09.93-1.45,1.75-1.72s1.64-.45,2.79-.75c-2.07-.54-3.46.47-5,1.05a3.1,3.1,0,0,1,1.1-1.14,9.15,9.15,0,0,1,1.37-.56c.44-.17,1,0,1.6-.76a18,18,0,0,0-2.62.48,13,13,0,0,0-2,1l-.21-.31c.35-.31.68-.64,1-.91s.81-.52,1.22-.78c.58,0,1.19.13,1.68-.39l-1.64.42-2.49.59c1-1.61,2.83-1.09,4-1.9l-.64-.78a18.89,18.89,0,0,0-2,.43c-.67.22-1.29.56-1.94.84.76-1.55,2.31-1.52,3.91-2.05a3.88,3.88,0,0,0-.9-.31,6,6,0,0,0-3.85,1.66v-1.19l1-.56,2.66-.66c-1.56-.1-1.79,0-2.63.7l-1,.55-.56-.24c.88-1.5,2.5-1.51,3.73-2.27a4.14,4.14,0,0,0-1.69.06,7.35,7.35,0,0,0-1.49.66c-.49.27-.94.61-1.41.92l-.2-.33c1-1.44,2.56-1.8,4.25-2.25l-.61-1-3.74,2.21a2.89,2.89,0,0,1,1.61-1.77c.62-.41,1.27-.77,1.91-1.15-1.85-.4-3,.71-4.24,1.67l-.38-1.7,2.06-1.42c-1.1-.37-1.78,1.16-3,.49,1.16-1.24,2.72-1.65,4.24-2.64a4.31,4.31,0,0,0-3.41.91c-.42.26-.8.57-1.22.83-.09.06-.26,0-.49-.05l.24-1.41,4-1.41c-1.77-.63-3.06.67-4.65.86a1.35,1.35,0,0,1,.61-.72c1.1-.44,2.22-.82,3.33-1.23.06,0,.09-.15.17-.29l-.32-.5a20.25,20.25,0,0,0-2.29.65,20.3,20.3,0,0,0-2.1,1.13c.86-1.76,2.58-2,4.31-2.48-.33-.31-.52-.65-.71-.65a4.12,4.12,0,0,0-3.29,1.06,4.37,4.37,0,0,1-.68.52l-.24-.25.94-1.22v0l-1.74.21c1.23-1.33,2.76-1.5,3.94-2.32a8.86,8.86,0,0,0-2.19.34,20,20,0,0,0-2,.85c1-1.59,2.61-1.63,4.21-2.07l-.41-.83c-2,.2-3.73.8-4.89,2.73.65,1.44,1.28,2.94,2,4.41,1.26,2.63,2.64,5.21,3.82,7.87,1.84,4.11,3.55,8.27,5.32,12.41a6.65,6.65,0,0,0,.55,1.06,2.74,2.74,0,0,0,4.11.63c.45-.39.84-.84,1.26-1.25a2.06,2.06,0,0,0,1.26-1.3l-2.08.75-1,.17.08.29ZM14.28,123.34l1.24-.61.1.77L18,122.37l.41-1.56c-2.15,1-4.24,1.48-6,2.8h1l-1.55.33c-.27-.69-.74-.35-1.06-.13-1,.72-2.05,1.5-3.12,2.3l.61,1.19,2.88-1a6.36,6.36,0,0,1-.11-1.26c.05-.51,0-1.15.85-1.13l-.41,1.69h2.2l.59-.81a9,9,0,0,0,.85,5c1.12,2.27,1.88,4.7,2.9,7,3.07,7,6.25,14.05,9.29,21.11,2.42,5.64,4.67,11.36,7,17,3.18,7.54,6.42,15.06,9.59,22.6.69,1.64,1.18,3.36,1.85,5,2.41,6,4.87,11.94,7.29,17.92a3.38,3.38,0,0,1,.33,2.78c.45.55,1.48.33,1.47,1.45l-2.71-.22-.1-.84a2.6,2.6,0,0,0-2.27.17l2.56,2.39.42,1.49A2.84,2.84,0,0,1,55.48,226a9.64,9.64,0,0,0-1-4.95c-2.75-6.74-5.52-13.48-8.23-20.24-1.46-3.64-2.84-7.3-4.25-11-.41-1.07-.76-2.16-1.21-3.2-3.15-7.18-6.37-14.32-9.48-21.52-1.76-4.09-3.32-8.28-5-12.4-2.86-6.81-6.28-13.39-8.6-20.43a2.68,2.68,0,0,0-.42-.94c-1.24-1.42-1.69-3.23-2.45-4.88-.17-.36-.34-.75.28-1.12a5.35,5.35,0,0,1,.62.9c1.24,2.92,2.45,5.85,3.69,8.77,1.37,3.24,2.77,6.46,4.17,9.69.27.64.57,1.26.84,1.9q3.72,8.85,7.42,17.71c3.52,8.42,7.66,16.57,10.9,25.12,1.6,4.22,3.38,8.37,5.05,12.56,1.31,3.27,2.57,6.56,3.85,9.84,1.43,3.7,2.88,7.4,4.28,11.11a16.84,16.84,0,0,1,.53,2.49c1,3,2,6,3.08,9,1.16,3.32,2.33,6.63,3.55,9.92.34.92.9,1.76,1.28,2.67.92,2.23,1.75,4.49,2.69,6.71A104.71,104.71,0,0,0,73.36,267a1.87,1.87,0,0,0-.09-.67c-1-3.12-1.87-6.29-3-9.34-2-5.24-3.73-10.57-5.39-15.93-2.67-8.62-5.33-17.26-8.36-25.76C53.92,208.11,50.85,201.09,48,194c-3.06-7.48-6.2-14.94-9.28-22.41-2.38-5.78-4.7-11.59-7.1-17.36-1.5-3.62-3.13-7.19-4.64-10.81-2.69-6.45-5.33-12.93-8-19.4a10.82,10.82,0,0,0-.59-1.07l-4.08,1.86.63-1.49Zm52.44,181a7.09,7.09,0,0,0,1-1c.9-1.3,1.74-2.64,2.6-4L72.23,297l-.6-2.71-2.85,1c.53,1.39,1.06,2.76,1.59,4.14a4.68,4.68,0,0,1-1-1c-.46-.87-.81-1.8-1.2-2.71a1.44,1.44,0,0,0-1.47-1c1.53,2.21.84,3.94-.77,5.34.35,1.57,1.39,2.83.81,4.41l-.35.29-1,.62a5.33,5.33,0,0,1-.08-1.31,5.71,5.71,0,0,0-.47-3.48c-.25-.64-.55-1.27-.77-1.93-.9-2.78-1.76-5.57-2.67-8.35Q59,283.13,56.61,276c-.22-.66-.5-1.3-.77-1.93s-.56-1.25-.85-1.87l-.36.13c.69,3.29,1.29,6.6,2.09,9.86.94,3.8,2.05,7.56,3.11,11.33a14.81,14.81,0,0,0,.84,2.37,63,63,0,0,1,4.84,12.59c.17.71.38,1.42.58,2.13l.23-.05.43-1.36H67l.56,2.32,3.05,2.23L70.45,312l-.26.13c-.64-.79-1.3-1.57-1.91-2.38-.39-.51-.69-1.09-1.06-1.61a4.24,4.24,0,0,1-.86-3.5Zm14.91,9.29a17.55,17.55,0,0,0-2.76,5.2l6,8.91a3.05,3.05,0,0,0-.2-1.5c-.68-1.75-1.42-3.48-2-5.25-.85-2.39-2.15-4.72-1.07-7.39l.92-2.39-.4-.11C82,312,81.8,312.82,81.63,313.66Zm45.55-261,0,.1,0-.07a11.05,11.05,0,0,1,1.18-1.28c.94-.74,1.93-1.4,3.1-2.24-.95-.45-1.68-.83-2.45-1.14a2.79,2.79,0,0,0-3.2.78,5.19,5.19,0,0,0,.79,6.86c.75,0,1.54.13,2.33.13a3.56,3.56,0,0,0,3.15-5.16c-2,.71-3.46,2.39-5.53,2.87l-.15-.28Zm-85.79,179,3.29-.66c.38.63.72,1.12,1,1.65,1.24,2.7,2.46,5.41,3.69,8.11s2.38,5.34,3.67,8c3.11,6.31,6.31,12.58,9.42,18.89,2.41,4.88,4.73,9.81,7.11,14.71a3.27,3.27,0,0,0,.57.67,8.83,8.83,0,0,0-.27-2.56,11.58,11.58,0,0,1-.62-3,5,5,0,0,0-.79-2.75c-1.11-2.27-2.21-4.54-3.22-6.85-.78-1.77-1.34-3.63-2.13-5.39-1.14-2.57-2.42-5.09-3.6-7.65-.95-2.06-1.8-4.17-2.78-6.22-.64-1.33-1.48-2.57-2.17-3.88q-2.88-5.53-5.72-11.08l-.3.06.38-2.83-1.07-1.7H42.66l-.14,1.76-1.09.83-.12,0ZM70.92,366.38c-.75,0-1.49,0-2.23-.09-3.06-.29-6.12-.57-9.17-.9a7.83,7.83,0,0,1-1.6-.51c-6.35-.41-12.77-.28-19-2.21l-4,5.1,1.63,2.84c2,.42,4.08.14,6,.71-.18,1.05-.84.92-1.41.89l-3.7-.23a3,3,0,0,1,1.18,2.87,5.29,5.29,0,0,0,.91,3.94c1.41,2.33,3.22,4.08,6.14,4.32a2.43,2.43,0,0,0,.1-.5,56,56,0,0,1,.6-9.33c0-.49,0-1,.68-1.13.72.25.56.87.51,1.38-.1,1.13-.31,2.26-.38,3.4-.13,2.16-.19,4.32-.28,6.59h1.66c0-1.27.08-2.49.17-3.71s.2-2.47.36-3.7-.15-2.45.58-3.55c.7.13.71.59.69,1,0,1.19-.13,2.38-.21,3.56-.15,2.22-.32,4.43-.48,6.75,6,1,11.82.75,17.5,1.47a5.7,5.7,0,0,0,1.38-4.46c0-2-.1-4-.11-6a7.47,7.47,0,0,1,.25-1.44c.85,0,1,.42,1,.89,0,2.82.06,5.65,0,8.48a10.9,10.9,0,0,1-.6,2.34l8.91.61c1.43-4.11.41-8.55,1.55-12.71a9.45,9.45,0,0,1,4.19-.13,1.9,1.9,0,0,1,1.69,1.79c.08.59.09,1.19.14,1.78.27,3.28.88,6.58-.74,9.81a45.66,45.66,0,0,0,7.65.2V373.5c-.15-.13-.19-.18-.23-.19-.24-.05-.48-.12-.72-.15a31.56,31.56,0,0,1-8.9-2.25,32.59,32.59,0,0,0-5.06-1.76,61.78,61.78,0,0,0-16.2-1.87,38.1,38.1,0,0,0-12.57,2,12.08,12.08,0,0,1-1.34.38c.07-.34.21-.48.38-.54a33.13,33.13,0,0,1,10.29-2.17,68.35,68.35,0,0,1,11.44.29,51.68,51.68,0,0,1,10.72,2.34c1.77.65,3.52,1.34,5.3,2a30.88,30.88,0,0,0,6.92,1.26v-2c-.92-.61-2.12-.82-2.83-2l1.65-1.28H90.2a65.61,65.61,0,0,1-7.57-.36,40.61,40.61,0,0,0-9.47-.33,4.64,4.64,0,0,1-1.34,0,3.09,3.09,0,0,1-.94-.54l2.08-.67-2-.48ZM191.77,73.86a1.12,1.12,0,0,0,.39-.13c2.86-2.68,5.71-5.37,8.58-8a3.07,3.07,0,0,1,.76-.41,1.84,1.84,0,0,1-.56,1.1c-1.18,1.14-2.36,2.27-3.57,3.38s-2.7,2.34-4,3.61a10.56,10.56,0,0,0-1.6,2.29c-.34.6-.47,1.3-.75,1.93a111.68,111.68,0,0,0-4.71,11.57,21.28,21.28,0,0,0-.87,10,51.2,51.2,0,0,1,.28,12.61c0,.41-.14.81-.27,1.5a3,3,0,0,1-.37-1.82,47.74,47.74,0,0,0-.21-11.58,21.35,21.35,0,0,1,1-11.44c1.25-3.34,2.65-6.63,4-9.94a8.11,8.11,0,0,0,.45-1.25c.31-1.45.57-2.91.84-4.36.06-.29.1-.59.15-.89a11.52,11.52,0,0,0-1.74,2.78c-.38.81-.64,1.67-1,2.49a59.46,59.46,0,0,0-5.06,25.49c.05,3.57.14,7.15.23,10.72a9.45,9.45,0,0,0,.2,1.23c.65.08,1.22.2,1.81.23,1.83.11,3.68.08,5.49.3,1.57.19,3,.16,3.94-1.16,9.2.45,18.25.18,27.34-.09v-4.73a4.63,4.63,0,0,0-.8-6l.84-8.43c1.77-.6,5.87-.93,6.93-.58-.09.81-.23,1.64-.26,2.47-.18,3.81-.41,7.62-.44,11.44a52.34,52.34,0,0,0,.58,5.82H235a8.7,8.7,0,0,0-.09-1.16,29.2,29.2,0,0,1-.4-7.41c.13-3.52.19-7,.26-10.56a8.5,8.5,0,0,0-.13-1.18l-3.48-.31c-4.07-4.08-7.9-7.84-11-12.25s-6.06-9-9-13.25a3.87,3.87,0,0,1-.15-.51c0-.34,0-.69-.06-1.07a3,3,0,0,1,.33-.27,46.34,46.34,0,0,1,19.22-8.73,45,45,0,0,1,16.85-.39c7.45,1.41,19.62,7.85,25,12.28a59.54,59.54,0,0,1,8.21,8,32.87,32.87,0,0,1,5.43,8.5c2.44,6.13,3.16,12.57,3.2,19.11a2.36,2.36,0,0,1-.23.71l-.3,0c0-.41-.08-.82-.11-1.23-.32-3.45-.49-6.93-1-10.36a28.86,28.86,0,0,0-3.77-11.06A51.09,51.09,0,0,0,271.53,69.3a4.36,4.36,0,0,0-.71-.34l-7.6,7.11a41.83,41.83,0,0,1,7.67,15.65A38.9,38.9,0,0,1,272,108.94c-.07-3.87.18-7.75-.54-11.58A62.47,62.47,0,0,0,268.35,86a37.69,37.69,0,0,0-6-10l8-7.59c-.31-.24-.5-.4-.7-.54a79.58,79.58,0,0,0-15-8.12,36.49,36.49,0,0,0-13.15-3,52.58,52.58,0,0,0-15.56,2.24,45.15,45.15,0,0,0-14.24,7.47c.89,1.32,1.8,2.57,2.6,3.87a107.25,107.25,0,0,0,10.43,14.66c2.22,2.53,4.64,4.88,6.87,7.21h3c.24-2.1-.41-4-.66-5.87.49-.87,1.23-.88,2-.9l10.12-.26c1.23,0,2.46,0,3.71,0a5.7,5.7,0,0,1,1,3c.15,1.93.23,3.86.31,5.79.07,1.74.07,3.47.14,5.21s.2,3.36.23,5c0,1.83-.11,3.67,0,5.5.08,1.51.38,3,.58,4.5l.35.1c.2-.21.52-.4.57-.64a8.09,8.09,0,0,0,.15-1.77c-.09-4.57-.16-9.13-.33-13.69-.08-2.08-.31-4.15-.58-6.21-.25-1.82-.65-3.61-1-5.42-.09-.5-.33-1.07.46-1.44a2.9,2.9,0,0,1,.51.86,94.9,94.9,0,0,1,1.52,10c.33,5.64.29,11.31.41,17,0,.38.06.76.11,1.27L298.06,113l-.74-.83.95-.33c.17-1.07.42-2.09.48-3.12a90.43,90.43,0,0,0,.48-11.14,55.73,55.73,0,0,0-5.85-21.24,41.75,41.75,0,0,0-4.51-7.69A60.23,60.23,0,0,0,269.5,52.92a69.68,69.68,0,0,0-14.92-5.46,54.73,54.73,0,0,0-29.12.33,78.13,78.13,0,0,0-13.33,5.1,40.47,40.47,0,0,0-12.48,8.75c-1.85,2-3.53,4.16-5.37,6.17a11,11,0,0,0-2.48,6.08l0,.08ZM11.23,127c-2.17,0-3.4,1.45-2.74,3.37,1.3,3.75,2.56,7.52,4.08,11.17,2.87,6.89,4.77,14.1,7.12,21.15,1.6,4.8,2.8,9.72,4.43,14.51,1.77,5.21,3.72,10.37,5.77,15.47a248.09,248.09,0,0,1,10.39,30.09,12,12,0,0,0,.58,1.4h6.93l2.55-1.45c-.28-.68-.58-1.3-.81-1.94C44.71,207.23,39,194.09,33.34,180.9c-3.2-7.48-6.56-14.9-9.71-22.4-3.73-8.87-7.31-17.8-11-26.71-.55-1.36-1.42-2.62-1.15-4.21C11.53,127.42,11.35,127.23,11.23,127ZM72.32,364.51a27.66,27.66,0,0,0,6.45.95c5.16,0,10.32-.2,15.48-.24,6-.05,12.11,0,18.16-.06a34.87,34.87,0,0,0,4.46-.14,117.81,117.81,0,0,1,11.87-.74c4.71-.17,9.41-.4,14.11-.76,4.34-.34,8.67-.87,13-1.37,1.55-.17,3.08-.5,4.62-.76l.06-.32c-1.81-1.05-3.49-2.43-5.63-2.74-2.9-.4-5.81-.71-8.73-.9-3.51-.23-7-.33-10.55-.42-7.59-.18-15.16-.65-22.76-.6-3.27,0-6.54-.26-9.81-.19-4.71.1-9.42.43-14.12.61-5.16.2-10.32.35-15.47.54a11.08,11.08,0,0,0-1.14.14ZM5.9,134c1.73,5.56,3.55,11,5.12,16.54q4.29,15.1,8.32,30.26c1.42,5.32,2.71,10.66,4.55,15.86,1.58,4.44,3,8.93,4.33,13.44,1.5,4.93,2.82,9.92,4.3,14.86.71,2.37,1.63,4.68,2.39,7,1.12,3.44,2.14,6.92,3.28,10.35,1,3.1,2.17,6.17,3.25,9.26.91,2.57,1.77,5.16,2.71,7.72,1.06,2.88,2.45,5.67,3.23,8.63,1.24,4.66,3.57,8.92,4.63,13.65a69.18,69.18,0,0,0,2.15,6.63c.15.45.29.89.43,1.34a.76.76,0,0,0,.13-.61c-.72-2.73-1.46-5.46-2.19-8.19-1.27-4.74-2.91-9.38-3.47-14.29a9.3,9.3,0,0,0-.42-1.88c-1.25-3.82-2.5-7.64-3.79-11.44-2-5.82-4-11.62-6-17.45-.47-1.4-.71-2.88-1.12-4.31-.28-1-.68-2-1-3-.13-.38-.29-.78.32-1a2.49,2.49,0,0,0,2.21.57,13.64,13.64,0,0,0-.38-5.1c-2.06-5.79-4-11.62-6.17-17.39-2-5.24-4-10.47-6.24-15.6a32.33,32.33,0,0,1-2.45-6.48c-.14-.68-.19-1.38-.38-2-1.22-4.34-2.5-8.66-3.69-13-1.72-6.32-3.5-12.6-5.81-18.74-2.05-5.43-4.06-10.87-6.1-16.3-.17-.47-.42-.92-.74-1.59Zm137-93.23c.07-.89.14-1.38.14-1.87a42.57,42.57,0,0,0-.88-10.49c-1-3.86-1.94-7.68-4.47-10.9a16.51,16.51,0,0,1-.93-1.51,31.52,31.52,0,0,0-5.7-7.39c-.63-.56-1.22-1.17-1.79-1.78a9.67,9.67,0,0,0-6.13-3,2.1,2.1,0,0,0-1.86.69,3.49,3.49,0,0,0-.8,3.59q2,8.37,4.13,16.73c.36,1.44.88,2.83,1.32,4.23l1.72.3,1.67.26c.22-.13.35-.19.47-.28,1.66-1.21,2.95-1.08,4.24.49.49.61.89,1.3,1.4,2A3.34,3.34,0,0,1,138,33.08a2.93,2.93,0,0,1,.6,2.9,1.92,1.92,0,0,0,.48,1.47C140.18,38.53,141.43,39.49,142.92,40.73Zm-3,343.08a3.32,3.32,0,0,0,0-.58c-.45-2.33-.92-4.65-1.35-7-.08-.44-.29-1,.61-1.39.85,2.88.54,6,2,8.72l7.7-1.4c-.21-1.2-.34-2.23-.56-3.23q-.76-3.4-1.59-6.79a4.75,4.75,0,0,0-2.42-3.23c-3.16-1.71-6.45-3.12-10.13-2.88-3.2.22-6.39.68-9.58,1.05-.06,0-.11.14-.16.2l5.09,3.29a4.37,4.37,0,0,1,2.19,4.24,19.16,19.16,0,0,0,.24,4.28,22.79,22.79,0,0,0,1.45,5.41Zm22.55-20.64c-7.5,2-15.06,1.68-22.62,2.75,1.31.51,2.49.88,3.59,1.42,1.62.78,3.21,1.7,3.81,3.54s1.14,3.79,1.6,5.71c.4,1.72.66,3.48,1,5.25a55.94,55.94,0,0,0,10.92-1c.23-2.93-.45-5.53-1-8.15a26.38,26.38,0,0,1-.45-4,11.55,11.55,0,0,1,.41-2.31l1.73-1.34c.75,2,.62,4.16,1.7,6.19-.27-1.4-.5-2.59-.73-3.81l1.18-.48Zm-43.22,21.4c-.79-.54-.82-.54-.91-1.3-.15-1.43-.25-2.87-.4-4.3,0-.22-.24-.42-.37-.63a17.37,17.37,0,0,0-.27,3c-.06.92.5,1.93-.5,3a26.57,26.57,0,0,1-.56-5.73,30.4,30.4,0,0,0-1.09-5.76l-2.63.25c.23,4.39.45,8.62.68,13.06l8.23-1.14c-.36-2.32-.76-4.5-1.05-6.7s-.49-4.49-.75-6.94h4.15v-2.83l-1.19-1.08H95.84l-.91,2.62c.87-.37,1.54-.64,2.19-.93a5.22,5.22,0,0,1,2.63-.88c2.69.25,5.36.73,8.06.88a3.37,3.37,0,0,1,1,.38l2.51,1.07,1.08,1.73,5.55-.24c1,.43,1,1.42,1.08,2.27.21,3,.34,6,.48,9.06A5.21,5.21,0,0,1,119.25,384.57ZM58.9,339.18a1.79,1.79,0,0,0-.22.64q.24,10.77.52,21.53a9,9,0,0,0,.15,1.16l3.63.31c0-1.21,0-2.23,0-3.26-.11-3.32-.28-6.64-.38-10-.07-2.13-.08-4.26-.1-6.4q0-1.56,0-3.12c0-.48-.09-1,.6-1.27.7.25.63.88.64,1.46,0,1.59,0,3.18.08,4.76q.25,8.63.52,17.24a4.7,4.7,0,0,0,.13.63l.16,0-.46-25-2.67-.72ZM58.79,305c1.12,2.79,2.14,5.63,3.38,8.38,2.26,5,4.4,10.08,6.2,15.28a28,28,0,0,1,.72,3.32c.24,1.1.49,2.2.74,3.32.87,0,1.56,0,2.25,0s1.34-.08,2.28-.13c-2.84-7.83-5.6-15.41-8.36-23a6.82,6.82,0,0,1-3.76-1.86,4.6,4.6,0,0,1-.93-1.09,11.86,11.86,0,0,1-.57-1.68A3.6,3.6,0,0,0,58.79,305ZM193.25,67.84l-8.05-2.46a22.8,22.8,0,0,0-3.92,9.73L183.5,77a4,4,0,0,1,3.94,1.45c.8-2,1.53-3.78,2.28-5.65-2.13-.83-4.33-1-6.2-2.13,1.22-.36,2.21.42,3.31.62s2.3.48,3.43.72ZM57.54,358.3l-2.86.28c-2.9.29-5.82.23-8.7.93a30,30,0,0,0-6,2.21c2.32,1.56,15.48,2.37,17.83,1.73C56.79,361.89,57.26,360.22,57.54,358.3ZM194,67.1c1.45-1.68,3-3.42,4.47-5.21A4.31,4.31,0,0,0,199,60.7a7.15,7.15,0,0,0-6.2-1.24,8.58,8.58,0,0,0-4.37,2.34c-.85.93-2,1.59-2.63,3A33.89,33.89,0,0,0,194,67.1ZM173.6,70.17a5.23,5.23,0,0,0-1.6-4.12,2.59,2.59,0,0,0-3.09-.67,5.77,5.77,0,0,0-2.25,9.1c1.35,1.65,4.86,1.88,6.05-.59A8.14,8.14,0,0,0,173.6,70.17Zm-46.48,314.2h4.69a4.67,4.67,0,0,0-.19-.66,12.39,12.39,0,0,1-1.28-4.54,37.89,37.89,0,0,0-.5-4.41,5.65,5.65,0,0,0-2.74-4.19l-1.66,1.16c.15,1.57.39,3,.41,4.49A26.75,26.75,0,0,0,127.12,384.37ZM82.6,299.91a7.68,7.68,0,0,0-5.78,6.78c2.82,1.21,4.83,1.36,6.39.45.47-1.46,1-2.95,1.49-4.59Zm97-246.13c0-.15,0-.23,0-.24a5.91,5.91,0,0,0-.69-.19,25.11,25.11,0,0,0-7.24.19c-2.41.28-3.83,1.79-5.08,3.89l1.72-.5c1.69.67,2.94,2.26,5,2.33A15.9,15.9,0,0,1,179.6,53.78ZM67,339.54c-.51.33-.72.4-.72.48-.07,7.74-.12,15.48-.17,23.29l1.83.37C68.07,355.58,66.94,347.74,67,339.54ZM164.94,61.61l.71.37c1.41.69,2.81,1.4,4.23,2.05a3.43,3.43,0,0,0,1.13.08A5.48,5.48,0,0,1,172.47,60l-4.26-2.38C166.05,58.1,165.25,59.57,164.94,61.61ZM89,328.46a42.5,42.5,0,0,0-3-8.89c-1,.09-2-.43-3,.13l3.28,8.76ZM34.38,369.89l-.44,0c-1.57,3.39-1.89,7.1-2.75,10.89l4.39.72a25.41,25.41,0,0,1-.93-7.76C34.65,372.43,34.47,371.16,34.38,369.89Zm3.27-113.58a1.78,1.78,0,0,0-.22,2.14c.38,1.17.79,2.33,1.19,3.5.26.75.48,1.51.81,2.24q2.07,4.6,4.19,9.2c.64,1.37,1.32,2.71,2,4.17a1.79,1.79,0,0,0,.24-2.14c-1.07-2.39-2.24-4.75-3.28-7.16s-2-4.95-3-7.44A21.63,21.63,0,0,0,37.65,256.31Zm40.22,36.4c2.67-.17,4.35-.84,5-2.07-2.17.22-4.33.26-5.82,2.57l2.16.67,2.06,3.89h2.08a5.55,5.55,0,0,0-.18-1.23,4.73,4.73,0,0,0-.61-.92c.92-.86,2-.21,3.07-.62-.81-1.63-2.49-1.76-3.69-2.49C78.56,293.72,78.46,293.6,77.87,292.71Zm34.51,93.43a3.36,3.36,0,0,0,.12-.68c-.18-3.72-.35-7.43-.58-11.14a5.54,5.54,0,0,0-1.77-3.42c0,.55,0,.82,0,1.09.12,1.08.33,2.15.37,3.24.07,2,0,4.06,0,6.09,0,1.28-.23,2.57.41,3.8.13.25,0,.65,0,1a5.7,5.7,0,0,0,.58.06C111.76,386.21,112,386.17,112.38,386.14Zm29.73-326a7.12,7.12,0,0,0-7.92-.73c1.1,1.4,2.76,1.84,4.29,2.48,2.81,1.17,3.66,1.33,4.82,1l-1.19-.74ZM70,344l-.44-4.38H68.38c-.46,4.09.35,16.62,1.24,18.12a7.91,7.91,0,0,0,.31-1.56,27.58,27.58,0,0,0-.09-3.4c-.27-2.68-1-5.32-.5-8.34ZM42.21,227.09c2.15,0,4.06,0,6,0,.73,0,1.49.16,2.16-.51V225c-1.49-.73-3-.14-4.41-.19s-3,.09-4.74.15Zm107.07-171a2.2,2.2,0,0,0-.53-.22,3,3,0,0,1-2.49-2.23A19.31,19.31,0,0,0,144.45,50a22.17,22.17,0,0,0-2.67-3.14,2.38,2.38,0,0,0-2.26-.56c.59.65,1,1.17,1.5,1.64a14.09,14.09,0,0,1,3.42,5C145.29,55.23,147.09,56,149.28,56.06ZM51.45,247a5.24,5.24,0,0,0-4.07,1.74c.4-1.36,1-1.79,3.24-2.39l-.16-.85c-.74.22-1.42.36-2.06.61a16.24,16.24,0,0,0-1.71.88c.49-1.73,2.22-1.51,3.35-2.32-1.1-.52-3,0-4.35,1.12l1.67,3.72c.8-.45,1.49-.8,2.15-1.21S51.13,248.15,51.45,247Zm-28-120.19c1.18-1.72,1.51-3.33.62-5.05a19.23,19.23,0,0,0-1-1.64l-.58.49a14.45,14.45,0,0,1,.54,3.33,12.51,12.51,0,0,1-1,3ZM53,262.55c1-.57,1.72-1.07,2.52-1.43a22.74,22.74,0,0,1,2.37-.8c-.93-.76-1.77-.38-2.56-.09a22.55,22.55,0,0,0-2.37,1.16l-.16-.33c1.11-1.33,2.82-1.6,4.33-2.26-2.08-.47-3.53.59-5,1.79ZM137.27,55.09l-2.05.62.24.84-5.32,1.62,1.53,1.09,1.92-1.53a31.49,31.49,0,0,0,5-1.75Zm-63.87,257,2,.88.8-.61,2.52.36.2-.95-4.54-1.56ZM183,156l.4-1.5c-.32-1-1.2-.85-2-1l-1.36,1c-.18,1.57.15,2.52.85,2.49l.75-1a2.67,2.67,0,0,0,.57.18A4.57,4.57,0,0,0,183,156ZM90.45,368.91c1.83,1.78,3.21,1.68,4.48-.33C93.43,367.56,92,367.66,90.45,368.91ZM78.26,294.47l-.23.21c.07.22.13.44.2.65.34.93.7,1.85,1,2.79a2.37,2.37,0,0,1-.27,2.4,2.61,2.61,0,0,0-.23.61l2.84-2a3.26,3.26,0,0,1-1.65-2.2,7.16,7.16,0,0,0-.88-1.88C78.89,294.82,78.53,294.67,78.26,294.47ZM95,328.18l.72,2.08,3.16-.35C98.4,328,97.59,327.66,95,328.18Zm-35-24.3,1.21.05,1.16.06a7.36,7.36,0,0,0-1.54-3.35l-.4,1.62a7.92,7.92,0,0,1-1-.64,5.4,5.4,0,0,1-.65-.77l-.34.24ZM245.51,90.34a1.67,1.67,0,0,0-1.72-1.3c-.8,0-1.44.26-1.63,1.22a2.17,2.17,0,0,0,1.91,1.33C244.88,91.63,245.28,91.08,245.51,90.34ZM3.94,89.5c1.48.42,2.64.68,3.75,1.08,1.67.61,3.43,1.15,4,3.15a1.86,1.86,0,0,0,.48-.21,2.61,2.61,0,0,0,.34-.42C11.7,91.23,6.84,89.13,3.94,89.5Zm164.65-25-4.22-2.07-.74,1.4L167,65.37ZM49.33,97l1.43-.63-2.24-3.13c-1.3.67-.65,1.71-.7,2.64Zm2.38,162.64,4.67-2.1a3.12,3.12,0,0,0-3.38-.18A2.12,2.12,0,0,0,51.71,259.65ZM137.92,43.71l1.28-2-1.35-1.91c-.58,1.31-1.14,2.6-1.77,4.07ZM174.23,75c.59-1.3,1.15-2.55,1.71-3.77a2.35,2.35,0,0,0-.34-.41,1.32,1.32,0,0,0-.38-.13,14.66,14.66,0,0,0-2.54,4.91ZM75.71,302.88c-.45,1.25-.82,2.19-1.12,3.16a2.29,2.29,0,0,0,.08.88,1.72,1.72,0,0,0,1.57-1.19c.36-1,.7-2,1.08-3.14ZM186.56,78.59a2.36,2.36,0,0,0-3-.72c.46,1.16.81,2.3,2.36,2.6Zm-111,218.23c-.82-2-1.72-2.59-3.18-2.23l.44,1.81ZM48.9,241.9l-.14-.43c-1.68-.36-2.92.7-4.38,1.42l.59,1.05ZM73,300.11l1.5,1.23c1.23-1,1.52-2.08,1-3.06s-1.07-1.23-2.29-.83c.48.74,1.78.58,1.87,1.72C74.85,300.1,74.05,300,73,300.11ZM51,257.92a13.89,13.89,0,0,1,2.29-1.38,11.67,11.67,0,0,1,2.4-.35c0-1-.7-.94-1.28-.9A3.56,3.56,0,0,0,51,257.92Zm-.83-2c.78-1.87,2.33-2.38,4.07-2.77a2.83,2.83,0,0,0-3.5.32A1.75,1.75,0,0,0,50.2,255.88Zm68.71-219.3c.6-1.72.26-2.39-1.3-2.69-.75.44-.67,1.12-.41,1.78A1.41,1.41,0,0,0,118.91,36.58Zm-64,311.49a7,7,0,0,1,0-1.94,8.62,8.62,0,0,1,1.21-1.83,3.08,3.08,0,0,0-2.38,1.55C53.1,347,53.51,347.76,54.9,348.07Zm11.37-9.16a27.48,27.48,0,0,0,3.31-2.78l-.12-.32H67.87c-.34.54-.67,1-1,1.53S65.8,338,66.27,338.91Zm76.4-276.68A8.12,8.12,0,0,0,144,58.17c-.06-.26-.37-.47-.69-.86A10.79,10.79,0,0,0,142.67,62.23ZM53.52,251.8c-1.76-.87-3.93-.17-4.5,1.33-.09.22.09.54.22,1.13A5.15,5.15,0,0,1,53.52,251.8Zm5.92,12a4.53,4.53,0,0,0-4.52,1.26c-.34.31-.71.59-.21,1.1a17.91,17.91,0,0,1,2.17-1.46A20.42,20.42,0,0,1,59.44,263.83ZM43.68,241.06c.79-.49,1.38-.93,2-1.25a22.37,22.37,0,0,1,2.16-.8l-1.26-.62C44.11,239.44,43.58,239.89,43.68,241.06Zm5.67-148.5a3.17,3.17,0,0,0,1.89,2.64C51.62,93.19,51.11,92.42,49.35,92.56Zm3.59,157.88a2.7,2.7,0,0,0-3-.17c-.7.36-1.48.75-1.33,1.89a13.4,13.4,0,0,1,2-1.17A16,16,0,0,1,52.94,250.44ZM176.09,68.35c-.85-1.14-1.28-2.23-2.63-2.51-.23,1.15.65,1.85.87,2.76,0,.06.16.09.41.22l.4-.76ZM69.28,363.82l.45.13a3.59,3.59,0,0,0,.69-3c0-.06-.14-.11-.28-.21l-.86.54Zm7.31-32.3c-.89.57-1.89,0-2.79.85h4l-.67-1.86-1,.41ZM122.11,61.71l.12.35,5.49-1.93-.11-.34A15.62,15.62,0,0,0,122.11,61.71ZM48.19,240a4.85,4.85,0,0,0-4.12,2.12l4.35-1.65Zm2.39,16.61c1.1-1.42,2.71-1.79,4.39-2.13C53.76,253.33,52.08,254.14,50.58,256.56Zm1.55-7.36c-.18-.34-.21-.5-.31-.58a.59.59,0,0,0-.39-.16,5.5,5.5,0,0,0-3.53,1.66c-.09.1,0,.39.06.81A5.08,5.08,0,0,1,52.13,249.2ZM119.27,33.61l.61,2.92h1.27l-.89-2.39ZM101.58,372.87c1.19,0,2-.16,2.38-1.23a2.08,2.08,0,0,0-2.28,0ZM42.93,239.05l.27.44c.61-.37,1.22-.76,1.85-1.1s1.21-.59,1.82-.88C45.13,237.16,44.07,238.2,42.93,239.05Zm6.78,4.27c-1.1-.67-2.08-.33-4.18,1.4Zm23.21,86c.92,1,2,1.1,3.55.43C75.37,329.06,74.26,329.33,72.92,329.32ZM46.51,236.18l-2,.09c-.63.65-1.63.85-2,2Zm-4.49.56.31.31a12.91,12.91,0,0,1,1.56-1.1,13.77,13.77,0,0,1,1.84-.64l0-.18H43.89ZM53,231.61l2.88-1.06C54.91,229.6,54.43,229.77,53,231.61Zm3.71,83.44c-1.19,1.3-1.19,1.6-.14,3Zm13.1,5.68,1-.37c-.54-.81-1-1.56-2-1.75Zm3-19.63c.43.88.49,2,1.78,2.29C74.39,302.1,74.35,302.05,72.75,301.1ZM126.06,37c-.79-1.06-.82-1.06-3.63,0ZM51.28,229.29l-.09-.3a8.77,8.77,0,0,0-2.37.4l.84,1ZM19.71,120.19c-.53,1.57.36,2.33.85,3.23l.37-.14Zm38,224.51a2.49,2.49,0,0,0-1.41,2.13l1.41-.36ZM142.18,58.61l.44-2c-1.09.22-1.09.22-1.42,1.23Zm-1-16.48-1.28,1.36,2.66-.37,0-.35ZM124.86,368.77V371c.6-.54,1-.85,1.46-1.29ZM203.22,115l.07.12h4.76V115ZM51.11,228.29c-.82-1-.92-.94-2.07.19ZM220.53,114.9v-.07H216v.07ZM131.43,61c-1.23-.61-1.66-.7-2.21-.45-.14.06-.18.35-.36.73ZM67.23,312.17l-.27.17.59,1.55,1-.77ZM63,307.59c-.81-.25-1.15.22-1.63.58l.41.88ZM140.27,44.25c.78.06,1.54.55,2.6.18C141.86,43.63,141.06,44.11,140.27,44.25Zm4,16.07.25.1,1-1.21-1-.49Zm79.44,54.44v.07h3.07v-.07Zm-154,201.67-.92.64,1.07,1.05.27-.18Zm-8.57,18c0-1.43,0-1.43-1-1.59ZM41.49,235,43,233.68A1.4,1.4,0,0,0,41.49,235Zm18,99.8c.44,1.18.47,1.19,1.28.34ZM182.27,93.61l0-.32-1.11.09v.23ZM61.11,267.51l0-.39-1.5.4,0,.2ZM48.56,98.37l1.08-.28,0-.27-1-.17Zm93.07-48.3L141.19,49l-.25.24Zm2.75,11.53-.41-.2-.28.67.28.16ZM47.26,96.39l-.2.3.66.38.11-.17Zm-2.94,136.8.06.2.52-.13-.07-.24ZM52.45,93.46l.2-.24L52.28,93l-.12.15Zm72.24,287.76h-.06l0,.34h.06ZM76,334.89V335h.35v-.13Zm14.32.33Zm34.54,47.13,0,.12,0-.12Zm-3.3-10-.12,0,.15.06Z"/><path class="cls-1" d="M0,120.94c.23.22.56.41.67.68.79,1.9,1.56,3.81,2.29,5.73a6.22,6.22,0,0,1,.11,1.51c-.71-.35-1.22-.61-1.74-.84s-.89-.36-1.33-.53V126l.57-.49-.57-.7Z"/><path class="cls-1" d="M124.54,39.72l1.43,2L34.76,93l-5.07.27C30.53,92.39,121.06,41.3,124.54,39.72Z"/><path class="cls-1" d="M76.82,318.39c.39,2.12,2.12,3.4,3.2,5.09.91,1.41,2.06,2.67,3.07,4a6,6,0,0,1,1.46,4.82,3.2,3.2,0,0,1-1.17,2.21l-4.52.41a12.78,12.78,0,0,0,.73-2.19,3.2,3.2,0,0,0-.22-1.84,31.15,31.15,0,0,0-2.27-3.64c-.89-1.25-1.92-2.4-2.85-3.63a10.14,10.14,0,0,1-1.44-9.26c1.39,1.42,3,2.45,4.06,4.06Zm5.43,10.36h-.07l.11,0c-.31.46-.63.91-.92,1.32l-1.88-.87,1.09,2.9c1.1-.1,2.07.36,3-.09A3,3,0,0,0,82.25,328.75Zm-7-11,.11-.37-2.34-2v2.66Z"/><path class="cls-1" d="M114.49,38.26q-46.15,26-92.33,51.9c-.07,0-.24-.07-.7-.21l92.8-52Z"/><path class="cls-1" d="M159.64,70l-1.46-.29,0,0,1.46.3Z"/><path class="cls-1" d="M7.16,112l-.59-.9,0,0,.6.9Z"/><path class="cls-1" d="M8.05,113.18l-.58-.9,0,0,.59.89Z"/><path class="cls-1" d="M232.37,116.81l-.35-.24.28-.37c.09.08.23.16.24.25S232.45,116.66,232.37,116.81Z"/><path class="cls-1" d="M9.55,115.25l-.6-.87,0,0,.6.89Z"/><path class="cls-1" d="M154.27,68.5l-1.16-.3,0,0,1.16.3Z"/><path class="cls-1" d="M10.15,116.15l-.6-.9,0,0,.6.9Z"/><path class="cls-1" d="M145.92,65.53l-.58-.9,0,0,.58.9Z"/><path class="cls-1" d="M161.69,70.61l-1.15-.32,0,0,1.14.32Z"/><path class="cls-1" d="M152.2,67.92l.87.32,0,0-.88-.32Z"/><path class="cls-1" d="M148.64,66.71l.82.35,0,0-.81-.35Z"/><path class="cls-1" d="M148.68,66.67l-.9-.3,0,0,.89.3Z"/><path class="cls-1" d="M161.65,70.65l.95.28,0,0-.95-.28Z"/><path class="cls-1" d="M147.78,66.37l-.95-.23,0,0,.95.23Z"/><path class="cls-1" d="M152.23,67.88l-.88-.3,0,0,.89.3Z"/><path class="cls-1" d="M150.45,67.28l.86.34,0,0-.86-.33Z"/><path class="cls-1" d="M160.54,70.29l-.9-.31,0,0,.91.3Z"/><path class="cls-1" d="M155.14,68.81l-.87-.31,0,0,.88.31Z"/><path class="cls-1" d="M158.18,69.69l-.71,0,.05-.16.62.24Z"/><path class="cls-1" d="M156.07,69.12l.64.09-.06.16-.55-.29Z"/><path class="cls-1" d="M156.1,69.08l-1-.27,0,0,1,.27Z"/><path class="cls-1" d="M150.49,67.25l-1-.23,0,0,1,.22Z"/><path class="cls-1" d="M146.17,65.91l.63.27,0,0-.62-.27Z"/><path class="cls-1" d="M9,114.38l-.28-.61-.05,0,.29.6Z"/><path class="cls-1" d="M146.21,65.87l-.29-.34,0,0,.29.34Z"/><path class="cls-1" d="M8.67,113.77l-.31-.29,0,0,.3.29Z"/><path class="cls-1" d="M8.36,113.48l-.31-.3,0,0,.3.3Z"/><path class="cls-1" d="M7.47,112.28l-.31-.3,0,0,.3.3Z"/><path class="cls-1" d="M266.77,112.62c-1.88.15-3.52,1.18-5.5.83l-.55-1.37-1.84-.1a10,10,0,0,1-.39-1.41q-.39-3.48-.73-6.95a17.88,17.88,0,0,1-.06-1.94,6.29,6.29,0,0,0-.64-3.14,15.66,15.66,0,0,1-.88-2.82l-1.27-1c1.26-2.43,3.39-1.39,5.29-1.42-.15-1.52-1.06-2.84-1.12-4.37,1.36-.44,2.49.07,3.63.26.58.1,1.13.38,1.71.52a3.42,3.42,0,0,1,2.66,3.05,16.16,16.16,0,0,1,.22,3.4c-.18,3.67-.44,7.33-.65,11,0,.63.1,1.28.11,1.92C266.78,110.22,266.77,111.35,266.77,112.62Zm-5.17-4.05c-.16-2.53-.31-4.8-.46-7.21-1.79,1.55-2.07,4.09-.85,6.88Z"/><path class="cls-1" d="M200.94,85.09a18.72,18.72,0,0,1,2.08.66c1.82.79,3.62,1.63,5.41,2.46a10.71,10.71,0,0,1,4.53,4A21.77,21.77,0,0,1,215,95.94c-.21-.12-.5-.19-.63-.37-.56-.81-1.11-1.64-1.62-2.49a10.65,10.65,0,0,0-5-4.46c-1.54-.68-3.06-1.42-4.6-2.1-.61-.27-1.27-.46-2.11-.75l-2.32,6.67C198.38,91.12,199.64,87.05,200.94,85.09Z"/><path class="cls-1" d="M233.17,81.36a2.11,2.11,0,0,1-2.29-2.64A3,3,0,0,1,234,76.31a1.57,1.57,0,0,1,1.66,1.83,3.93,3.93,0,0,1-1.39,2.71A3.34,3.34,0,0,1,233.17,81.36Zm1.75-3.86c-1-.76-1.44-1-1.95-.5a6,6,0,0,0-1.36,1.7,1.28,1.28,0,0,0,.55,1.78,1.43,1.43,0,0,0,1.87-.32A2.94,2.94,0,0,0,234.92,77.5Z"/><path class="cls-1" d="M197.07,99a63.75,63.75,0,0,1-.44,13.2,3.33,3.33,0,0,1-.22-.85c0-3.62,0-7.24.07-10.86a7.76,7.76,0,0,1,.13-1.17C196.62,99.22,196.76,99.17,197.07,99Z"/><path class="cls-1" d="M195,111.63c-.17-.29-.31-.41-.31-.53,0-3.24.1-6.49.16-9.73,0-.06.13-.11.21-.17C195.84,102.56,195.83,108.38,195,111.63Z"/><path class="cls-1" d="M264.41,84.63a1.13,1.13,0,0,1,1.63-.51,1.82,1.82,0,0,1,1,2.17c-1,1-1.77,1.15-2.55.54s-.75-1.33-.09-2.24l.13,1.84c1,.33,1.67.43,2.27-.67l-1.08-1.39Z"/><path class="cls-1" d="M136.13,369.25c1.05-.54,2.18-.08,3,1.13l-1.25,1.12C137.31,370.77,136.76,370.06,136.13,369.25Z"/><path class="cls-1" d="M168.58,71.84l2.27.24L172,70.42a3,3,0,0,1-2,3.17,1.91,1.91,0,0,1-2-.65,4.73,4.73,0,0,1,.35-6c.26-.25.26-.25,1.24-.26C168.36,68.17,167.31,69.65,168.58,71.84Z"/><path class="cls-1" d="M73.84,286.54v-1l.32.9,0,0Z"/><path class="cls-1" d="M73.58,285h-.34l.12-.3Z"/><path class="cls-1" d="M73.54,285.64V285l.33.64Z"/><path class="cls-1" d="M74.16,286.49l0,.1c0,.08,0,0,0-.14Z"/><path class="cls-1" d="M14.32,123.31l-.94.32Z"/></svg>