<svg id="LandingPage" xmlns="http://www.w3.org/2000/svg" viewBox="0 0 364.77 73"><title>Artboard 11</title><g id="Services"><g id="Illustrations_0001_Layer-5.psd"><path d="M11.78,73c-.89-.37-1.76-.83-2.68-1.11C2.32,69.83-2.12,62,1,55.78c1.41-2.76,5.35-5.3,8.52-5.91,18-3.4,36.14-6.21,54.24-9.19q78.68-13,157.37-25.89C250.55,10,279.85,4.51,309.36.58c11.46-1.52,23.37.37,35.08.77,2.18.08,4.36.47,7.46.81l-15,10.61.51,1.5,26.94-3.49c.12.72.25,1.44.38,2.15a28.69,28.69,0,0,1-4.33,1.47q-35.31,6.07-70.63,12.06L119.65,55.38Q70.88,63.68,22.13,72a24.27,24.27,0,0,0-3.27,1ZM326.85,18.36,346.14,4.07,345.76,3l-17.71-1.8C327.65,6.88,327.3,11.92,326.85,18.36Z"/></g></g></svg>