<svg id="LandingPage" xmlns="http://www.w3.org/2000/svg" viewBox="0 0 391.55 415"><defs><style>.cls-1{fill:#03d8db;}</style></defs><title>Artboard 12</title><path class="cls-1" d="M341.94,20.72c-.46-2.35-.92-4.71-1.4-7.07-.1-.45-.43-.92-.35-1.33.12-.61.39-1.5.81-1.65s1.25.31,1.71.71a3.42,3.42,0,0,1,.69,1.46c.89,2.73,1.76,5.46,2.63,8.19.16.48.33,1,.55,1.62.65-1.64.65-1.64.16-2.92a32.86,32.86,0,0,1-1.24-3.25,7.31,7.31,0,0,1,2.63-7.93,2.15,2.15,0,0,1,2-.29c.93.65.4,1.54-.28,2.15-2.43,2.19-2.3,4.73-1.07,7.44.16.35.32.71.47,1.07,1.42,3.62.51,5.77-2.8,7.09,1.47,3.49,3,7,4.39,10.48A24.62,24.62,0,0,1,352.07,41c.67,3.48.12,4.4-2.93,5.49l3.21,4.39a3.88,3.88,0,0,1,4.14-1.19A5.44,5.44,0,0,1,360,52.56c.83,1.61,2.31,1.92,4,2.25.39-1,.76-2,1.18-3-2-1.93-4.47-2.75-7-3.44a5.48,5.48,0,0,1-4-2.94,7.71,7.71,0,0,1-.94-3.06,54.71,54.71,0,0,1,.47-7.89,12,12,0,0,1,5.41-8.63,11.72,11.72,0,0,0,3.7-4.54c-1-.21-1.79-.35-2.61-.58-1.1-.31-2.11-.82-1.92-2.21.17-1.24,1.12-1.56,2.23-1.57.31,0,.61,0,.92-.06.12-1,.25-2,.37-2.93-2.17-1.23-4.35-2.4-6.45-3.71a12.34,12.34,0,0,1-2.87-2.36,2.81,2.81,0,0,1-.53-2.23c.1-.37,1.27-.47,2-.65a1.93,1.93,0,0,1,.66.1c2-1.72,2-1.72,4.29,1.52,1-.89,2.07-1.21,3.15-.06.84.88,1.76,1.67,3,2.84.31-1.25.51-2,.71-2.81.34-1.35.59-2.74,1.05-4,.32-.9,1-1.72,2.14-1.26s.87,1.35.62,2.21c-.18.6-.37,1.19-.56,1.78a5.62,5.62,0,0,0,1.63,6.2c.54,0,1.07-.09,1.6-.11,1,0,1.93.23,2,1.41a1.88,1.88,0,0,1-1.6,2,23.57,23.57,0,0,0-2.47.54,37.79,37.79,0,0,1,13.11,13,2.17,2.17,0,0,0,.42-2.83c-1.7-3.3-.76-6.14,1.4-8.83,1-1.27,1.95-2.6,2.92-3.91.62-.84,1.24-1.71,2.46-1.07a1.78,1.78,0,0,1,.25,2.84,9.82,9.82,0,0,0-2,5.11c-.57,3.12-1.71,6.1-1.59,9.38.05,1.16-1,2.35-1.76,3.89.43.79,1,1.84,1.35,2.48l4.7.39v5.77l-2.74,1.37c.88,3.37,2.85,6.07,2.81,9.42l-1.46,1c0,3.46.12,6.72-.06,10A12,12,0,0,1,388.63,67c-.67,1.62-1.35,3.07.4,4.6,1.14,1,.83,1.92-.65,3.57.61,2.64,4.09,5,.65,8.18l2.29,1.78V87c-1.64.86-2.8-.52-4.16-.83s-2.82-.75-4.4-1.17a9.73,9.73,0,0,1-7.37,4.79c1.35,1.2,2.46,2.05,3.39,3.06s1.64,2.2,2.55,3.44c1.2-1.24,2.44-2.5,4.4-1.83a13.5,13.5,0,0,1,1.62-2.16,2.37,2.37,0,0,1,1.76-.69,2,2,0,0,1,1.2,1.47,37.33,37.33,0,0,1-.64,6c-.19,1-1.15,1.24-2.07.77a9.83,9.83,0,0,1-1.4-1,4.74,4.74,0,0,0-4.42,1.66c-.75.86-2.29,1-3.68,1.6v1.23a17.63,17.63,0,0,1,13.28,3.25v3.87c-.71.07-1.38.18-2,.19s-1.55-.12-2.33-.13c-3.79-.06-5.28,2.15-3.77,5.6.34.78.82,1.51,1.14,2.3s.45,1.48.77,2.58c.44-.73,1-1.26,1-1.81.11-2,1.68-3.21,2.61-4.74.24-.39.94-.86,1.24-.75a1.9,1.9,0,0,1,1.15,1.22,4.41,4.41,0,0,1-.35,2.22c-.47,1.19-1.15,2.31-1.67,3.49-.77,1.74-1.64,3.35-3.62,4a4.38,4.38,0,0,0,.85,3.92c1.14,1.76,1.15,2.71.23,3.27s-2.36,0-3.35-1.61l-.46-.73c-1.52,1.49-3.46,1.53-5.38,1.67s-1.8.16-2.43,1.61l7.26,5.83c1.67-1.24,3.45-2.43,5.05-3.81a17.49,17.49,0,0,0,2.27-2.83,8.82,8.82,0,0,1,1.56-1.82c.33,4.57.58,9-.34,13.47a27.24,27.24,0,0,0-.63,3.19,7.73,7.73,0,0,0,.28,2.48,15.66,15.66,0,0,1,.68,6.9,5.81,5.81,0,0,1-5.46,5.16c-1.45.14-2.92,0-4.49,0-1,2-.82,3.12,1,4.57s3,1.35,4.72-.21a8.39,8.39,0,0,1,1.45-1.16c1.63-.88,2.92-.13,3.07,1.72.21,2.82-.18,3.51-2.8,4.65-1,.42-2,.71-3.06,1.08,3.65,3.59,3.53,5.4-.44,8.46l-.75.56c-2.61,2.09-3,4.78-.81,7.29a32.6,32.6,0,0,0,5.31,4.86c1.9,1.36,2.91,2.85,2.58,5.24a36.52,36.52,0,0,0,0,4.51c-3.06-1.79-5-4.13-7.31-6.4l-5.12,9c4.29,1.71,8.1,3.43,12.23-.31v10.18c-1.41,1.44-3.51,1.77-5.53,2.22s-4,.7-5.66,1.85V220l11.24.74v3.62c-2.27,1.57-4.55,3.17-6.85,4.74a5.38,5.38,0,0,1-2,1.09,3.1,3.1,0,0,1-2.3-.49,2.37,2.37,0,0,1-.2-2.11,34.87,34.87,0,0,1,2.06-3.92l-9.06,2c-.61,1.53-1.38,3.44-2.11,5.37-.4,1.07-.47,2.37-2.44,2.57a50.19,50.19,0,0,1-7.71-13.18c-2.38-.73-2.83-1.16-2.94-3.83-.08-2-.5-3.51-2.54-4.48-1-.48-1.69-1.78-2.32-2.84-1.86-3.14-2.67-4-6.26-6-3.83,4.61-7.88,9.09-13.69,11.71.14,1.47.27,2.84.41,4.22a16.58,16.58,0,0,1,.25,1.84c0,2.18-1.49,3.07-3.2,1.72a75,75,0,0,1-5.57-5.28c-.56-.54-1.05-1.14-1.68-1.84-.63.58-1.22,1.05-1.73,1.59a22.77,22.77,0,0,1-10.4,6,5.23,5.23,0,0,1-.68.18c-1.21.17-2.59.65-3.44-.61s.2-2.38,1-3.24a17.47,17.47,0,0,0,4.24-8.68c.32-1.43.69-2.85,1.11-4.55h-3.38c-1.26-2.31-3.19-2.46-5.57-1.38.4,1.38.84,2.69,1.17,4,.61,2.46.25,2.94-2.51,3.28-.22,1.53-.47,3.13-.68,4.73-.16,1.23-.17,2.49-.41,3.71-.36,1.91-1.93,2.42-3.47,1.21-3.73-2.92-5.35-10.91-3.05-15.05a8.88,8.88,0,0,1,4.22-3.52,13.63,13.63,0,0,0,2.82-1.89,4,4,0,0,1,4.33-.81c.78.28,1.55.6,2.54,1,.62-1.8,1.15-3.38,1.77-5.2a25.4,25.4,0,0,0-9.75,4c-1,.69-2.05,1.42-3.1,2.08-.83.52-1.74.84-2.57.05s-.33-1.52.09-2.31c.27-.51.58-1.43.35-1.69-1.21-1.32-2.59-2.49-3.93-3.69,0,0-.26.13-.53.27,0,.38.06.82.13,1.25.44,2.38-.41,3.57-2.7,4.33a5.46,5.46,0,0,0-2.52,1.81,5.32,5.32,0,0,1-5.18,2.41c-2.5-.21-3.42.5-4.4,2.88-.41,1-.74,2.05-1.18,3s-1.2,1.9-2.5,1.66-1.43-1.28-1.51-2.34c-.08-1.23-.14-2.46-.23-3.93a12.33,12.33,0,0,0-1.58.51c-2.37,1.16-4.73,2.36-7.1,3.52a5,5,0,0,1-1.73.65,2.59,2.59,0,0,1-1.86-.5,2.23,2.23,0,0,1-.12-1.9,26.32,26.32,0,0,1,1.74-3.11c-2-2.43-4.86-4.6-2.53-8.29l-6.73-3.26c-.54.74-1.32,1.85-2.15,2.92-1.89,2.44-3.84,2.67-6.18.77-1.48-1.21-1.38-2.81.28-3.8a8.68,8.68,0,0,1,1.5-.64,2.89,2.89,0,0,0,2.16-2.71,4.6,4.6,0,0,1,2.27-3.95c-.83-1-1.61-1.8-2.33-2.7a1.56,1.56,0,0,1,0-2.3c.72-.69,1.43-.29,2.11.15l2.27,1.5c.55-1,.95-1.94,1.47-2.77.66-1.07,1.39-2.21,2.88-2s1.76,1.51,2.1,2.77c1.06,3.89,2.16,7.78,3.34,11.63.64,2.07.95,2.16,3,1.9a12.12,12.12,0,0,1,2.32-.2c3.36.23,5.34-1.83,7.53-4.51a17.77,17.77,0,0,1-3.06,0,21.69,21.69,0,0,1-4.44-1.26,3.64,3.64,0,0,1-2.27-3.75,62.36,62.36,0,0,1,.53-6.27c.52-3.14,3.33-4.32,6-2.47,2.09,1.48,4,3.16,6,4.84a6.68,6.68,0,0,0,5.6,1.67c.93-.14,1.86-.21,2.79-.3,1.28-.12,1.28-.12,2.53-1.71a10.66,10.66,0,0,1-1.4-1.13,3.66,3.66,0,0,1-.38-4.74c2.3-3,4-6.51,7.56-8.73-4.77-1.48-9.1-.82-13.42,1-2.58,1.06-5.26,1.85-7.92,2.71a4.15,4.15,0,0,1-1.61.14c-1.49-.12-2.28-1.4-1.25-2.39,3.68-3.53,3.24-8.62,5.33-12.71a3.24,3.24,0,0,0-3.6-1.27c-4.88,1-9.75.38-14.63-.06-1-.09-2-.35-1.94-1.57s.94-1.33,1.82-1.44a11.36,11.36,0,0,0,6.91-3.2c-.71-.11-1.17-.21-1.64-.25-1.47-.15-2.94-.23-4.4-.46-.57-.09-1.48-.38-1.59-.76a7.5,7.5,0,0,0-2.39-3.26c-.85-.81-.55-1.9.6-2.47a24.63,24.63,0,0,1,3-1c.2-.59.38-1.27.65-1.9.68-1.57,1.93-1.85,3.1-.65,1.45,1.51,2.82,3.09,4.35,4.77,1.46-.78,2.55,0,3.55,1.1a1.57,1.57,0,0,0,2.45.36,12.89,12.89,0,0,0-.32-2.27c-.58-1.85-1.27-3.67-1.92-5.5-.29-.84-.6-1.82.41-2.24a2.51,2.51,0,0,1,2.09.32,50.51,50.51,0,0,1,6.16,5.31,12.86,12.86,0,0,1,2.09,4.32c.61,1.66.89,3.47,2.6,4.57,1.18-.77.69-1.81.51-2.73-.47-2.52-1.06-5-1.49-7.54a12.23,12.23,0,0,1-.12-3.47c.22-1.82,1.62-2.47,3-1.27a41.51,41.51,0,0,1,4.35,4.81,21.29,21.29,0,0,1,1.61,2.61l3.88.87v-.08l5,.8c.47-1,1.07-2.31,1.73-3.76l-3.23-3.58a16.36,16.36,0,0,1-3-.05,2.21,2.21,0,0,1-1.48-1.22,2.48,2.48,0,0,1,.67-1.8,14.59,14.59,0,0,1,2.05-1.74c-.72-.69-1.29-1.19-1.81-1.74a9.16,9.16,0,0,1-1.48-1.77c-.56-1-1-2.36,0-3.23.6-.52,1.76-.4,3-.63a1.86,1.86,0,0,1,.26-.57c1-1.57,2.26-1.63,3.24,0s2,3.51,2.84,5.31a16.06,16.06,0,0,0,4.59,6.09c.2-.65.35-1.12.48-1.6a14.42,14.42,0,0,1,6-8.63,12,12,0,0,1,3.12-.92c.62-1.3,2.24-2,4-2.47,2.76-.72,5.52-1.42,8.62-2.21-1.78-2.38-3.42-4.59-5.3-7.12l-3.3-.34c-.9-.1-1.78-.36-1.73-1.47s1-1.31,1.85-1.37,1.52,0,2.29,0c-.31-3.69-2.39-5.93-6.23-6.5a7.2,7.2,0,0,1-5.38-3.64,6,6,0,0,1-.11-5.81,1.88,1.88,0,0,1,2.89-1A7.81,7.81,0,0,1,315,90.58a57.81,57.81,0,0,1,4.25,4.33,9.66,9.66,0,0,0,7.18,3.65c.2-.68.4-1.39.6-2.08l-1.64-1.72L328,91.53c-2.43-2.51-4.9-5.14-7.47-7.65a27.72,27.72,0,0,0-3.18-2.34,9.57,9.57,0,0,1-1.85-1.4,3.53,3.53,0,0,1-1-2.14c.05-.49,1-1.13,1.67-1.3a76.71,76.71,0,0,1,8.18-1.85,15.42,15.42,0,0,1,4.83.23c2.27.4,4.51,1,6.76,1.6,1,.26,2.07.58,3.2.9l1.16-2.64c-1.25.16-2.28.34-3.32.42-1.82.12-2.23-.27-2.41-2.13a2,2,0,0,0-.21-.84c-.77-1.23-1.57-2.43-2.47-3.8l-1.78,1.19c-.45-.09-.91-.15-1.35-.27-2.05-.54-3.9-1.29-6.26-.76-1.75.39-4-.55-5.76-1.35A48.23,48.23,0,0,1,311,63.91c-.83-.51-1.74-1.2-1.3-2.2a3.33,3.33,0,0,1,2-1.67,14.85,14.85,0,0,1,9.81.69c.76.32,1.53.61,2.55,1a7.34,7.34,0,0,0-2.87-3.9c-1.34-1.05-2.73-2.06-4-3.21-.92-.84-1.82-1.84-1-3.24.68-1.1,2.18-1.29,3.77-.42,2.95,1.62,5.33,3.75,6.44,7.07.47,1.44,1.13,2.82,1.78,4.42,1.16-1.57,1.89-3.07,3.07-4a19.91,19.91,0,0,1,4.33-2c-.16-2-.31-3.84-.51-6.33-1.65-2.14-2.65-5.66-6-7.82a2.28,2.28,0,0,0,1.46,2.38c.49.23,1.1,1.22.95,1.55a2.81,2.81,0,0,1-1.64,1.28c-1.16.36-2.4.44-3.6.7-.85.18-1.73.47-2.31-.44a1.61,1.61,0,0,1,.54-2.27c1.45-1.07,1.67-2.51,1.55-4.14a5.86,5.86,0,0,1,.06-1.62,1.93,1.93,0,0,1,3-1.41A28.94,28.94,0,0,1,333.44,41a8.52,8.52,0,0,1,2,2.77c.66,1.25,1.26,2.49,2.83,3.11,1.45-2.06,2.7-4.36,5.59-5.2l1.31,2,3.93-.17c.7-2.83-1.6-10.3-4.33-14-3.09,2.19-6.39,3.37-10.08.59a2.8,2.8,0,0,1-.17.94c-.36.52-.72,1.23-1.23,1.38s-1.16-.44-1.42-.9a41.41,41.41,0,0,1-2.59-5.21c-1-2.63-3.25-3.43-5.6-4.06a1.73,1.73,0,0,0-2.3,1.66c-.14,1.06-.38,2.28-1.57,2.23a4.62,4.62,0,0,1-3.49-6.95c.26-.44.92-.65,1.39-1a5.79,5.79,0,0,1,.93,1.62,12.13,12.13,0,0,1-.17,2.7c.74-.83,1.12-1.28,1.54-1.71s.78-.72,1.21-1.12a15.35,15.35,0,0,1-1.09-1.82c-.35-.81-.55-1.84.44-2.22.51-.19,1.35.31,2,.64.37.2.59.69,1,1.16,1.65-.87,2.73,0,3.87,1.08A30.6,30.6,0,0,0,330.64,21c3.07-1.05,3.69-.64,4.34,2.52a16.87,16.87,0,0,0,1,3.34c1,2.28,2.77,2.8,5,1.56a16,16,0,0,0,1.54-1.11c-2.4-3.45-4.69-6.87-8.36-9.2a36.76,36.76,0,0,0-13.28-4.79c-2.76-.5-5.54-.91-8.23-1.64-3.77-1-6.56-3.25-7.3-7.32a7.21,7.21,0,0,1,.24-3.19A2,2,0,0,1,307,0c.94,0,1.25.83,1.12,1.68A4.34,4.34,0,0,0,309.55,6c.23-.82.42-1.47.6-2.13.25-.94.57-1.92,1.77-1.78s1.1,1.1,1.21,2c.31,2.3.77,2.73,3.21,3,.5-1,1-2,1.61-2.95A10.24,10.24,0,0,1,320,1.63a2.53,2.53,0,0,1,2.06-.2c.27.1.24,1.19.24,1.83,0,.27-.29.54-.41.82-1,2.33-.48,3.48,2.23,4.48A7.79,7.79,0,0,1,324,6.5,2.54,2.54,0,0,1,325,5c.29-.15,1.3.36,1.44.76,1,2.9,3.4,4.29,5.76,5.85a26.7,26.7,0,0,1,7.31,6.79A15.81,15.81,0,0,0,342,20.68l0,.16ZM315.79,139.34l-.46-.49a9.31,9.31,0,0,0-1.71-2.32,12.73,12.73,0,0,1-4.56-4.68l-.28,2.17c1.27,1,2.41,1.9,3.59,2.76,1,.71,2,1.36,3,2l.48.48.05.1Zm-2.3,58.79.42-1,1.19-.45-.66-.57-.48,1.07-.45,1-.15,0ZM334,94.46l-.9.45,0,.09.05-.14.84-.45L335,94h3.7l-.79-1.74L335,94.07ZM287.41,152.3l-.11,0h.16l.84.57a6.94,6.94,0,0,0,1.44.42c1.92.1,2.46.7,2.12,2.63-.15.9-.41,1.78-.71,3l4,.44c-1-2.45-1.86-4.63-2.87-7.15l-1.45-.38-2.6,1Zm-15-2.71-.06-.07.1,0c.08.09.16.18.08.08ZM325.53,197l1.54-.28,4,3.34,3.43-1.63.45-3.35a25.22,25.22,0,0,1-4.7.77,4.39,4.39,0,0,0-3.18.92l-1.58.29,0,.1Zm-36.8-21.32-.63,1.07.5.16.08-1.28.17-.13ZM362.44,11l.1,0-.15,0-.93-.84-.21.35Zm-34.93.84.05.16-.1-.11c-.77-.76-.77-.76-1.59-.12Zm42.93,191.5-.55,2.26.51.05v-2.35l.19-.25Zm18.2-164.8c-1.25.38-1.25.38-.71,1.47l.67-1.52.12-.08ZM292.07,176.25l-1.32,2.41.72.27c.18-.91.36-1.81.55-2.72l.09-.32ZM390.14,198l-.05.14,0-.09-2.79-2.77-.46.59ZM336.45,89.71l-.07.14,0-.1c-.34-.58-.67-1.17-1.16-2l-1.4,2Zm46,125.09a7.93,7.93,0,0,0,5.45-1.12,7,7,0,0,0-5.49,1.18Zm-47.61-72.34,6.31.34-2.64-3.18-3.63,2.89,0,.11ZM371,187.41c2.25-3.28,4.51-6.54,6.74-9.83a8.3,8.3,0,0,0,.64-1.42l4-3.88-2-.14c-.71,1.47-1.34,2.76-2,4.06-1,.8-2,1.62-3.06,2.41-2.9,2.21-4.08,5.27-4.31,8.79l-.14,0ZM348,122.5c-.81-.23-1.63-.45-2.44-.71a2.18,2.18,0,0,0-3,1.26,27.33,27.33,0,0,0,3.48,5c.75-2.16,1.35-3.88,1.94-5.6h.13ZM320.5,199c3-1.92,4.13-5.58,2.21-8.5l-3.56,3.57c1.78,1.56,1.31,3.33,1.39,5l-.12,0Zm30.72-84h.09l-.13,0-1.42-3.49-4.2-1-2.67,2.09,4.12,3.08C348.23,114.31,349.69,114.41,351.22,115.07Zm38.31,94.71c-3.8.88-7.33-.27-10.85-1.42l-2,1L374.13,207c-.11,1.27-.55,2.39-.21,3.16a47.47,47.47,0,0,0,2.92,5.09c.26,0,.34,0,.4,0a3.58,3.58,0,0,0,.59-.36c3.16-2.31,6.38-4.42,10.56-4.22.35,0,.73-.57,1.1-.88Zm-98.46-37.4a15.28,15.28,0,0,1,2.36-1.45c.57-.22,1.55-.32,1.89,0a2.84,2.84,0,0,1,.6,2,17.3,17.3,0,0,1-.76,3l5.52-3.7c1.91-1.28,2.35-2.25,1.9-4.49a6.22,6.22,0,0,0-2.25-4.06c-2.12,1.75-4.2,3.33-6.12,5.09a37.73,37.73,0,0,0-3.12,3.65l-.06.07Zm20,47.63c4.39-.75,7.5-3.37,10.09-6.62-1.52-5.24-1.95-5.75-5.29-6.26-1.25,4.4-2.12,9-4.75,12.92l-.07.13Zm-14.46-93.68,0,0c1.43,1.11,2.05,2.49,1.4,4a17.09,17.09,0,0,1,1.88,2.21,6.71,6.71,0,0,0,3.37,3.07,5,5,0,0,1,2.73,3,10.24,10.24,0,0,1,.39,7.16c.79-.57,1.19-.9,1.63-1.18,1.75-1.14,3.11-.79,3.93,1.11a9.42,9.42,0,0,1,.66,2.46c.19,1.33.25,2.68.39,4.23l3.65-2c-2.48-1.93-2.48-1.93.06-6.85-3.61-2.4-6.63-5.67-10.58-7.74a14.33,14.33,0,0,1-6.66-6.89A4.56,4.56,0,0,0,296.65,126.33Zm25.81,9.08c.32,2.25.57,4.53,2.75,5.85,1.94-1.48,1.94-1.48,4.18-1.13,4.13.64,6.4-.53,7.57-3.58-.78-2.16-1.45-4-2.15-5.92-.25,0-.59-.16-.84,0-3,1.25-6.23,2-8.48,4.62-.84,1-1.92,1.72-3.08.27.15-.8.06-1.79.5-2.36,2.21-2.89,4.21-6,7.52-7.84a3.31,3.31,0,0,0,2-2.87c-4.17.59-8.16,1.08-12.13,1.75-1.73.29-3.32.4-4.81-.87-1.06,1.93-2.09,3.67-3,5.47a3.24,3.24,0,0,0,.62,4.08c1.7,1.54,3.47,3,5.47,4.71,0-.95,0-1.76,0-2.58,0-1-.14-2.22,1.13-2.51,1.43-.31,1.74,1,2.19,2C322.09,134.75,322.28,135.08,322.46,135.41Zm34.88,43c2.25-.06,2.82.24,3.15,2.4.4,2.68.51,5.39.76,8.09.1,1.19.22,2.38.36,3.78,2.5-.77,4.44-1.63,5.38-3.86a42.55,42.55,0,0,0,1.76-4.54,14.47,14.47,0,0,1,5.2-8.06,14.92,14.92,0,0,0,3-3.18,1.88,1.88,0,0,0-.12-2.77,4.39,4.39,0,0,0-.69.65c-1.78,2.69-4.39,3.31-7.35,2.87a18.66,18.66,0,0,1-3.57-1c-2.52-.93-4.08-.57-5.6,1.64-.87,1.27-1.5,2.7-2.25,4.06l-.52.49a6.24,6.24,0,0,1-6.64,0,6.1,6.1,0,0,0-4.24-.66,22.38,22.38,0,0,1-5.11.23,2.31,2.31,0,0,1-1.77-1.09c-.2-.54.24-1.44.65-2a10.86,10.86,0,0,1,1.76-1.71c-1.28-.67-2.68-1-3.4-1.84-2.61-3.17-6.18-2.1-9.25-2.72a25.58,25.58,0,0,1-.06,4.83,25,25,0,0,1-1.79,4.38,30.76,30.76,0,0,1,4.21-.73,13,13,0,0,1,4.79.44c2.94,1.08,3.33,3.36,1.14,5.61a11.92,11.92,0,0,1-5.91,3.1c-1.43.35-2.88.62-4.28.92-.42.77-.78,1.45-1.15,2.14l.9,2.51a36.89,36.89,0,0,1,2.94-2.29c1.77-1.09,3.51-2.51,5.45-3,3.6-.86,7.34-1.11,11-1.63.74-.11,1.47-.33,2.1-.48.72-2.64,1.13-3,2.57-2.48,2.15.79,2.38,1.79,1.16,4.9,1.72,2.19,2,4.79,2.23,7.45a4.81,4.81,0,0,0,.75,2.82,54.7,54.7,0,0,0,4.83,4.15c-.21-3.74-.39-7.19-2.73-10.13a8.16,8.16,0,0,1-1.26-8.56,29,29,0,0,0,1-4.28Zm2.83-132.51-.73-.32-.06.28h.83c2.52,1.47,5,3,7.58,4.38a8.45,8.45,0,0,0,3.1.51,15.11,15.11,0,0,0,1.61-.21c.95,0,1.77.33,1.92,1.31s-.61,1.76-1.61,1.92a20.18,20.18,0,0,1-3,.13c-.8,0-1.61,0-2.42,0l-.13.6c.66.23,1.34.72,2,.65a24.11,24.11,0,0,0,4.94-1c1.14-.4,2.05-1.43,3.17-1.93a27.28,27.28,0,0,1,3.74-1.1c-.88-.61-1.61-1.05-2.26-1.59s-1.14-1.15-.6-2,1.27-.74,2.06-.4c1,.43,2,.87,3,1.22,1.56.55,3.14,1,5.28,1.72a60.64,60.64,0,0,0-2.71-6c-2.1-3.55-4.37-7-6.61-10.45a4.17,4.17,0,0,0-1.37-1.53c-2.22-1.08-4.49-2.07-6.78-3-1.29-.52-2.72-.71-4-1.3-.66-.3-1.53-1.15-1.5-1.71s.92-1.31,1.6-1.67a4,4,0,0,1,2-.19c1,.09,2,.41,3,.49a8.83,8.83,0,0,1,7,4.08,9.63,9.63,0,0,0,1.64,1.34A20,20,0,0,0,374,21.58a35.38,35.38,0,0,1-4.7.47c-2.46-.07-4.33.62-5.68,2.85a11.85,11.85,0,0,1-2.92,3,10.86,10.86,0,0,0-3.91,5.09,22.42,22.42,0,0,0-.72,9.9c0,.09.24.15.37.22l.46.47a11.39,11.39,0,0,1,1.31-1.92,24.55,24.55,0,0,1,8.63-5.83,6.81,6.81,0,0,1,4.79-.08A2.08,2.08,0,0,1,372.73,37a1.48,1.48,0,0,1-.73,1.26c-2.27.76-2.65,2.64-2.91,4.6-.46,3.34-2.45,4.67-5.76,3.81C362.28,46.38,361.22,46.18,360.17,45.94Zm7,94.32c1.56,1.32,2.72,2.32,3.91,3.3.67.56,1.44,1.1,1,2.1s-1.36.83-2.22.72c-1.74-.21-3.41-.73-5.23.12-1.17.55-2.14-.55-2.05-2,.05-.9.2-1.8.31-2.81-2.37-.08-2.74-1.68-2.92-3.31a2.63,2.63,0,0,0-3.34.07c-2.61,1.92-5,1.72-7.33-.49a2,2,0,0,0-.62-.26c.53,3.93,5,13.52,7.09,15.21,3.37-3.15,7.38-3.59,11.71-2.48a4,4,0,0,0,1.14.17,4.33,4.33,0,0,0,1.78-.27c3-1.62,6-3.07,9.27-2.16,2.83-2.94,2.26-5.43.49-7.52a37.1,37.1,0,0,0-5-4.47,2.29,2.29,0,0,0-3-.09C370.57,137.33,369.08,138.66,367.18,140.26Zm5-36.15h-.63c-2.58,5.08-3.22,7-6.21,8.11l.22,1.29,3.78,1.15c1.43-1.26,3-2.73,4.69-4.09a6.17,6.17,0,0,1,2.44-1.25,1.93,1.93,0,0,1,1.71.7c.21.42-.15,1.28-.49,1.79s-.9.57-1.36.86a5.51,5.51,0,0,0-.12,9.42c1.7,1.09,3.38,2.21,5.09,3.29a5.75,5.75,0,0,0,1.26.37c.07-2.81.2-5.41-1.28-7.8a7.91,7.91,0,0,1-.9-2.14c-1.2-4.55,1.21-7.75,5.87-7.87h1.72l.1-.57c-1.74-.53-3.46-1.2-5.23-1.56a5.68,5.68,0,0,0-5.41,1.37,6,6,0,0,1-2.68,1.32c-2.06.49-3.06-.66-2.57-2.71A7.86,7.86,0,0,0,372.14,104.11Zm-28.28,92.13a11.91,11.91,0,0,0,1.38,1.91,58.23,58.23,0,0,0,4.6,3.85,15.69,15.69,0,0,1,5.28,5.78,8.17,8.17,0,0,0,2.06,2.45,38.32,38.32,0,0,0,3.26,2.32,19.74,19.74,0,0,1,3.4-2.27,24,24,0,0,1,4.35-1l-1.37-2.86c-1.52.47-2.36-.39-3-1.79-1.32,1.43-2.63,1-3.87.22q-2.82-1.83-5.55-3.83a6.52,6.52,0,0,1-2.84-5.57c0-1.8-.09-3.7-.95-5ZM342.17,78.29c-1.07,2.13-1.92,2.43-4.48,1.71-3.33-1-6.69-1.8-10.05-2.63a5,5,0,0,0-2.08-.08c-2.26.43-4.49,1-7,1.51a6.65,6.65,0,0,0,.79.88,38.9,38.9,0,0,1,8.57,8.08c1.2,1.47,2.36,1.52,3.7,0s2.67-3.23,4-4.84c1.48-1.79,2.87-2.15,4.9-1.27.57.25,1.11.53,1.77.85,1.61-1.42,3.09-.9,4.53.35a18.7,18.7,0,0,0,2,1.33,2.54,2.54,0,0,0-1.57-2.88C345.56,80.34,343.86,79.31,342.17,78.29ZM289.34,197.81l-.72-2.31a3.58,3.58,0,0,0-.89-.18c-5,.36-9.9.71-14.84,1.15a3.38,3.38,0,0,0-2,.95c-1.72,1.79-3.31,3.7-4.93,5.58a2.26,2.26,0,0,0-.2.71l1.72,1.12c1.07-.54,2-1.09,3-1.52,1.89-.8,2.92-.35,3.65,1.54.14.36.22.74.4,1.36,1.79-3.05,3.91-4.8,7.41-4.06a2.48,2.48,0,0,0,2-.89C285.26,199.54,286.58,197.82,289.34,197.81ZM367.11,74.66c0-.22,0-.31,0-.37-.16-.26-.34-.51-.51-.77-1.17-1.8-.84-2.85,1.17-3.48a11.81,11.81,0,0,1,2.06-.34c1.56-.19,3.12-.36,5-.58l-6.28-3.47-8.5,3.59-2.1-1a10.49,10.49,0,0,0,0,2.14,8.19,8.19,0,0,1-1.2,7.09c-1.13,1.61-1,3.42-.69,5.23a7.54,7.54,0,0,1,2.25-.85,8.54,8.54,0,0,1,2.35.73C362.07,79.23,364,76.39,367.11,74.66Zm-53.84,88.43c1.62-4,4.78-6.57,5.74-10.8-1,.44-1.63.74-2.3,1.06-2.1,1-4.17,2.08-6.32,3a2.44,2.44,0,0,1-2.07-.15c-.77-.59-.31-1.44.28-2,2.24-2.12,1.75-4.55,1-7.29-4.28,3.24-9.79,3.45-14.11,6.69l1.55,3.05c1.52-.51,2.86-.88,4.14-1.4a3.2,3.2,0,0,1,3.68.46C307.61,158.11,311.4,159.29,313.27,163.09Zm63.23,40.74c1.7-3.73,3.38-7.44,5.07-11.14-1.65-3.25-1.77-6.91-3.61-10.27-1.35,2.08-2.37,3.91-3.65,5.54a6.45,6.45,0,0,0-1.56,4.49c.18,3,.47,6,.68,8.65Zm-46-37a37.28,37.28,0,0,1,3.19-5.38,40.09,40.09,0,0,1,4.7-4.11c-1.74-1.84-3.9-2.53-6.18-3.13a22,22,0,0,1-4.46-1.78,14.34,14.34,0,0,1-2.37-1.93l-1.83,1.22c1.93,4.78,4.68,9.21,4.6,14.55Zm-3.7-19.37-.25.66c1.49,1,2.85,2.6,4.51,3.06,3.29.91,6.56,1.67,9.31,4.32.73-3.32,1.54-6.13,4.36-8.44a23.83,23.83,0,0,0-4.36-1.59C335.62,144.78,331.18,146.15,326.76,147.46ZM305.84,174.4c-2.1,2.18-1.92,4.66-1.45,7.11a6.55,6.55,0,0,0,5.73,5c3.17.2,6.35.23,9.53.31a5,5,0,0,0,1.12-.3c-2.79-2-5.46-3.66-7.9-5.64S308.21,176.61,305.84,174.4Zm55.23-77.92c2.71,1,3.17,1.49,4.09,4,4.74.56,9.08-.18,12.68-3.5a5.14,5.14,0,0,0-4.07-3.32,16.4,16.4,0,0,1-2.58-1c-.56-.2-1.22-.57-1.73-.43C366.49,93,363.53,93.91,361.07,96.48ZM330.51,219.6c-.25-3.8-.47-7-.67-10.24A22.63,22.63,0,0,0,328,201a7.44,7.44,0,0,0-1-1.29c-1.47,1.38-2.8,2.56-4.05,3.82-1.54,1.55-1.56,2.55,0,4.15s2.68,3.06,1.61,5.42Zm47.94-92.88c-3.44-2.57-7.91-3.77-7.63-9.1l-7.07,6.78c.62,1.92,2.13,2.36,3.28,3.22a19.6,19.6,0,0,1,3,2.81,31.29,31.29,0,0,1,2.06,3.1c.41-3.68.56-3.87,3.6-5.31C376.48,127.82,377.27,127.35,378.45,126.72Zm-34.89,49,.3.43a10.34,10.34,0,0,1,8.09.78,2.5,2.5,0,0,0,3.65-.86c1.21-1.84,2.39-3.71,3.64-5.66a8.38,8.38,0,0,0-8.51-2.55Zm32.26,43.9c-1.29-2.06-2.86-3.52-4.74-3.63a18.29,18.29,0,0,0-6.09,1.22,2.26,2.26,0,0,0-1.46,3c.86,3.26,3,5.77,4.85,8.88C370.22,225.09,371.82,221.53,375.82,219.59ZM328.46,111.31a48.22,48.22,0,0,1,2.9,3.92c1.53,2.59,3.94,4.1,6.45,5.51a2.49,2.49,0,0,0,3.21-.26,5.27,5.27,0,0,1,5-1.59c-2.74-3.07-6.17-5-9.5-7.1C333.88,113.19,331.36,112.39,328.46,111.31Zm27.61,24.15c-.89-.4-1.49-.72-2.13-1a9.64,9.64,0,0,1-2.21-.67,6.09,6.09,0,0,1-1.23-1.71,11.43,11.43,0,0,1,1.69-.9c.33-.12.76.06,1.15.08,3.57.23,7.13.48,10.7.66a16.05,16.05,0,0,0,2.37-.26l0-.64a18.94,18.94,0,0,0-2.07-.51c-.85-.1-1.71-.07-2.56-.12-3.65-.19-6.71-1.34-8.27-5a2.85,2.85,0,0,0-.37-.6c-1.19-1.49-2.59-1.29-3.37.5-.43,1-.75,2-1.21,3-1.44,3.08-1.4,3.48.86,6a15.74,15.74,0,0,0,1.14,1.17C352.75,137.5,353.32,137.52,356.07,135.46Zm3.37-30.52c-3.49-.51-4.82.23-6.43,3.56-1.1,2.24-.77,3.39,1.71,5.71,4.25-.67,6.17,2.55,8.46,5.77l.89-.92c-.64-2.6-1.15-4.67-1.66-6.76-.33-.13-.6-.26-.89-.35-2.38-.74-2.81-1.38-2.52-3.87C359.13,107,359.29,106,359.44,104.94ZM346.66,71.81c.68-1.17-.22-1.77-.9-2.31-2.78-2.25-5.57-4.48-8.43-6.62a5,5,0,0,0-4.74-1c.84,2.2,1.56,4.22,2.39,6.2.35.83.74,1.89,1.43,2.27,1.87,1,3.77,2.12,6.11,1.7C343.8,71.88,345.12,71.91,346.66,71.81Zm32.72,12.87c-3.84-.89-7.44-1.74-11.05-2.56-1.92-.43-3.27.27-4.57,2.29,2.67,2.62,2.67,2.62,1.51,6.25,2.33-.59,4.49-2,7-.8.62-1.94,2.1-2.49,3.74-2.93C377.31,86.58,378.78,86.37,379.38,84.68Zm-32.24,9.6c1.16-1.23,2.31-2.81,4.13-2a24.38,24.38,0,0,1,4,2.85c.27-1.37.28-2.79-.86-3.67a9.65,9.65,0,0,1-3.42-3.7,1.45,1.45,0,0,0-1.09-.75c-2.18.2-3.58-1.28-4.83-2.07l-4.59.37C341.73,88.92,343.51,92.1,347.14,94.28Zm2.41,53.46c-5,2.27-6.55,4.61-6.51,9.54l2.59,1.53a3,3,0,0,0,.19-.76c-.1-1.14-.11-2.31,1.26-2.63s2,.68,2.57,1.59,1,1.58,1.51,2.34c.36.51.79,1,1.25,1.53.35-1.55.67-2.83.92-4.11a3.23,3.23,0,0,0,.09-1.78C352.22,152.58,350.9,150.23,349.55,147.74Zm18.63,14.32c-3.47-1.92-7-.72-10.65.28l-1,2.83,5.82,4c1.75-2.29,4.32-3.05,6.94-3.37C368.93,164.66,368.62,163.59,368.18,162.06Zm-91.72,25.46c-.83-5.18-4.34-7.52-8.31-10a21.87,21.87,0,0,0-.8,2.64c-.16,1.15-.17,2.31-.24,3.47-.11,2,.2,2.76,2.2,3.16C271.63,187.22,274,187.27,276.46,187.52Zm73.31-66.23c2.71-.3,4.05.1,5.32,1.7a24,24,0,0,1,1.32,2.19,4.38,4.38,0,0,0,5.14,2.18c-.09-1.71-.17-3.35-.27-5.37-1.37-1.51-2.1-4.24-5-5.17-.44,2.28-2.15,2-3.58,1.92Zm-28.11,32.93c-1.54,2.42-2.84,4.61-4.27,6.7s-1.42,2.26.32,4.71l7.48-1.16C325.13,160.66,323.08,157.72,321.66,154.22Zm26.92-87.9A35.55,35.55,0,0,0,350.51,63a1.55,1.55,0,0,0-1.14-2.32,4.59,4.59,0,0,0-1.61-.14,2.82,2.82,0,0,1-3.17-2.07c-.88-2.3-2.77-3.26-5.5-3a4,4,0,0,0,1.65,4.39,10.63,10.63,0,0,1,3.69,4.36C345.11,65.71,346.38,66.58,348.58,66.32ZM307.29,172.13c4.14,3.51,7.16,7.58,11.75,9.77-1.89-2-1.87-2.61.24-4.6.71-.66,1.43-1.3,2.51-2.29l-11.3-3.26a2.4,2.4,0,0,0-.89-.23A23.7,23.7,0,0,0,307.29,172.13Zm68.44-109.9c.27,2.86,1.13,4.92,3.77,6.21l6.31-1.62c.5-1.16,1.27-2.21,1.34-3.29.18-2.9.06-5.82.06-8.9-1.12.78-1.95,1.35-2.78,1.94a18,18,0,0,1,1.37,1.24,3,3,0,0,1,.83,3.4,3.21,3.21,0,0,1-3.06,2.13,17.81,17.81,0,0,1-3-.28C379.05,62.83,377.54,62.54,375.73,62.23ZM297.29,191.14l7.7-1.45c-2.38-5.61-6.91-7.4-12-4.82ZM347,145.6l.64.08a3.37,3.37,0,0,0,.23-1.28c-.93-3.74-1.87-7.48-2.89-11.19a10,10,0,0,0-3.32-5.8c-.32,2.76-.59,5.11-.87,7.47a5.2,5.2,0,0,0,2.33,5.19C345,141.44,346.67,143,347,145.6Zm0-37.83c1.63,1.14,2.52,1.07,3.35-.5,1.39-2.62,3.14-5.1,2.71-8.41-.24-1.84-.74-3.22-2.45-4a5.13,5.13,0,0,0-2,3.62C348,101.58,347.49,104.68,347,107.77Zm19-29,.11.58c1.13.12,2.28.15,3.39.37,3,.62,6,1.39,9.08,2a16.44,16.44,0,0,0,4.37.22,28.76,28.76,0,0,0,4.31-1.06c-2.12-1.52-4.46-2.63-4.86-5.69-2,1.48-3.65,2.65-5.26,3.84a4.76,4.76,0,0,1-4.82.68,31.33,31.33,0,0,0-4.72-1.18A4.41,4.41,0,0,0,365.94,78.75Zm-9.67-22.37a27.42,27.42,0,0,1-4.09-.29A3.67,3.67,0,0,0,348,57.88c.46,0,.77.06,1.07.1,3.59.44,5.11,3,3.73,6.31a9.32,9.32,0,0,1-1.23,2.23,3.5,3.5,0,0,0-.35,4c.95-1.34,1.83-2.42,2.52-3.6.91-1.56,2.71-.58,3.95-1.39C355.31,63.63,354.67,62.35,356.27,56.38ZM312.43,166.85c-1.81-4.74-6-6.73-9.8-9.33l-2.51,1.06c.93,1,1.73,1.82,2.5,2.67a54.56,54.56,0,0,1,3.85,4.36C308.12,167.91,310.11,167.77,312.43,166.85ZM341.38,52.49l4.92,2.76,3.79-2.15c-.86-4.86-4.93-5-8.95-5.65C341.22,49.15,341.29,50.7,341.38,52.49Zm16.35,106.84,6.74-1.08c-1.81-2.69,1.42-3.44,1.77-5.25a7.72,7.72,0,0,0-5.75,0C357,154.43,356.45,155.5,357.73,159.33Zm12.37,33L362,196.68l1.59,6.72,3-2.28c.06-.73.13-1.65.2-2.57l2-1Zm3-127,.38-.28c-.13-.5-.23-1-.39-1.5-.91-2.84-.34-3.73,2.68-3.66,1.92.05,3.83.49,5.75.7.77.08,1.55,0,2.52,0-.54-1.9-1.67-1.48-2.69-1.27-2.15.44-4.21.64-5.29-1.43-2.55.25-4.83.63-7.12.64s-4.56-.34-7-.55c1.46.56,2.89,1.07,4.28,1.66,2.09.87,4.12,1.79,5,4.17C371.59,64.44,372.53,64.82,373.14,65.31ZM271,145.73c3.87,1.61,6.64,4.52,11,4.56-3.33-1.68-4.57-4.47-5.24-7.59a5.13,5.13,0,0,0-3.82-4.14C273.62,141.23,274.71,143.94,271,145.73Zm65.58,57.93-3,8.05c4.37-2.91,7.87-5.94,10.52-10.06C341.05,200.9,338.75,202,336.59,203.66Zm-14.81-20.14c1.84.64,3.27,1.56,4.7,1.54a18.12,18.12,0,0,0,5.65-1.26c1.4-.49,2.94-1.05,3.51-2.73C332.94,179.58,326.85,180.57,321.78,183.52Zm36.5-88.06,5.34-7.71-4.79-2.53c-.8,2.68-2.71,2.56-5.27,1.88,1.52,1.47,2.91,2.33,3.6,3.59S357.89,93.63,358.28,95.46ZM302.73,208.61l-1.12-3.06c-5.47,1.45-6.5,7.69-2.29,12.56C300.3,215,299.36,211.14,302.73,208.61Zm49.61-125.3.76-.15a13.28,13.28,0,0,1,.13-2.19,17.46,17.46,0,0,1,1.36-4.83,7.59,7.59,0,0,0,.67-5.89l-5.78,5.16C349.88,78.17,351.16,80.72,352.34,83.31Zm-26.83,22.92A17,17,0,0,0,328,105a6.8,6.8,0,0,1,6.84-.64,27.7,27.7,0,0,0,4,.89l.16-.43a35.59,35.59,0,0,0-3.28-2,7.66,7.66,0,0,0-3.4-1.11,23.81,23.81,0,0,1-8.65-.94c-.08,0-.21.15-.35.25Zm-40.33,81.66c-3.39,1.88-7.43,2.3-10.1,5.37a58.35,58.35,0,0,0,12-.78ZM384.74,70.17l-15,2.43c.27,1.1.53,2.12.79,3.16,2.23.32,4.2.26,5.71-2,.53-.78,2-1.06,3.09-1.29a30.7,30.7,0,0,1,3.48-.19C384.06,72.22,384.9,71.69,384.74,70.17Zm-2.6,88.14c2,.87,4,.84,5.41-.68,1.86-2,1.12-4.42.56-6.77a25.48,25.48,0,0,1-3.07,2.19C382.9,154.12,381.58,155.56,382.14,158.31Zm-41.25,1.07c-3.15,1.57-4.34,2.55-5.06,4.23,3.67-1.12,6.54,2.18,10.13,1.74C345.72,161.9,343.72,160.26,340.89,159.38ZM313.83,169.8c4.16,1.22,8.31,2.32,12.23,4.37.56-1.84-.08-3.57-.49-5.25a3.27,3.27,0,0,0-3.45-.14,5.14,5.14,0,0,1-4.29.39C316.37,168.62,315.15,169.17,313.83,169.8ZM292.15,148l.49-.06c.11-1.41.23-2.81.35-4.26-.63-.35-1.13-.88-1.54-.82-2.32.35-3.37-1.1-4.33-2.81-.61-1.08-1.29-2.13-2-3.14a7.43,7.43,0,0,0-1.2-1.1l-.43.26c.58,2.76,1.15,5.51,1.74,8.34,3.12-1.43,3.71-1.27,5.45,1.31C291.18,146.44,291.66,147.21,292.15,148Zm38.22-4.4a2.47,2.47,0,0,0-3.23-.28c-2.06,1.14-3.88.61-5.24-1.31-.42-.59-.77-1.23-1.11-1.77l-2,1.78.42.1c-.19,1.51-.39,3-.58,4.5h4.51a33.24,33.24,0,0,1,3.17-1.73C327.53,144.36,328.81,144.06,330.37,143.57Zm5.27-20.84a22.19,22.19,0,0,1-2.31,3.68,26.13,26.13,0,0,1-3.94,2.82,37.05,37.05,0,0,1,5.25-1.26c1.8-.16,2.82,1.2,3.85,2.62.38-2.14.77-4.29,1.14-6.31Zm-4.09-24c.32.21.47.39.6.38,3.7-.3,6.12,2.32,8.86,4.05a6.51,6.51,0,0,0,3.65,1.19l-8.08-7.75Zm-51,57.32c.24,1.88.47,3.67.74,5.81l6.51-5.53-4.21-1.77Zm-3.65,0c-1.05,3.61-2,6.85-3.05,10.47l2.8-.92c.53-1.43.9-2.51,1.31-3.57A5.34,5.34,0,0,0,276.89,156Zm68.65,12.57c-2.47-.85-4.59-1.55-6.69-2.32a3,3,0,0,0-3.25.46c1.4,1.08,2.72,2,3.92,3.07a2.93,2.93,0,0,0,3.62.43A24.92,24.92,0,0,0,345.54,168.59Zm22.85-65.33c-1.74-.56-2.95.61-4.3,1.27-2.29,1.12-2.65,1.86-2.19,4.9.57-.16,1.27-.14,1.63-.48C365.31,107.22,368,106.25,368.39,103.26Zm-71.08,46,4.43-1.57c1.67-3.21,1.67-3.34-.18-5.36-.52.84-.86,2-1.61,2.45s-1.93.31-3,.43Zm27.32-84c-4.14-2.48-7.73-3.72-10.44-2.54C317.51,64.63,320.32,67.75,324.63,65.27Zm54.61,92.57c0-1.8-1.15-1.65-2-1.74-1.54-.16-8.34,1.61-10,2.55l3,1.46C372.73,157.48,376,158,379.24,157.84Zm-13.79,11.94c4.51,2.65,8.05,1.93,8.79-1.82C371.27,168.36,368.24,168,365.45,169.78Zm-5.1-126.9,3.86,1.26a1.53,1.53,0,0,0,2.25-1.25c.31-1.39.52-2.8.89-4.83ZM263.11,202.11l4.34-5c-2.62.27-5.55-.44-7.21,2.78Zm126-64.94c-2.81,1-4,1.93-3.8,3.21a13.86,13.86,0,0,0,.89,2.36c.29.89.56,1.74,1.78,1.65ZM341.25,92.9c-.32,3.38,1.36,5.61,4,7.66.38-1.82.87-3.4-.62-4.74C343.52,94.84,342.4,93.9,341.25,92.9Zm-81.16,46.69-2.8,2.37c.37.61.77,1.25,1.21,1.95l4.53.38.33-.49ZM385.8,176.27c-1.55-1.81-1.81-1.9-3-.74a40.47,40.47,0,0,0-2.68,3.15,1.33,1.33,0,0,0,.35,2.23ZM285,162.21l.12.49H297l0-.45c-1.58-.16-3.15-.38-4.73-.47a4.51,4.51,0,0,1-3.83-2.43C287.15,160.45,286.09,161.33,285,162.21ZM358.3,59.34V62.5h7.94Zm-61.24,135.4,2.18,3.58,4.26-2.48-.08-.54Zm-34.15-43.68h6.38l-2.74-3.33Zm77.44,45.45-2.48-4.18c-.16,2.11-.33,4.32-.5,6.61C339.2,198.86,339.6,197.48,340.35,196.51Zm-87-10.75,3.2,2.43.31-.33c-.48-1.93-1-3.86-1.59-6.32Zm64.1-89-4.68-4.63C312.27,95.38,313.69,96.82,317.44,96.76Zm-21.34,81.9c4.42.52,4.71.3,4.84-3.47Zm72.23,34.69c-1.54-1-2.58-1.25-3.82-.47-2.63,1.64-3.59,2.72-3.51,4.47C362.65,214.66,365.25,214.11,368.33,213.35ZM356.9,101.77c3.85.48,4.73.16,5-1.83C359.74,99.41,357.43,100.26,356.9,101.77Zm-11.74,89.42-.21-.64-4.53.93L342,194Zm-56.59-3.26c-.44,1.84,1,2.76,1.51,4.22l2.5-.33C291.18,190.32,290.55,188.55,288.57,187.93Zm34-67c2.52-.2,5.11,0,7.44-1.31C327.38,119.25,325,120.14,322.55,120.89Zm26.05,39.54c-.28,3.13.66,4.25,3.14,4.21ZM344.05,76l2.82,2.24.44-.33c-.31-1.09-.63-2.19-1-3.61Zm21.64,62-3.62-1.75c.44,1,.71,1.65,1,2.37l1.86.61ZM315.09,191l-4.06.84C312.45,193.43,313.22,193.27,315.09,191ZM321.14,10.6,319,8.17,317.29,10ZM308.33,194c-.88-2.75-2.55-1.39-4-1.15Zm24,12.86.41,0c.28-.92.57-1.84.91-2.94l-1.92-.42C331.93,204.79,332.12,205.83,332.3,206.87ZM354,53.55h3.14l.11-.41L355.34,52Zm23.23,112.72c.3-2.33,0-2.61-2.57-2.58Zm-10.33-155-2.18.82,0,.34,3.16.43Zm-35.29,97.91c1.76,1,2.18,1,3.09-.49Zm-13.52,88.15-.55-.4-1.68,2.44.49.35Zm62-29.56c.75,1.74.75,1.74,2.41,1.47Zm-3.83-7.41-.12.49,1.85.37.1-.57ZM369.5,19l.23-.41a7.56,7.56,0,0,0-.85-.64,4.79,4.79,0,0,0-.88-.3l-.21.53ZM329.12,65.29c1.29.7,1.29.7,1.26-.66Zm-78.74,125.5,1.1-1.37C250,189,250,189.76,250.38,190.79Zm6.09,2.45.15-.22c-.2-.18-.39-.37-.59-.54a2.32,2.32,0,0,0-.57-.37,2.4,2.4,0,0,0-.61-.05l-.07.34Zm48.8-23,1-.45-.7-1.37ZM361.71,65.51l-.12-.46-.93.24.06.31Zm-115.65,130,.16.28.71-.42-.15-.26Zm46.13-13.42c-.26-.14-.33-.2-.38-.19a1.2,1.2,0,0,0-.31.13Zm9.27-.51,0-.18-.54,0,0,.2Zm13.11,21.93-.36,0Zm56.52-38.31.37.16v-.3Zm-1.8-10.29-.33-.15,0,.28ZM341.73,108.6l-.08.14h.14ZM317.9,204.49l.08-.12-.12,0Z"/><path class="cls-1" d="M198.78,321.36a43.91,43.91,0,0,0,11.4-7.24c4.95-4.49,10-8.84,15.18-13.12a31,31,0,0,1,10.6-5.76c6-1.89,12-3.9,18-5.78a83,83,0,0,1,15.57-2.91,37.66,37.66,0,0,0,7.09-2,58.3,58.3,0,0,1,8.89-1.68c4.88-.79,9.43.45,14.05,1.35a55.26,55.26,0,0,1,6.49,2.08c6.25-2.57,12.51-5.26,18.87-7.73s13.33-2.7,20.22-3.42c.05-1,.11-1.72.11-2.49,0-7.85.08-15.71-.11-23.57-.14-5.43-.67-10.86-1-16.28-.1-1.55-.25-3.1-.31-4.65q-.27-7.81-.47-15.63c0-1-.41-2.52,1.13-2.62s1.38,1.43,1.42,2.44c.21,4.51.28,9,.52,13.52.4,7.38,1,14.74,1.29,22.11.27,8.08.22,16.18.31,24.27,0,.91.08,1.83.13,2.8,3.06,1.28,6,2.55,8.93,3.73a26.59,26.59,0,0,1,11.27,8.78c1.09,1.42,2.35,2.71,3.35,4.19,2.25,3.32,4.66,6.57,4.43,11a40.12,40.12,0,0,0,.4,5.38c1.57,1.7,3,3.22,4.41,4.79a18.86,18.86,0,0,1,4.39,7.6,7.05,7.05,0,0,0,.61,1.76c2.06,3.52,1.75,7.32,1.36,11.13,0,.31-.16.61-.16.92.1,6.35-2.79,11.88-4.92,17.61a14.39,14.39,0,0,1-1.66,3.33c-3.65,5.13-7.08,10.43-11.6,14.89-3,2.93-5.76,6.11-8.93,8.83a79.49,79.49,0,0,1-9.94,7.29,60.44,60.44,0,0,1-8.66,4,5.77,5.77,0,0,0-2.91,2.79c-1.88,3.3-3.95,6.5-6.08,9.66a5.44,5.44,0,0,1-2.26,1.55c-1.24.59-2.56,1-3.81,1.64a12.19,12.19,0,0,0,10.13-3.29,11.67,11.67,0,0,1,4.65-2.47,45.28,45.28,0,0,1,15.95-1.28c7.52.5,15.07.65,22.6,1,1,0,2.05.22,3.26.35l-1.06,3.5-3.93.94c.1.5.21,1,.39,1.82a17.8,17.8,0,0,1-2.59.69c-11.3,1.33-22.66,1.36-34,1.61-3.5.08-7,.15-10.5.25-.53,0-1.31,0-1.54.3-1.23,1.72-3,1.4-4.68,1.43-4.35.07-8.7,0-13.19,0l-.88,1.57c-.9.06-1.82.15-2.74.16-6.69,0-13.38.07-20.07,0a60.23,60.23,0,0,0-16,1.61c-5.29,1.38-10.48.86-15.75.34-2.62-.26-5.26-.43-7.9-.54-7.23-.3-14.45-.73-21.68-.76a192.26,192.26,0,0,0-19.8.69,90.73,90.73,0,0,1-28.53-1.38c-3.25-.71-6.44-1.77-9.62-2.75a56.77,56.77,0,0,0-15.8-2.78c-12.29-.22-24.58-.26-36.87-.58-5-.13-10.07-.77-15.1-1.26-3.4-.33-6.8-.73-10.17-1.23a10,10,0,0,1-7.14-4.76c-1.32-2.05-1.39-2.38.21-4.36l-1.57-.88c.42-1.85,1.47-1.64,2.36-1.56,3,.27,6,.54,9,.91a132.94,132.94,0,0,0,30,.18c2.54-.27,5.12-.2,7.68-.35,6.6-.37,13.19-.82,19.79-1.15,8.17-.41,16.35-.6,24.44.82a100.52,100.52,0,0,0,21.34,1.76c1.09,0,2.43-.32,2.89,1.57a6.88,6.88,0,0,1-1.43.86,6.33,6.33,0,0,1-1.85.2c-10.49.12-21,.57-31.47-.18a342.67,342.67,0,0,0-35-.45c-12.19.37-24.42.94-36.6-.64-2.76-.36-5.57-.41-8.74-.63A5.31,5.31,0,0,0,88,397.92c7.26,2.58,14.55,5.09,22.42,4.92,6.07-.12,12.13-.4,18.19-.36,7.78,0,15.56.15,23.33.57,4.72.25,9.63.45,14.06,1.89,7.26,2.38,14.67,2.39,22.09,2.94,2.79.2,5.57.59,8.36.81,2.47.19,5,.34,7.44.38,11.43.2,22.86.27,34.29.56,8.16.22,16.31.76,24.47,1.06,2.72.09,5.44-.11,8.16-.23a2.11,2.11,0,0,0,1.57-.85h-2.46c-7.77-.11-15.56.13-23.3-.43-9.3-.66-18.1-3.7-26.82-6.87a8.29,8.29,0,0,1-1.48-.69c-4.31-2.58-8.86-4.77-12.88-7.84a4.26,4.26,0,0,0-2.37-.58c-4,0-8.08.12-12.11,0a108.41,108.41,0,0,1-13-1c-15.43-2.5-31-4-46.23-7.75a67.1,67.1,0,0,1-7.33-2.33c-5.76-2.14-11.55-4.19-17.19-6.61a16.56,16.56,0,0,1-9.4-10.09,7.86,7.86,0,0,1-.29-2.75,173.49,173.49,0,0,1,1.65-22.31,7.91,7.91,0,0,0,0-1.12c-.69,0-1.36-.12-2-.12-14.85.15-29.72.1-44.57.53-8.15.23-16.26,1.38-24.41,1.92-9.22.61-18.46,1-27.69,1.47L0,342.21A5.36,5.36,0,0,0,.9,342a143.75,143.75,0,0,0,25.92-15.65,14.06,14.06,0,0,1,9.4-2.83c17,.44,33.91.58,50.87.67,12.21.07,24.43,0,36.64-.25,7.84-.19,15.67-1,23.51-1.41,5.44-.3,10.88-.49,16.32-.67,6.6-.21,13.2-.47,19.8-.49a46.34,46.34,0,0,0,11.34-1.1C196.28,319.87,197.62,319.91,198.78,321.36Zm-90.66,45.72c-.45-.32-1-1-1.32-.91a12.49,12.49,0,0,0-5.37,2.38c1.87,2.42,3.29,5,6.31,6.07,5.69,2.07,11.32,4.32,17,6.44a45.08,45.08,0,0,0,6.64,2.15c7.53,1.54,15.08,3.08,22.67,4.29,8.59,1.36,17.23,2.48,25.88,3.47,4.23.48,8.52.45,12.79.57,3,.08,6,.06,9.08,0a8.84,8.84,0,0,0,1.67-.34l0-.51c-.83,0-1.66,0-2.49,0-5-.16-10.1-.11-15.12-.55-5.18-.46-10.32-1.37-15.47-2.12Q156.16,386,142,383.83a54.85,54.85,0,0,1-6.61-1.33c-5.91-1.65-11.84-3.25-17.64-5.23-3.85-1.32-7.91-2.43-11-5.45-.94-.92-2.21-1.76-1.75-3.27s1.93-1.34,3.15-1.53l-1.43,1.1c.89,1.57,1.34,3.26,3.2,3.93,4.3,1.56,8.56,3.27,12.87,4.81a111,111,0,0,0,20.72,5.33c8.59,1.32,17.14,2.94,25.74,4.19,5.68.82,11.41,1.28,17.13,1.8,4.48.41,9,.69,13.47,1A14.31,14.31,0,0,0,202,389c-1.3-2-2.46-3.74-3.53-5.52-2.13-3.52-4.08-7.16-6.33-10.6-3.2-4.87-7.76-8-13.6-8.39-9.14-.62-18.32-1-27.48-1.05-8.31,0-16.63.42-24.92,1-5.63.4-11.33.65-16.69,2.78C109.09,367.33,108.57,367.12,108.12,367.08Zm-1.89-2.15c0-.65,0-1.18,0-1.71-.18-3.26-.48-6.51-.54-9.77-.1-5.64,1-11.14,2.1-16.64.34-1.67.63-3.36,1-5,.33-1.35,1.18-1.73,2.7-.91-.2,1.39-.39,2.83-.64,4.26-.37,2.13-1,4.25-1.15,6.4-.5,5.57-.89,11.14-1.2,16.73a9,9,0,0,0,2.1,6.15c.75,0,1.52-.06,2.28-.14,3.94-.43,7.87-.95,11.83-1.28a370.13,370.13,0,0,1,46.15-.7c2.95.12,5.9.21,8.85.32a3.08,3.08,0,0,1,1.12.24,55.1,55.1,0,0,1,6.91,3.35c1.92,1.24,4.07,2.71,5.09,4.63,3.24,6.07,7.35,11.5,11.33,17.07,4.24,5.91,10.1,9.57,16.43,12.26,8.8,3.74,18.06,6.6,27.7,7,10.44.42,20.91.09,31.37.09,0-2.76-2.73-3.69-4.12-6.09a13.44,13.44,0,0,1,3.07-.38c1.45.19,2.86.74,4.31,1a6.39,6.39,0,0,0,3.14-.05c8.41-3.34,15.63-8.28,20.93-15.78,3.31-4.69,5.5-9.92,7.53-15.23,6-15.64,5.19-31.27-.47-46.76a51.51,51.51,0,0,0-11.3-17.54c-.65-.69-1.68-1.27-1.21-2.61,1.18-.78,1.83.17,2.49.86a55.89,55.89,0,0,1,14.12,24.64c4.32,16.37,3.24,32.24-3.8,47.82-5.14,11.36-12.8,19.92-24.11,25.19-.67.31-1.3.71-2.3,1.26l4.8,2.85c5.08-3.95,10.1-7.86,15.11-11.79a7.78,7.78,0,0,0,1.24-1.38c3.52-4.46,7-8.9,8.92-14.38,1.38-4,3.34-7.72,4.63-11.7,2.45-7.53,2.41-15.3,1.63-23.1-.95-9.47-2.61-18.75-7.24-27.26-2-3.74-3.62-7.76-6.55-11-2.46-2.7-5-5.33-7.52-8a4.23,4.23,0,0,0-1.35-.89c-4.31-1.78-8.6-3.61-13-5.26a42.84,42.84,0,0,0-13.61-3,56.37,56.37,0,0,0-17.78,2.09c-6.87,2-13.64,4.29-20.48,6.41a31,31,0,0,0-10.75,5.95c-4.88,4.1-9.62,8.36-14.48,12.5a35.78,35.78,0,0,1-5.92,4.49c-3.47,1.89-7,4.1-10.79,4.82a130.42,130.42,0,0,1-18.55,1.73c-11.57.54-23.16.8-34.73,1.21-8.32.3-16.63.6-24.94,1-2.64.12-5.26.52-7.89.75a6.35,6.35,0,0,0-4.87,3.22,18.52,18.52,0,0,0-3.27,8.63c-.18,1.94-.53,3.86-.65,5.79q-.52,7.92-.89,15.83c-.07,1.55.15,3.12,1.78,4Zm178.39-79.29c2.88.93,5.63,1.7,8.3,2.7a56.68,56.68,0,0,1,14.22,8.34,43.4,43.4,0,0,1,8.22,8.14c2.28,3,3.83,6.55,5.59,9.91,1.19,2.27,2.21,4.64,3.29,7,1.92,4.17,3.95,8.31,4.53,12.94.66,5.24,1.4,10.48,1.8,15.74a59.32,59.32,0,0,1-.89,15.78c-1.32,6.79-4.85,12.58-8,18.55-1.9,3.62-4.83,6.45-7.38,9.58-3.67,4.48-8.34,7.62-13.13,10.66-1.4.89-2.9,1.62-4.35,2.43l.19.48c1.55-.41,3.09-.87,4.65-1.23a37.51,37.51,0,0,0,15.71-7.9c7.31-6.14,14.47-12.52,20.29-20.2a29.31,29.31,0,0,0,5.55-12.95,107.94,107.94,0,0,0,1.18-14.38c.29-9.5,0-18.92-3.68-28-2.79-6.83-5.92-13.36-11.64-18.27-1.81-1.55-3.78-2.91-5.61-4.44-2.07-1.71-4.13-3.44-6.1-5.28-4.58-4.29-10.87-5.38-16-8.63a1.58,1.58,0,0,0-.45-.14C295.6,285.36,290.27,284.45,284.62,285.64ZM329.8,390.07A136.81,136.81,0,0,0,347.71,383c8.7-4.34,15.09-11.13,21.08-18.38,3-3.63,5.26-7.87,7.85-11.84,1-1.5,2-2.95,2.89-4.52a44.21,44.21,0,0,0,5.67-20.92,18.18,18.18,0,0,0-1.33-5.57,3.41,3.41,0,0,0-3.33-2.4c-2.42-.19-3.48-1.55-3.71-4-.09-1-.29-2-.44-3,.27,4.23-1.19,8-2.86,11.72-2,4.53-4.17,9-6.32,13.49a56.09,56.09,0,0,1-7.71,11.91c-3.3,3.93-6.46,8-9.74,11.91-1.43,1.71-3,3.27-5.14,5.56C343,376,336.38,383,329.8,390.07ZM338,300c.23-5,1.05-6.78,3.7-7.54a18.34,18.34,0,0,0-2.1,3.47,18.63,18.63,0,0,0-.42,4.07c1.7-.38,1.82-2.46,3.92-2.19a23.4,23.4,0,0,0-1.74,2.2,11,11,0,0,0-1.67,3.26c-.66,3.34-1.06,6.73-1.53,9.88l5.75,14c.31-.36.56-.62.78-.91a34.3,34.3,0,0,0,4.7-9.84c1.38-4.12,2.46-8.36,4.09-12.38,2-5,2.29-10.14,1.84-15.35-.34-3.95-1.46-7.41-5.83-9.14a17.9,17.9,0,0,0-8.14-1.26c-10.67.71-20.47,4.29-30,8.83a13.62,13.62,0,0,0-1.77,1.28c6.46,3.29,11.79,7.48,17,11.72C333,296.05,334.28,296,338,300Zm30.43,9.22a5.41,5.41,0,0,0,0-1.56c-.9-2.78-2-5.39-4.83-6.88a9.08,9.08,0,0,1-1.64-1.48l.4-.39a13.21,13.21,0,0,1,6.74,6.16c-.56-3.57-1.71-6.79-4.56-9.22,3.35-.08,3.27,3.41,5.28,5.28-.17-3.66-2.75-6-3.43-9l.47-.29,1.91,2.51c-.06-4.86-8-12.84-12.8-13.24,2.94,7,2.93,14.19.81,21.39-1.54,5.21-3.31,10.36-5.09,15.5-1.46,4.2-3.26,8.26-6.29,11.61a2.86,2.86,0,0,0-.64,2.77c.41,2.28.82,4.58,1,6.9.28,3.39.36,6.8.53,10.27h1.84l3.33-5.09c-.71-1.13-1.25-2.07-1.87-3s-1.3-1.71-1.95-2.57l.45-.56c2,.89,3.68,2.93,6.56,2.43a6.08,6.08,0,0,0-.15-2.28c-.88-1.72-2-3.31-3-5-.29-.5-.52-1-.77-1.56l.58-.4c2.12,1.23,2.94,3.88,5.22,5.28,1.16-2,2.26-3.93,3.41-5.84a3.65,3.65,0,0,0,.17-3.55c-.79-1.86-1.49-3.75-2.19-5.65a7.06,7.06,0,0,1-.2-1.39l.56-.21c.54,1.13,1.11,2.25,1.61,3.41s1,2.46,1.55,3.92c4.54-6.79,3.8-4.92,1.81-11.15,0-.07-.06-.14-.08-.22-.65-2.54-1.92-4.55-4.49-5.57-.31-.13-.46-.67-.92-1.37,3.4,1,4.93,2.39,5.94,5,.6,1.59,1.17,3.19,1.75,4.79l.55-.16c.61-3.05-1.13-5.95-1.16-9l.66-.14c.46,1.35.92,2.7,1.39,4.05l.45-.2c.06-3.83-1.59-7.05-4-10C366.58,304.24,366.52,307.45,368.44,309.26Zm-44.51,86a6.59,6.59,0,0,0,1.5,5.08,2.62,2.62,0,0,0,4.06.52,13.08,13.08,0,0,0,4.32-7.24Zm14-3.19c-2.34-.09-2.72,1.26-3.13,2.49a16.79,16.79,0,0,1-4.05,6.71c-2.24,2.21-5,1.85-6.65-.82a16.05,16.05,0,0,1-1-2.32c-.2-.46-.39-.91-.58-1.37l-.57.18c-.14,2.8,1.07,5.27,2.11,8.07,3.55-.93,7-1.27,8.79-4.84.48-1,1.27-1.76,1.85-2.68C335.74,395.8,336.75,394.08,338,392.07Zm-16.33,13.74,0-.33c-1.77-.5-3.54-1-5.31-1.51-3.07-.84-4.93-.29-7,1.84ZM328.81,302c2.44.78,5,.43,7.48.78C333.92,301.25,331.46,300.65,328.81,302ZM286.34,407.88l-2.06-3-2.07,1C282.65,408,283.29,408.32,286.34,407.88Zm91.49-92c.86,2.46,2.15,3.21,4.53,2.55Zm-42.25-6.81,1.21,2.26.48-.16c.2-1,.39-2,.65-3.31ZM290,407.47l0,.28c0-.05.1-.08.11-.13S290,407.52,290,407.47Z"/><path class="cls-1" d="M223.8,354l1.65-.54c1.12,2.56-.79,6.9-3.75,8.59,2.58,8.27,5.28,16.55,10.14,23.87a56.51,56.51,0,0,0,5.68,6.45c.61.66,1.48,1.15,1.07,2.22-.27.09-.46.23-.55.18-2.91-1.62-5.87-3.16-8.7-4.91a10.68,10.68,0,0,1-4.18-5.19,46.86,46.86,0,0,0-9-13.51,35.26,35.26,0,0,1-3.26-5.06c-.44-.7-.85-1.42-1.28-2.13l0-.77-.2.06.28.66a38.64,38.64,0,0,0,5.46,13.8,53.89,53.89,0,0,0,17,17.7A43.37,43.37,0,0,0,244,400.1a17.39,17.39,0,0,1,2.28,1.15l-.16.73a7.89,7.89,0,0,1-1.82,0c-2.71-.7-5.45-1.32-8.09-2.23-8.19-2.84-16.07-6.2-22.79-11.94-8.24-7-13.34-15.79-16.1-26.18-1.74-6.54-.94-12.75,1.08-19a53,53,0,0,1,15.41-23.79,114,114,0,0,1,20.68-14.69,40.29,40.29,0,0,0,4.07-3c1.1.7,1,1.37.23,1.93-1,.74-2.09,1.34-3.12,2s-1.86,1.33-2.85,2c.65,1.26,1.38,1.33,2.34.7q2.15-1.39,4.33-2.75a2.15,2.15,0,0,1,1.36-.3c-.59,1.69-2.54,1.9-3.66,3.19,3-.66,5.84-1.37,8.72-1.88,8.56-1.53,17-1.11,24.82,2.94,10.74,5.59,18.8,13.91,22.36,25.71a50.68,50.68,0,0,1,.86,27c-1,4-2.38,7.89-3.59,11.83a32.11,32.11,0,0,1-12,16.53c-5.18,3.86-10.74,6.93-17.18,8a32.5,32.5,0,0,1-7,.44c-4.26-.22-8.52-.71-12.78-1.09-.93-.09-1.92-.08-2.22-1.62a7,7,0,0,1,1.35-.83,3.72,3.72,0,0,1,1.38-.07c7.84.28,15.25-1.79,22.6-4.14a23.37,23.37,0,0,0,11.2-7.66c6.28-7.7,11.32-16.05,13.2-25.92,2.68-14-1.54-26.13-10.61-36.75a25.12,25.12,0,0,0-11.22-7.3,63.2,63.2,0,0,0-20.78-3.88,52,52,0,0,0-8.27,1.13c-1.28.21-2.54.6-4,.95-6.25,6.79-15.08,28.35-12.74,41.44a14.15,14.15,0,0,0,.86-1.42c1.06-2.34,2.06-4.7,3.15-7,.37-.8.68-1.83,2-1.53.87.87.23,1.7-.13,2.51-.92,2.06-1.88,4.1-2.75,6.18a18.53,18.53,0,0,0-.65,2.46l-.93,2.79-.06.1v-.14ZM235,397.86l.06.07-.09-.05ZM215.92,388l.46.57,1.44.86,1.14,1,.25-.44-1.43-.5-1.45-.86-.46-.57Zm9.79,6.08.09.1-.09-.08-1-.41-.92-.46-1.62-1.34-.28.47,1.94.82.93.45Zm7.95,2.78.05.1-.07-.07-1-.35-2.26-1.45c-1.48-1.33-2.72-3.07-4.89-3.22l-.3.55,5.23,2.62,2.28,1.45Zm-14-73.18.35-1.08,1.75-1.4c3.7-2.93,4.85-7.8,8.8-11.13-2.51.89-8.35,8.15-10.5,12.58l-.36,1-.09.1-.06-.1Zm-1.48,2.22.19-.22-.14.27-.44,1c-.86,1.34-1.81,2.63-2.55,4-3.39,6.36-4.63,13.25-4.86,20.38a1.16,1.16,0,0,0,.31-.53c1.08-5.1,2.21-10.18,5.2-14.61a4,4,0,0,0,.59-1.5c.45-2.6.85-5.2,1.27-7.8ZM226.11,311A82.46,82.46,0,0,0,211.62,323a51.25,51.25,0,0,0-13.24,25.28,23,23,0,0,0-.27,3.07h10.56c.09-1,.16-1.72.23-2.48a57.32,57.32,0,0,1,8.58-25.85c2.23-3.54,5-6.71,7.54-10.07a13.68,13.68,0,0,0,1-2l.16,0Zm-28.38,44.29c.26,1.73.42,3,.65,4.3a40.84,40.84,0,0,0,11.28,21.3,54.21,54.21,0,0,0,11.3,8.94,4.37,4.37,0,0,0,4,.55c-4.45-5.19-9-10-11.94-16s-3.42-12.64-4.17-19.1Zm3.69-1.55v.06h4.73v-.06Zm9.16,6.14V359h-.1Z"/><path class="cls-1" d="M257.44,300.66a9.14,9.14,0,0,1,2.35-.25c13.25,2.1,23.64,8.51,30.85,20a51.24,51.24,0,0,1,7.45,22.84,65.58,65.58,0,0,1-7.59,38.32c-5.25,9.64-13.36,15.56-23.62,18.86-1.55.49-3.12.92-4.68,1.39,0,0,0,.12-.13.38,2.25.5,4.43.12,6.63-.07s4.18-1.71,7-.29a10.27,10.27,0,0,1-2.12,1.4,35.27,35.27,0,0,1-16.62.71,4.13,4.13,0,0,1-1.71-.68,1.22,1.22,0,0,1,.22-2.23,13,13,0,0,1,2.7-.72c5.1-1.09,10.16-2.22,14.85-4.68a36.76,36.76,0,0,0,16.1-16c7.61-14.63,9.13-30,5.08-45.78a42,42,0,0,0-19.15-26c-4.5-2.77-9.58-4-14.69-5.15C259.28,302.45,257.92,302.58,257.44,300.66Z"/><path class="cls-1" d="M264.47,290.26l1.2,2.87c-.14.24-.22.59-.44.76-4.3,3.31-8.91,5.89-14.49,6.18a3.75,3.75,0,0,1-1.38,0c-.44-.18-1-.57-1.11-1a1.6,1.6,0,0,1,.72-1.25,6.9,6.9,0,0,1,2-.6c4.61-1,8.92-2.6,12.12-6.34C263.33,290.61,263.85,290.54,264.47,290.26Z"/><path class="cls-1" d="M180.66,361.74c.19-5.89-.11-11.82,1.31-17.62,1.12,1.43.23,2.93.24,4.38s-.18,2.95-.27,4.42-.1,3.11-.26,4.66S181.8,360.48,180.66,361.74Z"/><path class="cls-1" d="M297.61,380.66c.47.94,1,1.62.88,1.85a4.32,4.32,0,0,1-1.62,1.28c-.07,0-.9-.84-.81-1.07A10.23,10.23,0,0,1,297.61,380.66Z"/><path class="cls-1" d="M305.34,341.14c-.28.91-.84,1.37-1.69.8a1.35,1.35,0,0,1-.09-1.32C304.31,339.9,304.93,340.28,305.34,341.14Z"/><path class="cls-1" d="M349.31,371.41l2.43.4a2.14,2.14,0,0,1-1.68,2.64,2.07,2.07,0,0,1-1.34-.42A21.35,21.35,0,0,1,349.31,371.41Z"/><path class="cls-1" d="M377.33,338.07c1.35,1.44,1.35,1.45-.15,2.83C375.57,339.58,375.57,339.51,377.33,338.07Z"/></svg>